<svg width="24" height="24" viewBox="0 0 24 24" fill="none" xmlns="http://www.w3.org/2000/svg">
    <g filter="url(#enfefgwcya)">
        <circle cx="12" cy="12" r="12" fill="#000" fill-opacity=".3"/>
    </g>
    <path d="m6.387 14.891-.012 2.231a.508.508 0 0 0 .143.36.476.476 0 0 0 .345.143l2.287-.012a.477.477 0 0 0 .346-.143l7.986-7.92a.508.508 0 0 0 0-.707l-2.29-2.325a.502.502 0 0 0-.702 0l-1.598 1.617-6.363 6.406a.534.534 0 0 0-.142.35zm8.46-7.316 1.61 1.616-.906.91-1.61-1.616.907-.91zm-7.234 7.532 5.625-5.915 1.608 1.616-5.888 5.586-1.359.012.014-1.299z" fill="#fff"/>
    <defs>
        <filter id="enfefgwcya" x="-12" y="-12" width="48" height="48" filterUnits="userSpaceOnUse" color-interpolation-filters="sRGB">
            <feFlood flood-opacity="0" result="BackgroundImageFix"/>
            <feGaussianBlur in="BackgroundImageFix" stdDeviation="6"/>
            <feComposite in2="SourceAlpha" operator="in" result="effect1_backgroundBlur_1675_22"/>
            <feBlend in="SourceGraphic" in2="effect1_backgroundBlur_1675_22" result="shape"/>
        </filter>
    </defs>
</svg>
