<svg width="32" height="32" viewBox="0 0 32 32" fill="none" xmlns="http://www.w3.org/2000/svg">
    <path d="m10.178 13.506-.9.86h15.864c.278 0 .54.107.731.29.19.183.293.427.293.676 0 .25-.103.493-.293.676-.19.183-.453.29-.731.29H9.278l.9.86 3.506 3.356c.096.091.17.198.22.314a.917.917 0 0 1-.22 1.043l-.002.003a1.028 1.028 0 0 1-.335.216l.186.464-.185-.464a1.077 1.077 0 0 1-.801 0l-.186.464.186-.464a1.028 1.028 0 0 1-.334-.216l-.002-.001-6.093-5.857a.96.96 0 0 1-.207-.314l-.004-.01a.913.913 0 0 1 0-.72l.004-.01a.96.96 0 0 1 .207-.314l6.093-5.857c.192-.184.457-.291.736-.291.28 0 .544.107.736.291l.345-.358-.345.358a.943.943 0 0 1 .295.68c0 .251-.104.496-.295.68l-3.505 3.355z" fill="#000" stroke="#000"/>
</svg>
