<svg width="24" height="24" viewBox="0 0 24 24" fill="none" xmlns="http://www.w3.org/2000/svg">
<path d="M13.1193 12.499L15.8723 9.747C15.9494 9.66393 15.9913 9.55419 15.9892 9.44086C15.9871 9.32753 15.9411 9.21942 15.861 9.13927C15.7808 9.05911 15.6727 9.01315 15.5594 9.01105C15.4461 9.00895 15.3363 9.05087 15.2533 9.128L12.5003 11.881L9.74726 9.128C9.66419 9.05087 9.55445 9.00895 9.44112 9.01105C9.32779 9.01315 9.21968 9.05911 9.13952 9.13927C9.05937 9.21942 9.01341 9.32753 9.01131 9.44086C9.00921 9.55419 9.05113 9.66393 9.12826 9.747L11.8813 12.499L9.12826 15.253C9.08511 15.2931 9.05048 15.3414 9.02644 15.3952C9.0024 15.4489 8.98945 15.507 8.98836 15.5659C8.98727 15.6247 8.99806 15.6832 9.02009 15.7378C9.04212 15.7924 9.07493 15.8421 9.11657 15.8837C9.15821 15.9253 9.20781 15.9581 9.26242 15.9802C9.31703 16.0022 9.37552 16.013 9.4344 16.0119C9.49327 16.0108 9.55133 15.9979 9.60508 15.9738C9.65884 15.9498 9.70719 15.9152 9.74726 15.872L12.5003 13.119L15.2533 15.872C15.3363 15.9491 15.4461 15.991 15.5594 15.9889C15.6727 15.9868 15.7808 15.9409 15.861 15.8607C15.9411 15.7806 15.9871 15.6725 15.9892 15.5591C15.9913 15.4458 15.9494 15.3361 15.8723 15.253L13.1193 12.499Z" fill="white"/>
</svg>
