<svg width="24" height="24" viewBox="0 0 24 24" fill="none" xmlns="http://www.w3.org/2000/svg">
    <g clip-path="url(#p3xjlkzh5a)" fill="#777">
        <path d="M11.982 8.63a.384.384 0 0 0-.242.082L4.21 14.88a.247.247 0 0 0 .021.396.399.399 0 0 0 .464 0l7.291-5.972 7.29 5.973a.397.397 0 0 0 .485.023.245.245 0 0 0 .027-.396l-.018-.015h-.01l-7.534-6.176a.38.38 0 0 0-.245-.082z"/>
        <path d="M19.78 16.5c.294.003.581-.093.816-.271a.981.981 0 0 0 .097-1.5l-.081-.072-7.767-6.84a1.135 1.135 0 0 0-.872-.317c-.31-.001-.61.108-.846.309L3.34 14.662a.986.986 0 0 0 .048 1.538 1.33 1.33 0 0 0 1.637 0l6.962-6.127 6.934 6.1c.233.216.541.334.86.327zm.345-1.398c.014.01.027.022.04.034l-.04-.034z"/>
    </g>
    <defs>
        <clipPath id="p3xjlkzh5a">
            <path fill="#fff" transform="matrix(1 0 0 -1 0 24)" d="M0 0h24v24H0z"/>
        </clipPath>
    </defs>
</svg>
