<svg width="235" height="230" viewBox="0 0 235 230" fill="none" xmlns="http://www.w3.org/2000/svg">
    <path d="m125.764 118.654-2.155 13.421 16.614-3.494-14.459-9.927z" fill="#A5D8DB"/>
    <path d="m154.812 148.045-3.011 6.575 9.012.569-6.001-7.144z" fill="#FFC7CE"/>
    <path d="m218.771 72.129 1.834 9.278 13.742-8.86-15.576-.418z" fill="#E05F55"/>
    <path d="m162.234 98.078-4.855-4.881-3.518 7.844 8.373-2.963z" fill="#19A2A5"/>
    <path d="m124.015 177.951-5.644 4.521 7.799 4.556-2.155-9.077z" fill="#E05F55"/>
    <path d="m126.17 160.663 4.242-4.62v5.175l-4.242-.555zM100.53 54.04l-5.69 2.198 6.759 7.743-1.069-9.942z" fill="#F5BB4C"/>
    <path d="m80.848 59.008-5.721 4.445 6.373 3.76-.652-8.205z" fill="#E05F55"/>
    <path d="m87.273 84.129-4.763-1.376.526 6.168 4.237-4.792z" fill="#F7D7D0"/>
    <path d="m32.935 178.613 1.47-6.098 2.51 4.524-3.98 1.574z" fill="#19A2A5"/>
    <path d="m91.166 123.64-7.47 5.803 8.32 4.908-.85-10.711z" fill="#A5D8DB"/>
    <path opacity=".1" d="M131.474 227.854c-.2-.376-.4-.753-.598-1.131-.043-.085-.249-.399-.241-.473.149-1.299.166-2.671-.063-4.093a12.072 12.072 0 0 0-.374-1.604c-1.631-1.921-3.752-2.527-5.639-2.886-2-.382-4.059-.558-6.057-1.902a7.405 7.405 0 0 1-2.215-2.338c-.796-1.332-1.674-2.847-2.229-4.295-1.014-2.649-.406-5.173.374-7.147.772-1.959 1.797-3.849 1.78-6.303.121-.644.102-1.322-.176-1.848a.51.51 0 0 0-.058-.123c-.012-.051-.019-.102-.033-.152-.736-.758-1.593-1.204-2.433-1.506-1.788-.644-3.687-.721-5.395-2.186-1.122-.963-1.834-2.28-2.558-3.632-.796-1.486-1.638-2.948-2.044-4.56-.767-3.043-.048-5.755.951-7.958-.039.084.777 1.433.862 1.59.096.181.902 1.465.839 1.602-.881 1.943-1.534 4.23-1.17 6.851.084.613.232 1.235.432 1.848l.017.051c.712.885 1.549 1.542 2.444 1.959 1.793.84 3.639.799 5.41 1.964.912.601 1.578 1.467 2.15 2.519.733 1.352 1.641 2.785 2.085 4.25 1.768 5.839-2.937 8.686-2.225 14.166.043.328.113.642.2.956.036.038.07.077.106.113.869.895 1.885 1.472 2.879 1.865 2.029.806 3.996.809 6.013 1.409 1.057.314 2.148.797 3.13 1.632 1.168.996 1.867 2.343 2.618 3.745.811 1.52 1.58 2.936 1.918 4.584.328 1.605.328 3.161.159 4.619.025-.205-.736-1.354-.861-1.591l.002.005z" fill="#19A2A5"/>
    <path d="m82.523 141.151 1.468-6.095 2.511 4.524-3.979 1.571z" fill="#F7D7D0"/>
    <path d="m105.172 85.836 3.984 9.744 9.577-9.008-13.561-.736z" fill="#FFC7CE"/>
    <path d="m211.508 8.63 6.746 2.605.02-9.032-6.766 6.426zM162.234 98.078l-4.855-4.881-3.518 7.844 8.373-2.963z" fill="#19A2A5"/>
    <path d="m85.44 161.461-5.643 4.522 7.799 4.556-2.155-9.078zM142.758 8.76l-6.078-1.545 4.555-2.454 1.523 3.998z" fill="#E05F55"/>
    <path d="m187.068 162.032-.714-4.954-5.456 3.05 6.17 1.904z" fill="#A5D8DB"/>
    <path d="m195.873 130.123 3.533 8.774 7-6.657-10.533-2.117z" fill="#19A2A5"/>
    <path d="m7.905 153.18-6.095-3.892L0 158.136l7.905-4.956zM68.049 30.727l11.447-7.441-11.372-8.064-.075 15.505z" fill="#A5D8DB"/>
    <path d="m87.273 84.129-4.763-1.376.526 6.168 4.237-4.792z" fill="#F7D7D0"/>
    <path d="m32.935 178.613 1.47-6.098 2.51 4.524-3.98 1.574z" fill="#19A2A5"/>
    <path d="m58.886 95.725-3.859 8.636 14.213.608-10.354-9.244z" fill="#FFC7CE"/>
    <path d="m157.379 44.204 6.358-6.923v7.755l-6.358-.832z" fill="#F5BB4C"/>
    <path d="m82.523 141.151 1.468-6.095 2.511 4.524-3.979 1.571z" fill="#F7D7D0"/>
    <path d="m134.146 60.535.058 5.154 5.982-2.374-6.04-2.78z" fill="#A5D8DB"/>
    <path d="m153.848 169.742-3.291 5.881 6.821.912-3.53-6.793zM113.887 32.781l-4.871.582 2.857 5.417 2.014-5.999z" fill="#19A2A5"/>
    <path d="m104.062 149.041.058 5.152 5.982-2.374-6.04-2.778z" fill="#FFC7CE"/>
    <path d="m60.467 144.968-.727-4.409 2.903 2.273-2.176 2.136zM40.572 103.409l1.217-5.007-6.383.826 5.166 4.181z" fill="#F5BB4C"/>
    <path d="m9.93 58.437 4.104-3.113-5.468-3.393 1.364 6.506z" fill="#19A2A5"/>
    <path d="m178.065 129.18-3.979 2.87 5.127 3.354-1.148-6.224z" fill="#F7D7D0"/>
    <path d="m109.94 119.391-3.762-4.748 4.937.784-1.175 3.964z" fill="#F5BB4C"/>
    <path d="m20.107 73.397-.027 6.74 6.407-2.513-6.38-4.227z" fill="#A5D8DB"/>
    <path d="m101.115 13.44-.726-4.409 2.902 2.273-2.176 2.136zM146.496 39.523c-.265.135-.531.265-.791.39-1.014.49-2.145.618-3.255.493-2.317-.258-4.071-1.571-6.021-2.705-1.001-.582-2.104-1.093-3.286-1.076a4.053 4.053 0 0 0-.661.063 7.447 7.447 0 0 0-.883 1.076c-1.651 2.44-2.423 5.605-2.954 8.462-.034.18-1.021.594-1.189.69-.283.16-.565.319-.847.475-.051.027-.348.152-.355.191.485-2.616 1.187-5.371 2.492-7.71.563-1.008 1.284-1.956 2.261-2.596.215-.14.437-.272.659-.4-.183-.075 1.494-.98 1.499-.842.417-.237.842-.47 1.303-.606 2.195-.642 4.186.803 5.948 1.909 1.85 1.16 4.017 2.053 6.244 1.677a4.38 4.38 0 0 0 .357-.073c.206-.207.396-.427.568-.675.627-.908.977-1.977 1.196-3.05.449-2.184.321-4.44.823-6.617.249-1.071.63-2.14 1.291-3.03.753-1.011 1.846-1.552 2.922-2.158.936-.526 1.815-1.016 2.903-1.129 1.023-.106 2.058.056 3.06.263 2.504.519 4.85 1.214 7.415.591.511-.123 1.011-.29 1.498-.487a10.153 10.153 0 0 0 2.845-3.31c.031-.059.328-.199.345-.208.28-.164.562-.324.842-.483.283-.16.565-.318.847-.475.073-.041.321-.126.355-.19-1.033 1.918-2.567 3.177-4.351 4.265.213-.065-1.703 1.04-1.583.903-1.831.975-3.691 1.691-5.844 1.621-2.181-.07-4.239-.936-6.404-1.131a6.541 6.541 0 0 0-2.114.15c-.082.088-.161.18-.236.274a6.188 6.188 0 0 0-.842 1.431c-.91 2.095-.883 4.382-1.12 6.61-.229 2.147-.728 4.538-2.531 5.94a12.2 12.2 0 0 1-1.453.956c-.333.197-.738.42-.958.516l.005.005zm7.671-16.228a5.436 5.436 0 0 0-.277.24c-.032.028-.061.06-.09.089.932-.461.896-.753.367-.328z" fill="#FFC7CE"/>
    <path d="M46.934 59.075c-2.592-.106-5.005-.922-6.933-2.679-1.071-.974-2.324-1.94-3.122-3.17-.628-.965-.934-2.09-1.006-3.231-.15-2.305.518-4.568.719-6.848.103-1.18.135-2.464-.331-3.579a7.993 7.993 0 0 0-1.667-.448c-2.58-.418-5.203.301-7.773-.222-1.196-.244-2.091-.809-2.972-1.574.053.234-1.86-1.542-1.863-1.703-.623-.623-1.17-1.308-1.48-2.15-1.11-3.026.498-6.047 2.238-8.46-.068.094 2.555 2.152 2.458 2.287-1.573 2.182-3.018 4.764-2.487 7.55.091.486.243.96.46 1.407.932.386 1.965.514 2.968.548 2.664.085 5.483-.574 7.997.623 1.289.612 2.321 1.81 3.335 2.774.97.925 1.498 1.936 1.61 3.287.19 2.338-.508 4.645-.713 6.956-.096 1.103-.091 2.228.193 3.304a6.127 6.127 0 0 0 .717 1.67c2.14 1.223 4.647 1.433 7.08 1.373 2.357-.058 4.85-.312 7.123.475 1.402.485 2.4 1.428 3.467 2.42 1.146 1.067 2.242 2.056 2.87 3.523 1.293 3.016.61 6.339-.051 9.418.026-.123-1.113-1.011-1.24-1.132-.148-.137-1.26-.963-1.22-1.156.585-2.719 1.195-5.583.433-8.331a8.172 8.172 0 0 0-.715-1.772 5.696 5.696 0 0 0-.17-.29c-.792-.405-1.659-.648-2.537-.781-2.447-.37-4.925.012-7.384-.087l-.004-.002zm-7.599-3.564c.135.207.282.405.44.596.59.704.979.504-.44-.596zm18.088 4.76a7.457 7.457 0 0 0-.422-.25c.87.924 1.15.726.422.25zM37.973 157.387c-2.1 1.742-5.007 2.075-7.64 1.995-1.399-.041-2.784-.306-4.183-.333-.695-.014-1.395.048-2.054.282a3.81 3.81 0 0 0-.27.107c-2.493 4.5.234 10.443-3.366 14.576a28.281 28.281 0 0 1-3.61 3.48 9.79 9.79 0 0 1-4.204 1.928c-3.037.593-6.157-.208-8.865-1.6.058.029 1.146-1.134 1.253-1.235.115-.111 1.16-1.27 1.276-1.212 2.382 1.224 5.05 1.986 7.746 1.755a10.095 10.095 0 0 0 3.962-1.18c.178-.097.354-.203.526-.312.205-.294.395-.603.557-.943 1.163-2.452.9-5.251 1.018-7.881.063-1.407.276-2.811.811-4.121.531-1.298 1.383-2.22 2.372-3.183 1.026-.999 2.037-2.21 3.444-2.666 1.348-.439 2.791-.186 4.167-.041 2.678.28 5.634.294 8.11-.91.123-.06.24-.123.36-.188.127-.203.245-.41.347-.637.46-1.023.668-2.141.781-3.253.234-2.338.044-4.746.707-7.026a7.771 7.771 0 0 1 1.8-3.159c.174-.186.35-.374.529-.56.039-.048.128-.142.25-.263.88-.914 1.81-1.817 2.812-2.565 2.085-1.559 4.828-2.147 7.335-1.395-.118-.036-1.124 1.113-1.252 1.236-.145.142-1.088 1.267-1.276 1.211-2.232-.671-4.648-.282-6.631.92-.034.019-.065.041-.097.06a6.695 6.695 0 0 0-.301.492c-.553 1.006-.835 2.131-.99 3.262-.318 2.327-.094 4.715-.62 7.017-.256 1.118-.712 2.187-1.448 3.074-.974 1.18-2.171 2.298-3.349 3.272l-.007-.004zm-14.48 2.205-.171.094c-.138.08-.264.186-.399.263.213-.12.4-.241.57-.359v.002zm.789-.883c-.13.183-.251.369-.362.56.982-.818.938-1.366.362-.56zm15.194-3.065a7.284 7.284 0 0 0 .782-.513c.799-.611.34-.843-.782.516v-.003zM180.091 95.359c-2.738-.558-5.243-2.037-8.042-2.343a6.995 6.995 0 0 0-1.573-.008c-.618.654-1.062 1.458-1.39 2.295-.864 2.22-1.043 4.638-1.846 6.875-.386 1.076-.927 2.116-1.74 2.934-1.247 1.255-3.134 1.967-4.71 2.688-2.775 1.274-6.057.613-8.66-.777-1.581-.845-2.978-2.116-4.763-2.526a5.428 5.428 0 0 0-2.298-.015c-.057.046-.118.089-.173.138-2.864 2.487-3.54 6.447-4.126 9.997-.034.202-1.366.699-1.566.798-.372.186-.744.37-1.115.55-.061.029-.461.177-.466.218.519-3.14 1.074-6.578 3.214-9.078 1.084-1.267 2.447-1.995 3.914-2.727 1.436-.716 2.876-1.556 4.524-1.578 1.646-.021 3.045.804 4.387 1.665 1.339.864 2.695 1.612 4.242 2.042 1.402.388 2.903.545 4.341.277a6.39 6.39 0 0 0 .999-1.235c2.345-3.748 1.194-9.758 5.61-12.092l.311-.166c-.222-.036 1.578-.941 2.158-1.137.711-.33 1.44-.596 2.186-.702 1.298-.183 2.618.09 3.863.456 2.594.765 5.084 2.063 7.842 2.085 1.257.01 2.512-.205 3.704-.606a13.59 13.59 0 0 0 2.003-1.665c2.005-2.029 3.305-4.693 3.436-7.562.007-.164 1.394-.712 1.566-.798.166-.083 1.575-.613 1.583-.768-.116 2.563-1.163 4.968-2.831 6.904-1.988 2.309-4.712 3.59-7.427 4.857-2.229 1.04-4.715 1.494-7.149.999l-.008.005zm-18.548 11.997c.159-.111.313-.227.461-.352.038-.032.074-.065.111-.099-1.53.62-1.46 1.066-.572.451z" fill="#F5BB4C"/>
    <path d="m180.037 54.183 7.408 6.633 4.418-11.606-11.826 4.973zM6.344 4.408 5.615 0l2.903 2.273-2.174 2.135z" fill="#F7D7D0"/>
    <path d="m51.191 119.926-.714-4.953-5.455 3.05 6.17 1.903z" fill="#A5D8DB"/>
    <path d="m16.387 111.44 2.097 6.404 5.291-4.404-7.388-2z" fill="#F7D7D0"/>
    <path d="M110.539 61.662c3.536-3.646 9.386-3.646 12.922 0l3.515 3.625a9 9 0 0 0 8.509 2.498l4.917-1.149c4.945-1.155 9.867 2.008 10.87 6.986l.997 4.95a9 9 0 0 0 5.808 6.702l4.757 1.692c4.785 1.701 7.215 7.023 5.368 11.754l-1.837 4.703a8.999 8.999 0 0 0 1.262 8.777l3.088 3.996c3.105 4.018 2.273 9.809-1.839 12.79l-4.089 2.963a9.002 9.002 0 0 0-3.683 8.067l.437 5.03c.44 5.06-3.391 9.481-8.462 9.766l-5.041.283a9 9 0 0 0-7.46 4.794l-2.352 4.468c-2.365 4.494-7.978 6.143-12.398 3.641l-4.394-2.488a9.002 9.002 0 0 0-8.868 0l-4.394 2.488c-4.42 2.502-10.033.853-12.398-3.641l-2.352-4.468a9 9 0 0 0-7.46-4.794l-5.041-.283c-5.071-.285-8.902-4.706-8.462-9.766l.437-5.03a9.002 9.002 0 0 0-3.683-8.067l-4.089-2.963c-4.111-2.981-4.944-8.772-1.839-12.79l3.088-3.996a9 9 0 0 0 1.262-8.777l-1.837-4.704c-1.847-4.73.583-10.052 5.368-11.753l4.758-1.692a9 9 0 0 0 5.807-6.702l.997-4.95c1.004-4.978 5.925-8.141 10.87-6.986l4.917 1.15a9 9 0 0 0 8.509-2.5l3.515-3.624z" fill="#1AA05E"/>
    <path d="M109.548 136.538a4.62 4.62 0 0 1-3.347-1.44l-17.163-18.117a4.608 4.608 0 0 1-1.263-3.296 4.614 4.614 0 0 1 4.734-4.486 4.612 4.612 0 0 1 3.224 1.438l13.815 14.578 28.72-30.314a4.62 4.62 0 0 1 5.05-1.221 4.62 4.62 0 0 1 2.599 2.465 4.615 4.615 0 0 1-.953 5.107l-32.068 33.846a4.615 4.615 0 0 1-3.348 1.44z" fill="#FAF7F5"/>
</svg>
