<svg xmlns="http://www.w3.org/2000/svg" width="224" height="140" viewBox="0 0 224 140">
    <g data-name="Group 20386">
        <path data-name="Rectangle 5140" d="M0 0h224v110a30 30 0 0 1-30 30H30a30 30 0 0 1-30-30V0z" style="fill:#ba3e3e"/>
        <g data-name="Group 20375">
            <path data-name="Path 1" d="M61.572 28.282a6.705 6.705 0 0 1-4.553 4.144 6.587 6.587 0 0 1-2.187 5.719A6.668 6.668 0 0 1 49 36.259a6.672 6.672 0 0 1-6.047.919 6.779 6.779 0 0 1-1.329-6 6.753 6.753 0 0 1-3.8-4.8 6.707 6.707 0 0 1 4.529-4.132 6.752 6.752 0 0 1 2.247-5.72 6.654 6.654 0 0 1 5.8 1.873 6.678 6.678 0 0 1 6.048-.919 6.752 6.752 0 0 1 1.3 6.017 6.765 6.765 0 0 1 3.824 4.785zm-4.361-7.888c-.852-.152-3.583 1.245-4.531 2.578.9-1.368 1.215-4.433.778-5.161a6.253 6.253 0 0 1-1.358 5.075 4.914 4.914 0 0 0-4.071-.324 6.3 6.3 0 0 1-.548-5.246c-.557.651-.73 3.7-.045 5.2-.757-1.458-3.208-3.256-4.071-3.254A6.345 6.345 0 0 1 47.067 23a5.033 5.033 0 0 0-1.513 1.449 5.1 5.1 0 0 0-.808 1.947 6.275 6.275 0 0 1-4.81-2.15c.3.8 2.843 2.491 4.476 2.654-1.633-.1-4.4 1.164-4.85 1.907a6.382 6.382 0 0 1 5.107-1.354 5.047 5.047 0 0 0 1.751 3.72 6.222 6.222 0 0 1-4.263 3.1c.853.152 3.572-1.21 4.521-2.542-.876 1.356-1.2 4.4-.755 5.149a6.348 6.348 0 0 1 1.37-5.112 5.084 5.084 0 0 0 4.083.347 6.243 6.243 0 0 1 .546 5.246c.558-.649.732-3.7.069-5.209.733 1.471 3.209 3.257 4.058 3.231a6.281 6.281 0 0 1-3.725-3.733 5.239 5.239 0 0 0 1.549-1.439 5.006 5.006 0 0 0 .772-1.958 6.3 6.3 0 0 1 4.786 2.163c-.273-.814-2.829-2.468-4.439-2.643 1.62.08 4.4-1.165 4.814-1.919a6.218 6.218 0 0 1-5.071 1.365 5.11 5.11 0 0 0-1.786-3.731 6.348 6.348 0 0 1 4.262-3.095zm-2.5 7.348c.059 0 .095.011.153.01a.535.535 0 0 1-.155-.01zm-2.22 1.52a1.879 1.879 0 0 1-1.073 1.666 1.931 1.931 0 0 1-1.988-.216 1.8 1.8 0 0 1-1.964-.11 1.855 1.855 0 0 1-.822-1.813 1.92 1.92 0 0 1-.892-1.776 1.816 1.816 0 0 1 1.169-1.6 1.9 1.9 0 0 1 3.048-1.474 1.89 1.89 0 0 1 2 .122 1.859 1.859 0 0 1 .786 1.8 1.861 1.861 0 0 1 .891 1.777 1.837 1.837 0 0 1-1.157 1.624zm-2.452-2.427a1.606 1.606 0 0 1-.263-.221 1.685 1.685 0 0 1-.329.172 1.667 1.667 0 0 1-.34.148.892.892 0 0 1 .006.356 1.169 1.169 0 0 1-.053.357 2.805 2.805 0 0 1 .323.161c.095.07.18.175.275.245a1.517 1.517 0 0 1 .292-.183 1.562 1.562 0 0 1 .352-.124v-.357a2.737 2.737 0 0 1 .054-.358c-.104-.07-.223-.131-.319-.197zm2.5-3.671c.035-.048.046-.083.093-.108-.047.025-.046.084-.08.132zm-5.689 8.328a.542.542 0 0 0-.081.132c.011-.036.045-.085.057-.12zm5.042.415c-.012.035.013.083.037.129-.024-.046-.05-.094-.073-.141a.027.027 0 0 0 .038.011zm-7.22-4.958a.413.413 0 0 1-.143-.045.6.6 0 0 0 .154.01c-.022.01-.022.01-.01.034z" transform="translate(24.068 3.843)" style="fill-rule:evenodd;fill:#fff"/>
            <path data-name="Path 2" d="M68.6 58.841A14.826 14.826 0 0 1 58.535 68 14.566 14.566 0 0 1 53.7 80.651a14.746 14.746 0 0 1-12.9-4.167 14.76 14.76 0 0 1-13.374 2.032 15 15 0 0 1-2.938-13.28 14.935 14.935 0 0 1-8.409-10.616 14.833 14.833 0 0 1 10.015-9.139 14.932 14.932 0 0 1 4.969-12.65 14.715 14.715 0 0 1 12.823 4.142 14.768 14.768 0 0 1 13.376-2.032 14.932 14.932 0 0 1 2.882 13.308A14.96 14.96 0 0 1 68.6 58.841zm-9.639-17.446c-1.884-.337-7.925 2.754-10.021 5.7 1.988-3.025 2.688-9.8 1.721-11.414.5 4.635-.412 8.217-3 11.224a10.868 10.868 0 0 0-9-.716c-2.1-3.4-2.417-7.069-1.211-11.6-1.232 1.439-1.616 8.185-.1 11.492-1.673-3.224-7.1-7.2-9-7.2 4.238 1.951 6.9 4.53 8.185 8.288a11.11 11.11 0 0 0-3.345 3.2 11.252 11.252 0 0 0-1.786 4.3c-3.97.092-7.314-1.4-10.638-4.755.657 1.771 6.287 5.509 9.9 5.87-3.613-.229-9.732 2.574-10.726 4.217 3.848-2.739 7.362-3.716 11.3-2.994a11.161 11.161 0 0 0 3.86 8.238c-1.879 3.493-4.847 5.642-9.428 6.846 1.886.336 7.9-2.676 10-5.622C33.73 69.467 33 76.193 34 77.856c-.471-4.714.44-8.3 3.029-11.305a11.247 11.247 0 0 0 9.03.768c2.068 3.35 2.468 7.044 1.207 11.6 1.233-1.436 1.618-8.185.154-11.519 1.621 3.252 7.1 7.2 8.975 7.145-4.289-1.923-6.945-4.5-8.237-8.257a11.589 11.589 0 0 0 3.425-3.182 11.078 11.078 0 0 0 1.706-4.331c3.97-.092 7.29 1.48 10.585 4.784-.6-1.8-6.257-5.459-9.818-5.845 3.582.177 9.733-2.576 10.646-4.243-3.771 2.764-7.335 3.768-11.216 3.018a11.3 11.3 0 0 0-3.951-8.252c1.928-3.518 4.924-5.613 9.426-6.842zm-5.535 16.251c.132 0 .21.024.338.021a1.2 1.2 0 0 1-.338-.021zm-4.909 3.362a4.157 4.157 0 0 1-2.373 3.685 4.272 4.272 0 0 1-4.4-.478 3.983 3.983 0 0 1-4.344-.243 4.1 4.1 0 0 1-1.818-4.01 4.246 4.246 0 0 1-1.972-3.929A4.016 4.016 0 0 1 36.2 52.5a4.206 4.206 0 0 1 6.74-3.26 4.179 4.179 0 0 1 4.421.27A4.114 4.114 0 0 1 49.1 53.5a4.116 4.116 0 0 1 1.971 3.93 4.064 4.064 0 0 1-2.554 3.578zm-5.423-5.368a3.551 3.551 0 0 1-.582-.489 3.724 3.724 0 0 1-.727.38 3.68 3.68 0 0 1-.753.326 1.971 1.971 0 0 1 .013.788 2.587 2.587 0 0 1-.118.789 6.275 6.275 0 0 1 .714.356c.21.154.4.388.609.542a3.4 3.4 0 0 1 .647-.4 3.51 3.51 0 0 1 .778-.274c0-.264-.008-.526-.011-.788a6.156 6.156 0 0 1 .119-.791c-.213-.159-.477-.279-.689-.439zm5.538-8.12c.078-.106.1-.184.207-.239-.1.055-.1.186-.178.291zM36.05 65.938a1.2 1.2 0 0 0-.179.293c.025-.08.1-.187.125-.266zm11.15.918c-.027.079.03.184.083.286-.053-.1-.11-.207-.163-.311a.059.059 0 0 0 .08.024zM31.232 55.891a.912.912 0 0 1-.316-.1 1.324 1.324 0 0 0 .341.021c-.052.025-.052.025-.025.079z" transform="translate(15.921 9.92)" style="fill-rule:evenodd;fill:#fff"/>
            <path data-name="Union 2" d="M75.343 58.438a2.975 2.975 0 0 1-.73-2q0-2.97 3.944-7.169l8.045-8.4-.158-.119-12.7 10.337-.276-.277 10.81-8.88 4.6-3.632h-3.532l.157-.4h3.967l6.687-7.01 3.375-.079L93.14 37.9h5.66l-.12.4h-6.03L79.065 52.843q-2.441 2.608-2.934 3.281a2.178 2.178 0 0 0-.492 1.265 1.275 1.275 0 0 0 .493 1.01 1.6 1.6 0 0 0 1.046.416q3.235 0 12.389-8l.276.277q-9.51 8.2-12.745 8.2a2.237 2.237 0 0 1-1.755-.854zm-33.043.079a2.588 2.588 0 0 1-.73-1.842q0-2.93 4.538-8.475t5.84-6.416l-.039-.237a19.827 19.827 0 0 0-4.182 3.053l-7.813 6.5-.276-.277q8.68-7.446 10.16-8.515a15.805 15.805 0 0 1 2.328-1.465 4.979 4.979 0 0 0 1.44-.99q6.707-7.208 12.863-12.832a117.406 117.406 0 0 1 10.515-8.733q4.359-3.109 7.28-3.109a2.594 2.594 0 0 1 1.8.654 1.919 1.919 0 0 1 .73 1.446q0 2.3-5.051 6.832a83.351 83.351 0 0 1-12.508 9.05q-7.457 4.515-11.443 5.664-.908 1.069-3.354 3.723l-3.156 3.485-3.985 4.753q-4.143 4.951-4.419 6.3v.356q0 1.307 1.46 1.307 3.393 0 12.271-7.921l.276.277-2.407 2.06q-7.182 6.14-10.416 6.139a2.288 2.288 0 0 1-1.722-.787zm36.064-40.6q-3.372 2.283-10.336 9.53T58.3 38.22q3.156-1.03 10.712-5.485a72.348 72.348 0 0 0 12.37-8.911q4.818-4.457 4.818-6.556a1.451 1.451 0 0 0-.592-1.129 2.259 2.259 0 0 0-1.5-.5q-2.369.005-5.742 2.283zm11.858 37.8q0-4.475 6.1-8.436t9.529-3.961a1.7 1.7 0 0 1 1.085.357 1.074 1.074 0 0 1 .454.871q0 1.941-3.837 4.079a22.284 22.284 0 0 1-8.5 2.654q-4.035 4.04-4.035 5.545a1.756 1.756 0 0 0 .71 1.327 2.458 2.458 0 0 0 1.658.614 14.962 14.962 0 0 0 5.82-1.8 42.14 42.14 0 0 0 8.818-6.159l.276.277a39.066 39.066 0 0 1-8.623 6.08 15.485 15.485 0 0 1-6.22 1.881q-3.234.006-3.234-3.321zm13.468-11.355a27.565 27.565 0 0 0-3.777 2.608 32.313 32.313 0 0 0-4.272 3.923 15.575 15.575 0 0 0 4.193-1.035 16.122 16.122 0 0 0 5-2.669q2-1.633 2-2.708 0-.757-.87-.757a5.068 5.068 0 0 0-2.274.638zM2.861 55.9A10.34 10.34 0 0 1 0 48.754Q0 41.706 6.569 35.7t22-8.733a7.722 7.722 0 0 1-1.776-2.931 53.67 53.67 0 0 1-10.574 1.347q-6.432 0-9.923-2.852T2.8 16.119q0-7.089 8.167-11.6A38.176 38.176 0 0 1 29.751 0v.277q-11.4 0-18.7 5.18t-7.3 11.269q0 3.2 3.314 5.734t9.667 2.53a49.331 49.331 0 0 0 10.062-1.3 8.993 8.993 0 0 1-.434-2.61q0-4.231 3.61-8.4t10.989-7.83q7.378-3.657 12.232-3.658a6.694 6.694 0 0 1 3.867 1.03 3.346 3.346 0 0 1 1.5 2.931q0 4.238-8.3 9.822T27.9 23.8a4.2 4.2 0 0 0 1.1 3.132l.981-.04a12.146 12.146 0 0 1 4.552.654q1.53.653 1.53 1.485a1.034 1.034 0 0 1-.533.871 2.051 2.051 0 0 1-1.164.357q-2.959 0-5.564-2.931a30.488 30.488 0 0 0-19.314 10.1Q1.972 45.9 1.973 51.923A5.987 5.987 0 0 0 4.5 56.715a10.9 10.9 0 0 0 6.984 2.02q8.4 0 17.025-5.188t8.62-11.327a4.448 4.448 0 0 0-1.42-3.367 5.394 5.394 0 0 0-3.867-1.346q-6.117 0-13.514 4.693A38.322 38.322 0 0 0 6.747 53.151l-.276-.159A39.916 39.916 0 0 1 18.091 42q7.4-4.772 13.593-4.772a6.114 6.114 0 0 1 4.4 1.525 4.758 4.758 0 0 1 1.6 3.544q0 6.3-8.9 11.525t-17.1 5.228q-5.963.002-8.823-3.15zm26.416-28.612a7.111 7.111 0 0 0 5.129 2.654q1.262 0 1.263-.871 0-.911-1.717-1.386a12.206 12.206 0 0 0-3.255-.475q-.473-.001-1.42.078zm8.53-18.165q-8.887 7.539-9.871 14.328 14.383-3.473 22.3-8.841t7.92-9.671a2.832 2.832 0 0 0-1.336-2.427 6.12 6.12 0 0 0-3.547-.928q-6.581 0-15.466 7.54zm20.5 49.057a2.345 2.345 0 0 1-.612-1.7 6.247 6.247 0 0 1 1.008-3.188q1.008-1.684 7.569-8.02l-.081-.2-3.636 2.772-3.912 3.248-.277-.277q1.935-1.663 9.758-7.763h3.824L59.436 55.408a3.746 3.746 0 0 0-.947 1.426v.277a1.252 1.252 0 0 0 .395.911 1.334 1.334 0 0 0 .986.4 8.233 8.233 0 0 0 3.571-1.287 60.361 60.361 0 0 0 8.069-6.317l.276.277q-8.8 7.723-11.876 7.723a2.121 2.121 0 0 1-1.599-.637zm16.552-21.287a1.421 1.421 0 0 1-.391-1.01 2.306 2.306 0 0 1 2.146-2.1 1.256 1.256 0 0 1 .975.436 1.494 1.494 0 0 1 .39 1.03 1.848 1.848 0 0 1-.7 1.466 2.266 2.266 0 0 1-1.483.594 1.238 1.238 0 0 1-.937-.416z" transform="translate(81.596 32.131)" style="stroke:#fff;stroke-miterlimit:10;stroke-width:.297px;fill:#fff"/>
            <path data-name="Rectangle 1" transform="translate(36.614 95.687)" style="fill:#fff" d="M0 0h154.854v1.228H0z"/>
            <path data-name="Path 39712" d="m4.184-12.8 3.691 9.812 3.683-9.812h2.874V0h-2.215v-4.219l.22-5.643L8.657 0H7.066L3.3-9.853l.22 5.634V0H1.3v-12.8zM22.535 0a3.3 3.3 0 0 1-.246-.888 3.325 3.325 0 0 1-2.5 1.063 3.355 3.355 0 0 1-2.338-.817 2.615 2.615 0 0 1-.905-2.021A2.7 2.7 0 0 1 17.679-5a5.473 5.473 0 0 1 3.23-.813h1.31v-.624a1.666 1.666 0 0 0-.413-1.182 1.638 1.638 0 0 0-1.257-.444 1.881 1.881 0 0 0-1.2.365 1.129 1.129 0 0 0-.466.927h-2.131a2.37 2.37 0 0 1 .519-1.463 3.455 3.455 0 0 1 1.41-1.066 4.955 4.955 0 0 1 1.991-.387 3.99 3.99 0 0 1 2.663.839 2.993 2.993 0 0 1 1.02 2.36V-2.2a4.861 4.861 0 0 0 .36 2.048V0zm-2.347-1.538a2.429 2.429 0 0 0 1.191-.308 2.055 2.055 0 0 0 .839-.826v-1.793h-1.151a3.148 3.148 0 0 0-1.784.413 1.338 1.338 0 0 0-.6 1.169 1.248 1.248 0 0 0 .409.98 1.583 1.583 0 0 0 1.096.365zm9.079-10.283v2.311h1.679v1.582h-1.678v5.309a1.169 1.169 0 0 0 .215.787 1 1 0 0 0 .769.242A3.29 3.29 0 0 0 31-1.679v1.653a5.26 5.26 0 0 1-1.406.2q-2.461 0-2.461-2.716v-5.386h-1.566V-9.51h1.564v-2.312zm8.288 4.263a5.285 5.285 0 0 0-.87-.07A1.959 1.959 0 0 0 34.708-6.5V0h-2.136v-9.51h2.039l.053 1.063a2.406 2.406 0 0 1 2.145-1.239 2 2 0 0 1 .756.123zM41.177 0h-2.136v-9.51h2.136zm-2.268-11.979a1.133 1.133 0 0 1 .312-.817 1.179 1.179 0 0 1 .892-.325 1.193 1.193 0 0 1 .9.325 1.125 1.125 0 0 1 .316.817 1.1 1.1 0 0 1-.316.8 1.2 1.2 0 0 1-.9.321 1.188 1.188 0 0 1-.892-.321 1.107 1.107 0 0 1-.312-.8zm6.6 2.47.062.993a3.422 3.422 0 0 1 2.742-1.169 2.629 2.629 0 0 1 2.61 1.459 3.373 3.373 0 0 1 2.918-1.459 2.965 2.965 0 0 1 2.342.87 3.831 3.831 0 0 1 .787 2.566V0h-2.135v-6.187a1.891 1.891 0 0 0-.4-1.327 1.731 1.731 0 0 0-1.31-.422 1.778 1.778 0 0 0-1.191.391 2.063 2.063 0 0 0-.646 1.024L51.3 0h-2.134v-6.258a1.523 1.523 0 0 0-1.714-1.679 1.88 1.88 0 0 0-1.819 1.046V0H43.5v-9.51zm13.255 4.666a5.607 5.607 0 0 1 .554-2.518 4.044 4.044 0 0 1 1.556-1.723 4.383 4.383 0 0 1 2.3-.6A4.154 4.154 0 0 1 66.3-8.446a4.874 4.874 0 0 1 1.3 3.287l.009.5a5.658 5.658 0 0 1-.541 2.514 4 4 0 0 1-1.55 1.714 4.415 4.415 0 0 1-2.325.606 4.125 4.125 0 0 1-3.221-1.34 5.133 5.133 0 0 1-1.208-3.573zm2.136.185a3.832 3.832 0 0 0 .606 2.3 1.971 1.971 0 0 0 1.688.831 1.95 1.95 0 0 0 1.683-.844 4.232 4.232 0 0 0 .6-2.47 3.782 3.782 0 0 0-.62-2.285 1.979 1.979 0 0 0-1.683-.844 1.96 1.96 0 0 0-1.661.831 4.152 4.152 0 0 0-.613 2.481zM71.394-9.51l.062 1.1a3.419 3.419 0 0 1 2.769-1.274q2.971 0 3.023 3.4V0h-2.137v-6.161A1.958 1.958 0 0 0 74.72-7.5a1.645 1.645 0 0 0-1.279-.435 2.058 2.058 0 0 0-1.925 1.169V0h-2.135v-9.51zm11.355 6.451 1.934-6.451h2.276L83.18 1.441q-.87 2.4-2.953 2.4a3.826 3.826 0 0 1-1.027-.158V2.03l.4.026a2.078 2.078 0 0 0 1.217-.294 1.952 1.952 0 0 0 .646-.989l.308-.817-3.337-9.466h2.3z" transform="translate(104 115)" style="fill:#fff"/>
        </g>
    </g>
</svg>
