<svg width="106" height="110" viewBox="0 0 106 110" fill="none" xmlns="http://www.w3.org/2000/svg">
    <g filter="url(#wk3c0stmta)">
        <rect x="12" y="12" width="74" height="77.895" rx="8" fill="url(#3b69mfvy5b)"/>
        <rect x="12.5" y="12.5" width="73" height="76.895" rx="7.5" stroke="url(#cs7l1bd1wc)"/>
    </g>
    <g clip-path="url(#ujwwah4lhd)">
        <path d="M68.08 27.098H27.973a2.987 2.987 0 0 0-2.987 2.986v46.08a2.987 2.987 0 0 0 2.987 2.987H68.08a2.987 2.987 0 0 0 2.986-2.987v-46.08a2.987 2.987 0 0 0-2.986-2.986z" fill="url(#5q6nbi9bze)"/>
        <g filter="url(#z6zfzvfpjf)">
            <path d="M68.08 27.738H27.972a2.347 2.347 0 0 0-2.347 2.347v46.08a2.347 2.347 0 0 0 2.347 2.347h40.106a2.347 2.347 0 0 0 2.347-2.347v-46.08a2.347 2.347 0 0 0-2.347-2.347z" fill="url(#xjqj13kxfg)"/>
            <path d="M27.973 28.638h40.106c.8 0 1.447.648 1.447 1.447v46.08c0 .799-.648 1.447-1.447 1.447H27.973a1.447 1.447 0 0 1-1.447-1.447v-46.08c0-.799.648-1.447 1.447-1.447z" stroke="url(#8000t9yjwh)" stroke-width="1.8"/>
        </g>
        <g filter="url(#tks00otvpi)">
            <path d="M54.143 48.256a.01.01 0 0 1-.003.007 3.477 3.477 0 0 1-3.543 1.013 7.234 7.234 0 0 0-4.224.072 3.48 3.48 0 0 1-3.58-.896A7.29 7.29 0 0 0 39.1 46.4a3.474 3.474 0 0 1-2.65-2.564 7.305 7.305 0 0 0-2.176-3.627 3.478 3.478 0 0 1-1.015-3.546 7.235 7.235 0 0 0-.073-4.223 3.48 3.48 0 0 1 .896-3.58 7.26 7.26 0 0 0 2.052-3.695 3.486 3.486 0 0 1 2.565-2.654 7.273 7.273 0 0 0 3.622-2.176 3.477 3.477 0 0 1 3.546-1.015 7.234 7.234 0 0 0 4.224-.073 3.49 3.49 0 0 1 3.58.896 7.26 7.26 0 0 0 3.694 2.052 3.474 3.474 0 0 1 2.65 2.564 7.274 7.274 0 0 0 2.176 3.623 3.477 3.477 0 0 1 1.015 3.545 7.235 7.235 0 0 0 .073 4.224 3.48 3.48 0 0 1-.896 3.58 7.291 7.291 0 0 0-2.052 3.695 3.474 3.474 0 0 1-2.565 2.65 7.273 7.273 0 0 0-3.62 2.173.01.01 0 0 0-.002.007z" fill="url(#3hljkw0kvj)"/>
            <path d="M53.67 20.143a7.26 7.26 0 0 0 3.694 2.052 3.474 3.474 0 0 1 2.65 2.564L42.32 20.335a3.477 3.477 0 0 1 3.546-1.015 7.234 7.234 0 0 0 4.224-.073 3.49 3.49 0 0 1 3.58.896zm0 0-.648.626m.647-.626-.646.626m0 0a8.16 8.16 0 0 0 4.152 2.306h.002a2.574 2.574 0 0 1 1.963 1.9l.001.003a8.174 8.174 0 0 0 2.445 4.071l.002.002a2.577 2.577 0 0 1 .752 2.629 8.134 8.134 0 0 0 .082 4.748l-9.4-15.659zm-2.178 27.642a2.578 2.578 0 0 0 2.575-.695.9.9 0 0 1 .058-.071 8.173 8.173 0 0 1 4.069-2.442h.002a2.574 2.574 0 0 0 1.9-1.965v-.001a8.192 8.192 0 0 1 2.306-4.151l.002-.003a2.58 2.58 0 0 0 .665-2.654L50.845 48.41zm0 0a8.135 8.135 0 0 0-4.748.08l4.748-.08zm-7.406-.586.002.002a2.58 2.58 0 0 0 2.655.665l-2.657-.667zm0 0a8.191 8.191 0 0 0-4.15-2.305h-.003m4.153 2.305-4.153-2.305m0 0a2.574 2.574 0 0 1-1.963-1.9v-.003m1.963 1.903-1.964-1.903m0 0a8.204 8.204 0 0 0-2.444-4.074l-.002-.003m2.446 4.077-2.447-4.077m0 0a2.578 2.578 0 0 1-.752-2.628l.753 2.628zm-.168-10.033h-.001a2.58 2.58 0 0 0-.665 2.656 8.135 8.135 0 0 1 .082 4.748l.584-7.404zm0 0a8.16 8.16 0 0 0 2.306-4.153v-.002m-2.306 4.155 2.307-4.155m0 0a2.586 2.586 0 0 1 1.903-1.968l-1.903 1.968zm5.975-4.415a2.577 2.577 0 0 1 2.628-.752l-6.7 3.199a8.173 8.173 0 0 0 4.07-2.445l.002-.002z" stroke="url(#3f92q4l39k)" stroke-width="1.8"/>
        </g>
        <g filter="url(#wet6jgm5vl)">
            <path d="M48.442 31.582c-.098.005-.196-.004-.294-.004-.103 0-.207.009-.31.003-.998-.063-1.937-.435-2.637-1.05-.555-.49-.928-1.107-1.072-1.777a2.986 2.986 0 0 1 .263-1.985c.315-.626.84-1.158 1.51-1.53a4.587 4.587 0 0 1 2.25-.563c1.084 0 2.123.363 2.893 1.013.564.476.95 1.082 1.113 1.744.162.662.093 1.35-.2 1.978-.293.628-.796 1.17-1.447 1.556a4.532 4.532 0 0 1-2.069.615zm-4.758 2.132a.005.005 0 0 0-.006-.003 2.88 2.88 0 0 0-1.223.937 2.277 2.277 0 0 0-.455 1.35c0 .479.158 5.143.455 5.548.298.405.723.73 1.228.94a10.289 10.289 0 0 0 4.612 1.075c1.623 0 3.216-.371 4.612-1.075.505-.21.93-.535 1.228-.94.297-.405.455-5.07.455-5.547 0-.478-.158-.946-.455-1.35a2.881 2.881 0 0 0-1.228-.94 10.379 10.379 0 0 0-4.612-1.06c-1.618.003-3.207.37-4.604 1.067a.005.005 0 0 1-.007-.002z" fill="url(#nmass01p4m)"/>
            <path d="M48.147 25.576a3.688 3.688 0 0 0-1.808.45c-.527.292-.917.698-1.144 1.148a2.087 2.087 0 0 0-.186 1.39c.1.466.364.919.786 1.292.538.471 1.283.775 2.1.826a.87.87 0 0 0 .07 0l.024-.001c.04-.001.103-.004.162-.003.056 0 .116.002.154.004h.022a.84.84 0 0 0 .068.001 3.634 3.634 0 0 0 1.656-.49c.51-.303.882-.713 1.091-1.162.208-.447.254-.925.142-1.384-.113-.461-.389-.907-.82-1.27l-2.317-.801zm0 0h.006m-.006 0h.006m0 0c.888 0 1.717.299 2.311.8l-2.31-.8zm-4.972 9.605c.172-.235.424-.444.74-.594a.923.923 0 0 0 .172-.065 9.475 9.475 0 0 1 4.203-.972 9.481 9.481 0 0 1 4.211.965l.028.013.028.012c.366.152.654.38.846.64.19.26.28.543.28.819 0 .212-.037 1.477-.114 2.747-.038.633-.084 1.25-.138 1.729a7.467 7.467 0 0 1-.093.621c-.19.227-.454.423-.781.559l-.03.012-.03.015a9.39 9.39 0 0 1-4.208.979 9.39 9.39 0 0 1-4.208-.979l-.03-.015-.03-.013a2.022 2.022 0 0 1-.781-.558 7.467 7.467 0 0 1-.093-.621c-.054-.479-.1-1.096-.139-1.73A71.693 71.693 0 0 1 42.9 36c0-.276.09-.559.28-.818zm10.148 5.975a.075.075 0 0 1 0-.001v.001zm-10.068 0v-.001a.075.075 0 0 1 0 .001z" stroke="url(#n2b6o1tcqn)" stroke-width="1.8"/>
        </g>
        <g filter="url(#s3ord6b8do)">
            <path d="M35 56.547h16" stroke="url(#recwii0r6p)" stroke-width="1.8" stroke-linecap="round" shape-rendering="crispEdges"/>
        </g>
        <g filter="url(#mpmcv9gmaq)">
            <path d="M55 56.547h6" stroke="url(#dhhvwtvldr)" stroke-width="1.8" stroke-linecap="round" shape-rendering="crispEdges"/>
        </g>
        <g filter="url(#z06lnfluks)">
            <path d="M35 61.676h27" stroke="url(#44iy1tnwrt)" stroke-width="1.8" stroke-linecap="round" shape-rendering="crispEdges"/>
        </g>
        <g filter="url(#4g1pzgx70u)">
            <path d="M35 67.676h27" stroke="url(#xezovvpe9v)" stroke-width="1.8" stroke-linecap="round" shape-rendering="crispEdges"/>
        </g>
    </g>
    <defs>
        <linearGradient id="3b69mfvy5b" x1="32.492" y1="16.868" x2="51.212" y2="89.323" gradientUnits="userSpaceOnUse">
            <stop stop-color="#F3E5CD"/>
            <stop offset=".521" stop-color="#fff"/>
            <stop offset="1" stop-color="#F9F0D7"/>
        </linearGradient>
        <linearGradient id="cs7l1bd1wc" x1="19.4" y1="21.128" x2="75.72" y2="80.681" gradientUnits="userSpaceOnUse">
            <stop stop-color="#D39E1D"/>
            <stop offset=".177" stop-color="#986105" stop-opacity=".928"/>
            <stop offset=".422" stop-color="#F5BB34"/>
            <stop offset=".661" stop-color="#B47D16" stop-opacity=".482"/>
            <stop offset="1" stop-color="#945C02"/>
        </linearGradient>
        <linearGradient id="5q6nbi9bze" x1="48.12" y1="27.051" x2="48.12" y2="79.104" gradientUnits="userSpaceOnUse">
            <stop stop-color="#EEEFFB"/>
            <stop offset=".47" stop-color="#F7F1F6"/>
            <stop offset=".99" stop-color="#FFF3F1"/>
            <stop offset="1" stop-color="#FFF3F1"/>
        </linearGradient>
        <linearGradient id="xjqj13kxfg" x1="38.032" y1="30.912" x2="51.04" y2="77.673" gradientUnits="userSpaceOnUse">
            <stop stop-color="#F3E5CD"/>
            <stop offset=".521" stop-color="#fff"/>
            <stop offset="1" stop-color="#F9F0D7"/>
        </linearGradient>
        <linearGradient id="8000t9yjwh" x1="30.106" y1="33.688" x2="66.868" y2="69.792" gradientUnits="userSpaceOnUse">
            <stop stop-color="#A3780F"/>
            <stop offset=".156" stop-color="#9A751A"/>
            <stop offset=".177" stop-color="#986105" stop-opacity=".928"/>
            <stop offset=".422" stop-color="#9D7107"/>
            <stop offset=".661" stop-color="#CA870A" stop-opacity=".482"/>
            <stop offset="1" stop-color="#AF710B"/>
        </linearGradient>
        <linearGradient id="3hljkw0kvj" x1="41.443" y1="20.981" x2="48.437" y2="49.468" gradientUnits="userSpaceOnUse">
            <stop stop-color="#F3E5CD"/>
            <stop offset=".521" stop-color="#fff"/>
            <stop offset="1" stop-color="#F9F0D7"/>
        </linearGradient>
        <linearGradient id="3f92q4l39k" x1="36.059" y1="22.645" x2="57.977" y2="47.035" gradientUnits="userSpaceOnUse">
            <stop stop-color="#513A03"/>
            <stop offset=".177" stop-color="#986105" stop-opacity=".928"/>
            <stop offset=".422" stop-color="#9D7107"/>
            <stop offset=".661" stop-color="#CA870A" stop-opacity=".482"/>
            <stop offset="1" stop-color="#533505"/>
        </linearGradient>
        <linearGradient id="nmass01p4m" x1="45.486" y1="25.856" x2="51.562" y2="42.358" gradientUnits="userSpaceOnUse">
            <stop stop-color="#F3E5CD"/>
            <stop offset=".521" stop-color="#fff"/>
            <stop offset="1" stop-color="#F9F0D7"/>
        </linearGradient>
        <linearGradient id="n2b6o1tcqn" x1="43.259" y1="26.889" x2="56.348" y2="36.601" gradientUnits="userSpaceOnUse">
            <stop stop-color="#513A03"/>
            <stop offset=".177" stop-color="#986105" stop-opacity=".928"/>
            <stop offset=".422" stop-color="#9D7107"/>
            <stop offset=".661" stop-color="#CA870A" stop-opacity=".482"/>
            <stop offset="1" stop-color="#533505"/>
        </linearGradient>
        <linearGradient id="recwii0r6p" x1="34.864" y1="56.962" x2="35.139" y2="59.079" gradientUnits="userSpaceOnUse">
            <stop stop-color="#AD7C05"/>
            <stop offset=".474" stop-color="#986105" stop-opacity=".928"/>
            <stop offset="1" stop-color="#835305"/>
        </linearGradient>
        <linearGradient id="dhhvwtvldr" x1="54.949" y1="56.962" x2="55.614" y2="58.885" gradientUnits="userSpaceOnUse">
            <stop stop-color="#AD7C05"/>
            <stop offset=".474" stop-color="#986105" stop-opacity=".928"/>
            <stop offset="1" stop-color="#835305"/>
        </linearGradient>
        <linearGradient id="44iy1tnwrt" x1="34.771" y1="62.09" x2="34.935" y2="64.231" gradientUnits="userSpaceOnUse">
            <stop stop-color="#AD7C05"/>
            <stop offset=".474" stop-color="#986105" stop-opacity=".928"/>
            <stop offset="1" stop-color="#835305"/>
        </linearGradient>
        <linearGradient id="xezovvpe9v" x1="34.771" y1="68.091" x2="34.935" y2="70.231" gradientUnits="userSpaceOnUse">
            <stop stop-color="#AD7C05"/>
            <stop offset=".474" stop-color="#986105" stop-opacity=".928"/>
            <stop offset="1" stop-color="#835305"/>
        </linearGradient>
        <filter id="wk3c0stmta" x="0" y="0" width="106" height="109.895" filterUnits="userSpaceOnUse" color-interpolation-filters="sRGB">
            <feFlood flood-opacity="0" result="BackgroundImageFix"/>
            <feColorMatrix in="SourceAlpha" values="0 0 0 0 0 0 0 0 0 0 0 0 0 0 0 0 0 0 127 0" result="hardAlpha"/>
            <feOffset dx="4" dy="4"/>
            <feGaussianBlur stdDeviation="8"/>
            <feComposite in2="hardAlpha" operator="out"/>
            <feColorMatrix values="0 0 0 0 0 0 0 0 0 0 0 0 0 0 0 0 0 0 0.1 0"/>
            <feBlend in2="BackgroundImageFix" result="effect1_dropShadow_1698_8957"/>
            <feBlend in="SourceGraphic" in2="effect1_dropShadow_1698_8957" result="shape"/>
        </filter>
        <filter id="z6zfzvfpjf" x="11.08" y="13.192" width="83.59" height="89.564" filterUnits="userSpaceOnUse" color-interpolation-filters="sRGB">
            <feFlood flood-opacity="0" result="BackgroundImageFix"/>
            <feColorMatrix in="SourceAlpha" values="0 0 0 0 0 0 0 0 0 0 0 0 0 0 0 0 0 0 127 0" result="hardAlpha"/>
            <feOffset dx="4.849" dy="4.849"/>
            <feGaussianBlur stdDeviation="9.698"/>
            <feComposite in2="hardAlpha" operator="out"/>
            <feColorMatrix values="0 0 0 0 0 0 0 0 0 0 0 0 0 0 0 0 0 0 0.1 0"/>
            <feBlend in2="BackgroundImageFix" result="effect1_dropShadow_1698_8957"/>
            <feBlend in="SourceGraphic" in2="effect1_dropShadow_1698_8957" result="shape"/>
        </filter>
        <filter id="tks00otvpi" x="18.469" y="4.532" width="69.222" height="69.232" filterUnits="userSpaceOnUse" color-interpolation-filters="sRGB">
            <feFlood flood-opacity="0" result="BackgroundImageFix"/>
            <feColorMatrix in="SourceAlpha" values="0 0 0 0 0 0 0 0 0 0 0 0 0 0 0 0 0 0 127 0" result="hardAlpha"/>
            <feOffset dx="4.849" dy="4.849"/>
            <feGaussianBlur stdDeviation="9.698"/>
            <feComposite in2="hardAlpha" operator="out"/>
            <feColorMatrix values="0 0 0 0 0 0 0 0 0 0 0 0 0 0 0 0 0 0 0.1 0"/>
            <feBlend in2="BackgroundImageFix" result="effect1_dropShadow_1698_8957"/>
            <feBlend in="SourceGraphic" in2="effect1_dropShadow_1698_8957" result="shape"/>
        </filter>
        <filter id="wet6jgm5vl" x="27.454" y="10.129" width="51.38" height="57.677" filterUnits="userSpaceOnUse" color-interpolation-filters="sRGB">
            <feFlood flood-opacity="0" result="BackgroundImageFix"/>
            <feColorMatrix in="SourceAlpha" values="0 0 0 0 0 0 0 0 0 0 0 0 0 0 0 0 0 0 127 0" result="hardAlpha"/>
            <feOffset dx="4.849" dy="4.849"/>
            <feGaussianBlur stdDeviation="9.698"/>
            <feComposite in2="hardAlpha" operator="out"/>
            <feColorMatrix values="0 0 0 0 0 0 0 0 0 0 0 0 0 0 0 0 0 0 0.1 0"/>
            <feBlend in2="BackgroundImageFix" result="effect1_dropShadow_1698_8957"/>
            <feBlend in="SourceGraphic" in2="effect1_dropShadow_1698_8957" result="shape"/>
        </filter>
        <filter id="s3ord6b8do" x="19.553" y="41.102" width="56.591" height="40.587" filterUnits="userSpaceOnUse" color-interpolation-filters="sRGB">
            <feFlood flood-opacity="0" result="BackgroundImageFix"/>
            <feColorMatrix in="SourceAlpha" values="0 0 0 0 0 0 0 0 0 0 0 0 0 0 0 0 0 0 127 0" result="hardAlpha"/>
            <feOffset dx="4.849" dy="4.849"/>
            <feGaussianBlur stdDeviation="9.698"/>
            <feComposite in2="hardAlpha" operator="out"/>
            <feColorMatrix values="0 0 0 0 0 0 0 0 0 0 0 0 0 0 0 0 0 0 0.1 0"/>
            <feBlend in2="BackgroundImageFix" result="effect1_dropShadow_1698_8957"/>
            <feBlend in="SourceGraphic" in2="effect1_dropShadow_1698_8957" result="shape"/>
        </filter>
        <filter id="mpmcv9gmaq" x="39.553" y="41.102" width="46.591" height="40.587" filterUnits="userSpaceOnUse" color-interpolation-filters="sRGB">
            <feFlood flood-opacity="0" result="BackgroundImageFix"/>
            <feColorMatrix in="SourceAlpha" values="0 0 0 0 0 0 0 0 0 0 0 0 0 0 0 0 0 0 127 0" result="hardAlpha"/>
            <feOffset dx="4.849" dy="4.849"/>
            <feGaussianBlur stdDeviation="9.698"/>
            <feComposite in2="hardAlpha" operator="out"/>
            <feColorMatrix values="0 0 0 0 0 0 0 0 0 0 0 0 0 0 0 0 0 0 0.1 0"/>
            <feBlend in2="BackgroundImageFix" result="effect1_dropShadow_1698_8957"/>
            <feBlend in="SourceGraphic" in2="effect1_dropShadow_1698_8957" result="shape"/>
        </filter>
        <filter id="z06lnfluks" x="19.553" y="46.231" width="67.591" height="40.587" filterUnits="userSpaceOnUse" color-interpolation-filters="sRGB">
            <feFlood flood-opacity="0" result="BackgroundImageFix"/>
            <feColorMatrix in="SourceAlpha" values="0 0 0 0 0 0 0 0 0 0 0 0 0 0 0 0 0 0 127 0" result="hardAlpha"/>
            <feOffset dx="4.849" dy="4.849"/>
            <feGaussianBlur stdDeviation="9.698"/>
            <feComposite in2="hardAlpha" operator="out"/>
            <feColorMatrix values="0 0 0 0 0 0 0 0 0 0 0 0 0 0 0 0 0 0 0.1 0"/>
            <feBlend in2="BackgroundImageFix" result="effect1_dropShadow_1698_8957"/>
            <feBlend in="SourceGraphic" in2="effect1_dropShadow_1698_8957" result="shape"/>
        </filter>
        <filter id="4g1pzgx70u" x="19.553" y="52.231" width="67.591" height="40.587" filterUnits="userSpaceOnUse" color-interpolation-filters="sRGB">
            <feFlood flood-opacity="0" result="BackgroundImageFix"/>
            <feColorMatrix in="SourceAlpha" values="0 0 0 0 0 0 0 0 0 0 0 0 0 0 0 0 0 0 127 0" result="hardAlpha"/>
            <feOffset dx="4.849" dy="4.849"/>
            <feGaussianBlur stdDeviation="9.698"/>
            <feComposite in2="hardAlpha" operator="out"/>
            <feColorMatrix values="0 0 0 0 0 0 0 0 0 0 0 0 0 0 0 0 0 0 0.1 0"/>
            <feBlend in2="BackgroundImageFix" result="effect1_dropShadow_1698_8957"/>
            <feBlend in="SourceGraphic" in2="effect1_dropShadow_1698_8957" result="shape"/>
        </filter>
        <clipPath id="ujwwah4lhd">
            <path fill="#fff" transform="translate(22 19.078)" d="M0 0h49.067v62.635H0z"/>
        </clipPath>
    </defs>
</svg>
