<svg xmlns="http://www.w3.org/2000/svg" width="583.521" height="37.216" viewBox="0 0 583.521 37.216">
    <defs>
        <clipPath id="vvc64jip4a">
            <path data-name="Rectangle 9067" transform="rotate(-45 6.033 2.499)" style="fill:#c1721f" d="M0 0h7.069v7.069H0z"/>
        </clipPath>
        <clipPath id="3p3gr5391b">
            <path data-name="Rectangle 9069" transform="rotate(-45 9.174 3.8)" style="fill:#c1721f" d="M0 0h10.747v10.747H0z"/>
        </clipPath>
        <clipPath id="89a93nh18c">
            <path data-name="Rectangle 9073" transform="rotate(-40.626 9.452 3.499)" style="fill:#c1721f" d="M0 0h10.748v10.75H0z"/>
        </clipPath>
        <clipPath id="xwe6g51sfd">
            <path data-name="Rectangle 9075" transform="rotate(-44.986 6.034 2.498)" style="fill:#c1721f" d="M0 0h7.068v7.068H0z"/>
        </clipPath>
        <clipPath id="8zj4aztr7e">
            <path data-name="Rectangle 9079" transform="rotate(-45 6.033 2.499)" style="fill:#c1721f" d="M0 0h7.068v7.068H0z"/>
        </clipPath>
        <clipPath id="x1gpaumz6f">
            <path data-name="Rectangle 9081" transform="rotate(-40.62 9.453 3.5)" style="fill:#c1721f" d="M0 0h10.748v10.75H0z"/>
        </clipPath>
        <clipPath id="d60ustvlfg">
            <path data-name="Path 37811" d="m0 0 24.419 1.9 1.9 24.419-24.419-1.9z" transform="rotate(-44.996 19.225 7.963)" style="fill:#c1721f"/>
        </clipPath>
        <clipPath id="wht57fq43h">
            <path data-name="Path 37809" d="m147.391 12.682 216.033-2.588V8.74L147.391 6.154z" transform="translate(-147.391 -6.154)" style="fill:#c1721f"/>
        </clipPath>
        <clipPath id="xrp12omvwi">
            <path data-name="Path 37810" d="M0 8.74v1.354l195.037 2.588V6.154z" transform="translate(0 -6.154)" style="fill:#c1721f"/>
        </clipPath>
    </defs>
    <g data-name="Group 305" style="opacity:.5">
        <g data-name="Group 26431">
            <g data-name="Group 26430" transform="translate(303.62 13.609)" style="clip-path:url(#vvc64jip4a)">
                <path data-name="Rectangle 9066" transform="translate(0 -.001)" style="fill:#c1721f" d="M0 0h9.996v9.998H0z"/>
            </g>
        </g>
        <g data-name="Group 26433">
            <g data-name="Group 26432" transform="translate(318.674 11.008)" style="clip-path:url(#3p3gr5391b)">
                <path data-name="Rectangle 9068" style="fill:#c1721f" d="M0 0h15.199v15.199H0z"/>
            </g>
        </g>
        <g data-name="Group 26435">
            <g data-name="Group 26434" style="clip-path:url(#vvc64jip4a)" transform="translate(340.57 13.609)">
                <path data-name="Rectangle 9070" transform="translate(0 -.001)" style="fill:#c1721f" d="M0 0h9.996v9.998H0z"/>
            </g>
        </g>
        <g data-name="Group 26437">
            <g data-name="Group 26436" style="clip-path:url(#89a93nh18c)" transform="translate(357.285 11.029)">
                <path data-name="Rectangle 9072" transform="translate(0 -.001)" style="fill:#c1721f" d="M0 0h15.157v15.157H0z"/>
            </g>
        </g>
        <g data-name="Group 26439">
            <g data-name="Group 26438" style="clip-path:url(#xwe6g51sfd)" transform="translate(250.76 13.61)">
                <path data-name="Rectangle 9074" transform="translate(-.001 -.001)" style="fill:#c1721f" d="M0 0h9.996v9.996H0z"/>
            </g>
        </g>
        <g data-name="Group 26441">
            <g data-name="Group 26440" style="clip-path:url(#3p3gr5391b)" transform="translate(228.863 11.008)">
                <path data-name="Rectangle 9076" style="fill:#c1721f" d="M0 0h15.199v15.199H0z"/>
            </g>
        </g>
        <g data-name="Group 26443">
            <g data-name="Group 26442" transform="translate(212.17 13.61)" style="clip-path:url(#8zj4aztr7e)">
                <path data-name="Rectangle 9078" transform="translate(.001 -.001)" style="fill:#c1721f" d="M0 0h9.996v9.996H0z"/>
            </g>
        </g>
        <g data-name="Group 26445">
            <g data-name="Group 26444" style="clip-path:url(#x1gpaumz6f)" transform="translate(190.295 11.029)">
                <path data-name="Rectangle 9080" transform="translate(0 -.001)" style="fill:#c1721f" d="M0 0h15.157v15.157H0z"/>
            </g>
        </g>
        <g data-name="Group 26447">
            <g data-name="Group 26446" transform="translate(263.903 2.682)" style="clip-path:url(#d60ustvlfg)">
                <path data-name="Rectangle 9082" transform="translate(-.001 .001)" style="fill:#c1721f" d="M0 0h37.217v31.85H0z"/>
            </g>
        </g>
        <g data-name="Group 26449">
            <g data-name="Group 26448" style="clip-path:url(#wht57fq43h)" transform="translate(367.488 15.344)">
                <path data-name="Rectangle 9084" style="fill:#c1721f" d="M0 0h216.033v6.527H0z"/>
            </g>
        </g>
        <g data-name="Group 26451">
            <g data-name="Group 26450" style="clip-path:url(#xrp12omvwi)" transform="translate(0 15.344)">
                <path data-name="Rectangle 9085" style="fill:#c1721f" d="M0 0h195.037v6.527H0z"/>
            </g>
        </g>
    </g>
</svg>
