<svg width="90" height="56" viewBox="0 0 90 56" fill="none" xmlns="http://www.w3.org/2000/svg">
    <path d="M0 0h90v44c0 6.627-5.373 12-12 12H12C5.373 56 0 50.627 0 44V0z" fill="#BA3E3E"/>
    <path fill-rule="evenodd" clip-rule="evenodd" d="M35.565 11.085a2.32 2.32 0 0 1-1.57 1.436 2.272 2.272 0 0 1-.755 1.972 2.314 2.314 0 0 1-2.02-.657 2.3 2.3 0 0 1-2.095.317 2.352 2.352 0 0 1-.462-2.07 2.328 2.328 0 0 1-1.315-1.656c.268-.706.84-1.23 1.57-1.424a2.323 2.323 0 0 1 .78-1.972 2.317 2.317 0 0 1 2.008.645A2.3 2.3 0 0 1 33.8 7.36c.475.584.645 1.35.45 2.081a2.305 2.305 0 0 1 1.315 1.656v-.012zm-1.51-2.727c-.291-.049-1.241.426-1.57.888.317-.474.426-1.533.268-1.79.11.622-.06 1.267-.475 1.754a1.687 1.687 0 0 0-1.412-.11 2.204 2.204 0 0 1-.195-1.814c-.194.22-.255 1.279-.012 1.802-.268-.499-1.108-1.132-1.412-1.12a2.16 2.16 0 0 1 1.278 1.29 1.705 1.705 0 0 0-.803 1.17 2.243 2.243 0 0 1-1.668-.743c.11.28.986.864 1.546.913-.56-.037-1.522.401-1.68.657a2.2 2.2 0 0 1 1.765-.462c0 .499.232.961.609 1.29-.304.56-.852.95-1.473 1.071.292.049 1.23-.414 1.558-.876-.304.475-.414 1.521-.268 1.777a2.194 2.194 0 0 1 .475-1.765c.438.231.95.28 1.412.122.329.547.402 1.205.195 1.814.195-.22.256-1.279.024-1.802.256.511 1.108 1.132 1.4 1.12a2.18 2.18 0 0 1-1.29-1.29 1.74 1.74 0 0 0 .536-.5c.133-.207.23-.438.267-.681.633 0 1.242.267 1.656.742-.097-.28-.974-.852-1.534-.913.56.025 1.522-.402 1.668-.67a2.137 2.137 0 0 1-1.753.475 1.772 1.772 0 0 0-.62-1.29 2.249 2.249 0 0 1 1.472-1.071l.037.012zm-.864 2.544h.049-.049zm-.767.524a.642.642 0 0 1-.657.633h-.073a.654.654 0 0 1-.329-.134.63.63 0 0 1-.681-.037.638.638 0 0 1-.28-.633.651.651 0 0 1-.305-.609.62.62 0 0 1 .402-.547c0-.366.304-.646.67-.646a.63.63 0 0 1 .389.134.677.677 0 0 1 .694.037.62.62 0 0 1 .268.62.651.651 0 0 1 .304.61c0 .255-.17.474-.402.56v.012zm-.852-.84s-.06-.05-.097-.073c-.037.024-.073.048-.11.06a.362.362 0 0 1-.121.05v.12c0 .037 0 .086-.013.123a.495.495 0 0 1 .11.06c.036.025.06.061.097.086a.74.74 0 0 1 .22-.11v-.122s0-.085.012-.121l-.11-.073h.012zm.865-1.266s.012-.025.036-.037c-.012 0-.012.024-.024.049l-.012-.012zm-1.96 2.873s-.025.024-.025.048c0-.012.012-.024.024-.036v-.012zm1.74.146s0 .024.013.048l-.025-.048h.012zm-2.495-1.717s-.037 0-.049-.012h.049v.012zm5.454 13.124a5.123 5.123 0 0 1-3.482 3.165 5.033 5.033 0 0 1-1.668 4.37 5.148 5.148 0 0 1-4.468-1.436 5.102 5.102 0 0 1-4.626.706 5.202 5.202 0 0 1-1.022-4.59A5.199 5.199 0 0 1 17 22.297a5.134 5.134 0 0 1 3.47-3.165 5.17 5.17 0 0 1 1.716-4.37 5.076 5.076 0 0 1 4.431 1.436 5.138 5.138 0 0 1 4.627-.706 5.144 5.144 0 0 1 .998 4.601 5.168 5.168 0 0 1 2.922 3.665l.012-.012zM31.84 17.72c-.645-.122-2.74.95-3.47 1.972.694-1.047.926-3.385.597-3.945.17 1.595-.146 2.837-1.035 3.884a3.728 3.728 0 0 0-3.116-.244c-.73-1.18-.84-2.447-.414-4.005-.426.5-.56 2.824-.037 3.969-.584-1.108-2.459-2.484-3.116-2.484 1.46.67 2.386 1.57 2.824 2.861a3.72 3.72 0 0 0-1.157 1.108 3.9 3.9 0 0 0-.62 1.485c-1.376.037-2.532-.487-3.677-1.643.231.608 2.18 1.911 3.421 2.033-1.254-.085-3.372.889-3.713 1.46 1.327-.949 2.544-1.29 3.908-1.034a3.887 3.887 0 0 0 1.339 2.849c-.645 1.205-1.68 1.947-3.263 2.361.658.11 2.727-.925 3.458-1.948-.67 1.035-.925 3.36-.585 3.933-.158-1.632.146-2.873 1.047-3.908.962.523 2.094.62 3.129.268.718 1.156.852 2.434.414 4.005.426-.5.56-2.837.049-3.98.56 1.12 2.459 2.483 3.104 2.47-1.485-.67-2.398-1.558-2.849-2.848.463-.28.865-.658 1.181-1.096.305-.45.5-.962.597-1.497 1.375-.037 2.52.51 3.664 1.655-.207-.62-2.167-1.887-3.397-2.02 1.242.06 3.373-.89 3.677-1.462-1.303.95-2.532 1.303-3.883 1.047a3.89 3.89 0 0 0-1.364-2.848c.67-1.218 1.704-1.936 3.263-2.362l.024-.037zm-1.911 5.624h.121-.121zM28.237 24.5a1.44 1.44 0 0 1-1.461 1.413h-.146a1.517 1.517 0 0 1-.743-.293 1.367 1.367 0 0 1-1.497-.085 1.429 1.429 0 0 1-.634-1.388 1.462 1.462 0 0 1-.681-1.363 1.384 1.384 0 0 1 .9-1.217 1.455 1.455 0 0 1 1.486-1.425c.304 0 .609.11.852.292a1.43 1.43 0 0 1 1.534.098c.45.304.682.84.596 1.375.475.28.73.816.682 1.364a1.427 1.427 0 0 1-.876 1.242l-.012-.013zm-1.875-1.85a1.403 1.403 0 0 1-.207-.17c-.085.048-.159.097-.256.133-.085.05-.17.086-.256.11a.501.501 0 0 1 0 .268.952.952 0 0 1-.036.268c.085.036.17.073.243.121.073.05.134.134.207.183.146-.11.317-.195.5-.231v-.268c0-.098.024-.183.036-.28-.073-.061-.17-.098-.243-.146l.012.012zm1.911-2.812s.037-.061.073-.085c-.036.024-.036.06-.06.097v-.024l-.013.012zm-4.358 6.367s-.049.06-.061.097c0-.024.036-.06.036-.097h.025zm3.859.316s0 .061.024.098l-.06-.11h.024l.012.012zm-5.515-3.786s-.073-.012-.11-.036h.122v.024l-.012.012z" fill="#fff"/>
    <path d="M68.021 40.168c.183-.06.353-.146.5-.28.207-.17.377-.39.486-.645a.597.597 0 0 0 .05-.134c0-.049-.025-.097-.05-.146l-1.168-2.922h.62l.682 1.875c.073.207.159.463.207.645h.013c.06-.194.121-.426.206-.657l.621-1.863h.609l-.864 2.253c-.414 1.083-.694 1.643-1.084 1.984a1.513 1.513 0 0 1-.706.365l-.146-.487.024.012zm-5.928-.889c-.828 0-1.51-.669-1.522-1.497v-.134c0-1.059.694-1.68 1.57-1.68.877 0 1.522.658 1.522 1.62 0 1.18-.816 1.691-1.57 1.691zm-.938-1.655c0 .694.39 1.217.95 1.217.548 0 .962-.523.962-1.242 0-.535-.268-1.205-.95-1.205-.67 0-.962.621-.962 1.23zm-11.638 1.412a1.256 1.256 0 0 1-.22-.828V36.48h-.486v-.439h.487v-.584l.56-.17v.754h.816v.439h-.816v1.704c0 .39.11.609.426.609.11 0 .22 0 .329-.037l.024.438c-.158.049-.34.085-.511.085-.232 0-.463-.073-.621-.243h.012zm-3.86-.67c0-.767.683-1.18 1.9-1.18v-.061a.646.646 0 0 0-.56-.73h-.158a1.52 1.52 0 0 0-.828.23l-.134-.389c.317-.182.682-.28 1.047-.28.974 0 1.205.657 1.205 1.303v1.18c0 .256 0 .512.049.755h-.511l-.05-.401h-.023a1.2 1.2 0 0 1-.962.474.9.9 0 0 1-.962-.84v-.073l-.012.013zm.573-.06a.505.505 0 0 0 .45.547h.086c.34 0 .657-.206.779-.523.012-.06.024-.122.024-.183V37.6h-.097c-.597 0-1.242.133-1.242.718v-.012zm20.416.9V37.38c0-.51-.183-.937-.73-.937a.807.807 0 0 0-.768.584 1.016 1.016 0 0 0-.036.268v1.911h-.572v-2.313c0-.328 0-.596-.025-.852h.512l.036.512h.012c.22-.378.609-.597 1.047-.585.439 0 1.12.268 1.12 1.351v1.887h-.596zm-7.475 0v-1.79c0-.62-.231-.973-.682-.973a.743.743 0 0 0-.681.524 1.22 1.22 0 0 0-.05.292v1.96h-.56v-1.9c0-.51-.218-.864-.657-.864a.782.782 0 0 0-.706.572.715.715 0 0 0-.048.28v1.912h-.56v-2.313c0-.33 0-.597-.025-.852h.5l.024.51h.024c.195-.364.584-.596.998-.584.402 0 .755.256.889.634.085-.159.207-.305.353-.414a1.01 1.01 0 0 1 .694-.22c.426 0 1.047.28 1.047 1.376v1.863h-.56v-.013zm-5.357 0v-3.165h.573v3.166h-.573zm-2.325 0v-2.179c0-.377 0-.694-.024-.986h.499l.024.621h.025a.936.936 0 0 1 .876-.694c.049 0 .11 0 .158.025v.535c-.073 0-.133 0-.206-.012a.8.8 0 0 0-.767.73c-.013.098-.025.183-.025.28v1.693h-.572l.012-.013zm-6.878 0-.097-1.935a49.072 49.072 0 0 1-.074-1.912h-.012c-.158.512-.328 1.072-.547 1.68l-.78 2.143h-.426l-.718-2.106a16.352 16.352 0 0 1-.5-1.717h-.011a51.988 51.988 0 0 1-.085 1.948l-.122 1.887h-.536l.304-4.407h.719l.755 2.13c.182.549.328 1.023.438 1.486h.012c.122-.438.28-.925.475-1.485l.779-2.13h.73l.268 4.406h-.56l-.012.012zm9.483-3.75a.372.372 0 0 1-.365-.352v-.024c0-.195.159-.366.353-.366h.025c.194 0 .365.146.365.341v.025a.373.373 0 0 1-.341.377h-.037z" fill="#fff"/>
    <path d="M60.23 31.293a1.04 1.04 0 0 1-.255-.694c0-.681.45-1.509 1.363-2.47l2.788-2.91-.049-.037-4.395 3.567-.097-.097 3.737-3.068 1.595-1.254H63.7l.049-.134h1.375l2.313-2.423 1.169-.024-2.216 2.447h1.96l-.036.134h-2.082l-4.699 5.028c-.56.596-.9.974-1.01 1.132a.813.813 0 0 0-.17.438c0 .134.06.268.17.353a.574.574 0 0 0 .365.146c.742 0 2.179-.925 4.285-2.763l.097.097c-2.19 1.887-3.664 2.837-4.407 2.837a.792.792 0 0 1-.608-.292l-.025-.013zm-11.43.025a.893.893 0 0 1-.257-.633c0-.682.524-1.656 1.57-2.934 1.048-1.278 1.717-2.021 2.022-2.216v-.085a6.999 6.999 0 0 0-1.461 1.06L47.97 28.76l-.097-.097c1.996-1.717 3.177-2.703 3.518-2.946.256-.195.524-.365.804-.512.182-.085.353-.194.499-.34a85.031 85.031 0 0 1 4.443-4.444 41.262 41.262 0 0 1 3.64-3.019c1.01-.718 1.838-1.071 2.52-1.071.231 0 .45.073.621.231a.673.673 0 0 1 .256.5c0 .535-.585 1.314-1.753 2.36a28.721 28.721 0 0 1-4.322 3.13c-1.717 1.034-3.044 1.692-3.957 1.96-.207.243-.596.681-1.156 1.29l-1.096 1.205-1.375 1.644c-.95 1.144-1.461 1.862-1.534 2.179v.122c0 .304.17.45.511.45.78 0 2.203-.913 4.249-2.74l.097.098-.828.706c-1.655 1.413-2.86 2.119-3.603 2.119a.785.785 0 0 1-.597-.268H48.8zM61.276 17.28c-.779.524-1.972 1.632-3.579 3.3-1.607 1.667-2.727 2.909-3.36 3.725.73-.244 1.96-.877 3.701-1.9a24.911 24.911 0 0 0 4.273-3.08c1.108-1.022 1.668-1.79 1.668-2.264a.502.502 0 0 0-.207-.39.736.736 0 0 0-.524-.17c-.547 0-1.205.268-1.984.791l.012-.012zm4.103 13.063c0-1.035.706-2.009 2.106-2.922 1.4-.913 2.508-1.363 3.3-1.363.133 0 .267.036.376.121a.38.38 0 0 1 .159.305c0 .45-.439.913-1.327 1.412-.913.499-1.912.816-2.946.913-.925.925-1.4 1.57-1.4 1.923 0 .183.097.354.243.463a.83.83 0 0 0 .572.207 5.294 5.294 0 0 0 2.01-.62 14.33 14.33 0 0 0 3.055-2.131l.097.097c-.889.828-1.899 1.534-2.983 2.106a5.34 5.34 0 0 1-2.154.645c-.743 0-1.12-.377-1.12-1.144l.012-.012zm4.65-3.92c-.462.268-.9.56-1.302.9-.536.402-1.023.865-1.473 1.352.499-.049.986-.17 1.448-.353a5.517 5.517 0 0 0 1.73-.925c.462-.378.693-.694.693-.938 0-.17-.097-.267-.304-.267-.28 0-.548.085-.792.219v.012zm-34.878 3.993a3.585 3.585 0 0 1-.986-2.471c0-1.62.755-3.13 2.277-4.517 1.521-1.388 4.053-2.386 7.608-3.019a2.618 2.618 0 0 1-.608-1.01c-1.206.28-2.423.426-3.653.462-1.485 0-2.63-.329-3.433-.986-.803-.657-1.205-1.4-1.205-2.216 0-1.63.938-2.97 2.824-4.005a13.152 13.152 0 0 1 6.501-1.558v.097c-2.63 0-4.784.597-6.464 1.79-1.68 1.193-2.52 2.495-2.52 3.896 0 .742.377 1.4 1.144 1.984.767.584 1.875.876 3.348.876a16.85 16.85 0 0 0 3.482-.45 2.85 2.85 0 0 1-.146-.9c0-.975.414-1.949 1.242-2.91.827-.962 2.093-1.863 3.798-2.703 1.704-.84 3.116-1.266 4.224-1.266.475-.024.938.11 1.34.353.34.219.535.609.523 1.01 0 .974-.962 2.106-2.873 3.397-1.912 1.29-4.492 2.3-7.73 3.055-.025.402.109.792.377 1.084h.34a4.022 4.022 0 0 1 1.571.207c.353.146.523.329.523.511a.359.359 0 0 1-.182.305.68.68 0 0 1-.402.121c-.682 0-1.327-.34-1.923-1.01a10.588 10.588 0 0 0-6.684 3.494c-1.729 1.948-2.605 3.628-2.605 5.015 0 .658.34 1.279.877 1.656.706.5 1.558.755 2.422.694 1.936 0 3.896-.596 5.892-1.79 1.985-1.193 2.983-2.495 2.983-3.92 0-.438-.17-.864-.487-1.168a1.862 1.862 0 0 0-1.34-.463c-1.411 0-2.97.536-4.674 1.62a13.202 13.202 0 0 0-4.005 3.785l-.098-.06a13.896 13.896 0 0 1 4.018-3.799c1.704-1.095 3.274-1.643 4.699-1.643a2.1 2.1 0 0 1 1.522.523c.353.317.547.755.56 1.23 0 1.448-1.023 2.775-3.08 3.98-2.058 1.206-4.03 1.802-5.917 1.802-1.376 0-2.398-.365-3.056-1.083h-.024zm9.143-9.898a2.436 2.436 0 0 0 1.777.914c.292 0 .438-.098.438-.305s-.194-.365-.596-.475a4.383 4.383 0 0 0-1.12-.17c-.158 0-.329 0-.487.024l-.012.012zm2.946-6.281c-2.045 1.74-3.19 3.384-3.421 4.955 3.311-.804 5.892-1.814 7.718-3.056 1.826-1.242 2.74-2.35 2.74-3.348 0-.34-.171-.657-.463-.84a2.071 2.071 0 0 0-1.23-.316c-1.522 0-3.299.864-5.344 2.605zm7.097 16.958a.805.805 0 0 1-.207-.584c.012-.39.134-.78.353-1.108.232-.39 1.108-1.315 2.618-2.776l-.025-.073-1.254.962-1.35 1.12-.098-.097c.45-.39 1.57-1.279 3.372-2.679h1.327l-4.334 4.273a1.278 1.278 0 0 0-.329.5v.097c0 .122.049.231.134.316a.45.45 0 0 0 .341.134 2.786 2.786 0 0 0 1.23-.45 20.933 20.933 0 0 0 2.787-2.18l.098.098c-2.033 1.777-3.397 2.666-4.103 2.666a.763.763 0 0 1-.548-.219h-.012zm5.722-7.353a.53.53 0 0 1-.134-.353.807.807 0 0 1 .743-.73c.134 0 .255.048.34.146a.53.53 0 0 1 .134.353c0 .194-.085.39-.243.511a.739.739 0 0 1-.511.207.435.435 0 0 1-.33-.146v.012z" fill="#fff" stroke="#fff" stroke-width=".097" stroke-miterlimit="10"/>
    <path d="M72.173 33.059H18.607v.426h53.566v-.426zM28.079 47.193c.036.085.073.158.11.243a.877.877 0 0 1 .109-.243l1.144-2.07s.037-.06.061-.06c.037 0 .06-.013.098 0h.34v3.371h-.401V45.731l-1.157 2.107a.184.184 0 0 1-.17.11h-.073c-.073 0-.122-.037-.17-.11l-1.182-2.118v2.714h-.401v-3.372H26.825c.024 0 .036.025.06.061l1.17 2.082.024-.012zm4.358 1.217h-.183s-.073 0-.097-.024c-.024 0-.036-.037-.049-.086l-.048-.219s-.122.11-.183.159a1.206 1.206 0 0 1-.402.182c-.085.012-.17.025-.243.025-.085 0-.183 0-.268-.037a.539.539 0 0 1-.353-.316.715.715 0 0 1-.049-.28c0-.098.025-.183.073-.268a.634.634 0 0 1 .244-.232c.121-.073.268-.121.45-.17.232-.049.45-.073.682-.073v-.183c0-.182-.037-.328-.122-.426-.073-.097-.195-.146-.353-.146-.085 0-.17 0-.256.037-.06.024-.121.048-.182.085l-.134.085s-.073.037-.11.037c-.024 0-.048 0-.073-.025-.024-.012-.036-.036-.048-.06l-.073-.135c.134-.121.28-.219.426-.292.158-.06.328-.097.511-.097.134 0 .256.024.353.06a.73.73 0 0 1 .426.463c.037.11.049.232.049.366v1.521l.012.049zm-1.083-.256c.073 0 .133 0 .207-.024.121-.037.23-.085.328-.158.049-.037.098-.086.146-.134v-.5c-.17 0-.328.025-.499.05a1.051 1.051 0 0 0-.329.097.398.398 0 0 0-.182.134.299.299 0 0 0-.061.182c0 .061 0 .122.024.159a.264.264 0 0 0 .085.11.38.38 0 0 0 .122.06c.049 0 .098.024.159.024zm2.447.292c-.195 0-.33-.048-.439-.158-.097-.11-.146-.255-.146-.45v-1.461h-.292s-.049 0-.06-.024c-.013-.013-.025-.037-.025-.073v-.17l.39-.05.097-.742s.012-.049.024-.061c.024-.012.037-.024.073-.024h.207v.815h.682v.305h-.682v1.436c0 .097.024.17.073.22.049.048.11.072.183.072a.368.368 0 0 0 .194-.06c.025 0 .037-.025.061-.037.013 0 .037-.024.049-.024.024 0 .037.012.06.036l.123.195a.653.653 0 0 1-.268.158.915.915 0 0 1-.317.061l.013.037zm1.034-.036v-2.386h.244s.073 0 .097.024a.286.286 0 0 1 .037.085l.024.378c.073-.146.17-.28.304-.39a.67.67 0 0 1 .426-.146c.11 0 .232.025.33.085l-.062.317s-.036.06-.073.06c-.036 0-.073 0-.097-.023-.061-.013-.122-.025-.195-.025a.53.53 0 0 0-.365.122.919.919 0 0 0-.244.365v1.522h-.414l-.012.012zm2.362-2.386v2.386h-.414v-2.386h.414zm.097-.743s0 .086-.024.122a.333.333 0 0 1-.158.158.258.258 0 0 1-.232 0c-.036-.012-.06-.036-.097-.06a.264.264 0 0 1-.06-.098.258.258 0 0 1 0-.231.265.265 0 0 1 .06-.098.3.3 0 0 1 .329-.06.265.265 0 0 1 .097.06.68.68 0 0 1 .073.098.355.355 0 0 1 .025.11h-.013zm.646 3.129v-2.386h.243s.098.024.11.085l.024.244c.085-.11.183-.195.292-.268a.587.587 0 0 1 .377-.098c.147 0 .28.037.39.134.11.098.183.22.22.365a.51.51 0 0 1 .133-.219.767.767 0 0 1 .402-.243.925.925 0 0 1 .572.036.724.724 0 0 1 .256.17.7.7 0 0 1 .158.28c.037.11.049.244.049.39v1.522h-.414V46.9c0-.182-.037-.328-.122-.426a.45.45 0 0 0-.353-.146.515.515 0 0 0-.365.146.46.46 0 0 0-.11.183.846.846 0 0 0-.036.243v1.522h-.414V46.9c0-.194-.037-.34-.11-.426-.073-.097-.195-.146-.34-.146a.51.51 0 0 0-.293.085.875.875 0 0 0-.243.232v1.777h-.414l-.012-.012zm4.833-2.423c.158 0 .316.025.474.086a.953.953 0 0 1 .584.633c.05.146.086.316.086.51 0 .196-.024.354-.085.512-.049.146-.122.28-.22.39a.878.878 0 0 1-.352.243 1.14 1.14 0 0 1-.475.086c-.158 0-.329-.025-.475-.086a1.02 1.02 0 0 1-.584-.633 1.455 1.455 0 0 1-.085-.511c0-.183.024-.353.085-.511a.977.977 0 0 1 .231-.39.878.878 0 0 1 .353-.243 1.22 1.22 0 0 1 .475-.086h-.012zm0 2.13c.23 0 .413-.072.523-.23.11-.159.17-.378.17-.658s-.06-.511-.17-.657a.62.62 0 0 0-.523-.244.7.7 0 0 0-.317.061.521.521 0 0 0-.219.183.846.846 0 0 0-.134.28 1.323 1.323 0 0 0-.036.377c0 .146.012.268.036.377.024.11.073.207.134.28.06.074.134.134.22.17.084.038.194.062.316.062zm1.655.293v-2.386h.256s.097.024.11.085l.036.256c.11-.11.22-.207.34-.28a.947.947 0 0 1 .451-.11c.122 0 .232.025.341.061a.622.622 0 0 1 .256.183.85.85 0 0 1 .158.292c.037.11.049.231.049.365v1.522h-.426v-1.522a.755.755 0 0 0-.122-.426c-.085-.097-.207-.146-.377-.146a.885.885 0 0 0-.353.085c-.11.061-.207.146-.293.244v1.753h-.413l-.013.024zm3.239.706s-.037.049-.05.073c-.023.012-.048.025-.096.025h-.305l.438-.95-.986-2.252h.365s.061 0 .086.024c.024.012.036.037.048.06l.633 1.498c.025.073.05.134.061.207.025-.073.049-.146.073-.207l.621-1.497s.025-.049.049-.06c.024-.013.049-.025.073-.025h.34l-1.326 3.092-.025.012zm1.266-.962s0-.085.024-.121a.265.265 0 0 1 .06-.098.285.285 0 0 1 .208-.085c.073 0 .158.036.207.085.024.025.048.061.06.098.062.146 0 .316-.145.39a.284.284 0 0 1-.244 0c-.073-.025-.122-.086-.158-.16a.36.36 0 0 1-.025-.12l.013.011zm2.763-1.704-.036.036c-.013 0-.037.013-.05.013-.023 0-.06 0-.072-.025-.073-.06-.17-.097-.256-.134a.69.69 0 0 0-.219-.036.846.846 0 0 0-.304.06.553.553 0 0 0-.232.183.848.848 0 0 0-.133.28 1.285 1.285 0 0 0-.05.378c0 .146.013.268.05.39a.69.69 0 0 0 .146.28c.06.072.133.133.219.17.085.036.194.06.292.06.097 0 .182 0 .256-.036.073-.036.121-.049.158-.085.048-.037.085-.061.11-.085a.11.11 0 0 1 .085-.037c.036 0 .06 0 .085.037l.122.158a.918.918 0 0 1-.39.28 1.37 1.37 0 0 1-.487.085.97.97 0 0 1-.743-.328 1.115 1.115 0 0 1-.219-.39c-.06-.17-.085-.341-.085-.524 0-.182.024-.34.073-.486.049-.147.122-.28.22-.39.097-.11.218-.195.352-.256.159-.06.317-.097.487-.097a1.082 1.082 0 0 1 .78.316l-.11.146-.049.037zm1.534-.463c.158 0 .317.025.475.086a.879.879 0 0 1 .353.243c.097.11.182.244.231.39.049.146.073.316.073.51 0 .196-.024.354-.073.512a.978.978 0 0 1-.231.39.879.879 0 0 1-.353.243c-.146.061-.292.086-.475.086-.158 0-.329-.025-.475-.086a1.02 1.02 0 0 1-.584-.633 1.455 1.455 0 0 1-.085-.511c0-.183.024-.353.085-.511a.977.977 0 0 1 .231-.39.878.878 0 0 1 .353-.243 1.22 1.22 0 0 1 .475-.086zm0 2.13c.231 0 .414-.072.524-.23.121-.159.17-.378.17-.658s-.06-.511-.17-.657a.62.62 0 0 0-.524-.244.7.7 0 0 0-.316.061.52.52 0 0 0-.22.183.846.846 0 0 0-.134.28 1.326 1.326 0 0 0-.036.377c0 .146.012.268.036.377.037.11.073.207.134.28.061.074.134.134.22.17.085.038.194.062.316.062zm1.644.293v-2.386h.255s.098.024.11.085l.036.244c.086-.11.183-.195.292-.268a.588.588 0 0 1 .378-.098c.146 0 .28.037.39.134.109.098.182.22.218.365a.51.51 0 0 1 .134-.219.768.768 0 0 1 .402-.243.925.925 0 0 1 .572.036.725.725 0 0 1 .256.17c.073.074.122.171.158.28.037.11.049.244.049.39v1.522h-.414V46.9c0-.182-.037-.328-.122-.426a.45.45 0 0 0-.353-.146.515.515 0 0 0-.365.146.458.458 0 0 0-.11.183.843.843 0 0 0-.036.243v1.522h-.414V46.9c0-.194-.037-.34-.122-.426-.073-.097-.182-.146-.34-.146a.51.51 0 0 0-.293.085.876.876 0 0 0-.243.232v1.777h-.414l-.025-.012zm5.587-2.423c.098 0 .195 0 .293.037.085.024.17.049.243.097h.645v.159s-.036.085-.097.097l-.268.036c.049.11.085.22.085.341 0 .329-.219.633-.535.719-.22.073-.45.073-.67.012-.049.024-.085.06-.122.097a.196.196 0 0 0-.036.11c0 .048.024.097.073.134.06.036.121.048.182.06.073 0 .159.025.256.025s.195 0 .292.012c.098 0 .195.012.292.037.086.012.17.048.256.085a.573.573 0 0 1 .183.158.463.463 0 0 1 .073.268c0 .11-.025.207-.073.292a.978.978 0 0 1-.572.438 1.472 1.472 0 0 1-.463.073c-.17 0-.329-.012-.463-.048a1.246 1.246 0 0 1-.328-.134.531.531 0 0 1-.256-.45c0-.122.036-.22.11-.305a.813.813 0 0 1 .304-.195.397.397 0 0 1-.159-.122.41.41 0 0 1-.06-.207c0-.036 0-.073.012-.11.012-.036.036-.072.06-.109a.602.602 0 0 1 .232-.194.84.84 0 0 1-.28-.268.742.742 0 0 1-.097-.39c0-.219.085-.426.255-.56a.918.918 0 0 1 .645-.207l-.012.012zm.743 2.557s-.012-.11-.049-.146a.315.315 0 0 0-.134-.085c-.06-.025-.134-.037-.194-.05-.073 0-.159-.011-.232-.011h-.255c-.086-.025-.159-.025-.244-.037a.563.563 0 0 0-.219.158.31.31 0 0 0-.037.366c.037.048.073.097.122.121.061.037.122.061.207.074.085.024.183.036.305.036.121 0 .219 0 .304-.036.085-.013.158-.05.231-.086a.388.388 0 0 0 .146-.134.279.279 0 0 0 .049-.17zm-.743-1.303c.086 0 .159 0 .22-.036a.429.429 0 0 0 .267-.256.552.552 0 0 0 .037-.195.476.476 0 0 0-.134-.353c-.085-.085-.22-.134-.39-.134a.559.559 0 0 0-.39.134.53.53 0 0 0-.133.353c0 .061 0 .134.036.195a.462.462 0 0 0 .268.256.59.59 0 0 0 .22.036zm1.607 1.169v-2.386h.244s.073 0 .097.024a.292.292 0 0 1 .037.085l.024.378c.073-.146.17-.28.304-.39a.67.67 0 0 1 .426-.146c.11 0 .232.025.33.085l-.05.317s-.036.06-.073.06c-.036 0-.073 0-.097-.023a.943.943 0 0 0-.195-.025.53.53 0 0 0-.365.122.92.92 0 0 0-.243.365v1.522h-.426l-.013.012zm2.861-2.423c.158 0 .317.025.475.086a.878.878 0 0 1 .353.243c.097.11.183.244.231.39.049.146.085.316.085.51 0 .196-.024.354-.085.512a.978.978 0 0 1-.231.39.878.878 0 0 1-.353.243c-.146.061-.292.086-.475.086-.158 0-.316-.025-.475-.086a1.02 1.02 0 0 1-.584-.633 1.216 1.216 0 0 1-.073-.511c0-.183.024-.353.085-.511a.977.977 0 0 1 .232-.39.878.878 0 0 1 .352-.243 1.22 1.22 0 0 1 .475-.086h-.012zm0 2.13c.231 0 .414-.072.524-.23.121-.159.17-.378.17-.658s-.06-.511-.17-.657a.62.62 0 0 0-.524-.244.733.733 0 0 0-.316.061.521.521 0 0 0-.22.183.846.846 0 0 0-.133.28 1.323 1.323 0 0 0-.037.377c0 .146.012.268.037.377.024.11.073.207.133.28.061.074.134.134.22.17.085.038.194.062.316.062zm2.009-2.093v1.522c0 .146.036.304.122.414.085.097.207.146.377.146a.675.675 0 0 0 .34-.086c.11-.06.22-.146.305-.243v-1.753h.426v2.386h-.255s-.098-.024-.11-.085l-.036-.256c-.098.11-.22.207-.353.28a.798.798 0 0 1-.439.098c-.121 0-.231-.025-.34-.061a.758.758 0 0 1-.256-.183.85.85 0 0 1-.158-.292 1.255 1.255 0 0 1-.05-.365v-1.522h.427zm2.264 3.19v-3.19h.256s.097.024.11.085l.036.28c.097-.122.22-.219.34-.292a.826.826 0 0 1 .451-.11c.134 0 .256.025.378.086.11.048.207.133.292.23.085.11.146.244.182.378.086.329.086.682 0 1.023a1.09 1.09 0 0 1-.535.657.992.992 0 0 1-.803.024.93.93 0 0 1-.28-.206v1.059h-.415l-.012-.024zm1.06-2.898a.78.78 0 0 0-.366.097.978.978 0 0 0-.28.268v1.157c.061.097.146.17.256.219.097.036.195.06.304.06.195 0 .39-.072.511-.243.122-.158.183-.39.183-.681a1.88 1.88 0 0 0-.037-.402.675.675 0 0 0-.121-.268.418.418 0 0 0-.195-.158.634.634 0 0 0-.256-.049z" fill="#fff"/>
</svg>
