<svg width="225" height="162" viewBox="0 0 225 162" fill="none" xmlns="http://www.w3.org/2000/svg">
    <path d="M.05 0h224.14v127.286c0 4.558-.777 9.073-2.285 13.284-1.509 4.212-3.72 8.039-6.508 11.262-2.787 3.224-6.096 5.781-9.738 7.526-3.642 1.744-7.546 2.642-11.488 2.642H30.069c-7.962 0-15.597-3.657-21.227-10.168-5.63-6.51-8.792-15.339-8.792-24.546V0z" fill="#BA3E3E"/>
    <path fill-rule="evenodd" clip-rule="evenodd" d="M87.743 32.126a6.705 6.705 0 0 1-4.555 4.144 6.584 6.584 0 0 1-2.189 5.719 6.678 6.678 0 0 1-5.836-1.886 6.679 6.679 0 0 1-6.05.919 6.777 6.777 0 0 1-1.33-6 6.757 6.757 0 0 1-3.803-4.8 6.706 6.706 0 0 1 4.532-4.132 6.747 6.747 0 0 1 2.249-5.72 6.661 6.661 0 0 1 5.803 1.873 6.684 6.684 0 0 1 6.052-.92 6.75 6.75 0 0 1 1.3 6.018 6.768 6.768 0 0 1 3.827 4.785zm-4.363-7.888c-.853-.152-3.586 1.245-4.534 2.578.9-1.368 1.215-4.433.778-5.161a6.249 6.249 0 0 1-1.359 5.075 4.919 4.919 0 0 0-4.073-.324 6.297 6.297 0 0 1-.548-5.246c-.558.65-.731 3.7-.046 5.2-.757-1.458-3.21-3.256-4.073-3.254a6.347 6.347 0 0 1 3.704 3.738c-.6.371-1.116.865-1.514 1.449a5.099 5.099 0 0 0-.808 1.947 6.281 6.281 0 0 1-4.813-2.15c.3.8 2.845 2.49 4.479 2.654-1.634-.1-4.403 1.164-4.853 1.907a6.385 6.385 0 0 1 5.11-1.354 5.044 5.044 0 0 0 1.752 3.72 6.223 6.223 0 0 1-4.266 3.1c.854.152 3.574-1.21 4.524-2.542-.877 1.356-1.2 4.4-.755 5.149a6.345 6.345 0 0 1 1.37-5.112 5.09 5.09 0 0 0 4.086.347 6.24 6.24 0 0 1 .546 5.246c.559-.65.733-3.7.07-5.21.733 1.472 3.21 3.258 4.06 3.232a6.286 6.286 0 0 1-3.727-3.733c.609-.37 1.136-.86 1.55-1.44.393-.59.656-1.257.772-1.957a6.307 6.307 0 0 1 4.789 2.163c-.273-.814-2.83-2.468-4.442-2.643 1.621.08 4.403-1.165 4.817-1.92a6.224 6.224 0 0 1-5.074 1.366 5.106 5.106 0 0 0-1.787-3.731 6.35 6.35 0 0 1 4.265-3.094zm-2.502 7.348c.06 0 .095.01.153.01a.539.539 0 0 1-.155-.01h.002zm-2.221 1.52a1.878 1.878 0 0 1-2.099 1.835 1.932 1.932 0 0 1-.964-.385 1.803 1.803 0 0 1-1.965-.11 1.857 1.857 0 0 1-.823-1.813 1.92 1.92 0 0 1-.893-1.776 1.815 1.815 0 0 1 1.17-1.6 1.9 1.9 0 0 1 3.05-1.474 1.891 1.891 0 0 1 2.001.122 1.859 1.859 0 0 1 .787 1.8 1.86 1.86 0 0 1 .891 1.777 1.837 1.837 0 0 1-1.157 1.624h.002zm-2.454-2.427a1.613 1.613 0 0 1-.263-.221 1.69 1.69 0 0 1-.33.172 1.671 1.671 0 0 1-.34.148.891.891 0 0 1 .007.356c0 .12-.017.241-.053.357.11.047.218.1.323.16.095.07.18.176.275.246.09-.072.188-.133.292-.183.112-.055.23-.097.352-.124v-.357c.01-.12.028-.24.054-.358-.104-.07-.223-.131-.319-.197h.002zm2.502-3.671c.035-.048.046-.083.093-.108-.047.025-.046.084-.08.132l-.013-.024zm-5.693 8.328a.54.54 0 0 0-.08.132c.01-.036.044-.085.056-.12l.024-.012zm5.045.415c-.012.035.013.083.037.129-.024-.046-.05-.094-.073-.141a.027.027 0 0 0 .038.01l-.002.002zm-7.224-4.958a.414.414 0 0 1-.143-.045c.05.01.102.013.154.01-.022.01-.022.01-.01.034h-.001zM86.625 68.764a14.827 14.827 0 0 1-10.071 9.16 14.557 14.557 0 0 1-4.838 12.65 14.764 14.764 0 0 1-12.908-4.167 14.775 14.775 0 0 1-13.383 2.032 14.997 14.997 0 0 1-2.94-13.28 14.942 14.942 0 0 1-8.414-10.616 14.833 14.833 0 0 1 10.022-9.139 14.924 14.924 0 0 1 4.972-12.65 14.732 14.732 0 0 1 12.83 4.142 14.782 14.782 0 0 1 13.385-2.032 14.927 14.927 0 0 1 2.884 13.308 14.968 14.968 0 0 1 8.461 10.592zM76.98 51.318c-1.885-.337-7.93 2.754-10.027 5.7 1.99-3.025 2.69-9.8 1.722-11.414.5 4.635-.412 8.217-3.002 11.224a10.878 10.878 0 0 0-9.006-.716c-2.1-3.4-2.418-7.069-1.211-11.6-1.233 1.44-1.617 8.185-.1 11.492-1.675-3.224-7.105-7.2-9.006-7.2 4.24 1.951 6.904 4.53 8.19 8.288a11.113 11.113 0 0 0-3.347 3.2 11.248 11.248 0 0 0-1.787 4.3c-3.973.092-7.319-1.4-10.645-4.755.658 1.771 6.291 5.51 9.906 5.87-3.615-.229-9.738 2.574-10.732 4.217 3.85-2.739 7.366-3.716 11.307-2.994a11.154 11.154 0 0 0 3.862 8.238c-1.88 3.493-4.85 5.642-9.434 6.846 1.887.336 7.905-2.676 10.006-5.622-1.943 2.998-2.673 9.724-1.672 11.387-.472-4.714.44-8.3 3.03-11.305a11.26 11.26 0 0 0 9.036.768c2.07 3.35 2.47 7.044 1.208 11.6 1.233-1.436 1.619-8.185.154-11.519 1.622 3.252 7.104 7.2 8.98 7.145-4.291-1.923-6.949-4.5-8.242-8.257a11.595 11.595 0 0 0 3.427-3.182 11.073 11.073 0 0 0 1.708-4.33c3.972-.093 7.294 1.48 10.591 4.783-.6-1.8-6.26-5.459-9.824-5.845 3.584.177 9.74-2.576 10.653-4.243-3.774 2.764-7.34 3.768-11.223 3.018a11.295 11.295 0 0 0-3.954-8.252c1.93-3.518 4.927-5.613 9.432-6.842zM71.442 67.57c.132 0 .21.024.338.021a1.204 1.204 0 0 1-.338-.02zm-4.912 3.362a4.154 4.154 0 0 1-2.375 3.685 4.277 4.277 0 0 1-4.403-.478 3.988 3.988 0 0 1-4.346-.243 4.102 4.102 0 0 1-1.82-4.01 4.247 4.247 0 0 1-1.973-3.929 4.015 4.015 0 0 1 2.592-3.533 4.205 4.205 0 0 1 4.62-4.09 4.21 4.21 0 0 1 2.124.83 4.183 4.183 0 0 1 4.424.27 4.115 4.115 0 0 1 1.74 3.99 4.117 4.117 0 0 1 1.972 3.93 4.062 4.062 0 0 1-2.555 3.578zm-5.427-5.368a3.556 3.556 0 0 1-.582-.489c-.228.153-.472.28-.728.38-.238.137-.49.246-.753.326.057.26.062.527.013.788.002.268-.038.534-.118.79.245.102.484.221.714.355.21.154.4.388.61.542.2-.157.417-.291.647-.4.248-.121.51-.214.779-.274 0-.264-.009-.526-.012-.788.023-.266.063-.53.12-.79-.213-.16-.478-.28-.69-.44zm5.542-8.12c.078-.106.1-.184.207-.239-.1.055-.1.186-.178.291l-.03-.052zm-12.59 18.418a1.194 1.194 0 0 0-.18.293c.026-.08.1-.187.126-.266l.054-.027zm11.157.918c-.027.08.03.184.083.286-.053-.1-.11-.207-.163-.31a.058.058 0 0 0 .035.028.058.058 0 0 0 .023.002.06.06 0 0 0 .022-.006zM49.234 65.814a.915.915 0 0 1-.316-.1c.112.022.227.029.34.021-.051.025-.051.025-.024.08z" fill="#fff"/>
    <path d="M181.624 116.251a3.796 3.796 0 0 0 1.455-.814 5.248 5.248 0 0 0 1.4-1.856c.07-.123.115-.259.133-.4a.997.997 0 0 0-.133-.417l-3.366-8.462h1.812l1.983 5.416c.226.606.453 1.325.6 1.874h.038c.17-.549.359-1.25.586-1.913l1.812-5.378h1.759l-2.492 6.533c-1.19 3.143-2.001 4.753-3.133 5.757a4.693 4.693 0 0 1-2.039 1.061l-.415-1.401zm-17.146-2.574a4.371 4.371 0 0 1-3.228-1.394 4.348 4.348 0 0 1-1.151-3.321c0-3.068 2.02-4.867 4.53-4.867 2.624 0 4.403 1.913 4.403 4.7 0 3.408-2.36 4.885-4.531 4.885l-.023-.003zm-2.702-4.772c0 2.007 1.133 3.522 2.737 3.522h.019c1.586 0 2.775-1.5 2.775-3.579 0-1.553-.775-3.5-2.737-3.5-1.941-.004-2.791 1.814-2.791 3.556l-.003.001zm-33.688 4.072a3.586 3.586 0 0 1-.641-2.405v-5h-1.416v-1.27h1.413v-1.685l1.624-.511v2.2h2.378v1.265h-2.376v4.942c0 1.136.32 1.78 1.246 1.78.325.013.649-.025.962-.114l.076 1.269a4.51 4.51 0 0 1-1.472.227 2.367 2.367 0 0 1-1.794-.698zm-11.17-1.934c0-2.216 1.964-3.428 5.494-3.409v-.19a1.878 1.878 0 0 0-2.073-2.119 4.398 4.398 0 0 0-2.401.682l-.377-1.117a5.904 5.904 0 0 1 3.02-.8c2.812 0 3.492 1.913 3.492 3.75v3.428c-.009.736.036 1.471.132 2.2h-1.491l-.151-1.155h-.057a3.367 3.367 0 0 1-2.794 1.364 2.609 2.609 0 0 1-2.794-2.634zm1.661-.189c-.02.21.006.422.077.621a1.465 1.465 0 0 0 .852.877c.197.075.409.107.619.093a2.309 2.309 0 0 0 2.247-1.534c.052-.171.078-.35.075-.53v-1.591h-.268c-1.742-.003-3.602.371-3.602 2.064zm59.077 2.613v-5.283c0-1.477-.547-2.727-2.114-2.727a2.407 2.407 0 0 0-2.228 1.7 2.519 2.519 0 0 0-.113.776v5.534h-1.661v-6.684c0-.966-.019-1.723-.075-2.48h1.472l.094 1.5h.041a3.38 3.38 0 0 1 3.02-1.7c1.265 0 3.228.758 3.228 3.9v5.464h-1.664zm-21.629 0v-5.19c0-1.78-.661-2.821-1.983-2.821a2.186 2.186 0 0 0-1.982 1.5c-.083.27-.128.551-.132.833v5.678h-1.622v-5.49c0-1.477-.641-2.518-1.906-2.518a2.294 2.294 0 0 0-2.057 1.666 2.28 2.28 0 0 0-.132.814v5.528h-1.625v-6.684c0-.966-.038-1.723-.076-2.48h1.453l.076 1.474h.058a3.158 3.158 0 0 1 2.888-1.685 2.699 2.699 0 0 1 2.568 1.837h.038a3.6 3.6 0 0 1 1.037-1.192 3.063 3.063 0 0 1 2.001-.644c1.227 0 3.02.8 3.02 3.977v5.4l-1.624-.003zm-15.483 0v-9.165h1.661v9.165h-1.661zm-6.738 0 .019-6.306c0-1.08-.019-2.007-.075-2.859h1.453l.075 1.8h.057a2.762 2.762 0 0 1 2.548-2.007c.153-.001.306.018.454.057v1.551a5.472 5.472 0 0 0-.586-.038 2.33 2.33 0 0 0-2.227 2.121 5.362 5.362 0 0 0-.057.8v4.881h-1.661zm-19.913 0-.3-5.6c-.095-1.78-.207-3.939-.207-5.51h-.041a100.089 100.089 0 0 1-1.601 4.847l-2.25 6.187h-1.246l-2.076-6.078c-.601-1.818-1.095-3.447-1.454-4.961h-.037c-.038 1.59-.132 3.711-.245 5.643l-.341 5.472h-1.567l.888-12.763h2.095l2.171 6.173a60.316 60.316 0 0 1 1.283 4.3h.038c.341-1.288.794-2.689 1.359-4.3l2.266-6.173h2.095l.792 12.763h-1.622zm27.445-10.85a1.027 1.027 0 0 1-.973-.669 1.046 1.046 0 0 1-.065-.411 1.044 1.044 0 0 1 .309-.762 1.056 1.056 0 0 1 .767-.298 1.016 1.016 0 0 1 .759.3 1.018 1.018 0 0 1 .298.76 1.04 1.04 0 0 1-.661 1.009 1.051 1.051 0 0 1-.419.071h-.015z" fill="#fff"/>
    <path d="M159.085 90.57a2.972 2.972 0 0 1-.73-2c0-1.98 1.315-4.37 3.946-7.169l8.05-8.4-.158-.119-12.708 10.337-.276-.277 10.817-8.88 4.603-3.632h-3.534l.157-.4h3.969l6.691-7.01 3.377-.079-6.396 7.091h5.664l-.12.4h-6.034L162.81 84.975c-1.629 1.74-2.607 2.833-2.936 3.281a2.175 2.175 0 0 0-.492 1.265 1.269 1.269 0 0 0 .493 1.01c.287.261.659.409 1.047.416 2.158 0 6.29-2.666 12.396-8l.276.277c-6.344 5.467-10.595 8.2-12.753 8.2a2.24 2.24 0 0 1-1.756-.854zm-33.063.08a2.581 2.581 0 0 1-.731-1.843c0-1.953 1.514-4.778 4.541-8.475 3.027-3.696 4.975-5.835 5.844-6.416l-.039-.237a19.818 19.818 0 0 0-4.185 3.053l-7.818 6.5-.276-.277c5.79-4.964 9.179-7.802 10.166-8.515a15.841 15.841 0 0 1 2.33-1.465 4.98 4.98 0 0 0 1.441-.99c4.474-4.805 8.764-9.082 12.871-12.832a117.389 117.389 0 0 1 10.521-8.733c2.908-2.072 5.336-3.109 7.285-3.109a2.597 2.597 0 0 1 1.801.654 1.915 1.915 0 0 1 .73 1.446c0 1.534-1.684 3.811-5.054 6.832a83.354 83.354 0 0 1-12.515 9.05c-4.975 3.01-8.792 4.898-11.451 5.664-.605.713-1.724 1.954-3.356 3.723l-3.158 3.485-3.987 4.753c-2.764 3.301-4.238 5.401-4.422 6.3v.356c0 .872.487 1.307 1.461 1.307 2.263 0 6.356-2.64 12.279-7.92l.276.276-2.409 2.06c-4.791 4.094-8.265 6.14-10.422 6.14a2.29 2.29 0 0 1-1.723-.788zm36.086-40.6c-2.249 1.521-5.697 4.698-10.342 9.53-4.646 4.83-7.89 8.422-9.734 10.772 2.105-.686 5.678-2.515 10.718-5.485a72.358 72.358 0 0 0 12.378-8.91c3.214-2.972 4.821-5.157 4.821-6.557a1.456 1.456 0 0 0-.592-1.129 2.263 2.263 0 0 0-1.501-.5c-1.58.004-3.496.765-5.746 2.283l-.002-.005zm11.866 37.8c0-2.984 2.034-5.796 6.103-8.437 4.07-2.64 7.248-3.96 9.535-3.96.393-.01.776.116 1.086.356a1.071 1.071 0 0 1 .454.871c0 1.294-1.279 2.654-3.839 4.08a22.307 22.307 0 0 1-8.505 2.653c-2.692 2.694-4.038 4.542-4.038 5.545a1.76 1.76 0 0 0 .711 1.327 2.459 2.459 0 0 0 1.659.614 14.975 14.975 0 0 0 5.823-1.8 42.154 42.154 0 0 0 8.824-6.159l.276.277a39.092 39.092 0 0 1-8.628 6.08 15.508 15.508 0 0 1-6.224 1.881c-2.158.004-3.236-1.103-3.236-3.32l-.001-.009zm13.476-11.356a27.594 27.594 0 0 0-3.779 2.608 32.295 32.295 0 0 0-4.275 3.923 15.595 15.595 0 0 0 4.196-1.035 16.138 16.138 0 0 0 5.003-2.669c1.334-1.088 2.001-1.99 2.001-2.708 0-.504-.29-.757-.871-.757-.798.031-1.577.25-2.275.638zM86.558 88.032a10.337 10.337 0 0 1-2.863-7.146c0-4.698 2.191-9.05 6.573-13.054 4.382-4.004 11.72-6.915 22.014-8.733a7.725 7.725 0 0 1-1.777-2.93 53.732 53.732 0 0 1-10.58 1.346c-4.291 0-7.601-.95-9.93-2.852-2.329-1.9-3.495-4.038-3.498-6.412 0-4.726 2.724-8.592 8.172-11.6a38.221 38.221 0 0 1 18.796-4.519v.277c-7.605 0-13.842 1.727-18.712 5.18-4.87 3.454-7.304 7.21-7.304 11.27 0 2.133 1.105 4.044 3.316 5.733 2.21 1.69 5.435 2.533 9.673 2.53a49.378 49.378 0 0 0 10.068-1.3 8.971 8.971 0 0 1-.434-2.61c0-2.82 1.204-5.62 3.612-8.4 2.408-2.779 6.073-5.389 10.996-7.83 4.922-2.438 9.002-3.657 12.24-3.658a6.703 6.703 0 0 1 3.869 1.03 3.345 3.345 0 0 1 1.501 2.931c0 2.826-2.769 6.1-8.305 9.822-5.537 3.723-12.994 6.665-22.372 8.825a4.203 4.203 0 0 0 1.1 3.132l.982-.04a12.165 12.165 0 0 1 4.555.654c1.021.436 1.531.93 1.531 1.485a1.03 1.03 0 0 1-.533.871c-.344.235-.75.359-1.165.357-1.974 0-3.83-.977-5.568-2.93a30.513 30.513 0 0 0-19.326 10.1c-5.014 5.647-7.52 10.48-7.52 14.494a5.984 5.984 0 0 0 2.53 4.792 10.911 10.911 0 0 0 6.987 2.02c5.604 0 11.283-1.729 17.036-5.188 5.754-3.458 8.629-7.234 8.626-11.327a4.449 4.449 0 0 0-1.421-3.367 5.401 5.401 0 0 0-3.87-1.346c-4.08 0-8.588 1.565-13.522 4.693a38.336 38.336 0 0 0-11.588 10.951l-.277-.159a39.927 39.927 0 0 1 11.628-10.992c4.936-3.18 9.47-4.772 13.601-4.772a6.12 6.12 0 0 1 4.403 1.525 4.767 4.767 0 0 1 1.601 3.544c0 4.2-2.969 8.042-8.906 11.525-5.937 3.484-11.64 5.226-17.11 5.228-3.978.002-6.921-1.048-8.829-3.15zm26.433-28.612a7.112 7.112 0 0 0 5.132 2.654c.842 0 1.263-.29 1.264-.87 0-.608-.573-1.07-1.718-1.387a12.233 12.233 0 0 0-3.258-.475c-.315 0-.789.026-1.42.078zm8.535-18.165c-5.928 5.026-9.221 9.802-9.877 14.328 9.594-2.315 17.032-5.262 22.314-8.84 5.281-3.58 7.923-6.803 7.925-9.672a2.83 2.83 0 0 0-1.337-2.427 6.128 6.128 0 0 0-3.549-.928c-4.39 0-9.549 2.513-15.476 7.54zm20.513 49.057a2.336 2.336 0 0 1-.613-1.7 6.242 6.242 0 0 1 1.009-3.188c.672-1.122 3.197-3.796 7.574-8.02l-.081-.2-3.639 2.772-3.914 3.248-.277-.277c1.291-1.108 4.545-3.696 9.764-7.763h3.826l-12.52 12.356a3.748 3.748 0 0 0-.947 1.426v.277a1.247 1.247 0 0 0 .395.911 1.331 1.331 0 0 0 .987.4 8.243 8.243 0 0 0 3.573-1.287 60.348 60.348 0 0 0 8.074-6.317l.276.277c-5.87 5.15-9.831 7.723-11.883 7.723a2.125 2.125 0 0 1-1.6-.637h-.004zm16.562-21.287a1.42 1.42 0 0 1-.391-1.01 2.305 2.305 0 0 1 2.147-2.1 1.261 1.261 0 0 1 .976.436c.256.282.396.65.39 1.03a1.848 1.848 0 0 1-.7 1.466 2.27 2.27 0 0 1-1.484.594 1.238 1.238 0 0 1-.938-.416z" fill="#fff" stroke="#fff" stroke-width=".297" stroke-miterlimit="10"/>
    <path d="M193.638 95.691H38.688v1.228h154.95v-1.228zM66.24 136.374c.065.112.121.231.168.357.051.121.1.245.147.371a5.626 5.626 0 0 1 .322-.735l3.395-6.167c.06-.107.124-.173.189-.196a.88.88 0 0 1 .28-.035h1V140h-1.19v-7.371a7.534 7.534 0 0 1 .029-.658l-3.437 6.272c-.117.21-.28.315-.49.315h-.196c-.21 0-.373-.105-.49-.315l-3.514-6.293c.014.121.023.24.028.357.01.117.014.224.014.322V140h-1.19v-10.031h1a.88.88 0 0 1 .28.035c.066.023.13.089.19.196l3.465 6.174zM79.196 140h-.553a.665.665 0 0 1-.294-.056c-.075-.037-.124-.117-.147-.238l-.14-.658c-.187.168-.369.32-.546.455a3.376 3.376 0 0 1-.56.336 3.016 3.016 0 0 1-.63.203 3.52 3.52 0 0 1-.735.07c-.275 0-.534-.037-.777-.112a1.7 1.7 0 0 1-1.05-.931 2.11 2.11 0 0 1-.154-.84c0-.28.077-.548.23-.805.155-.261.402-.492.743-.693.345-.201.796-.364 1.35-.49.556-.131 1.235-.205 2.038-.224v-.553c0-.551-.12-.966-.357-1.246-.234-.285-.581-.427-1.043-.427-.303 0-.56.04-.77.119a2.778 2.778 0 0 0-.54.259c-.148.093-.28.18-.391.259a.558.558 0 0 1-.322.112.405.405 0 0 1-.224-.063.572.572 0 0 1-.147-.168l-.224-.399c.392-.378.814-.66 1.267-.847.453-.187.954-.28 1.505-.28.397 0 .749.065 1.057.196.308.131.567.313.777.546.21.233.368.516.476.847.107.331.16.695.16 1.092V140zm-3.234-.763c.22 0 .42-.021.602-.063.182-.047.352-.11.51-.189a2.68 2.68 0 0 0 .463-.301c.15-.117.294-.25.434-.399v-1.477a9.916 9.916 0 0 0-1.463.14c-.401.07-.728.163-.98.28-.252.117-.437.254-.553.413a.902.902 0 0 0-.168.532c0 .187.03.348.09.483.061.135.143.247.246.336.103.084.224.147.364.189.14.037.291.056.455.056zm7.27.875c-.56 0-.991-.156-1.294-.469-.3-.313-.448-.763-.448-1.351v-4.34h-.855a.289.289 0 0 1-.189-.063c-.05-.047-.076-.117-.076-.21v-.497l1.161-.147.287-2.191c.01-.07.04-.126.091-.168a.279.279 0 0 1 .197-.07h.63v2.443h2.03v.903h-2.03v4.256c0 .299.072.52.216.665a.757.757 0 0 0 .56.217c.131 0 .243-.016.337-.049.097-.037.181-.077.251-.119.07-.042.129-.079.175-.112.052-.037.096-.056.133-.056.066 0 .124.04.175.119l.365.595a2.366 2.366 0 0 1-.777.476 2.687 2.687 0 0 1-.939.168zm3.074-.112v-7.091h.714c.136 0 .229.026.28.077.052.051.087.14.105.266l.084 1.106c.243-.495.541-.88.896-1.155.36-.28.78-.42 1.26-.42.196 0 .374.023.532.07.159.042.306.103.441.182l-.16.931c-.034.117-.106.175-.218.175a1.14 1.14 0 0 1-.3-.063 1.8 1.8 0 0 0-.568-.07c-.434 0-.798.126-1.092.378-.29.252-.532.618-.728 1.099V140h-1.246zm7.033-7.091V140h-1.246v-7.091h1.246zm.28-2.226a.785.785 0 0 1-.077.343.947.947 0 0 1-.476.469.846.846 0 0 1-.343.07.845.845 0 0 1-.343-.07 1.035 1.035 0 0 1-.28-.189 1.013 1.013 0 0 1-.19-.28.85.85 0 0 1-.07-.343.85.85 0 0 1 .07-.343.872.872 0 0 1 .19-.287.845.845 0 0 1 .623-.266.846.846 0 0 1 .623.266c.084.079.149.175.196.287a.785.785 0 0 1 .077.343zM95.535 140v-7.091h.742c.177 0 .289.086.336.259l.09.728a3.66 3.66 0 0 1 .876-.791 2.089 2.089 0 0 1 1.134-.308c.48 0 .868.133 1.162.399.298.266.513.625.644 1.078.098-.257.226-.478.385-.665a2.29 2.29 0 0 1 1.183-.728c.228-.056.459-.084.693-.084.373 0 .704.061.994.182.294.117.541.289.742.518.205.229.361.511.469.847.107.331.161.712.161 1.141V140H103.9v-4.515c0-.555-.122-.975-.364-1.26-.243-.289-.595-.434-1.057-.434-.206 0-.402.037-.588.112-.182.07-.343.175-.483.315-.14.14-.252.317-.336.532a2.06 2.06 0 0 0-.119.735V140h-1.246v-4.515c0-.569-.115-.994-.343-1.274-.229-.28-.563-.42-1.001-.42-.308 0-.595.084-.861.252a2.765 2.765 0 0 0-.721.672V140h-1.246zm14.368-7.203c.518 0 .984.086 1.4.259.42.173.774.418 1.064.735.294.317.518.702.672 1.155.158.448.238.95.238 1.505 0 .56-.08 1.064-.238 1.512a3.187 3.187 0 0 1-.672 1.148c-.29.317-.644.562-1.064.735a3.707 3.707 0 0 1-1.4.252c-.518 0-.987-.084-1.407-.252a3.003 3.003 0 0 1-1.064-.735 3.26 3.26 0 0 1-.679-1.148 4.5 4.5 0 0 1-.238-1.512c0-.555.079-1.057.238-1.505.158-.453.385-.838.679-1.155a3.003 3.003 0 0 1 1.064-.735c.42-.173.889-.259 1.407-.259zm0 6.328c.7 0 1.222-.233 1.568-.7.345-.471.518-1.127.518-1.967 0-.845-.173-1.503-.518-1.974-.346-.471-.868-.707-1.568-.707-.355 0-.663.061-.924.182a1.744 1.744 0 0 0-.658.525 2.396 2.396 0 0 0-.392.847 4.596 4.596 0 0 0-.126 1.127c0 .42.042.796.126 1.127.088.331.219.611.392.84.177.224.396.397.658.518.261.121.569.182.924.182zm4.909.875v-7.091h.742c.177 0 .289.086.336.259l.098.77a4.002 4.002 0 0 1 1.029-.826c.383-.21.824-.315 1.323-.315.387 0 .728.065 1.022.196.299.126.546.308.742.546.201.233.352.516.455.847.103.331.154.698.154 1.099V140h-1.246v-4.515c0-.537-.124-.952-.371-1.246-.243-.299-.616-.448-1.12-.448-.369 0-.714.089-1.036.266a3.436 3.436 0 0 0-.882.721V140h-1.246zm9.64 2.093a.636.636 0 0 1-.161.224c-.061.056-.157.084-.287.084h-.924l1.295-2.814-2.926-6.678h1.078c.107 0 .191.028.252.084a.48.48 0 0 1 .133.175l1.897 4.466c.042.103.077.205.105.308.032.103.06.208.084.315.032-.107.065-.212.098-.315a4.61 4.61 0 0 1 .112-.315l1.841-4.459a.381.381 0 0 1 .14-.182.373.373 0 0 1 .224-.077h.994l-3.955 9.184zm3.749-2.863c0-.121.021-.236.063-.343a.967.967 0 0 1 .182-.28.91.91 0 0 1 .28-.189.845.845 0 0 1 .343-.07c.121 0 .236.023.343.07a.91.91 0 0 1 .28.189c.079.079.14.173.182.28.047.107.07.222.07.343a.862.862 0 0 1-.07.35.822.822 0 0 1-.462.455.845.845 0 0 1-.343.07.845.845 0 0 1-.343-.07.812.812 0 0 1-.462-.455.95.95 0 0 1-.063-.35zm8.21-5.061a.591.591 0 0 1-.112.119.266.266 0 0 1-.161.042.426.426 0 0 1-.231-.084 2.426 2.426 0 0 0-.77-.385 2.048 2.048 0 0 0-.658-.091c-.346 0-.651.063-.917.189-.266.121-.49.299-.672.532a2.49 2.49 0 0 0-.406.847 4.289 4.289 0 0 0-.133 1.113c0 .429.049.812.147 1.148.098.331.235.611.413.84.177.224.392.397.644.518.256.117.543.175.861.175.303 0 .553-.035.749-.105.196-.075.359-.156.49-.245.13-.089.238-.168.322-.238a.38.38 0 0 1 .252-.112c.107 0 .186.04.238.119l.35.455a2.718 2.718 0 0 1-1.155.833c-.462.173-.95.259-1.463.259-.444 0-.857-.082-1.239-.245a2.841 2.841 0 0 1-.987-.707 3.45 3.45 0 0 1-.665-1.148c-.159-.453-.238-.968-.238-1.547 0-.527.072-1.015.217-1.463.149-.448.364-.833.644-1.155a2.917 2.917 0 0 1 1.05-.763c.415-.182.891-.273 1.428-.273.494 0 .933.082 1.316.245.382.159.721.385 1.015.679l-.329.448zm4.568-1.372c.518 0 .985.086 1.4.259.42.173.775.418 1.064.735.294.317.518.702.672 1.155.159.448.238.95.238 1.505a4.5 4.5 0 0 1-.238 1.512 3.187 3.187 0 0 1-.672 1.148 2.925 2.925 0 0 1-1.064.735 3.703 3.703 0 0 1-1.4.252c-.518 0-.987-.084-1.407-.252a3.012 3.012 0 0 1-1.064-.735c-.294-.317-.52-.7-.679-1.148a4.5 4.5 0 0 1-.238-1.512c0-.555.079-1.057.238-1.505.159-.453.385-.838.679-1.155a3.012 3.012 0 0 1 1.064-.735c.42-.173.889-.259 1.407-.259zm0 6.328c.7 0 1.223-.233 1.568-.7.345-.471.518-1.127.518-1.967 0-.845-.173-1.503-.518-1.974-.345-.471-.868-.707-1.568-.707-.355 0-.663.061-.924.182a1.752 1.752 0 0 0-.658.525 2.413 2.413 0 0 0-.392.847 4.596 4.596 0 0 0-.126 1.127c0 .42.042.796.126 1.127.089.331.219.611.392.84.177.224.397.397.658.518s.569.182.924.182zm4.909.875v-7.091h.742c.178 0 .29.086.336.259l.091.728c.262-.322.553-.586.875-.791a2.09 2.09 0 0 1 1.134-.308c.481 0 .868.133 1.162.399.299.266.514.625.644 1.078.098-.257.227-.478.385-.665a2.32 2.32 0 0 1 1.183-.728c.229-.056.46-.084.693-.084.374 0 .705.061.994.182.294.117.542.289.742.518.206.229.362.511.469.847.108.331.161.712.161 1.141V140h-1.246v-4.515c0-.555-.121-.975-.364-1.26-.242-.289-.595-.434-1.057-.434-.205 0-.401.037-.588.112-.182.07-.343.175-.483.315-.14.14-.252.317-.336.532-.079.21-.119.455-.119.735V140h-1.246v-4.515c0-.569-.114-.994-.343-1.274-.228-.28-.562-.42-1.001-.42-.308 0-.595.084-.861.252a2.78 2.78 0 0 0-.721.672V140h-1.246zm16.592-7.21c.308 0 .595.035.861.105.271.065.516.163.735.294h1.925v.462c0 .154-.098.252-.294.294l-.805.112c.159.303.238.642.238 1.015 0 .345-.067.66-.203.945-.13.28-.315.52-.553.721a2.422 2.422 0 0 1-.84.462 3.355 3.355 0 0 1-1.064.161c-.331 0-.644-.04-.938-.119a1.243 1.243 0 0 0-.343.301.556.556 0 0 0-.112.315c0 .168.068.296.203.385.136.084.315.145.539.182.224.037.479.061.763.07.285.009.574.026.868.049.299.019.591.054.875.105.285.051.539.135.763.252.224.117.404.278.539.483.136.205.203.471.203.798 0 .303-.077.597-.231.882a2.296 2.296 0 0 1-.651.756 3.271 3.271 0 0 1-1.043.532c-.41.135-.875.203-1.393.203s-.973-.051-1.365-.154a3.194 3.194 0 0 1-.966-.413 1.832 1.832 0 0 1-.581-.602 1.422 1.422 0 0 1-.189-.707c0-.35.11-.646.329-.889.224-.247.53-.443.917-.588a1.306 1.306 0 0 1-.483-.371c-.116-.159-.175-.369-.175-.63 0-.103.019-.208.056-.315a1.33 1.33 0 0 1 .168-.329 1.865 1.865 0 0 1 .679-.567 2.247 2.247 0 0 1-.826-.777 2.176 2.176 0 0 1-.294-1.141c0-.345.066-.658.196-.938a2.08 2.08 0 0 1 .56-.721 2.51 2.51 0 0 1 .847-.462 3.517 3.517 0 0 1 1.085-.161zm2.212 7.595a.609.609 0 0 0-.147-.427.925.925 0 0 0-.399-.245 2.706 2.706 0 0 0-.581-.133 7.72 7.72 0 0 0-.693-.056l-.742-.042a6.925 6.925 0 0 1-.721-.077 2.09 2.09 0 0 0-.651.462.943.943 0 0 0-.245.651c0 .159.04.306.119.441.084.14.21.259.378.357.168.103.378.182.63.238.257.061.558.091.903.091.336 0 .637-.03.903-.091s.49-.147.672-.259a1.26 1.26 0 0 0 .427-.399.932.932 0 0 0 .147-.511zm-2.212-3.85c.252 0 .474-.035.665-.105.196-.07.36-.168.49-.294.131-.126.229-.275.294-.448.066-.177.098-.371.098-.581 0-.434-.133-.779-.399-1.036-.261-.257-.644-.385-1.148-.385-.499 0-.882.128-1.148.385-.261.257-.392.602-.392 1.036 0 .21.033.404.098.581.07.173.171.322.301.448.131.126.292.224.483.294.192.07.411.105.658.105zm4.764 3.465v-7.091h.714c.135 0 .228.026.28.077.051.051.086.14.105.266l.084 1.106c.242-.495.541-.88.896-1.155a1.99 1.99 0 0 1 1.26-.42c.196 0 .373.023.532.07.158.042.305.103.441.182l-.161.931c-.033.117-.105.175-.217.175-.066 0-.166-.021-.301-.063a1.805 1.805 0 0 0-.567-.07c-.434 0-.798.126-1.092.378-.29.252-.532.618-.728 1.099V140h-1.246zm8.516-7.203c.518 0 .985.086 1.4.259.42.173.775.418 1.064.735.294.317.518.702.672 1.155.159.448.238.95.238 1.505a4.5 4.5 0 0 1-.238 1.512 3.187 3.187 0 0 1-.672 1.148 2.925 2.925 0 0 1-1.064.735 3.703 3.703 0 0 1-1.4.252c-.518 0-.987-.084-1.407-.252a3.012 3.012 0 0 1-1.064-.735c-.294-.317-.52-.7-.679-1.148a4.5 4.5 0 0 1-.238-1.512c0-.555.079-1.057.238-1.505.159-.453.385-.838.679-1.155a3.012 3.012 0 0 1 1.064-.735c.42-.173.889-.259 1.407-.259zm0 6.328c.7 0 1.223-.233 1.568-.7.345-.471.518-1.127.518-1.967 0-.845-.173-1.503-.518-1.974-.345-.471-.868-.707-1.568-.707-.355 0-.663.061-.924.182a1.752 1.752 0 0 0-.658.525 2.413 2.413 0 0 0-.392.847 4.596 4.596 0 0 0-.126 1.127c0 .42.042.796.126 1.127.089.331.219.611.392.84.177.224.397.397.658.518s.569.182.924.182zm5.987-6.216v4.522c0 .537.124.952.371 1.246.248.294.621.441 1.12.441.364 0 .707-.086 1.029-.259.322-.173.619-.413.889-.721v-5.229h1.246V140h-.742c-.177 0-.289-.086-.336-.259l-.098-.763a3.95 3.95 0 0 1-1.036.826 2.741 2.741 0 0 1-1.316.308 2.63 2.63 0 0 1-1.029-.189 2.086 2.086 0 0 1-.742-.546 2.36 2.36 0 0 1-.455-.847 3.865 3.865 0 0 1-.147-1.099v-4.522h1.246zm6.702 9.492v-9.492h.742c.177 0 .289.086.336.259l.105.84a3.786 3.786 0 0 1 1.036-.889 2.674 2.674 0 0 1 1.351-.336c.406 0 .774.079 1.106.238.331.154.613.385.847.693.233.303.413.681.539 1.134.126.453.189.973.189 1.561 0 .523-.07 1.01-.21 1.463-.14.448-.341.838-.602 1.169a2.861 2.861 0 0 1-.966.777 2.85 2.85 0 0 1-1.281.28c-.439 0-.815-.072-1.127-.217a2.548 2.548 0 0 1-.819-.616v3.136h-1.246zm3.157-8.61c-.406 0-.763.093-1.071.28a3.08 3.08 0 0 0-.84.791v3.43c.228.308.478.525.749.651.275.126.581.189.917.189.658 0 1.164-.236 1.519-.707.354-.471.532-1.143.532-2.016 0-.462-.042-.859-.126-1.19a2.26 2.26 0 0 0-.35-.812 1.364 1.364 0 0 0-.567-.469 1.888 1.888 0 0 0-.763-.147z" fill="#fff"/>
</svg>
