<svg xmlns="http://www.w3.org/2000/svg" width="90" height="56" viewBox="0 0 90 56">
    <g data-name="Group 20386">
        <path data-name="Rectangle 5140" d="M0 0h90v48a8 8 0 0 1-8 8H8a8 8 0 0 1-8-8V0z" style="fill:#ba3e3e"/>
        <g data-name="Group 20375">
            <path data-name="Path 1" d="M49.161 22.1a3.2 3.2 0 0 1-2.174 1.978 3.145 3.145 0 0 1-1.044 2.73 3.184 3.184 0 0 1-2.785-.9 3.185 3.185 0 0 1-2.887.439 3.237 3.237 0 0 1-.634-2.867 3.224 3.224 0 0 1-1.815-2.292 3.2 3.2 0 0 1 2.162-1.973 3.224 3.224 0 0 1 1.073-2.731 3.177 3.177 0 0 1 2.768.894 3.188 3.188 0 0 1 2.888-.439 3.223 3.223 0 0 1 .622 2.873 3.23 3.23 0 0 1 1.826 2.288zm-2.082-3.77a3.545 3.545 0 0 0-2.163 1.231 3.6 3.6 0 0 0 .371-2.464 2.986 2.986 0 0 1-.648 2.423 2.346 2.346 0 0 0-1.944-.155 3.01 3.01 0 0 1-.261-2.5 3.5 3.5 0 0 0-.021 2.481 3.645 3.645 0 0 0-1.943-1.554 3.029 3.029 0 0 1 1.767 1.789 2.4 2.4 0 0 0-.722.692 2.434 2.434 0 0 0-.386.929 3 3 0 0 1-2.3-1.027 3.568 3.568 0 0 0 2.137 1.267 3.6 3.6 0 0 0-2.315.91 3.047 3.047 0 0 1 2.438-.646 2.41 2.41 0 0 0 .836 1.776 2.971 2.971 0 0 1-2.035 1.478 3.5 3.5 0 0 0 2.158-1.214 3.588 3.588 0 0 0-.36 2.458 3.031 3.031 0 0 1 .654-2.441 2.427 2.427 0 0 0 1.949.166 2.98 2.98 0 0 1 .261 2.5 3.568 3.568 0 0 0 .033-2.487 3.507 3.507 0 0 0 1.938 1.542 3 3 0 0 1-1.777-1.784 2.5 2.5 0 0 0 .739-.687 2.39 2.39 0 0 0 .368-.935 3.009 3.009 0 0 1 2.285 1.033 3.508 3.508 0 0 0-2.119-1.262 3.563 3.563 0 0 0 2.3-.916 2.969 2.969 0 0 1-2.421.651 2.44 2.44 0 0 0-.853-1.781 3.031 3.031 0 0 1 2.034-1.473zm-1.195 3.508c.028 0 .045.005.073 0a.256.256 0 0 1-.073 0zm-1.06.726a.9.9 0 0 1-.512.8.922.922 0 0 1-.949-.1.86.86 0 0 1-.938-.052.886.886 0 0 1-.392-.866.916.916 0 0 1-.426-.848.867.867 0 0 1 .558-.763.908.908 0 0 1 1.455-.7.9.9 0 0 1 .954.058.888.888 0 0 1 .375.86.888.888 0 0 1 .425.849.877.877 0 0 1-.55.762zm-1.17-1.164a.768.768 0 0 1-.126-.105.805.805 0 0 1-.157.082.8.8 0 0 1-.162.07.426.426 0 0 1 0 .17.558.558 0 0 1-.025.17 1.341 1.341 0 0 1 .154.077c.045.033.086.084.132.117a.724.724 0 0 1 .14-.087.745.745 0 0 1 .168-.059v-.17a1.307 1.307 0 0 1 .022-.165c-.044-.035-.1-.061-.146-.1zm1.2-1.753c.017-.023.022-.04.044-.051-.023.012-.022.04-.038.063zm-2.716 3.976a.258.258 0 0 0-.039.063c.005-.017.022-.04.027-.057zm2.407.2c-.006.017.006.04.018.062l-.035-.067a.013.013 0 0 0 .012.008zm-3.447-2.367a.2.2 0 0 1-.068-.022.285.285 0 0 0 .074 0c-.017.014-.017.014-.011.025z" transform="translate(-15.23 -12.128)" style="fill-rule:evenodd;fill:#fff"/>
            <path data-name="Path 2" d="M41.156 45.16a7.078 7.078 0 0 1-4.808 4.375 6.954 6.954 0 0 1-2.309 6.038 7.04 7.04 0 0 1-6.159-1.99 7.047 7.047 0 0 1-6.385.97 7.159 7.159 0 0 1-1.4-6.34 7.13 7.13 0 0 1-4.013-5.068 7.082 7.082 0 0 1 4.781-4.363 7.129 7.129 0 0 1 2.372-6.04 7.025 7.025 0 0 1 6.122 1.978 7.051 7.051 0 0 1 6.386-.97 7.129 7.129 0 0 1 1.374 6.35 7.142 7.142 0 0 1 4.039 5.06zm-4.6-8.329c-.9-.161-3.784 1.315-4.784 2.722.949-1.444 1.283-4.681.822-5.449a6.605 6.605 0 0 1-1.433 5.359 5.189 5.189 0 0 0-4.3-.342 6.656 6.656 0 0 1-.578-5.539c-.588.687-.771 3.908-.047 5.486-.8-1.539-3.388-3.438-4.3-3.436a6.7 6.7 0 0 1 3.908 3.957 5.3 5.3 0 0 0-1.6 1.53 5.372 5.372 0 0 0-.853 2.055 6.625 6.625 0 0 1-5.079-2.27c.314.846 3 2.63 4.726 2.8-1.725-.11-4.646 1.229-5.121 2.013a6.738 6.738 0 0 1 5.393-1.43 5.329 5.329 0 0 0 1.849 3.928 6.57 6.57 0 0 1-4.5 3.268c.9.16 3.772-1.277 4.773-2.684-.925 1.431-1.272 4.643-.8 5.436a6.7 6.7 0 0 1 1.446-5.4 5.37 5.37 0 0 0 4.311.367 6.592 6.592 0 0 1 .576 5.539c.589-.686.773-3.908.073-5.5.774 1.553 3.388 3.439 4.285 3.411a6.63 6.63 0 0 1-3.933-3.942 5.533 5.533 0 0 0 1.639-1.51 5.289 5.289 0 0 0 .815-2.068 6.655 6.655 0 0 1 5.056 2.282c-.288-.859-2.987-2.606-4.687-2.791 1.71.084 4.647-1.23 5.083-2.026a6.566 6.566 0 0 1-5.355 1.441 5.394 5.394 0 0 0-1.886-3.94 6.7 6.7 0 0 1 4.497-3.267zm-2.647 7.759c.063 0 .1.012.162.01a.571.571 0 0 1-.162-.01zm-2.344 1.6a1.984 1.984 0 0 1-1.133 1.76 2.039 2.039 0 0 1-2.1-.228 1.9 1.9 0 0 1-2.074-.116 1.958 1.958 0 0 1-.868-1.914 2.027 2.027 0 0 1-.942-1.876 1.917 1.917 0 0 1 1.234-1.687 2.008 2.008 0 0 1 3.218-1.552 2 2 0 0 1 2.111.129 1.964 1.964 0 0 1 .83 1.9 1.965 1.965 0 0 1 .941 1.876 1.94 1.94 0 0 1-1.216 1.713zm-2.589-2.563a1.7 1.7 0 0 1-.276-.227 1.778 1.778 0 0 1-.347.182 1.756 1.756 0 0 1-.36.156.941.941 0 0 1 .006.376 1.235 1.235 0 0 1-.056.377 3 3 0 0 1 .341.17c.1.074.19.185.291.259a1.624 1.624 0 0 1 .309-.193 1.675 1.675 0 0 1 .371-.131c0-.126 0-.251-.005-.376a2.939 2.939 0 0 1 .057-.378c-.107-.076-.229-.136-.33-.21zm2.644-3.877c.037-.051.049-.088.1-.114-.05.026-.049.089-.085.139zm-6.007 8.793a.573.573 0 0 0-.085.14c.012-.038.048-.089.06-.127zm5.323.438c-.013.038.014.088.04.137l-.078-.149a.028.028 0 0 0 .039.018zm-7.624-5.235a.435.435 0 0 1-.151-.048.633.633 0 0 0 .163.01c-.024.018-.024.018-.01.044z" transform="translate(-7.758 -17.234)" style="fill-rule:evenodd;fill:#fff"/>
            <path data-name="Union 2" d="M34.052 26.412a1.345 1.345 0 0 1-.33-.9q0-1.342 1.782-3.24l3.636-3.795-.071-.054-5.739 4.668-.125-.125 4.885-4.015 2.078-1.642h-1.6l.071-.179h1.793l3.022-3.168 1.525-.036-2.889 3.2h2.558l-.054.179h-2.719l-6.14 6.574q-1.1 1.179-1.326 1.483a.984.984 0 0 0-.222.572.576.576 0 0 0 .223.456.722.722 0 0 0 .473.188q1.462 0 5.6-3.616l.125.125q-4.3 3.705-5.76 3.705a1.011 1.011 0 0 1-.796-.38zm-14.934.036a1.169 1.169 0 0 1-.33-.832q0-1.324 2.051-3.831a20.262 20.262 0 0 1 2.639-2.9l-.018-.107a8.961 8.961 0 0 0-1.89 1.378l-3.53 2.935-.125-.125q3.923-3.365 4.592-3.849a7.143 7.143 0 0 1 1.052-.662 2.251 2.251 0 0 0 .651-.448q3.031-3.258 5.814-5.8a53.062 53.062 0 0 1 4.752-3.947 6.15 6.15 0 0 1 3.29-1.405 1.172 1.172 0 0 1 .811.3.867.867 0 0 1 .33.653q0 1.038-2.283 3.088a37.671 37.671 0 0 1-5.653 4.09 24.221 24.221 0 0 1-5.172 2.56q-.41.483-1.516 1.683L23.158 20.8l-1.8 2.148a10.916 10.916 0 0 0-2 2.846v.161q0 .591.66.591 1.533 0 5.546-3.58l.125.125-1.088.931Q21.357 26.8 19.895 26.8a1.034 1.034 0 0 1-.776-.352zM35.418 8.1a34.94 34.94 0 0 0-4.672 4.3q-3.148 3.276-4.4 4.869a29.8 29.8 0 0 0 4.842-2.479 32.7 32.7 0 0 0 5.591-4.028q2.179-2.009 2.179-2.962a.656.656 0 0 0-.268-.51 1.021 1.021 0 0 0-.678-.224A4.939 4.939 0 0 0 35.418 8.1zm5.359 17.086q0-2.023 2.755-3.813a8.955 8.955 0 0 1 4.307-1.79.77.77 0 0 1 .49.161.486.486 0 0 1 .205.394q0 .877-1.734 1.844a10.072 10.072 0 0 1-3.843 1.2q-1.824 1.826-1.823 2.506a.794.794 0 0 0 .321.6 1.111 1.111 0 0 0 .749.277 6.762 6.762 0 0 0 2.63-.814 19.046 19.046 0 0 0 3.986-2.784l.125.125a17.657 17.657 0 0 1-3.9 2.748 7 7 0 0 1-2.811.85 1.31 1.31 0 0 1-1.456-1.504zm6.086-5.136a12.459 12.459 0 0 0-1.707 1.179A14.6 14.6 0 0 0 43.226 23a7.039 7.039 0 0 0 1.9-.468 7.286 7.286 0 0 0 2.261-1.206q.9-.738.9-1.224 0-.342-.393-.342a2.291 2.291 0 0 0-1.03.29zm-45.57 5.216A4.673 4.673 0 0 1 0 22.035a7.935 7.935 0 0 1 2.969-5.9q2.969-2.712 9.942-3.947a3.49 3.49 0 0 1-.8-1.325 24.257 24.257 0 0 1-4.779.609 6.919 6.919 0 0 1-4.485-1.289 3.714 3.714 0 0 1-1.578-2.9q0-3.2 3.691-5.245A17.254 17.254 0 0 1 13.446 0v.125a14.266 14.266 0 0 0-8.453 2.342q-3.3 2.341-3.3 5.093a3.255 3.255 0 0 0 1.5 2.592A7.107 7.107 0 0 0 7.561 11.3a22.3 22.3 0 0 0 4.548-.589 4.064 4.064 0 0 1-.2-1.179 5.818 5.818 0 0 1 1.632-3.8 15.774 15.774 0 0 1 4.97-3.542A13.166 13.166 0 0 1 24.039.537 3.025 3.025 0 0 1 25.786 1a1.512 1.512 0 0 1 .678 1.325q0 1.916-3.749 4.439a30.4 30.4 0 0 1-10.107 3.992 1.9 1.9 0 0 0 .5 1.414l.443-.018a5.49 5.49 0 0 1 2.057.3q.691.3.692.671a.467.467 0 0 1-.241.394.927.927 0 0 1-.526.161 3.374 3.374 0 0 1-2.515-1.325 13.78 13.78 0 0 0-8.729 4.565q-3.4 3.831-3.4 6.551a2.706 2.706 0 0 0 1.141 2.166 4.925 4.925 0 0 0 3.156.913 14.853 14.853 0 0 0 7.698-2.348q3.9-2.345 3.9-5.119a2.011 2.011 0 0 0-.642-1.522 2.438 2.438 0 0 0-1.748-.608 11.649 11.649 0 0 0-6.108 2.121 17.32 17.32 0 0 0-5.234 4.949l-.125-.072a18.041 18.041 0 0 1 5.252-4.967 11.563 11.563 0 0 1 6.144-2.157 2.763 2.763 0 0 1 1.988.689 2.151 2.151 0 0 1 .722 1.6q0 2.846-4.021 5.209a15.285 15.285 0 0 1-7.731 2.363 5.127 5.127 0 0 1-3.988-1.42zm11.939-12.933a3.214 3.214 0 0 0 2.318 1.2q.57 0 .571-.394 0-.412-.776-.627a5.516 5.516 0 0 0-1.471-.215q-.214.003-.642.036zm3.855-8.21q-4.016 3.408-4.461 6.477a31.254 31.254 0 0 0 10.08-4q3.579-2.426 3.58-4.371a1.28 1.28 0 0 0-.605-1.1 2.766 2.766 0 0 0-1.6-.419Q21.1.716 17.087 4.124zM26.354 26.3a1.06 1.06 0 0 1-.276-.77 2.823 2.823 0 0 1 .456-1.441 29.133 29.133 0 0 1 3.421-3.625l-.036-.09-1.643 1.253-1.768 1.468-.125-.125q.875-.752 4.41-3.508h1.727l-5.657 5.585a1.693 1.693 0 0 0-.428.644v.125a.566.566 0 0 0 .178.412.6.6 0 0 0 .446.179 3.721 3.721 0 0 0 1.614-.582 27.281 27.281 0 0 0 3.647-2.855l.125.125q-3.977 3.491-5.368 3.491a.959.959 0 0 1-.723-.286zm7.479-9.621a.642.642 0 0 1-.177-.456 1.042 1.042 0 0 1 .97-.949.568.568 0 0 1 .441.2.675.675 0 0 1 .176.465.835.835 0 0 1-.317.662 1.024 1.024 0 0 1-.67.268.56.56 0 0 1-.423-.195z" transform="translate(32.313 11.801)" style="stroke:#fff;stroke-miterlimit:10;stroke-width:.297px;fill:#fff"/>
            <path data-name="Rectangle 1" transform="translate(8.321 40.727)" style="fill:#fff" d="M0 0h72.937v.491H0z"/>
            <path data-name="Path 73246" d="M1.859-5.687 3.5-1.328l1.637-4.359h1.277V0H5.43v-1.875l.1-2.508L3.848 0h-.707L1.465-4.379l.1 2.5V0H.578v-5.687zM10.016 0a1.465 1.465 0 0 1-.109-.395A1.478 1.478 0 0 1 8.8.078a1.491 1.491 0 0 1-1.042-.363 1.162 1.162 0 0 1-.4-.9 1.2 1.2 0 0 1 .5-1.037 2.433 2.433 0 0 1 1.436-.361h.582v-.277a.74.74 0 0 0-.184-.525.728.728 0 0 0-.559-.2.836.836 0 0 0-.533.165.5.5 0 0 0-.207.412h-.948a1.053 1.053 0 0 1 .23-.65 1.535 1.535 0 0 1 .625-.475 2.2 2.2 0 0 1 .888-.167 1.773 1.773 0 0 1 1.184.373 1.33 1.33 0 0 1 .453 1.049v1.901a2.16 2.16 0 0 0 .16.91V0zM8.973-.684A1.08 1.08 0 0 0 9.5-.82a.913.913 0 0 0 .373-.367v-.8h-.51a1.4 1.4 0 0 0-.793.187.6.6 0 0 0-.266.52.555.555 0 0 0 .182.436.7.7 0 0 0 .487.16zm4.035-4.57v1.027h.746v.7h-.746v2.359a.52.52 0 0 0 .1.35.444.444 0 0 0 .342.107 1.462 1.462 0 0 0 .332-.039v.734a2.338 2.338 0 0 1-.625.09q-1.094 0-1.094-1.207v-2.39h-.7v-.7h.7v-1.031zm3.684 1.895a2.349 2.349 0 0 0-.387-.031.871.871 0 0 0-.879.5V0h-.949v-4.227h.906l.023.473a1.069 1.069 0 0 1 .953-.551.889.889 0 0 1 .336.055zM18.3 0h-.949v-4.227h.949zm-1.007-5.324a.5.5 0 0 1 .139-.363.524.524 0 0 1 .4-.145.53.53 0 0 1 .4.145.5.5 0 0 1 .141.363.488.488 0 0 1-.141.357.535.535 0 0 1-.4.143.528.528 0 0 1-.4-.143.492.492 0 0 1-.139-.357zm2.934 1.1.027.441a1.521 1.521 0 0 1 1.219-.52 1.168 1.168 0 0 1 1.16.648 1.5 1.5 0 0 1 1.3-.648 1.318 1.318 0 0 1 1.041.387 1.7 1.7 0 0 1 .35 1.141V0h-.949v-2.75a.841.841 0 0 0-.176-.59.769.769 0 0 0-.582-.187.79.79 0 0 0-.529.174.917.917 0 0 0-.288.453V0h-.949v-2.781a.677.677 0 0 0-.762-.746.836.836 0 0 0-.809.465V0h-.949v-4.227zm5.891 2.074a2.492 2.492 0 0 1 .246-1.119 1.8 1.8 0 0 1 .691-.766 1.948 1.948 0 0 1 1.023-.265 1.846 1.846 0 0 1 1.389.551 2.166 2.166 0 0 1 .576 1.461v.223a2.514 2.514 0 0 1-.24 1.117 1.776 1.776 0 0 1-.687.762 1.962 1.962 0 0 1-1.033.27 1.833 1.833 0 0 1-1.432-.6 2.282 2.282 0 0 1-.537-1.588zm.949.082a1.7 1.7 0 0 0 .27 1.021.876.876 0 0 0 .75.369.867.867 0 0 0 .748-.375 1.881 1.881 0 0 0 .268-1.1 1.681 1.681 0 0 0-.275-1.016.879.879 0 0 0-.748-.375.871.871 0 0 0-.738.369 1.846 1.846 0 0 0-.276 1.105zm4.663-2.159.027.488a1.52 1.52 0 0 1 1.23-.566q1.32 0 1.344 1.512V0h-.949v-2.738a.87.87 0 0 0-.174-.6.731.731 0 0 0-.568-.193.915.915 0 0 0-.855.52V0h-.949v-4.227zm5.047 2.867.859-2.867h1.012L36.969.641a1.365 1.365 0 0 1-1.312 1.066 1.7 1.7 0 0 1-.457-.07V.9l.18.012a.924.924 0 0 0 .54-.129.867.867 0 0 0 .287-.439l.137-.363-1.485-4.208h1.023z" transform="translate(42.677 49.685)" style="fill:#fff"/>
        </g>
    </g>
</svg>
