<svg width="106" height="111" viewBox="0 0 106 111" fill="none" xmlns="http://www.w3.org/2000/svg">
    <g filter="url(#vsrjyvq8da)">
        <rect x="12" y="12.5" width="74" height="77.895" rx="8" fill="url(#n36j4s8o2b)"/>
        <rect x="12.5" y="13" width="73" height="76.895" rx="7.5" stroke="url(#ctp1wac1mc)"/>
    </g>
    <path d="M50.283 26.781c.696.202 1.423.246 2.121.456 3.67 1.105 6.303 3.424 7.914 6.954.213.465.091.859-.29 1.036-.378.177-.752.024-.965-.45-.72-1.624-1.742-3.008-3.106-4.124-1.863-1.525-3.996-2.362-6.38-2.442-1.76-.058-3.535-.154-5.26.355-4 1.181-6.581 3.821-7.742 7.892-.394 1.381-.373 2.81-.379 4.232-.001.315.197.351.389.424 1.849.703 3.762.85 5.707.634 3.708-.414 6.994-1.972 10.122-3.938.638-.4 1.246-.853 1.862-1.291.563-.401.966-.299 1.245.33.874 1.973 2.271 3.149 4.433 3.706.076-.794.016-1.58-.023-2.363-.037-.752.123-1.08.583-1.127.493-.05.752.262.804 1.015.035.498.052 1 .048 1.5-.003.245.062.397.281.524.65.38.975.975.982 1.734.01 1.126.004 2.251.002 3.377-.002.783-.337 1.382-.995 1.778-.197.117-.272.251-.268.485.01.813.03 1.628-.016 2.438-.11 1.97-1.22 3.365-3.09 3.886-1.593.446-3.192.87-4.798 1.27-.366.09-.406.278-.323.56.084.284.125.665.558.587.3-.054.582-.014.858.073 2.717.858 5.443 1.692 8.147 2.592 3.94 1.312 6.359 4.741 6.408 9.025.02 1.736.01 3.472 0 5.207-.006 1.123-.583 1.7-1.681 1.7H29.26c-1.076 0-1.663-.573-1.673-1.66-.012-1.58-.009-3.158 0-4.738.004-.646.412-1.007.915-.826.404.145.47.496.47.874 0 1.47.016 2.94-.009 4.41-.006.416.085.56.523.544.95-.037 1.903-.025 2.854-.003.34.008.462-.058.458-.445-.023-1.876-.01-3.752-.01-5.629 0-.156-.011-.317.02-.466.08-.381.31-.618.708-.595.394.024.615.27.645.664.023.311.008.625.008.938 0 1.704.008 3.408-.007 5.112-.002.31.049.422.39.422 9.193-.01 18.386-.01 27.58 0 .321 0 .404-.079.401-.409-.017-1.907-.01-3.815-.007-5.722 0-.157-.01-.319.025-.467.078-.318.285-.516.615-.538.33-.022.554.14.68.449.075.18.06.368.06.555 0 1.907.009 3.815-.007 5.722-.003.326.07.418.398.411a87.133 87.133 0 0 1 3.084-.003c.256.003.347-.067.345-.339-.017-1.969.029-3.94-.041-5.909-.109-3.034-2.308-5.894-5.227-6.88-1.437-.485-2.89-.922-4.331-1.394-.243-.08-.386-.027-.55.168-.993 1.171-2 2.33-3 3.494-1.074 1.25-2.293 1.582-3.846 1.044-.651-.226-1.308-.44-1.951-.687a1.184 1.184 0 0 0-.886.007c-.748.276-1.502.535-2.255.795-1.345.464-2.36.188-3.305-.906-.933-1.079-1.902-2.13-2.777-3.256-.482-.622-.91-.752-1.646-.463-1.48.584-3.066.875-4.514 1.56-1.835.867-3.1 2.302-3.872 4.196-.285.7-.612.937-1.055.743-.426-.187-.505-.574-.229-1.255 1.154-2.835 3.205-4.656 6.068-5.56 2.542-.802 5.081-1.616 7.622-2.42.349-.11.696-.195 1.079-.131.425.07.454-.32.547-.603.1-.308-.04-.43-.338-.503a416.3 416.3 0 0 1-5.17-1.308c-2.012-.52-3.2-2.058-3.231-4.171a86.73 86.73 0 0 1 .002-2.392c.003-.247-.042-.438-.228-.623a1.755 1.755 0 0 1-.522-1.263c-.01-1.22-.008-2.44.001-3.658.004-.454.17-.871.481-1.183.222-.224.271-.453.268-.745-.031-2.571.522-4.989 1.909-7.165 1.999-3.129 4.794-5.026 8.411-5.656.183-.032.398.01.538-.172h4.605zm-1.045 27.141c-.1-.09-.14-.132-.186-.163-.753-.526-1.044-1.272-.866-2.155.172-.851.72-1.4 1.572-1.574.81-.164 1.625-.312 2.443-.43.611-.089 1.202.087 1.58.572.328.422.659.461 1.1.337.176-.05.36-.07.543-.097a.632.632 0 0 0 .456-.27c.928-1.276 1.534-2.69 1.775-4.26.21-1.368.064-2.747.119-4.12.015-.368-.09-.58-.425-.767-1.08-.603-1.967-1.435-2.576-2.539-.176-.318-.294-.357-.6-.14a29.76 29.76 0 0 1-6.084 3.348c-2.615 1.059-5.308 1.717-8.15 1.545-1.013-.06-1.014-.057-1.01.985.012 4.243 2.337 7.699 6.226 9.203 1.289.498 2.631.674 4.083.525zm-.892 7.122c.065-.056.123-.102.175-.153 1.236-1.193 2.469-2.388 3.708-3.578.115-.11.165-.187.042-.337-.41-.503-.575-1.1-.543-1.742.018-.37-.131-.36-.4-.282a10.275 10.275 0 0 1-5.935.006c-.293-.087-.445-.098-.423.297.033.625-.132 1.21-.527 1.7-.136.168-.087.25.04.372 1.227 1.179 2.45 2.363 3.675 3.544.054.053.112.101.188.17v.003zm-1.299.699-4.134-3.993c-.106-.102-.207-.163-.365-.111-.716.233-1.437.458-2.215.705 1.116 1.292 2.177 2.54 3.263 3.764.339.384.798.517 1.302.353.696-.226 1.388-.463 2.15-.72v.002zm-5.241-8.426a1.054 1.054 0 0 0-.313-.443c-1.43-1.188-2.47-2.666-3.18-4.397-.157-.383-.141-.947-.464-1.117-.34-.18-.837-.049-1.265-.053-.015 0-.032.002-.047 0-.257-.04-.347.06-.337.332.02.609.004 1.217.005 1.826.004 1.647.758 2.624 2.323 3.018 1.079.271 2.156.548 3.278.834zm14.563 5.026c-.726-.23-1.387-.426-2.036-.655-.27-.095-.444-.046-.647.152-1.205 1.18-2.423 2.344-3.633 3.518-.119.115-.278.198-.335.406.595.199 1.185.407 1.782.59.694.214 1.322.05 1.805-.489 1.02-1.14 2.01-2.308 3.065-3.524l-.001.002zm4.877-16.45c-.593.401-1.153.138-1.708.003-.291-.07-.396-.026-.394.316.006 1.137.061 2.278-.061 3.412-.023.216.036.279.238.274.429-.01.858.014 1.286-.01.354-.022.63-.204.635-.602.014-1.12.005-2.239.005-3.393h-.001zm-25.797.308c0 1.02-.006 2.005.002 2.988.005.456.217.678.683.702.413.02.828.004 1.242.006.151 0 .273-.004.245-.224-.109-.839-.072-1.684-.07-2.527 0-.215-.086-.29-.279-.347-.598-.18-1.189-.388-1.823-.598zm24.51 7.207c-.931 1.478-1.445 1.826-3.161 2.185-.174.036-.346.053-.49.215a9.6 9.6 0 0 1-1.459 1.348c.234-.015.392 0 .536-.039.859-.222 1.72-.438 2.572-.69 1.38-.41 2.096-1.481 2.001-3.02h.002zm-9.694 3.283c.727-.132 1.529-.254 2.319-.43.331-.072.51-.357.45-.713-.059-.343-.292-.593-.637-.546-.815.112-1.627.264-2.433.436-.353.075-.478.375-.423.724.058.363.305.517.726.53l-.002-.001zm8.532-5.433c-.27.882-.576 1.648-.98 2.443.77-.371 1.133-1.282.98-2.443z" fill="url(#1icc859bfd)"/>
    <defs>
        <linearGradient id="n36j4s8o2b" x1="32.492" y1="17.368" x2="51.212" y2="89.823" gradientUnits="userSpaceOnUse">
            <stop stop-color="#F3E5CD"/>
            <stop offset=".521" stop-color="#fff"/>
            <stop offset="1" stop-color="#F9F0D7"/>
        </linearGradient>
        <linearGradient id="ctp1wac1mc" x1="19.4" y1="21.628" x2="75.72" y2="81.181" gradientUnits="userSpaceOnUse">
            <stop stop-color="#D39E1D"/>
            <stop offset=".177" stop-color="#986105" stop-opacity=".928"/>
            <stop offset=".422" stop-color="#F5BB34"/>
            <stop offset=".661" stop-color="#B47D16" stop-opacity=".482"/>
            <stop offset="1" stop-color="#945C02"/>
        </linearGradient>
        <linearGradient id="1icc859bfd" x1="33.311" y1="33.409" x2="67.823" y2="63.255" gradientUnits="userSpaceOnUse">
            <stop stop-color="#B07515"/>
            <stop offset=".115" stop-color="#82650E"/>
            <stop offset=".307" stop-color="#B38527"/>
            <stop offset=".427" stop-color="#5B4605"/>
            <stop offset=".573" stop-color="#B07515"/>
            <stop offset=".776" stop-color="#936C0E"/>
            <stop offset="1" stop-color="#B07515"/>
        </linearGradient>
        <filter id="vsrjyvq8da" x="0" y=".5" width="106" height="109.895" filterUnits="userSpaceOnUse" color-interpolation-filters="sRGB">
            <feFlood flood-opacity="0" result="BackgroundImageFix"/>
            <feColorMatrix in="SourceAlpha" values="0 0 0 0 0 0 0 0 0 0 0 0 0 0 0 0 0 0 127 0" result="hardAlpha"/>
            <feOffset dx="4" dy="4"/>
            <feGaussianBlur stdDeviation="8"/>
            <feComposite in2="hardAlpha" operator="out"/>
            <feColorMatrix values="0 0 0 0 0 0 0 0 0 0 0 0 0 0 0 0 0 0 0.1 0"/>
            <feBlend in2="BackgroundImageFix" result="effect1_dropShadow_1793_113018"/>
            <feBlend in="SourceGraphic" in2="effect1_dropShadow_1793_113018" result="shape"/>
        </filter>
    </defs>
</svg>
