<svg xmlns="http://www.w3.org/2000/svg" width="16.897" height="9.604" viewBox="0 0 16.897 9.604">
    <g data-name="Path 5725">
        <path data-name="Path 20036" d="M7.662 0A.332.332 0 0 1 7.9.1l7.309 7.311a.332.332 0 0 1-.47.47L7.659.8.581 7.877a.333.333 0 0 1-.5-.443L.1 7.416l.009-.009L7.42.1a.329.329 0 0 1 .242-.1z" transform="rotate(180 8.046 4.398)" style="fill:#777"/>
        <path data-name="Path 20037" d="M1.147 9.6a1.152 1.152 0 0 1-.767-.29 1.139 1.139 0 0 1-.092-1.602l.076-.077L7.656.337A1 1 0 0 1 8.473 0a1.134 1.134 0 0 1 .794.329l7.311 7.314a1.144 1.144 0 0 1-.044 1.629A1.133 1.133 0 0 1 15 9.28L8.463 2.746l-6.51 6.509a1.078 1.078 0 0 1-.806.345zM.823 8.112a.417.417 0 0 0-.038.038z" transform="rotate(180 8.448 4.802)" style="fill:#777"/>
    </g>
</svg>
