<svg xmlns="http://www.w3.org/2000/svg" width="457" height="244.05" viewBox="0 0 457 244.05">
    <defs>
        <clipPath id="bmxrgtreha">
            <circle cx="83" cy="83" r="83" transform="translate(-596.342 63.548)" style="fill:none"/>
        </clipPath>
    </defs>
    <g data-name="Group 36322">
        <g data-name="Group 36370">
            <g data-name="Group 36242" transform="translate(-731 -270.5)">
                <circle data-name="Ellipse 879" cx="86" cy="86" r="86" transform="translate(878 275)" style="opacity:.16;fill:#fff"/>
                <g data-name="Group 23286">
                    <g data-name="Group 23290">
                        <g data-name="Ellipse 853" transform="translate(1469.342 207.452)">
                            <circle data-name="Ellipse 864" cx="83" cy="83" r="83" transform="translate(-596.342 63.548)" style="stroke:#fff;fill:none"/>
                        </g>
                        <g data-name="Group 23277">
                            <g data-name="Group 23276" style="clip-path:url(#bmxrgtreha)" transform="translate(1469.342 207.452)">
                                <g data-name="Mask Group 180">
                                    <g data-name="Group 23289">
                                        <g data-name="Group 23279">
                                            <path data-name="Path 37545" d="m-476.375 169.182 19.262 68.61h-19.262l-20.258-34.3z" style="fill:#fff"/>
                                            <g data-name="Group 23278">
                                                <path data-name="Path 37546" d="m-458 234.644 49.4 9.556-1.339 4.115s-43.831 10.449-66.431-10.518z" style="fill:#5f281c"/>
                                                <g data-name="Group 23277">
                                                    <g data-name="Group 23276">
                                                        <path data-name="Path 37547" d="m-408.605 244.194 21.247-1.932-5.887 5.3a13.156 13.156 0 0 1-16.7.746z" style="fill:#5f281c"/>
                                                    </g>
                                                    <path data-name="Path 37548" d="m-387.358 242.262 3.859 8.681s-5.6 1.271-5.506-7.2z" style="fill:#5f281c"/>
                                                    <path data-name="Path 37549" d="m-392.058 243.392 3.5 9.163s-6.467.723-3.5-9.163z" style="fill:#5f281c"/>
                                                    <path data-name="Path 37550" d="m-387.358 242.262 7.222 5.717s-4.871 2.571-7.723-4.587z" style="fill:#5f281c"/>
                                                </g>
                                            </g>
                                        </g>
                                        <g data-name="Group 23285">
                                            <g data-name="Group 23280">
                                                <path data-name="Path 37551" d="m-476.375 169.182-21.31-8.6h-25.159l-32.162 9.56 14.461 61.11-13.192 32.98h62.293l-4.776-34.508.2-.608a13.7 13.7 0 0 1 6.981-7.891c5.571-2.806 8.8-6.584 9.255-10.6a20.819 20.819 0 0 0-.36-6.013 59.406 59.406 0 0 1 1.78-29.353z" style="fill:#fff"/>
                                                <path data-name="Path 37552" d="M-487.913 223.09a15.007 15.007 0 0 0 7.528-10.1s-7.638 6.862-34.126 4.395c-30.554-2.847-11.5 19.734-22.407 46.846h45.478l-4.776-34.508.2-.608c1.136-3.477 4.831-4.377 8.103-6.025z" style="fill:#fff"/>
                                                <path data-name="Path 37553" d="m-501.556 177.422-21.287-16.837 11.279-22.83h19.127z" style="fill:#ecbc7d"/>
                                                <path data-name="Path 37554" d="m-497.09 157.994-10.415-13 15.068-7.244z" style="fill:#ecbc7d"/>
                                                <path data-name="Path 37555" d="M-512.637 90.887s5-4.115 11.246-4.115c5.456 0 19.475 5.76 24.687 18.927s7.18 24.3 1.977 39.226l-23.008-7.169z" style="fill:#422e2d"/>
                                                <path data-name="Path 37556" d="M-477.126 124.035c1.049 11.863-2.855 26.4-14.72 27.452s-29.57-13.063-30.619-24.926-2.075-31.586 14.012-33.008c23.38-2.067 30.278 18.617 31.327 30.482z" style="fill:#ecbc7d"/>
                                                <g data-name="Path 37558">
                                                    <path data-name="Path 37557" d="M-523.967 124.7s27.922-.318 34.08-24.687c0 0 4.249.729 10.1 7.3 0 0-2.806-14.4-26.074-14.4-23.73-.001-18.106 31.787-18.106 31.787z" style="fill:#422e2d"/>
                                                </g>
                                                <g data-name="Path 37559">
                                                    <path data-name="Path 37558" d="m-515.408 123.971-.208-.978c10.945-2.323 18.447-6.594 22.3-12.695a16.984 16.984 0 0 0 2.509-12l.972-.235a17.659 17.659 0 0 1-2.622 12.746c-3.998 6.35-11.719 10.778-22.951 13.162z" style="fill:#422e2d"/>
                                                </g>
                                                <g data-name="Path 37560">
                                                    <path data-name="Path 37559" d="M-512.637 120.28s-4.589 14.509 2.32 28.293c0 0-22.684 2.969-37.64-13.786-.368-15.119 7.188-29.791 16.681-39.547 7.945-8.162 30.514-10.825 36.238 4.769.001.001-15.562-.452-17.599 20.271z" style="fill:#422e2d"/>
                                                </g>
                                                <g data-name="Path 37561">
                                                    <path data-name="Path 37560" d="m-472.045 146.111-.941-.336c.1-.293 10.184-29.524-12.383-48.912l.652-.759c23.095 19.843 12.779 49.708 12.672 50.007z" style="fill:#422e2d"/>
                                                </g>
                                                <g data-name="Path 37562">
                                                    <path data-name="Path 37561" d="m-549.784 132.625-1-.05c.012-.226 1.306-22.762 15.43-35.088 7.022-6.127 16.025-8.77 26.761-7.849l-.085 1c-10.452-.893-19.208 1.664-26.018 7.607-13.804 12.045-15.077 34.155-15.088 34.38z" style="fill:#422e2d"/>
                                                </g>
                                                <g data-name="Ellipse 847">
                                                    <ellipse data-name="Ellipse 865" cx="6.905" cy="8.889" rx="6.905" ry="8.889" transform="rotate(-20.715 74.945 1508.163)" style="fill:#ecbc7d"/>
                                                </g>
                                            </g>
                                            <g data-name="Group 23284">
                                                <g data-name="Group 23281">
                                                    <path data-name="Rectangle 5456" transform="translate(-523.105 105.467)" style="fill:#709480" d="M0 0h3.365v18.017H0z"/>
                                                    <path data-name="Rectangle 5457" transform="translate(-525.347 105.467)" style="fill:#b4c6b6" d="M0 0h3.365v18.017H0z"/>
                                                    <g data-name="Path 37565">
                                                        <path data-name="Path 37562" d="M-517.82 109.53v-8.73a11.308 11.308 0 0 1 5.394-9.363c1.67-1.006 6.4-3.949 6.4-3.949s-8.2.008-11.845 1.406l-.959.368a9.967 9.967 0 0 0-6.393 9.3v10.962z" style="fill:#709480"/>
                                                    </g>
                                                    <g data-name="Path 37566">
                                                        <path data-name="Path 37563" d="M-520.062 109.531v-8.726a9.968 9.968 0 0 1 5.394-8.854l8.637-4.458-2.643-.222a25.889 25.889 0 0 0-11.444 1.629l-.959.368a9.967 9.967 0 0 0-6.393 9.3v10.964z" style="fill:#b4c6b6"/>
                                                    </g>
                                                </g>
                                                <g data-name="Group 23282">
                                                    <g data-name="Ellipse 848">
                                                        <circle data-name="Ellipse 866" cx="9.528" cy="9.528" r="9.528" transform="translate(-531.694 118.111)" style="fill:#b4c6b6"/>
                                                    </g>
                                                    <g data-name="Ellipse 849">
                                                        <circle data-name="Ellipse 867" cx="9.528" cy="9.528" r="9.528" transform="translate(-533.569 118.111)" style="fill:#f1eadf"/>
                                                    </g>
                                                    <g data-name="Ellipse 850">
                                                        <circle data-name="Ellipse 868" cx="5.978" cy="5.978" r="5.978" transform="translate(-530.019 121.661)" style="fill:#b4c6b6"/>
                                                    </g>
                                                    <g data-name="Ellipse 851">
                                                        <circle data-name="Ellipse 869" cx="2.715" cy="2.715" r="2.715" transform="translate(-526.755 124.925)" style="fill:#f1eadf"/>
                                                    </g>
                                                </g>
                                                <g data-name="Group 23283">
                                                    <g data-name="Path 37567">
                                                        <path data-name="Path 37564" d="m-490.156 146.714-22.678-2.61-11.833-16 1.247-.923 11.433 15.462 22.008 2.532z" style="fill:#f1eadf"/>
                                                    </g>
                                                </g>
                                                <rect data-name="Rectangle 5458" width="7.564" height="4.182" rx=".644" transform="translate(-496.22 143.315)" style="fill:#b4c6b6"/>
                                            </g>
                                        </g>
                                        <g data-name="Path 37568">
                                            <path data-name="Path 37565" d="m-555 170.146-27.448 68.466h22.673l20.85-31.666z" style="fill:#fff"/>
                                        </g>
                                    </g>
                                </g>
                            </g>
                        </g>
                        <g data-name="Ellipse 854">
                            <g data-name="Group 23278" transform="translate(1469.342 207.452)">
                                <circle data-name="Ellipse 870" cx="86" cy="86" r="86" transform="translate(-596.342 63.548)" style="fill:none"/>
                            </g>
                            <g data-name="Group 23279">
                                <path data-name="Path 37566" d="M-510.342 235.548a86.1 86.1 0 0 1-86-86 86.1 86.1 0 0 1 86-86 86.1 86.1 0 0 1 86 86 86.1 86.1 0 0 1-86 86zm0-170a84.1 84.1 0 0 0-84 84 84.1 84.1 0 0 0 84 84 84.1 84.1 0 0 0 84-84 84.1 84.1 0 0 0-84-84z" style="fill:#f6eadc" transform="translate(1469.342 207.452)"/>
                            </g>
                        </g>
                    </g>
                    <g data-name="Group 23280">
                        <g data-name="Polygon 1">
                            <path data-name="Path 37567" d="m-663.239 139.39 9.5 16h-19z" style="fill:rgba(255,255,255,.7)" transform="translate(1447.739 179.61)"/>
                        </g>
                        <g data-name="Ellipse 855">
                            <g data-name="Group 23280" transform="translate(1447.739 179.61)">
                                <circle data-name="Ellipse 871" cx="6" cy="6" r="6" transform="translate(-271.739 198.39)" style="fill:none"/>
                            </g>
                            <g data-name="Group 23281">
                                <path data-name="Path 37568" d="M-265.739 210.39a6.007 6.007 0 0 1-6-6 6.007 6.007 0 0 1 6-6 6.007 6.007 0 0 1 6 6 6.006 6.006 0 0 1-6 6zm0-11a5.006 5.006 0 0 0-5 5 5.006 5.006 0 0 0 5 5 5.006 5.006 0 0 0 5-5 5.006 5.006 0 0 0-5-5z" style="fill:rgba(255,255,255,.7)" transform="translate(1447.739 179.61)"/>
                            </g>
                        </g>
                        <g data-name="Ellipse 856" transform="translate(1447.739 179.61)">
                            <circle data-name="Ellipse 872" cx="3" cy="3" r="3" transform="translate(-623.739 225.39)" style="fill:rgba(255,255,255,.7)"/>
                        </g>
                        <g data-name="Ellipse 863" transform="translate(1447.739 179.61)">
                            <circle data-name="Ellipse 873" cx="3" cy="3" r="3" transform="translate(-313.739 225.39)" style="fill:rgba(255,255,255,.7)"/>
                        </g>
                        <g data-name="Ellipse 857" transform="translate(1447.739 179.61)">
                            <circle data-name="Ellipse 874" cx="6.5" cy="6.5" r="6.5" transform="translate(-284.739 141.39)" style="fill:rgba(255,255,255,.7)"/>
                        </g>
                        <g data-name="Ellipse 858" transform="translate(1447.739 179.61)">
                            <circle data-name="Ellipse 875" cx="3.5" cy="3.5" r="3.5" transform="translate(-620.739 132.39)" style="fill:rgba(255,255,255,.7)"/>
                        </g>
                        <g data-name="Polygon 2">
                            <path data-name="Path 37569" d="m-335.739 132.39 7 12h-14z" style="fill:rgba(255,255,255,.7)" transform="translate(1447.739 179.61)"/>
                        </g>
                        <g data-name="Polygon 3">
                            <g data-name="Group 23282">
                                <path data-name="Path 37570" d="m-692.55 190.247 25.278 8.5-20.377 17.713z" style="fill:none" transform="translate(1447.739 179.61)"/>
                            </g>
                            <g data-name="Group 23283">
                                <path data-name="Path 37571" d="m-691.254 191.738 4.267 22.824 17.741-15.422-22.008-7.4m-1.3-1.491 25.278 8.5-20.377 17.713z" style="fill:rgba(255,255,255,.7)" transform="translate(1447.739 179.61)"/>
                            </g>
                        </g>
                        <g data-name="Ellipse 860">
                            <g data-name="Group 23284" transform="translate(1447.739 179.61)">
                                <circle data-name="Ellipse 876" cx="7" cy="7" r="7" transform="translate(-716.739 109.39)" style="fill:none"/>
                            </g>
                            <g data-name="Group 23285">
                                <path data-name="Path 37572" d="M-709.739 123.39a7.008 7.008 0 0 1-7-7 7.008 7.008 0 0 1 7-7 7.008 7.008 0 0 1 7 7 7.008 7.008 0 0 1-7 7zm0-13a6.007 6.007 0 0 0-6 6 6.007 6.007 0 0 0 6 6 6.006 6.006 0 0 0 6-6 6.007 6.007 0 0 0-6-6z" style="fill:rgba(255,255,255,.71)" transform="translate(1447.739 179.61)"/>
                            </g>
                        </g>
                        <g data-name="Ellipse 861" transform="translate(1447.739 179.61)">
                            <circle data-name="Ellipse 877" cx="5.5" cy="5.5" r="5.5" transform="translate(-362.739 193.39)" style="fill:rgba(255,255,255,.7)"/>
                        </g>
                        <g data-name="Ellipse 862" transform="translate(1447.739 179.61)">
                            <circle data-name="Ellipse 878" cx="3" cy="3" r="3" transform="translate(-398.739 96.39)" style="fill:rgba(255,255,255,.7)"/>
                        </g>
                    </g>
                </g>
            </g>
            <path data-name="Path 40926" d="M-30.69-26.37q2.79 0 2.79-1.35 0-.675.472-.675t.473 1.1a1.837 1.837 0 0 1-1.26 1.688 5.411 5.411 0 0 1-2.228.585 11.648 11.648 0 0 1-1.6-.09 42.814 42.814 0 0 1-11.34-2.88 54.886 54.886 0 0 0-5.715 13.41 45.941 45.941 0 0 1-2.678 6.525 26.38 26.38 0 0 1-3.735 5.783A17.156 17.156 0 0 1-60.12 1.44a24.965 24.965 0 0 1-12.1 2.79 21.282 21.282 0 0 1-10.62-2.79 10.961 10.961 0 0 1-5.67-8.46 21.119 21.119 0 0 1-.09-2.273 15.6 15.6 0 0 1 .878-4.3 7.273 7.273 0 0 1 3.308-4.23 3.4 3.4 0 0 1 1.485-.585q.81 0 .72.765a5.248 5.248 0 0 1-.923.743q-.743.517-1.417 1.08a6.43 6.43 0 0 0-1.35 1.732 8.591 8.591 0 0 0-1.17 4.455q0 5.67 3.87 8.73A15.032 15.032 0 0 0-78.57 1.71a15.408 15.408 0 0 0 5.13.9h.225a20.556 20.556 0 0 0 15.3-6.75q3.78-4.095 10.35-18.495a50.469 50.469 0 0 1 2.88-5.805 48.008 48.008 0 0 0-14.31-2.52A14.211 14.211 0 0 0-69.3-27.135q-3.195 3.06-3.195 6.39 0 3.645 3.195 4.635a7.656 7.656 0 0 0 2.048.315 7.882 7.882 0 0 0 2.115-.337 5.515 5.515 0 0 0 2.3-1.4 8.765 8.765 0 0 0 1.665-2.093A2.752 2.752 0 0 0-60.7-21.2v-.09q.36-.315.63-.2t.27.563a6.738 6.738 0 0 1-3.56 5.267 6.949 6.949 0 0 1-3.51 1.125 8.536 8.536 0 0 1-2.88-.45 6.955 6.955 0 0 1-4.68-5 8.8 8.8 0 0 1-.315-2.3 9.557 9.557 0 0 1 1.665-5.255q2.97-4.59 9.315-5.535a17.8 17.8 0 0 1 2.745-.225q1.305 0 3.038.135a26.813 26.813 0 0 1 4.59.9q2.857.765 5.85 1.777t3.577 1.192q2.205-2.7 3.285-2.745a1.674 1.674 0 0 1 .607-.09q.383 0 .608.63t-.315.81a1.38 1.38 0 0 1-.585-.045q-.27-.18-1.1.562a11.824 11.824 0 0 0-1.235 1.239 64.586 64.586 0 0 0 7.425 1.957 28.143 28.143 0 0 0 4.585.608zm-7.38 24.345q0 1.26.9 1.26 2.115 0 5.985-7.92.315-.63.563-.495a.4.4 0 0 1 .247.36 5.014 5.014 0 0 1-.517 1.283q-.517 1.057-1.035 2.025t-1.508 2.542Q-35.5.18-37.845.18a2.836 2.836 0 0 1-2.43-1.26 2.767 2.767 0 0 1-.4-1.6 8.467 8.467 0 0 1 .45-2.453 24.29 24.29 0 0 1 2.475-4.68 2.733 2.733 0 0 0 .5-1.283q0-.472-.765-.472T-40.95-9.54a31.858 31.858 0 0 0-6.3 8.91q-.315.675-1.665.675a4.574 4.574 0 0 0-1.53.27q8.55-17.775 12.375-24.8a9.517 9.517 0 0 1 1.507-2.205 2.158 2.158 0 0 1 1.552-.63 7.922 7.922 0 0 1 .945.112 4.237 4.237 0 0 0 1.08.068q-1.35 1.4-4.837 7.718T-44.5-6.57a32.864 32.864 0 0 1 3.8-4.14 22.657 22.657 0 0 1 4.118-2.812 8.8 8.8 0 0 1 3.552-1.328 1.321 1.321 0 0 1 .495.09Q-38.07-5.04-38.07-2.025zM-17.46-12.2a17.216 17.216 0 0 0-2.3 3.668 18.894 18.894 0 0 0-1.778 4.275 11.906 11.906 0 0 0-.292 2.295q0 .878.675.878.855 0 2.115-1.575a32.009 32.009 0 0 0 3.65-5.981q.18-.4.405-.45.36-.135.36.27a1.417 1.417 0 0 1-.135.54Q-18.9.09-21.735.09a2.432 2.432 0 0 1-2.115-1.26 3.478 3.478 0 0 1-.4-1.8 10.567 10.567 0 0 1 .45-2.745Q-27.4.09-30.015.09a2.088 2.088 0 0 1-1.305-.45 3.677 3.677 0 0 1-1.35-3.24q0-4.41 3.825-8.955a9.934 9.934 0 0 1 5.31-3.285 6.372 6.372 0 0 1 1.62-.225 4.776 4.776 0 0 1 3.51 1.44.88.88 0 0 1 .27.945.621.621 0 0 1-.765.36 2.074 2.074 0 0 0-2.16-1.62q-1.935 0-4.77 3.06a24.615 24.615 0 0 0-3.015 4.23A10 10 0 0 0-30.6-2.97q0 1.755 1.125 1.755 2.7 0 7.065-8.28a10.355 10.355 0 0 1 1.44-2.272 1.973 1.973 0 0 1 1.485-.608 7.55 7.55 0 0 1 .923.135 2.846 2.846 0 0 0 1.102.04zm15.66-2.56Q-7.335-5.04-7.335-2.07q0 1.17.855 1.17 2.3 0 6.165-7.785.27-.63.54-.495a.406.406 0 0 1 .27.36 1.139 1.139 0 0 1-.18.54 31.789 31.789 0 0 1-4.027 6.637A4.571 4.571 0 0 1-7 .18a2.828 2.828 0 0 1-2.5-1.26 2.559 2.559 0 0 1-.45-1.6 8.467 8.467 0 0 1 .45-2.453A24.29 24.29 0 0 1-7.02-9.81a2.733 2.733 0 0 0 .495-1.283q0-.472-.765-.472t-2.925 2.025A31.234 31.234 0 0 0-16.47-.63a1.191 1.191 0 0 1-.608.562A5.874 5.874 0 0 1-18.4.09a3.366 3.366 0 0 0-1.3.225q.72-1.44 2.835-5.9 3.78-7.875 4.95-9a2.007 2.007 0 0 1 1.485-.54 7.55 7.55 0 0 1 .923.135 2.846 2.846 0 0 0 1.1.045q-1.665.9-5.445 8.46a36.517 36.517 0 0 1 3.847-4.163 22.045 22.045 0 0 1 4.163-2.88 8.8 8.8 0 0 1 3.547-1.322 1.321 1.321 0 0 1 .495.09zm13.1 2.61a1.074 1.074 0 0 0-1.215-1.215q-1.8 0-4.163 2.048A23.741 23.741 0 0 0 1.98-7.02a13.328 13.328 0 0 0-1.1 3.285A15.571 15.571 0 0 0 .45-.99 1.3 1.3 0 0 0 .72 0h-2.835q-.675 0-.338-1.193A22.814 22.814 0 0 1-1.53-3.78Q-.945-5.175-.067-7t1.282-2.765q-3.69 6.975-4.77 8.01-.45.4-.45-.27a.725.725 0 0 1 .09-.315q1.575-2.07 6.278-11.25T8.955-25.6q1.53-2.205 2.97-2.205h.27q.045 0 .788.135a2.846 2.846 0 0 0 1.1.045Q12.42-26.37 9.5-21.848a87.053 87.053 0 0 0-4.635 7.92 42.98 42.98 0 0 0-2.3 5.153q4.1-5.085 7.335-6.3a8.427 8.427 0 0 1 2.43-.495q1.98 0 1.98 1.665a3.888 3.888 0 0 1-.225 1.215A6.684 6.684 0 0 1 11.5-9.608a8.845 8.845 0 0 1-4.3 1.6 5.933 5.933 0 0 0-.54 2.317 7.518 7.518 0 0 0 .225 1.911A3.351 3.351 0 0 0 8.91-1.125a2.284 2.284 0 0 0 .63.09 4.806 4.806 0 0 0 2.97-1.575 29.063 29.063 0 0 0 3.645-6.165q.315-.585.5-.382a.6.6 0 0 1 .18.382 11.4 11.4 0 0 1-.675 1.755 24.028 24.028 0 0 1-1.89 3.465Q11.7.315 8.6.315a3.86 3.86 0 0 1-2.93-1.08A5.507 5.507 0 0 1 4.185-4.77a5.556 5.556 0 0 1 .675-2.565q.675-1.3 1.575-1.4h.27a4.881 4.881 0 0 0 3.083-1.21Q11.3-11.16 11.3-12.15zm10.17 26.37a4.919 4.919 0 0 1-3.06-.832 2.464 2.464 0 0 1-1.08-2A6.533 6.533 0 0 1 18 8.73a8.4 8.4 0 0 1 4.23-3.69 32.995 32.995 0 0 1 6.075-2q3.78-.923 4.86-1.238a56.36 56.36 0 0 0 3.87-10.125A35.252 35.252 0 0 1 32.67-1.89a5 5 0 0 1-3.555 1.845q-2.43 0-2.835-2.025a1.513 1.513 0 0 1-.09-.945q.09-.63.113-.9a3.2 3.2 0 0 1 .292-.878q.27-.607.36-.877a18.226 18.226 0 0 1 .855-1.62q-.72 0-.405-.72l.81-1.575q1.53-2.925 2.52-4.95a1.752 1.752 0 0 1 1.755-.945h2.745a5.446 5.446 0 0 1-.45.36 3.724 3.724 0 0 0-1.215 1.26q-1.62 2.79-4.05 7.96a8.52 8.52 0 0 0-.99 3.105 2.209 2.209 0 0 0 .337 1.4 1.137 1.137 0 0 0 .923.405q.855 0 2.385-1.8a56.771 56.771 0 0 0 7.065-11.745A1.808 1.808 0 0 1 41-15.48h2.43a5.89 5.89 0 0 0-1.845 2.048 26.666 26.666 0 0 0-1.463 3.352q-.787 2.115-1.98 5.625T36.315.81a11.71 11.71 0 0 0 6.48-4.455A47.121 47.121 0 0 0 45.63-8.6q.315-.63.563-.495a.4.4 0 0 1 .248.36A8.525 8.525 0 0 1 45.7-7q-.742 1.508-1.507 2.79a17 17 0 0 1-1.98 2.632A9.815 9.815 0 0 1 39.51.563a32.188 32.188 0 0 1-3.96 1.687 32.853 32.853 0 0 1-6.975 9.27 10.98 10.98 0 0 1-7.11 2.7zm-2.61-4.455a4.119 4.119 0 0 0-.495 1.823 1.482 1.482 0 0 0 .63 1.283 2.641 2.641 0 0 0 1.575.45q2.61 0 5.58-2.677a38.174 38.174 0 0 0 5.22-5.738l.99-1.665A82.251 82.251 0 0 0 23 6.03a8.062 8.062 0 0 0-4.145 3.735zM53.82-15.75q3.285 0 3.285 4.14a9.762 9.762 0 0 1-.99 4.05 16.016 16.016 0 0 1-3.78 5.31 2.17 2.17 0 0 0 2.115 1.125 3.087 3.087 0 0 0 2.295-1.215 12.339 12.339 0 0 0 1.935-2.453q.585-1.057.855-1.552t.7-1.418q.427-.922.517-1.125a.319.319 0 0 1 .315-.2q.45-.045.45.315a.725.725 0 0 1-.09.315l-.27.63q-.27.63-.405.9t-.472.968q-.338.7-.585 1.1t-.675 1.08a10.5 10.5 0 0 1-.765 1.08q-.338.405-.833.9a5.035 5.035 0 0 1-.945.765 4.147 4.147 0 0 1-2.117.675 3.645 3.645 0 0 1-2.88-1.17A6.6 6.6 0 0 1 47.655 0Q44.37 0 44.37-4.14a9.762 9.762 0 0 1 .99-4.05 15.094 15.094 0 0 1 3.8-5.355 7.188 7.188 0 0 1 4.66-2.205zm.495 1.4a4.593 4.593 0 0 0-2.88 1.62 14.887 14.887 0 0 0-2.97 4.41 12.92 12.92 0 0 0-1.575 5.31q0 2.07 1.575 2.07a4.055 4.055 0 0 0 2.52-1.215 3.793 3.793 0 0 1-.72-2.205q.09-1.94 1.575-1.94a1.274 1.274 0 0 1 .967.4 1.146 1.146 0 0 1 .382.743 2.872 2.872 0 0 1-.09.7 25.384 25.384 0 0 0 1.756-3.193 10.177 10.177 0 0 0 1.125-4.5q0-2.205-1.665-2.205zM59.13-2.61a9.511 9.511 0 0 1 1.665-4.68q-.72 0-.4-.72l.81-1.575q1.53-2.925 2.52-4.95a1.752 1.752 0 0 1 1.755-.945h2.74a12.2 12.2 0 0 0-3.263 4.523Q63.315-7.6 62.415-5.693a7.672 7.672 0 0 0-.9 2.9 2.209 2.209 0 0 0 .338 1.4 1.137 1.137 0 0 0 .923.405q.855 0 2.385-1.8 2.385-2.79 6.705-11.745a1.808 1.808 0 0 1 1.755-.945h2.43a7.292 7.292 0 0 0-1.551 1.573 23.213 23.213 0 0 0-1.553 2.88A35.7 35.7 0 0 0 69.93-3.87a5.607 5.607 0 0 0-.135 1.17q0 1.44.99 1.53 2.43 0 5.985-7.515.27-.63.54-.495a.406.406 0 0 1 .27.36 3.426 3.426 0 0 1-.405 1.035l-.788 1.575q-.383.765-1.17 2.093a14.046 14.046 0 0 1-1.463 2.093 4.822 4.822 0 0 1-3.442 1.98 2.307 2.307 0 0 1-2.317-1.486 4.645 4.645 0 0 1-.27-1.71 9.414 9.414 0 0 1 .45-2.565Q64.89-.045 62.1-.045q-2.43 0-2.835-2.025a1.031 1.031 0 0 1-.135-.54zM96.795-27.9l1.395.045.225.09.09.27q-.405 1.08-7.583 11.655T83.43-4.815l-.45-.045.045-.315 11.43-21.78q.495-.945 2.34-.945zM82.53.09a2.094 2.094 0 0 1-1.395.54 1.456 1.456 0 0 1-1.17-.472 1.371 1.371 0 0 1-.4-.833 2.183 2.183 0 0 1 .72-1.8 2.335 2.335 0 0 1 1.485-.585 1.456 1.456 0 0 1 1.17.473 1.371 1.371 0 0 1 .4.833 4.516 4.516 0 0 1-.09.832A1.935 1.935 0 0 1 82.53.09z" transform="translate(225.949 229.83)" style="fill:#fff"/>
        </g>
    </g>
</svg>
