<svg xmlns="http://www.w3.org/2000/svg" width="31.684" height="21.291" viewBox="0 0 31.684 21.291">
    <path fill="#359846" d="M0 304v4.19a2.958 2.958 0 0 0 3.066 2.964h25.551a2.958 2.958 0 0 0 3.066-2.964V304z" transform="translate(0 -289.864)"/>
    <path fill="#ea8634" d="M28.617 80H3.066A2.958 2.958 0 0 0 0 82.964v4.19h31.684v-4.19A2.958 2.958 0 0 0 28.617 80z" transform="translate(0 -80)"/>
    <path fill="#fcfbf0" d="M0 0H31.684V7.452H0z" transform="translate(0 6.834)"/>
    <path fill="#454584" d="M200.819 197.6a3.219 3.219 0 1 0 3.219 3.219 3.206 3.206 0 0 0-3.219-3.219zm2.657 3.577c0 .051.051.153.1.153-.051.153-.051.307-.1.46-.051-.051-.153 0-.2.051s0 .153.051.2c-.051.153-.153.256-.2.409a.126.126 0 0 0-.2.051.155.155 0 0 0 0 .2l-.153.153-1.124-1.278-.46-.358.051-.051.46.358 1.482.767-1.329-1.022-.511-.2c0-.051 0-.051.051-.1l.511.2 1.635.358-1.584-.511-.562-.1v-.1l.562.051 1.686-.1-1.686-.1-.562.051v-.1l.562-.1 1.584-.511-1.635.358-.511.2c0-.051 0-.051-.051-.1l.511-.2 1.431-.92-1.482.767-.46.358-.051-.051.46-.358 1.124-1.278.153.153a.155.155 0 0 0 0 .2.307.307 0 0 0 .2.051 1.027 1.027 0 0 1 .2.409c-.051.051-.1.1-.051.2.051.051.1.1.2.051a1.492 1.492 0 0 1 .1.46c-.051 0-.1.1-.1.153s.1.153.153.1v.409c-.203.054-.254.105-.254.207zm-4.446-2.5a.155.155 0 0 0 .2 0 .307.307 0 0 0 .051-.2 1.027 1.027 0 0 1 .409-.2c.051.051.1.1.2.051.051-.051.1-.1.051-.2a1.492 1.492 0 0 1 .46-.1c0 .051.1.1.153.1s.153-.1.1-.153h.409c0 .051.051.153.1.153s.153-.051.153-.1c.153.051.307.051.46.1-.051.051 0 .153.051.2s.153 0 .2-.051c.153.051.256.153.409.2a.126.126 0 0 0 .051.2.155.155 0 0 0 .2 0l.153.153-1.278 1.124-.358.46-.051-.051.358-.46.767-1.482-1.022 1.38-.2.511c-.051 0-.051 0-.1-.051l.2-.511.358-1.635-.511 1.584-.1.562h-.1l.051-.562-.051-1.686-.1 1.686.051.562h-.1l-.1-.562-.511-1.584.358 1.635.2.511c-.051 0-.051 0-.1.051l-.2-.511-.92-1.431.767 1.482.358.46-.051.051-.358-.46-1.278-1.124c.059-.004.11-.055.212-.106zm-.2 4.139l-.153-.153a.155.155 0 0 0 0-.2.307.307 0 0 0-.2-.051 1.027 1.027 0 0 1-.2-.409c.051-.051.1-.1.051-.2-.051-.051-.1-.1-.2-.051a1.492 1.492 0 0 1-.1-.46c.051 0 .1-.1.1-.153s-.1-.153-.153-.1v-.409c.051 0 .153-.051.153-.1s-.051-.153-.1-.153c.051-.153.051-.307.1-.46.051.051.153 0 .2-.051s0-.153-.051-.2c.051-.153.153-.256.2-.409a.126.126 0 0 0 .2-.051c.051-.1.051-.153 0-.2l.153-.153 1.124 1.278.46.358-.051.051-.46-.358-1.482-.767 1.431.92.511.2c0 .051 0 .051-.051.1l-.511-.2-1.635-.358 1.584.511.562.1v.1l-.562-.051-1.737.1 1.686.1.562-.051v.1l-.562.1-1.584.511 1.635-.358.511-.2c0 .051 0 .051.051.1l-.511.2-1.431.92 1.482-.767.46-.358.051.051-.46.358zm1.789.818c0-.051-.051-.153-.1-.153s-.153.051-.153.1c-.153-.051-.307-.051-.46-.1.051-.051 0-.153-.051-.2s-.153 0-.2.051c-.153-.051-.256-.153-.409-.2a.126.126 0 0 0-.051-.2.155.155 0 0 0-.2 0l-.153-.153 1.278-1.124.358-.46.051.051-.358.46-.767 1.482.92-1.431.2-.511c.051 0 .051 0 .1.051l-.2.511-.358 1.635.511-1.584.1-.562h.1l-.051.562.1 1.686.1-1.686-.051-.562h.1l.1.562.511 1.584-.358-1.635-.2-.511c.051 0 .051 0 .1-.051l.2.511.92 1.431-.767-1.482-.358-.46.051-.051.358.46 1.278 1.124-.153.153a.155.155 0 0 0-.2 0 .307.307 0 0 0-.051.2 1.027 1.027 0 0 1-.409.2c-.051-.051-.1-.1-.2-.051s-.1.1-.051.2a1.492 1.492 0 0 1-.46.1c0-.051-.1-.1-.153-.1s-.153.1-.1.153h-.409z" transform="translate(-184.978 -190.174)"/>
</svg>
