<svg width="20" height="20" viewBox="0 0 20 20" fill="none" xmlns="http://www.w3.org/2000/svg">
    <path d="M10 20C4.484 20 0 15.516 0 10S4.484 0 10 0s10 4.484 10 10-4.484 10-10 10zm0-18.605c-4.744 0-8.605 3.86-8.605 8.605 0 4.744 3.86 8.605 8.605 8.605 4.744 0 8.605-3.86 8.605-8.605 0-4.744-3.86-8.605-8.605-8.605z" fill="#292D32"/>
    <path d="M8.679 13.332a.697.697 0 0 1-.493-.205l-2.633-2.633a.702.702 0 0 1 0-.986c.27-.27.716-.27.986 0l2.14 2.14 4.78-4.782c.27-.27.717-.27.987 0s.27.717 0 .986l-5.274 5.275a.697.697 0 0 1-.493.204z" fill="#292D32"/>
</svg>
