<svg width="14" height="13" viewBox="0 0 14 13" fill="none" xmlns="http://www.w3.org/2000/svg">
<path d="M8.23877 6.45557L13.7437 1.39288C13.9016 1.24056 13.9885 1.03744 13.9858 0.826924C13.9832 0.616405 13.8912 0.415184 13.7295 0.266254C13.5678 0.117324 13.3493 0.0325003 13.1206 0.0299095C12.8919 0.0273188 12.6712 0.107169 12.5056 0.252391L7.00073 5.3206L1.49463 0.252391C1.33033 0.101275 1.10751 0.0164237 0.875244 0.0165101C0.64298 0.0165964 0.420273 0.10161 0.256104 0.252848C0.0919346 0.404085 -9.36626e-05 0.60916 7.15336e-08 0.822956C9.38057e-05 1.03675 0.0922903 1.24176 0.256592 1.39288L5.76172 6.45557L0.256592 11.5238C0.175304 11.5986 0.110888 11.6874 0.0668946 11.7852C0.0229017 11.883 0.000244229 11.9877 0.000244212 12.0936C0.000244195 12.1994 0.0229017 12.3042 0.0668946 12.4019C0.110887 12.4997 0.175304 12.5885 0.256592 12.6633C0.33788 12.7382 0.434563 12.7975 0.540772 12.838C0.64698 12.8785 0.760774 12.8994 0.875732 12.8994C0.990691 12.8994 1.10449 12.8785 1.21069 12.838C1.3169 12.7975 1.41334 12.7382 1.49463 12.6633L7.00073 7.60065L12.5056 12.6633C12.5869 12.7382 12.6833 12.7975 12.7896 12.838C12.8958 12.8785 13.0098 12.8994 13.1248 12.8994C13.2397 12.8994 13.3535 12.8785 13.4597 12.838C13.5659 12.7975 13.6624 12.7382 13.7437 12.6633C13.8249 12.5885 13.8894 12.4997 13.9333 12.4019C13.9773 12.3042 14 12.1994 14 12.0936C14 11.9877 13.9773 11.883 13.9333 11.7852C13.8894 11.6874 13.8249 11.5986 13.7437 11.5238L8.23877 6.45557Z" fill="#212225"/>
</svg>
