<svg xmlns="http://www.w3.org/2000/svg" width="543.735" height="245.16" viewBox="0 0 543.735 245.16">
    <defs>
        <clipPath id="kst7x1fiia">
            <circle cx="83" cy="83" r="83" transform="translate(-596.342 63.548)" style="fill:none"/>
        </clipPath>
    </defs>
    <g data-name="Group 36370">
        <g data-name="Group 36182">
            <path data-name="Path 40922" d="M-209-26.37q2.79 0 2.79-1.35 0-.675.472-.675t.473 1.1a1.837 1.837 0 0 1-1.26 1.688 5.411 5.411 0 0 1-2.227.585 11.648 11.648 0 0 1-1.6-.09 42.814 42.814 0 0 1-11.34-2.88 54.886 54.886 0 0 0-5.715 13.41 45.939 45.939 0 0 1-2.678 6.525 26.379 26.379 0 0 1-3.735 5.783 17.156 17.156 0 0 1-4.613 3.713 24.965 24.965 0 0 1-12.105 2.79 21.282 21.282 0 0 1-10.62-2.79 10.962 10.962 0 0 1-5.67-8.46 21.121 21.121 0 0 1-.09-2.273 15.6 15.6 0 0 1 .878-4.3 7.273 7.273 0 0 1 3.307-4.23 3.4 3.4 0 0 1 1.485-.585q.81 0 .72.765a5.247 5.247 0 0 1-.922.743q-.742.517-1.418 1.08a6.431 6.431 0 0 0-1.35 1.732 8.591 8.591 0 0 0-1.17 4.455q0 5.67 3.87 8.73a15.032 15.032 0 0 0 4.635 2.61 15.408 15.408 0 0 0 5.13.9h.225a20.556 20.556 0 0 0 15.3-6.75q3.78-4.095 10.35-18.495A50.47 50.47 0 0 1-223-28.44a48.008 48.008 0 0 0-14.31-2.52 14.211 14.211 0 0 0-10.305 3.825q-3.195 3.06-3.195 6.39 0 3.645 3.195 4.635a7.656 7.656 0 0 0 2.048.315 7.882 7.882 0 0 0 2.115-.337 5.514 5.514 0 0 0 2.295-1.4 8.765 8.765 0 0 0 1.665-2.093 2.753 2.753 0 0 0 .473-1.575v-.09q.36-.315.63-.2t.27.563a6.739 6.739 0 0 1-3.555 5.265 6.949 6.949 0 0 1-3.51 1.125 8.536 8.536 0 0 1-2.88-.45 6.955 6.955 0 0 1-4.68-5 8.805 8.805 0 0 1-.315-2.3 9.557 9.557 0 0 1 1.665-5.265q2.97-4.59 9.315-5.535a17.8 17.8 0 0 1 2.745-.225q1.305 0 3.038.135a26.813 26.813 0 0 1 4.59.9q2.857.765 5.85 1.777t3.577 1.192q2.205-2.7 3.285-2.745a1.674 1.674 0 0 1 .608-.09q.382 0 .607.63t-.315.81a1.38 1.38 0 0 1-.585-.045q-.27-.18-1.1.562a11.825 11.825 0 0 0-1.238 1.238 64.587 64.587 0 0 0 7.425 1.957 28.142 28.142 0 0 0 4.592.621zm-7.38 24.345q0 1.26.9 1.26 2.115 0 5.985-7.92.315-.63.563-.495a.4.4 0 0 1 .247.36 5.014 5.014 0 0 1-.518 1.283q-.518 1.057-1.035 2.025t-1.507 2.543q-2.07 3.15-4.41 3.15a2.836 2.836 0 0 1-2.43-1.26 2.767 2.767 0 0 1-.4-1.6 8.467 8.467 0 0 1 .45-2.453 24.29 24.29 0 0 1 2.475-4.68 2.733 2.733 0 0 0 .495-1.283q0-.472-.765-.472t-2.925 2.025a31.858 31.858 0 0 0-6.3 8.91q-.315.675-1.665.675a4.575 4.575 0 0 0-1.53.27q8.55-17.775 12.375-24.8a9.517 9.517 0 0 1 1.508-2.205 2.158 2.158 0 0 1 1.552-.63 7.921 7.921 0 0 1 .945.112 4.237 4.237 0 0 0 1.08.068q-1.35 1.4-4.838 7.718t-6.69 12.854a32.864 32.864 0 0 1 3.8-4.14 22.657 22.657 0 0 1 4.117-2.812 8.8 8.8 0 0 1 3.555-1.328 1.321 1.321 0 0 1 .495.09q-5.532 9.72-5.532 12.735zm20.61-10.17a17.217 17.217 0 0 0-2.295 3.668 18.893 18.893 0 0 0-1.777 4.275 11.906 11.906 0 0 0-.292 2.295q0 .878.675.878.855 0 2.115-1.575A32.009 32.009 0 0 0-193.7-8.64q.18-.4.4-.45.36-.135.36.27a1.417 1.417 0 0 1-.135.54q-4.14 8.37-6.975 8.37a2.432 2.432 0 0 1-2.115-1.26 3.478 3.478 0 0 1-.4-1.8 10.567 10.567 0 0 1 .45-2.745q-3.6 5.805-6.21 5.805a2.088 2.088 0 0 1-1.305-.45 3.677 3.677 0 0 1-1.35-3.24q0-4.41 3.825-8.955a9.934 9.934 0 0 1 5.31-3.285 6.372 6.372 0 0 1 1.62-.225 4.776 4.776 0 0 1 3.51 1.44.88.88 0 0 1 .27.945.621.621 0 0 1-.765.36 2.074 2.074 0 0 0-2.16-1.62q-1.935 0-4.77 3.06a24.616 24.616 0 0 0-3.015 4.23 10 10 0 0 0-1.755 4.68q0 1.755 1.125 1.755 2.7 0 7.065-8.28a10.355 10.355 0 0 1 1.44-2.272 1.973 1.973 0 0 1 1.485-.608 7.549 7.549 0 0 1 .923.135 2.846 2.846 0 0 0 1.099.04zm15.66-2.565q-5.535 9.72-5.535 12.69 0 1.17.855 1.17 2.295 0 6.165-7.785.27-.63.54-.495a.406.406 0 0 1 .27.36 1.139 1.139 0 0 1-.18.54 31.789 31.789 0 0 1-4.028 6.638A4.571 4.571 0 0 1-185.31.18a2.828 2.828 0 0 1-2.5-1.26 2.559 2.559 0 0 1-.45-1.6 8.467 8.467 0 0 1 .45-2.453 24.29 24.29 0 0 1 2.475-4.68 2.733 2.733 0 0 0 .495-1.283q0-.472-.765-.472t-2.925 2.025a31.233 31.233 0 0 0-6.255 8.91 1.192 1.192 0 0 1-.607.562 5.874 5.874 0 0 1-1.327.158 3.366 3.366 0 0 0-1.305.225q.72-1.44 2.835-5.9 3.78-7.875 4.95-9a2.007 2.007 0 0 1 1.485-.54 7.549 7.549 0 0 1 .923.135 2.846 2.846 0 0 0 1.1.045q-1.665.9-5.445 8.46a36.518 36.518 0 0 1 3.848-4.163 22.045 22.045 0 0 1 4.162-2.88 8.8 8.8 0 0 1 3.555-1.328 1.321 1.321 0 0 1 .498.099zm13.1 2.61a1.074 1.074 0 0 0-1.215-1.215q-1.8 0-4.163 2.048a23.741 23.741 0 0 0-3.937 4.3 13.327 13.327 0 0 0-1.1 3.285 15.571 15.571 0 0 0-.428 2.745 1.3 1.3 0 0 0 .27.99h-2.835q-.675 0-.337-1.193a22.812 22.812 0 0 1 .923-2.588q.585-1.395 1.462-3.218t1.283-2.767q-3.69 6.975-4.77 8.01-.45.4-.45-.27a.725.725 0 0 1 .09-.315q1.575-2.07 6.278-11.25t6.592-12.015q1.53-2.205 2.97-2.205h.27q.045 0 .788.135a2.846 2.846 0 0 0 1.1.045q-1.665 1.26-4.59 5.782a87.054 87.054 0 0 0-4.635 7.92 42.98 42.98 0 0 0-2.295 5.153q4.095-5.085 7.335-6.3a8.427 8.427 0 0 1 2.43-.495q1.98 0 1.98 1.665a3.887 3.887 0 0 1-.225 1.215 6.684 6.684 0 0 1-2.587 3.083 8.845 8.845 0 0 1-4.3 1.6 5.933 5.933 0 0 0-.54 2.317 7.518 7.518 0 0 0 .225 1.913 3.351 3.351 0 0 0 2.021 2.65 2.284 2.284 0 0 0 .63.09 4.806 4.806 0 0 0 2.97-1.575 29.062 29.062 0 0 0 3.645-6.165q.315-.585.495-.382a.6.6 0 0 1 .18.382 11.4 11.4 0 0 1-.675 1.755 24.028 24.028 0 0 1-1.89 3.465q-2.565 3.87-5.67 3.87a3.86 3.86 0 0 1-2.925-1.08 5.507 5.507 0 0 1-1.485-4.005 5.556 5.556 0 0 1 .675-2.565q.675-1.3 1.575-1.4h.27a4.881 4.881 0 0 0 3.082-1.215q1.505-1.21 1.505-2.2zm10.17 26.37a4.919 4.919 0 0 1-3.06-.832 2.464 2.464 0 0 1-1.08-2 6.533 6.533 0 0 1 .675-2.655 8.4 8.4 0 0 1 4.23-3.69 32.995 32.995 0 0 1 6.075-2q3.78-.923 4.86-1.238a56.359 56.359 0 0 0 3.87-10.125 35.252 35.252 0 0 1-4.365 6.435 5 5 0 0 1-3.565 1.84q-2.43 0-2.835-2.025a1.513 1.513 0 0 1-.09-.945q.09-.63.113-.9a3.2 3.2 0 0 1 .292-.878q.27-.607.36-.877a18.225 18.225 0 0 1 .855-1.62q-.72 0-.4-.72l.81-1.575q1.53-2.925 2.52-4.95a1.752 1.752 0 0 1 1.755-.945h2.745a5.444 5.444 0 0 1-.45.36 3.724 3.724 0 0 0-1.215 1.26q-1.62 2.79-4.05 7.965a8.52 8.52 0 0 0-.99 3.105 2.209 2.209 0 0 0 .338 1.4 1.137 1.137 0 0 0 .922.405q.855 0 2.385-1.8a56.771 56.771 0 0 0 7.065-11.745 1.808 1.808 0 0 1 1.755-.945h2.43a5.89 5.89 0 0 0-1.845 2.048 26.666 26.666 0 0 0-1.47 3.347q-.788 2.115-1.98 5.625T-142 .81a11.71 11.71 0 0 0 6.48-4.455 47.12 47.12 0 0 0 2.835-4.95q.315-.63.563-.495a.4.4 0 0 1 .247.36 8.525 8.525 0 0 1-.74 1.73q-.742 1.508-1.507 2.79a17 17 0 0 1-1.98 2.632A9.815 9.815 0 0 1-138.8.563a32.189 32.189 0 0 1-3.96 1.688 32.853 32.853 0 0 1-6.975 9.27 10.98 10.98 0 0 1-7.113 2.699zm-2.61-4.455a4.119 4.119 0 0 0-.495 1.823 1.482 1.482 0 0 0 .63 1.283 2.641 2.641 0 0 0 1.575.45q2.61 0 5.58-2.677a38.174 38.174 0 0 0 5.22-5.738l.99-1.665a82.252 82.252 0 0 0-9.36 2.79 8.062 8.062 0 0 0-4.148 3.734zm34.965-25.515q3.285 0 3.285 4.14a9.762 9.762 0 0 1-.99 4.05 16.016 16.016 0 0 1-3.78 5.31 2.17 2.17 0 0 0 2.115 1.125 3.087 3.087 0 0 0 2.295-1.215 12.339 12.339 0 0 0 1.935-2.453q.585-1.057.855-1.552t.7-1.418q.428-.922.518-1.125a.319.319 0 0 1 .315-.2q.45-.045.45.315a.725.725 0 0 1-.09.315l-.27.63q-.27.63-.4.9t-.472.968q-.337.7-.585 1.1t-.675 1.08a10.5 10.5 0 0 1-.765 1.08q-.337.405-.832.9a5.035 5.035 0 0 1-.945.765 4.147 4.147 0 0 1-2.115.675 3.645 3.645 0 0 1-2.88-1.17A6.605 6.605 0 0 1-130.658 0q-3.285 0-3.285-4.14a9.762 9.762 0 0 1 .99-4.05 15.094 15.094 0 0 1 3.8-5.355 7.188 7.188 0 0 1 4.66-2.205zm.5 1.4a4.593 4.593 0 0 0-2.88 1.62 14.887 14.887 0 0 0-2.97 4.41 12.92 12.92 0 0 0-1.575 5.31q0 2.07 1.575 2.07a4.055 4.055 0 0 0 2.52-1.215 3.793 3.793 0 0 1-.72-2.205q.09-1.935 1.575-1.935a1.274 1.274 0 0 1 .967.4 1.146 1.146 0 0 1 .382.743 2.872 2.872 0 0 1-.09.7 25.383 25.383 0 0 0 1.755-3.195 10.177 10.177 0 0 0 1.125-4.5q-.012-2.208-1.679-2.208zm4.815 11.745a9.511 9.511 0 0 1 1.665-4.68q-.72 0-.4-.72l.81-1.575q1.53-2.925 2.52-4.95a1.752 1.752 0 0 1 1.755-.945h2.745a12.2 12.2 0 0 0-3.263 4.523Q-115-7.6-115.9-5.693a7.672 7.672 0 0 0-.9 2.9 2.209 2.209 0 0 0 .338 1.4 1.137 1.137 0 0 0 .923.405q.855 0 2.385-1.8 2.385-2.79 6.705-11.745a1.808 1.808 0 0 1 1.755-.945h2.43a7.293 7.293 0 0 0-1.553 1.575 23.214 23.214 0 0 0-1.552 2.88 35.7 35.7 0 0 0-3.015 7.155 5.607 5.607 0 0 0-.135 1.17q0 1.44.99 1.53 2.43 0 5.985-7.515.27-.63.54-.495a.406.406 0 0 1 .27.36 3.426 3.426 0 0 1-.4 1.035l-.788 1.575q-.382.765-1.17 2.093a14.046 14.046 0 0 1-1.463 2.093A4.822 4.822 0 0 1-108-.045a2.307 2.307 0 0 1-2.317-1.485 4.645 4.645 0 0 1-.27-1.71 9.414 9.414 0 0 1 .45-2.565q-3.285 5.76-6.075 5.76-2.43 0-2.835-2.025a1.031 1.031 0 0 1-.136-.54zM-95.2 15.66a2.188 2.188 0 0 1-2.475-2.475q0-3.555 4.635-14.49a3.1 3.1 0 0 1-.54-1.485 2.989 2.989 0 0 1 .855-2.52 1.806 1.806 0 0 1 1.057-.54 2.193 2.193 0 0 1 .563.045q5.13-11.565 9.225-19.215a8 8 0 0 1 1.665-2.385 3.118 3.118 0 0 1 2.16-.765 7.044 7.044 0 0 1 .9.135 3.832 3.832 0 0 0 1.08.09q-2.115 1.98-5.94 8.73T-89.258-4.77a7.433 7.433 0 0 1 1.44 3.37l.135.585h.135a3.737 3.737 0 0 0 2.565-1.418 14.969 14.969 0 0 0 2.205-2.925q.855-1.508 1.395-2.655a5.569 5.569 0 0 1 .675-1.238.331.331 0 0 1 .247-.068.5.5 0 0 1 .2.09.263.263 0 0 1 .09.225.759.759 0 0 1-.09.338Q-83.993.045-87.593.045q.045.72.045 2.363a22.173 22.173 0 0 1-.81 4.882 16.157 16.157 0 0 1-2.722 5.81q-1.913 2.56-4.12 2.56zm-.045-2.475q0 1.305.72 1.305.855 0 2.363-2A17.688 17.688 0 0 0-89.6 7 21.994 21.994 0 0 0-88.538.675v-.45h-.4a3.418 3.418 0 0 1-2.21-.725q-4.095 10.355-4.095 13.685zM-88.9-.63h.27a5.419 5.419 0 0 0-1.08-3.105l-.99 2.25a1.841 1.841 0 0 0 1.8.855zm16.11-15.12q3.285 0 3.285 4.14a9.762 9.762 0 0 1-.99 4.05 16.016 16.016 0 0 1-3.78 5.31 2.17 2.17 0 0 0 2.115 1.125 3.087 3.087 0 0 0 2.297-1.215 12.339 12.339 0 0 0 1.935-2.453q.585-1.057.855-1.552t.7-1.418q.428-.922.518-1.125a.319.319 0 0 1 .315-.2q.45-.045.45.315a.725.725 0 0 1-.09.315l-.27.63q-.27.63-.4.9t-.472.968q-.337.7-.585 1.1t-.675 1.08a10.5 10.5 0 0 1-.765 1.08q-.337.405-.832.9a5.035 5.035 0 0 1-.945.765 4.147 4.147 0 0 1-2.115.675 3.645 3.645 0 0 1-2.88-1.17A6.6 6.6 0 0 1-78.953 0q-3.285 0-3.285-4.14a9.762 9.762 0 0 1 .99-4.05 15.094 15.094 0 0 1 3.8-5.355 7.188 7.188 0 0 1 4.66-2.205zm.5 1.4a4.593 4.593 0 0 0-2.88 1.62 14.887 14.887 0 0 0-2.97 4.41 12.92 12.92 0 0 0-1.575 5.31q0 2.07 1.575 2.07a4.055 4.055 0 0 0 2.52-1.215 3.793 3.793 0 0 1-.72-2.205q.09-1.935 1.575-1.935a1.274 1.274 0 0 1 .967.4 1.146 1.146 0 0 1 .382.743 2.872 2.872 0 0 1-.09.7 25.383 25.383 0 0 0 1.753-3.198 10.177 10.177 0 0 0 1.125-4.5q0-2.205-1.665-2.205zm12.465-3.69q0 2.025-2.565 3.825.9.045 2.407.045t3.8-.225a1.672 1.672 0 0 1 .09.72 4.6 4.6 0 0 1-.54 1.733q-.54 1.148-.967 1.98l-.81 1.575q-.383.743-.855 1.823t-.787 1.98q-1.125 3.42.36 3.42 1.89 0 5.58-7.515.315-.585.518-.45a.4.4 0 0 1 .2.337 6.3 6.3 0 0 1-.584 1.392q-.585 1.193-1.26 2.453a16.878 16.878 0 0 1-2.115 2.925q-1.71 2.07-3.285 2.07-1.755 0-2.43-2.115a4.1 4.1 0 0 1-.132-1.218 6.446 6.446 0 0 1 .518-2.16 23.694 23.694 0 0 1 1.639-3.285q1.125-1.935 1.26-2.273a1.753 1.753 0 0 0 .135-.652q0-1.395-3.6-1.485l-.54 1.44q-2.835 7.425-5.445 9.945-.45.4-.45-.27a.725.725 0 0 1 .09-.315 34.459 34.459 0 0 0 4.365-7.875 42.779 42.779 0 0 0 2.565-8.64q.27-1.395 1.26-1.395t1.44 1.26a2.992 2.992 0 0 1 .135.945zm21.15 17.19a6.35 6.35 0 0 0 .81.09 4.811 4.811 0 0 0 3.552-2.12 44.553 44.553 0 0 0 3.375-5.9.319.319 0 0 1 .315-.22q.4-.045.4.315a2.077 2.077 0 0 1-.2.517q-.2.428-.382.855t-.585 1.238q-.405.81-.7 1.3t-.743 1.215a5.261 5.261 0 0 1-.9 1.125l-.945.99a4.264 4.264 0 0 1-1.8 1.08 5.443 5.443 0 0 1-3.24.09 4.712 4.712 0 0 1-1.845.45q-3.2 0-3.87-2.52a6.4 6.4 0 0 1-.135-1.418A2.659 2.659 0 0 1-45-5.355a1.7 1.7 0 0 1 1.193-.81q2.295-4.365 3.915-7.875 1.8-3.825 4.185-3.825a2.825 2.825 0 0 1 1.238.292q.607.292.45.653t-.652.135a2.132 2.132 0 0 0-.855-.225 1.392 1.392 0 0 0-.63.135q-1.53.72-1.53 3.105a5.125 5.125 0 0 0 .36 2.07q.36.81.81 1.755a10.028 10.028 0 0 1 1.033 3.825 5.28 5.28 0 0 1-.945 2.92 8.389 8.389 0 0 1-2.25 2.345zm-1.53-.315q1.98-1.53 1.98-4.95a31.582 31.582 0 0 0-.315-3.825 31.428 31.428 0 0 1-.315-3.285 9.889 9.889 0 0 1 .045-1.17q-3.42 6.84-4.23 8.325.945 0 .945 1.35a3.545 3.545 0 0 0 1.887 3.55zM-43.58-2.38a4.154 4.154 0 0 0 .045.585 1.573 1.573 0 0 0 1.662 1.21 2 2 0 0 0 .9-.18 3.96 3.96 0 0 1-1.8-3.375 2.451 2.451 0 0 0-.81 1.755zm10.98-.23a9.511 9.511 0 0 1 1.665-4.68q-.72 0-.405-.72l.81-1.575q1.53-2.925 2.52-4.95a1.752 1.752 0 0 1 1.755-.945h2.745a12.2 12.2 0 0 0-3.262 4.523q-1.646 3.357-2.546 5.264a7.672 7.672 0 0 0-.9 2.9 2.209 2.209 0 0 0 .337 1.4 1.137 1.137 0 0 0 .923.405q.855 0 2.385-1.8 2.385-2.79 6.7-11.745a1.808 1.808 0 0 1 1.755-.945h2.43a7.293 7.293 0 0 0-1.552 1.575 23.215 23.215 0 0 0-1.553 2.88A35.7 35.7 0 0 0-21.8-3.87a5.607 5.607 0 0 0-.135 1.17q0 1.44.99 1.53 2.43 0 5.985-7.515.27-.63.54-.495a.406.406 0 0 1 .27.36 3.426 3.426 0 0 1-.405 1.035l-.787 1.575q-.383.765-1.17 2.093a14.046 14.046 0 0 1-1.463 2.093A4.822 4.822 0 0 1-21.42-.045a2.308 2.308 0 0 1-2.318-1.485 4.645 4.645 0 0 1-.27-1.71 9.414 9.414 0 0 1 .45-2.565q-3.285 5.76-6.075 5.76-2.43 0-2.835-2.025a1.031 1.031 0 0 1-.132-.54zm28.98-9.63q0-2.565-2.115-2.565H-6.1q-.81.09-.945-.315t.4-.54a3.028 3.028 0 0 1 1.17-.045 3.9 3.9 0 0 1 3.2 2.2 4.759 4.759 0 0 1 .585 2.2A12.488 12.488 0 0 1-4.523-3.69 8.771 8.771 0 0 1-11.858.09a3.848 3.848 0 0 1-2.7-.945 3.247 3.247 0 0 1-1.035-2.52q0-1.89 2.16-6.39-3.69 6.975-4.77 8.01-.45.4-.45-.27a.725.725 0 0 1 .09-.315q1.575-2.07 6.278-11.25t6.592-12.01q1.53-2.205 2.97-2.205h.27q.045 0 .788.135a2.846 2.846 0 0 0 1.1.045 57.853 57.853 0 0 0-4.68 6.3q-7.92 11.745-7.92 17.55 0 2.385 1.53 2.7a1 1 0 0 0 .315.045q1.395 0 3.487-2.5a22.329 22.329 0 0 0 3.445-5.695 7.324 7.324 0 0 0 .765-3.015zm25.47-2.52q-5.49 9.765-5.49 12.6 0 1.26.855 1.26 1.08 0 2.475-1.62a26.022 26.022 0 0 0 3.69-6.165q.27-.63.54-.495a.406.406 0 0 1 .27.36 3.947 3.947 0 0 1-.45 1.125l-.72 1.44q-.27.54-1.193 2.07a15.189 15.189 0 0 1-1.575 2.25 9.542 9.542 0 0 1-1.667 1.417 3.95 3.95 0 0 1-2.295.7 2.629 2.629 0 0 1-2.183-1.26 2.767 2.767 0 0 1-.405-1.6 8.467 8.467 0 0 1 .45-2.453 24.29 24.29 0 0 1 2.475-4.68 2.733 2.733 0 0 0 .495-1.283q0-.472-.742-.472T13.7-9.765a30.589 30.589 0 0 0-4.07 4.86A15.269 15.269 0 0 0 7.087 0a1.205 1.205 0 0 1-1.125-.63A2.278 2.278 0 0 1 5.6-1.71q0-1.845 2.475-7.02a8.5 8.5 0 0 0 .855-2.318q.045-.607-.157-.63a1.1 1.1 0 0 0-.563.158 12.644 12.644 0 0 0-2.473 1.98A31.667 31.667 0 0 0-.473-.765a1.03 1.03 0 0 1-.563.608A5.874 5.874 0 0 1-2.363 0a3.366 3.366 0 0 0-1.3.225q.81-1.575 2.835-5.9 3.645-7.74 4.86-8.91a2.007 2.007 0 0 1 1.485-.54 7.55 7.55 0 0 1 .923.135 2.846 2.846 0 0 0 1.1.045q-1.665.9-5.445 8.46A32.608 32.608 0 0 1 5.13-9.9q.922-.81 1.372-1.215l.7-.63.72-.653q.472-.428.72-.63t.7-.562a3.769 3.769 0 0 1 .7-.472 6.1 6.1 0 0 0 .675-.383 1.418 1.418 0 0 1 .63-.27 2.033 2.033 0 0 0 .562-.113q.36-.112.495.068a1.2 1.2 0 0 1 .9 1.125 11.747 11.747 0 0 1-1.53 3.465q-1.53 2.79-1.98 3.69a33.1 33.1 0 0 1 3.78-4.073A23.313 23.313 0 0 1 17.82-13.5a8.848 8.848 0 0 1 3.58-1.35 1 1 0 0 1 .447.09zm7.695-2.745a2.094 2.094 0 0 1-1.4.54 1.5 1.5 0 0 1-1.215-.54 1.65 1.65 0 0 1-.36-1.305 2.182 2.182 0 0 1 .765-1.305 2.094 2.094 0 0 1 1.395-.54 1.566 1.566 0 0 1 1.238.54 1.489 1.489 0 0 1 .337 1.305 2.182 2.182 0 0 1-.763 1.305zM25.132-.99a2.766 2.766 0 0 0 1.8-.855 28.8 28.8 0 0 0 4.23-6.8q.315-.675.63-.4a.4.4 0 0 1 .09.292 3.621 3.621 0 0 1-.36.99q-.36.788-.652 1.418T29.745-4.3a14.41 14.41 0 0 1-1.507 2.183Q26.392 0 24.75 0a2.724 2.724 0 0 1-2.362-.99 3.661 3.661 0 0 1-.72-2.205 7.105 7.105 0 0 1 .585-2.655l2.88-7.335a2.341 2.341 0 0 0 .09-.72 2.178 2.178 0 0 0-.54-1.17l2.475-.045q1.035 0 1.215.382t-.27 1.193L24.5-5.13a7.056 7.056 0 0 0-.763 2.83q0 1.31 1.395 1.31zm4.95-2.61q0-3.735 3.6-12.51h-2.34a.288.288 0 0 1-.292-.248.711.711 0 0 1 .045-.495.361.361 0 0 1 .338-.247h2.7q1.62-3.555 3.015-5.94a10.506 10.506 0 0 1 2.565-3.218 3.683 3.683 0 0 1 1.687-.832 2.184 2.184 0 0 1 .743.09 2.037 2.037 0 0 1 1.035 2.048 9.193 9.193 0 0 1-1.036 3.752q-1.035 2.205-2.025 4.1h2.16a.288.288 0 0 1 .292.247.711.711 0 0 1-.045.495.361.361 0 0 1-.337.248h-2.61a32.683 32.683 0 0 1-5.985 7.425L32.557-4.1a5.093 5.093 0 0 0-.135 1.148 2.41 2.41 0 0 0 .315 1.152 1.049 1.049 0 0 0 .99.585 3.518 3.518 0 0 0 1.71-.54q2.16-1.62 4.77-6.8a.848.848 0 0 1 .428-.495q.248-.09.292.113a1.267 1.267 0 0 1-.135.652 41.886 41.886 0 0 1-2.34 4.41q-2.43 3.92-5.175 3.92a2.906 2.906 0 0 1-2.3-1.035 3.834 3.834 0 0 1-.895-2.61zm9.045-13.5q2.97-5.31 2.97-7.38 0-.9-.315-.9-.5 0-1.507 1.44a50.8 50.8 0 0 0-3.4 6.84zm-.585.99h-2.115q-.54 1.26-2.43 5.985a34.393 34.393 0 0 0 4.545-5.985zm.54 12.51q0-3.735 3.6-12.51h-2.34a.288.288 0 0 1-.292-.248.711.711 0 0 1 .045-.495.361.361 0 0 1 .338-.247h2.7q1.62-3.555 3.015-5.94a10.506 10.506 0 0 1 2.565-3.218 3.683 3.683 0 0 1 1.687-.832 2.184 2.184 0 0 1 .743.09 2.037 2.037 0 0 1 1.035 2.048 9.193 9.193 0 0 1-1.036 3.752q-1.035 2.205-2.025 4.1h2.16a.288.288 0 0 1 .292.247.711.711 0 0 1-.045.495.361.361 0 0 1-.337.248h-2.61a32.683 32.683 0 0 1-5.985 7.425L41.557-4.1a5.093 5.093 0 0 0-.135 1.148 2.41 2.41 0 0 0 .315 1.152 1.049 1.049 0 0 0 .99.585 3.518 3.518 0 0 0 1.71-.54q2.16-1.62 4.77-6.8a.848.848 0 0 1 .428-.495q.248-.09.292.113a1.267 1.267 0 0 1-.135.652 41.886 41.886 0 0 1-2.34 4.41q-2.43 3.92-5.175 3.92a2.906 2.906 0 0 1-2.3-1.035 3.834 3.834 0 0 1-.895-2.61zm9.045-13.5q2.97-5.31 2.97-7.38 0-.9-.315-.9-.5 0-1.507 1.44a50.8 50.8 0 0 0-3.4 6.84zm-.585.99h-2.115q-.54 1.26-2.43 5.985a34.393 34.393 0 0 0 4.545-5.985zm7.83-1.4a2.094 2.094 0 0 1-1.4.54 1.5 1.5 0 0 1-1.215-.54 1.65 1.65 0 0 1-.36-1.305 2.182 2.182 0 0 1 .765-1.305 2.094 2.094 0 0 1 1.4-.54 1.566 1.566 0 0 1 1.237.54 1.489 1.489 0 0 1 .338 1.305 2.182 2.182 0 0 1-.765 1.31zM50.962-.99a2.766 2.766 0 0 0 1.8-.855 28.8 28.8 0 0 0 4.23-6.8q.315-.675.63-.4a.4.4 0 0 1 .09.292 3.621 3.621 0 0 1-.36.99q-.36.788-.652 1.418T55.575-4.3a14.41 14.41 0 0 1-1.507 2.183Q52.222 0 50.58 0a2.724 2.724 0 0 1-2.362-.99A3.661 3.661 0 0 1 47.5-3.2a7.105 7.105 0 0 1 .585-2.655l2.88-7.335a2.341 2.341 0 0 0 .09-.72 2.178 2.178 0 0 0-.54-1.17l2.475-.045q1.035 0 1.215.382t-.27 1.193l-3.6 8.415a7.056 7.056 0 0 0-.768 2.835q0 1.31 1.395 1.31zm19.665-13.77q-5.535 9.72-5.535 12.69 0 1.17.855 1.17 2.3 0 6.165-7.785.27-.63.54-.495a.406.406 0 0 1 .27.36 1.139 1.139 0 0 1-.18.54 31.789 31.789 0 0 1-4.028 6.638A4.571 4.571 0 0 1 65.43.18a2.828 2.828 0 0 1-2.5-1.26 2.559 2.559 0 0 1-.45-1.6 8.467 8.467 0 0 1 .45-2.453 24.29 24.29 0 0 1 2.475-4.68 2.733 2.733 0 0 0 .5-1.283q0-.472-.765-.472T62.212-9.54a31.234 31.234 0 0 0-6.255 8.91 1.191 1.191 0 0 1-.608.562 5.873 5.873 0 0 1-1.327.158 3.366 3.366 0 0 0-1.305.225q.72-1.44 2.835-5.9 3.78-7.875 4.95-9a2.007 2.007 0 0 1 1.485-.54 7.549 7.549 0 0 1 .923.135 2.846 2.846 0 0 0 1.1.045q-1.665.9-5.445 8.46a36.517 36.517 0 0 1 3.847-4.163 22.045 22.045 0 0 1 4.163-2.88 8.8 8.8 0 0 1 3.555-1.328 1.321 1.321 0 0 1 .497.096zm-1.62 28.98q-4.23 0-4.23-3.465 0-2.88 3.915-5.175A45.628 45.628 0 0 1 77.2 1.935Q79.582 1.17 80.662.72a22.943 22.943 0 0 0 1.17-7.47 6.052 6.052 0 0 0-.09-1.215A27.8 27.8 0 0 1 78.277-2.7Q75.667.54 73.1-.18a3.8 3.8 0 0 1-2.34-3.87q0-3.87 3.87-8.505a9.176 9.176 0 0 1 4.95-3.2 5.4 5.4 0 0 1 1.53-.225 6.849 6.849 0 0 1 3.96 1.35q.72.585.72.99a1.35 1.35 0 0 1-.27.787q-.27.383-.562.09a1.5 1.5 0 0 1-.382-.562q-.585-1.665-1.89-1.665-2.385 0-5.355 3.33a23.667 23.667 0 0 0-2.88 4.05 9.716 9.716 0 0 0-1.485 4.163 2.03 2.03 0 0 0 .9 1.958 1.588 1.588 0 0 0 .63.135 4.348 4.348 0 0 0 2.588-1.418 16.3 16.3 0 0 0 2.88-3.6 16.074 16.074 0 0 0 1.688-3.4 2.635 2.635 0 0 1 .877-1.53 2.519 2.519 0 0 1 1.147-.36 1.636 1.636 0 0 0 .855-.225 27.446 27.446 0 0 1 .36 4.747 23.816 23.816 0 0 1-.945 6.188A13.756 13.756 0 0 0 86.895-3.6a18.087 18.087 0 0 0 1.395-2.115q.518-.945.923-1.868t.54-1.193a.619.619 0 0 1 .45-.338q.315-.067.315.293a1.417 1.417 0 0 1-.135.54 41.46 41.46 0 0 1-3.308 5.918A9.236 9.236 0 0 1 83.452.54a26.59 26.59 0 0 1-3.127 6.075 21.871 21.871 0 0 1-5.153 5.31 10.361 10.361 0 0 1-6.165 2.295zm-3.285-2.61q0 1.71 2.2 1.71a7.1 7.1 0 0 0 2.948-.765 15.384 15.384 0 0 0 2.73-1.575 25.078 25.078 0 0 0 4.05-4.41 22.726 22.726 0 0 0 2.565-4.545l-1.575.54a48.677 48.677 0 0 0-9.9 4.32 6.556 6.556 0 0 0-2.79 3.555 3.788 3.788 0 0 0-.228 1.17zM95.2 14.22a4.919 4.919 0 0 1-3.06-.832 2.464 2.464 0 0 1-1.08-2 6.533 6.533 0 0 1 .675-2.655 8.4 8.4 0 0 1 4.23-3.69 32.995 32.995 0 0 1 6.075-2q3.78-.923 4.86-1.238a56.359 56.359 0 0 0 3.87-10.125 35.251 35.251 0 0 1-4.37 6.43 5 5 0 0 1-3.555 1.845q-2.43 0-2.835-2.025a1.513 1.513 0 0 1-.09-.945q.09-.63.112-.9a3.2 3.2 0 0 1 .293-.878q.27-.607.36-.877a18.225 18.225 0 0 1 .855-1.62q-.72 0-.4-.72l.81-1.575q1.53-2.925 2.52-4.95a1.752 1.752 0 0 1 1.755-.945h2.745a5.446 5.446 0 0 1-.45.36 3.724 3.724 0 0 0-1.215 1.26q-1.62 2.79-4.05 7.965a8.52 8.52 0 0 0-.99 3.105 2.209 2.209 0 0 0 .338 1.4 1.137 1.137 0 0 0 .923.405q.855 0 2.385-1.8a56.771 56.771 0 0 0 7.065-11.745 1.808 1.808 0 0 1 1.755-.945h2.43a5.89 5.89 0 0 0-1.845 2.048 26.666 26.666 0 0 0-1.463 3.352q-.788 2.115-1.98 5.625T110.047.81a11.71 11.71 0 0 0 6.48-4.455 47.122 47.122 0 0 0 2.835-4.95q.315-.63.563-.495a.4.4 0 0 1 .247.36A8.525 8.525 0 0 1 119.43-7q-.743 1.508-1.507 2.79a17 17 0 0 1-1.98 2.632 9.815 9.815 0 0 1-2.7 2.138 32.188 32.188 0 0 1-3.96 1.688 32.853 32.853 0 0 1-6.975 9.27A10.98 10.98 0 0 1 95.2 14.22zm-2.61-4.455a4.119 4.119 0 0 0-.5 1.823 1.482 1.482 0 0 0 .63 1.283 2.641 2.641 0 0 0 1.575.45q2.61 0 5.58-2.677a38.174 38.174 0 0 0 5.22-5.738l.99-1.665a82.251 82.251 0 0 0-9.36 2.79 8.062 8.062 0 0 0-4.138 3.734zm34.962-25.515q3.285 0 3.285 4.14a9.762 9.762 0 0 1-.99 4.05 16.017 16.017 0 0 1-3.78 5.31 2.17 2.17 0 0 0 2.115 1.125 3.087 3.087 0 0 0 2.3-1.215 12.339 12.339 0 0 0 1.935-2.453q.585-1.057.855-1.552t.7-1.418q.428-.922.518-1.125a.319.319 0 0 1 .315-.2q.45-.045.45.315a.725.725 0 0 1-.09.315l-.27.63q-.27.63-.4.9t-.473.968q-.337.7-.585 1.1t-.675 1.08a10.5 10.5 0 0 1-.765 1.08q-.337.405-.833.9a5.035 5.035 0 0 1-.945.765 4.147 4.147 0 0 1-2.115.675 3.645 3.645 0 0 1-2.88-1.17A6.6 6.6 0 0 1 121.387 0Q118.1 0 118.1-4.14a9.762 9.762 0 0 1 .99-4.05 15.094 15.094 0 0 1 3.8-5.355 7.188 7.188 0 0 1 4.662-2.205zm.5 1.4a4.593 4.593 0 0 0-2.88 1.62 14.887 14.887 0 0 0-2.97 4.41 12.92 12.92 0 0 0-1.575 5.31q0 2.07 1.575 2.07a4.055 4.055 0 0 0 2.52-1.215 3.793 3.793 0 0 1-.722-2.21q.09-1.935 1.575-1.935a1.274 1.274 0 0 1 .967.4 1.146 1.146 0 0 1 .382.743 2.872 2.872 0 0 1-.09.7 25.384 25.384 0 0 0 1.755-3.195 10.177 10.177 0 0 0 1.125-4.5q-.002-2.203-1.667-2.203zm4.81 11.74a9.511 9.511 0 0 1 1.665-4.68q-.72 0-.4-.72l.81-1.575q1.53-2.925 2.52-4.95a1.752 1.752 0 0 1 1.755-.945h2.745a12.2 12.2 0 0 0-3.262 4.523q-1.643 3.353-2.543 5.265a7.672 7.672 0 0 0-.9 2.9 2.21 2.21 0 0 0 .337 1.4 1.137 1.137 0 0 0 .923.405q.855 0 2.385-1.8 2.385-2.79 6.705-11.745a1.808 1.808 0 0 1 1.755-.945h2.43a7.293 7.293 0 0 0-1.553 1.575 23.214 23.214 0 0 0-1.552 2.88 35.7 35.7 0 0 0-3.015 7.155 5.606 5.606 0 0 0-.135 1.17q0 1.44.99 1.53 2.43 0 5.985-7.515.27-.63.54-.495a.406.406 0 0 1 .27.36 3.426 3.426 0 0 1-.4 1.035l-.797 1.572q-.383.765-1.17 2.093a14.047 14.047 0 0 1-1.462 2.093 4.822 4.822 0 0 1-3.443 1.98 2.308 2.308 0 0 1-2.318-1.485 4.645 4.645 0 0 1-.27-1.71 9.414 9.414 0 0 1 .45-2.565q-3.285 5.76-6.075 5.76Q133.4-.045 133-2.07a1.031 1.031 0 0 1-.138-.54zm23.715-15.435q0 2.025-2.565 3.825.9.045 2.408.045t3.8-.225a1.672 1.672 0 0 1 .09.72 4.6 4.6 0 0 1-.54 1.733q-.54 1.148-.968 1.98l-.81 1.575q-.382.743-.855 1.823t-.788 1.98q-1.125 3.42.36 3.42 1.89 0 5.58-7.515.315-.585.518-.45a.4.4 0 0 1 .2.337 6.3 6.3 0 0 1-.585 1.395q-.585 1.193-1.26 2.453a16.878 16.878 0 0 1-2.115 2.925q-1.71 2.07-3.285 2.07-1.755 0-2.43-2.115a4.1 4.1 0 0 1-.135-1.215 6.446 6.446 0 0 1 .518-2.16 23.694 23.694 0 0 1 1.643-3.285q1.125-1.935 1.26-2.273a1.753 1.753 0 0 0 .135-.652q0-1.395-3.6-1.485l-.54 1.44q-2.835 7.425-5.445 9.945-.45.4-.45-.27a.725.725 0 0 1 .09-.315 34.459 34.459 0 0 0 4.365-7.875 42.778 42.778 0 0 0 2.565-8.64q.27-1.395 1.26-1.395t1.44 1.26a2.992 2.992 0 0 1 .139.944zM183.352-2.61q0 1.44 1.17 1.44 2.115 0 5.625-7.065.135-.27.248-.54a.609.609 0 0 1 .36-.36q.247-.09.338.112a.918.918 0 0 1-.09.653Q187.4 0 183.712 0a2.22 2.22 0 0 1-1.935-1.08 3.841 3.841 0 0 1-.72-2.138 8.059 8.059 0 0 1 .225-1.957q-2.61 4.32-4.5 4.905a2.738 2.738 0 0 1-1.058.225 3.831 3.831 0 0 1-1.012-.135q-2.205-.585-2.205-3.51a11.439 11.439 0 0 1 1.012-4.388 18.168 18.168 0 0 1 2.858-4.613 9.035 9.035 0 0 1 4.455-2.97 7.062 7.062 0 0 1 2.227-.315 6.349 6.349 0 0 1 2.857.81q3.06-5.76 5.22-10.665a4.563 4.563 0 0 1 1.238-1.913 2 2 0 0 1 1.125-.428h.63q.112 0 .855.112a4.717 4.717 0 0 0 1.147.068q-1.035.945-5.49 9.18-5.67 10.53-6.84 14.04a6.922 6.922 0 0 0-.449 2.162zm2.205-11.835a2.221 2.221 0 0 0-1.643-.585 5.466 5.466 0 0 0-2.947 1.575 20.811 20.811 0 0 0-5 6.21 9.028 9.028 0 0 0-1.3 4.005 2.877 2.877 0 0 0 .292 1.305.968.968 0 0 0 .923.585q1.53 0 3.78-3.15a98.748 98.748 0 0 0 5.895-9.945zm6.8 7.515a8.9 8.9 0 0 0-.63 3.42 3.239 3.239 0 0 0 .563 2 1.886 1.886 0 0 0 1.6.743q4.095 0 7.425-7.695.315-.72.765-.63a.213.213 0 0 1 .18.225 18.9 18.9 0 0 1-1.02 2.367 18.988 18.988 0 0 1-2.048 3.533 6.815 6.815 0 0 1-5.67 3.15 4.334 4.334 0 0 1-3.06-1.17 4.147 4.147 0 0 1-1.26-3.195 10.99 10.99 0 0 1 .967-4.3 16.454 16.454 0 0 1 2.632-4.23 10.105 10.105 0 0 1 3.825-2.858 4.964 4.964 0 0 1 1.98-.45 3.1 3.1 0 0 1 1.755.54 1.8 1.8 0 0 1 .765 1.395q0 2.7-3.24 5.175a9.645 9.645 0 0 1-2.79 1.373 9.445 9.445 0 0 1-2.744.607zm7.56-7.2q0-.9-.72-.9-1.26 0-3.825 3.1a23.14 23.14 0 0 0-2.7 4.23 7.11 7.11 0 0 0 2.227-.54 8.565 8.565 0 0 0 2.543-1.44 5.948 5.948 0 0 0 2.47-4.45zm.405 10.53q0-3.735 3.6-12.51h-2.34a.288.288 0 0 1-.292-.248.711.711 0 0 1 .045-.495.361.361 0 0 1 .337-.247h2.7q1.62-3.555 3.015-5.94a10.506 10.506 0 0 1 2.565-3.218 3.683 3.683 0 0 1 1.688-.833 2.184 2.184 0 0 1 .742.09 2.037 2.037 0 0 1 1.035 2.048 9.193 9.193 0 0 1-1.035 3.757q-1.035 2.205-2.025 4.1h2.16a.288.288 0 0 1 .293.247.711.711 0 0 1-.045.495.361.361 0 0 1-.338.248h-2.61a32.683 32.683 0 0 1-5.985 7.425l-1.04 4.581a5.093 5.093 0 0 0-.135 1.148 2.41 2.41 0 0 0 .315 1.148 1.049 1.049 0 0 0 .99.585 3.518 3.518 0 0 0 1.71-.54q2.16-1.62 4.77-6.8a.847.847 0 0 1 .428-.495q.247-.09.292.113a1.267 1.267 0 0 1-.135.652 41.882 41.882 0 0 1-2.34 4.41Q206.258.045 203.512.045a2.906 2.906 0 0 1-2.295-1.035 3.834 3.834 0 0 1-.899-2.61zm9.045-13.5q2.97-5.31 2.97-7.38 0-.9-.315-.9-.5 0-1.507 1.44a50.8 50.8 0 0 0-3.4 6.84zm-.585.99h-2.115q-.54 1.26-2.43 5.985a34.392 34.392 0 0 0 4.54-5.985zm15.34 3.91a17.217 17.217 0 0 0-2.295 3.668 18.893 18.893 0 0 0-1.777 4.275 11.906 11.906 0 0 0-.292 2.295q0 .878.675.878.855 0 2.115-1.575a32.009 32.009 0 0 0 3.645-5.985q.18-.4.4-.45.36-.135.36.27a1.417 1.417 0 0 1-.135.54Q222.682.09 219.848.09a2.432 2.432 0 0 1-2.115-1.26 3.478 3.478 0 0 1-.4-1.8 10.567 10.567 0 0 1 .45-2.745Q214.178.09 211.568.09a2.088 2.088 0 0 1-1.305-.45 3.677 3.677 0 0 1-1.35-3.24q0-4.41 3.825-8.955a9.934 9.934 0 0 1 5.31-3.285 6.372 6.372 0 0 1 1.62-.225 4.776 4.776 0 0 1 3.51 1.44.88.88 0 0 1 .27.945.621.621 0 0 1-.765.36 2.074 2.074 0 0 0-2.16-1.62q-1.935 0-4.77 3.06a24.616 24.616 0 0 0-3.015 4.23 10 10 0 0 0-1.755 4.68q0 1.755 1.125 1.755 2.7 0 7.065-8.28a10.355 10.355 0 0 1 1.44-2.272 1.973 1.973 0 0 1 1.485-.608 7.549 7.549 0 0 1 .923.135 2.846 2.846 0 0 0 1.101.04zm8.235-5.31a2.094 2.094 0 0 1-1.395.54 1.5 1.5 0 0 1-1.215-.54 1.65 1.65 0 0 1-.36-1.305 2.183 2.183 0 0 1 .765-1.305 2.094 2.094 0 0 1 1.4-.54 1.566 1.566 0 0 1 1.238.54 1.489 1.489 0 0 1 .337 1.305 2.182 2.182 0 0 1-.77 1.31zM227.948-.99a2.766 2.766 0 0 0 1.8-.855 28.8 28.8 0 0 0 4.23-6.8q.315-.675.63-.4a.4.4 0 0 1 .09.292 3.621 3.621 0 0 1-.36.99q-.36.788-.653 1.418T232.56-4.3a14.41 14.41 0 0 1-1.507 2.183Q229.208 0 227.565 0a2.724 2.724 0 0 1-2.365-.99 3.661 3.661 0 0 1-.72-2.205 7.105 7.105 0 0 1 .585-2.655l2.88-7.335a2.341 2.341 0 0 0 .09-.72 2.178 2.178 0 0 0-.54-1.17l2.475-.045q1.035 0 1.215.382t-.27 1.193l-3.6 8.415a7.056 7.056 0 0 0-.765 2.835q.003 1.305 1.398 1.305zm8.55-7.7q-.045.18-.4 1.237t-.607 2.025a7.781 7.781 0 0 0-.247 1.935 3.726 3.726 0 0 0 .45 1.8 1.52 1.52 0 0 0 1.44.833q1.62 0 3.15-2.183a46.19 46.19 0 0 0 3.24-5.558q.36-.63.675-.495a.355.355 0 0 1 .09.472q-.135.293-.562 1.26t-.63 1.35q-.2.383-.72 1.35a9.565 9.565 0 0 1-.9 1.44q-.382.473-1.035 1.215A5.688 5.688 0 0 1 239.2-.9a5.633 5.633 0 0 1-2.97.99 3.4 3.4 0 0 1-2.16-.608 2.382 2.382 0 0 1-.923-1.3 5.7 5.7 0 0 1-.158-1.238q0-.54.045-1.4a13.34 13.34 0 0 1 .563-2.79q.428-1.35.473-1.53a62.9 62.9 0 0 1 2.947-8.145 61.824 61.824 0 0 1 3.24-6.638 19.189 19.189 0 0 1 2.092-3.038 4.289 4.289 0 0 1 3.015-1.62q1.035 0 1.4 1.485a4.214 4.214 0 0 1 .045.675 9.746 9.746 0 0 1-1.08 3.87A40.643 40.643 0 0 1 236.5-8.685zm.36-1.44a35.589 35.589 0 0 0 4.545-5.9 43.651 43.651 0 0 0 3.307-6.053 11.12 11.12 0 0 0 1.057-3.4q0-.9-.315-.9-.45 0-1.71 1.778a45.254 45.254 0 0 0-3.4 6.39q-2.135 4.625-3.485 8.09zm10.575 9.27a6.35 6.35 0 0 0 .81.09 4.811 4.811 0 0 0 3.557-2.11 44.555 44.555 0 0 0 3.375-5.9.319.319 0 0 1 .313-.22q.405-.045.4.315a2.078 2.078 0 0 1-.2.517q-.2.428-.383.855t-.585 1.238q-.405.81-.7 1.3t-.742 1.215a5.261 5.261 0 0 1-.9 1.125l-.945.99a4.264 4.264 0 0 1-1.8 1.08 5.443 5.443 0 0 1-3.24.09 4.712 4.712 0 0 1-1.845.45q-3.195 0-3.87-2.52a6.4 6.4 0 0 1-.135-1.418 2.659 2.659 0 0 1 .563-1.6 1.7 1.7 0 0 1 1.192-.81q2.3-4.365 3.915-7.875 1.8-3.825 4.185-3.825a2.825 2.825 0 0 1 1.238.292q.607.292.45.653t-.652.135a2.132 2.132 0 0 0-.855-.225 1.392 1.392 0 0 0-.63.135q-1.53.72-1.53 3.105a5.125 5.125 0 0 0 .36 2.07q.36.81.81 1.755a10.028 10.028 0 0 1 1.035 3.825 5.28 5.28 0 0 1-.945 2.925 8.389 8.389 0 0 1-2.247 2.348zm-1.533-.31q1.98-1.53 1.98-4.95a31.583 31.583 0 0 0-.315-3.825 31.426 31.426 0 0 1-.315-3.285 9.889 9.889 0 0 1 .045-1.17q-3.42 6.84-4.23 8.325.945 0 .945 1.35a3.545 3.545 0 0 0 1.89 3.555zm-3.375-1.215a4.154 4.154 0 0 0 .045.585 1.573 1.573 0 0 0 1.665 1.215 2 2 0 0 0 .9-.18 3.96 3.96 0 0 1-1.8-3.375 2.451 2.451 0 0 0-.808 1.755zM275.108-27.9l1.4.045.225.09.09.27q-.4 1.08-7.582 11.655t-7.498 11.025l-.45-.045.045-.315 11.43-21.78q.494-.945 2.34-.945zM260.843.09a2.094 2.094 0 0 1-1.4.54 1.456 1.456 0 0 1-1.17-.472 1.371 1.371 0 0 1-.4-.833 2.183 2.183 0 0 1 .72-1.8 2.335 2.335 0 0 1 1.485-.585 1.456 1.456 0 0 1 1.17.473 1.371 1.371 0 0 1 .4.833 4.516 4.516 0 0 1-.09.832 1.935 1.935 0 0 1-.715 1.012z" transform="translate(266.917 229.5)" style="fill:#fff"/>
        </g>
        <g data-name="Group 36242" transform="translate(-689.083 -270.5)">
            <circle data-name="Ellipse 879" cx="86" cy="86" r="86" transform="translate(878 275)" style="opacity:.16;fill:#fff"/>
            <g data-name="Group 23286">
                <g data-name="Group 23290">
                    <g data-name="Ellipse 853" transform="translate(1469.342 207.452)">
                        <circle data-name="Ellipse 864" cx="83" cy="83" r="83" transform="translate(-596.342 63.548)" style="stroke:#fff;fill:none"/>
                    </g>
                    <g data-name="Group 23277">
                        <g data-name="Group 23276" style="clip-path:url(#kst7x1fiia)" transform="translate(1469.342 207.452)">
                            <g data-name="Mask Group 180">
                                <g data-name="Group 23289">
                                    <g data-name="Group 23279">
                                        <path data-name="Path 37545" d="m-476.375 169.182 19.262 68.61h-19.262l-20.258-34.3z" style="fill:#fff"/>
                                        <g data-name="Group 23278">
                                            <path data-name="Path 37546" d="m-458 234.644 49.4 9.556-1.339 4.115s-43.831 10.449-66.431-10.518z" style="fill:#5f281c"/>
                                            <g data-name="Group 23277">
                                                <g data-name="Group 23276">
                                                    <path data-name="Path 37547" d="m-408.605 244.194 21.247-1.932-5.887 5.3a13.156 13.156 0 0 1-16.7.746z" style="fill:#5f281c"/>
                                                </g>
                                                <path data-name="Path 37548" d="m-387.358 242.262 3.859 8.681s-5.6 1.271-5.506-7.2z" style="fill:#5f281c"/>
                                                <path data-name="Path 37549" d="m-392.058 243.392 3.5 9.163s-6.467.723-3.5-9.163z" style="fill:#5f281c"/>
                                                <path data-name="Path 37550" d="m-387.358 242.262 7.222 5.717s-4.871 2.571-7.723-4.587z" style="fill:#5f281c"/>
                                            </g>
                                        </g>
                                    </g>
                                    <g data-name="Group 23285">
                                        <g data-name="Group 23280">
                                            <path data-name="Path 37551" d="m-476.375 169.182-21.31-8.6h-25.159l-32.162 9.56 14.461 61.11-13.192 32.98h62.293l-4.776-34.508.2-.608a13.7 13.7 0 0 1 6.981-7.891c5.571-2.806 8.8-6.584 9.255-10.6a20.819 20.819 0 0 0-.36-6.013 59.406 59.406 0 0 1 1.78-29.353z" style="fill:#fff"/>
                                            <path data-name="Path 37552" d="M-487.913 223.09a15.007 15.007 0 0 0 7.528-10.1s-7.638 6.862-34.126 4.395c-30.554-2.847-11.5 19.734-22.407 46.846h45.478l-4.776-34.508.2-.608c1.136-3.477 4.831-4.377 8.103-6.025z" style="fill:#fff"/>
                                            <path data-name="Path 37553" d="m-501.556 177.422-21.287-16.837 11.279-22.83h19.127z" style="fill:#ecbc7d"/>
                                            <path data-name="Path 37554" d="m-497.09 157.994-10.415-13 15.068-7.244z" style="fill:#ecbc7d"/>
                                            <path data-name="Path 37555" d="M-512.637 90.887s5-4.115 11.246-4.115c5.456 0 19.475 5.76 24.687 18.927s7.18 24.3 1.977 39.226l-23.008-7.169z" style="fill:#422e2d"/>
                                            <path data-name="Path 37556" d="M-477.126 124.035c1.049 11.863-2.855 26.4-14.72 27.452s-29.57-13.063-30.619-24.926-2.075-31.586 14.012-33.008c23.38-2.067 30.278 18.617 31.327 30.482z" style="fill:#ecbc7d"/>
                                            <g data-name="Path 37558">
                                                <path data-name="Path 37557" d="M-523.967 124.7s27.922-.318 34.08-24.687c0 0 4.249.729 10.1 7.3 0 0-2.806-14.4-26.074-14.4-23.73-.001-18.106 31.787-18.106 31.787z" style="fill:#422e2d"/>
                                            </g>
                                            <g data-name="Path 37559">
                                                <path data-name="Path 37558" d="m-515.408 123.971-.208-.978c10.945-2.323 18.447-6.594 22.3-12.695a16.984 16.984 0 0 0 2.509-12l.972-.235a17.659 17.659 0 0 1-2.622 12.746c-3.998 6.35-11.719 10.778-22.951 13.162z" style="fill:#422e2d"/>
                                            </g>
                                            <g data-name="Path 37560">
                                                <path data-name="Path 37559" d="M-512.637 120.28s-4.589 14.509 2.32 28.293c0 0-22.684 2.969-37.64-13.786-.368-15.119 7.188-29.791 16.681-39.547 7.945-8.162 30.514-10.825 36.238 4.769.001.001-15.562-.452-17.599 20.271z" style="fill:#422e2d"/>
                                            </g>
                                            <g data-name="Path 37561">
                                                <path data-name="Path 37560" d="m-472.045 146.111-.941-.336c.1-.293 10.184-29.524-12.383-48.912l.652-.759c23.095 19.843 12.779 49.708 12.672 50.007z" style="fill:#422e2d"/>
                                            </g>
                                            <g data-name="Path 37562">
                                                <path data-name="Path 37561" d="m-549.784 132.625-1-.05c.012-.226 1.306-22.762 15.43-35.088 7.022-6.127 16.025-8.77 26.761-7.849l-.085 1c-10.452-.893-19.208 1.664-26.018 7.607-13.804 12.045-15.077 34.155-15.088 34.38z" style="fill:#422e2d"/>
                                            </g>
                                            <g data-name="Ellipse 847">
                                                <ellipse data-name="Ellipse 865" cx="6.905" cy="8.889" rx="6.905" ry="8.889" transform="rotate(-20.715 74.945 1508.163)" style="fill:#ecbc7d"/>
                                            </g>
                                        </g>
                                        <g data-name="Group 23284">
                                            <g data-name="Group 23281">
                                                <path data-name="Rectangle 5456" transform="translate(-523.105 105.467)" style="fill:#709480" d="M0 0h3.365v18.017H0z"/>
                                                <path data-name="Rectangle 5457" transform="translate(-525.347 105.467)" style="fill:#b4c6b6" d="M0 0h3.365v18.017H0z"/>
                                                <g data-name="Path 37565">
                                                    <path data-name="Path 37562" d="M-517.82 109.53v-8.73a11.308 11.308 0 0 1 5.394-9.363c1.67-1.006 6.4-3.949 6.4-3.949s-8.2.008-11.845 1.406l-.959.368a9.967 9.967 0 0 0-6.393 9.3v10.962z" style="fill:#709480"/>
                                                </g>
                                                <g data-name="Path 37566">
                                                    <path data-name="Path 37563" d="M-520.062 109.531v-8.726a9.968 9.968 0 0 1 5.394-8.854l8.637-4.458-2.643-.222a25.889 25.889 0 0 0-11.444 1.629l-.959.368a9.967 9.967 0 0 0-6.393 9.3v10.964z" style="fill:#b4c6b6"/>
                                                </g>
                                            </g>
                                            <g data-name="Group 23282">
                                                <g data-name="Ellipse 848">
                                                    <circle data-name="Ellipse 866" cx="9.528" cy="9.528" r="9.528" transform="translate(-531.694 118.111)" style="fill:#b4c6b6"/>
                                                </g>
                                                <g data-name="Ellipse 849">
                                                    <circle data-name="Ellipse 867" cx="9.528" cy="9.528" r="9.528" transform="translate(-533.569 118.111)" style="fill:#f1eadf"/>
                                                </g>
                                                <g data-name="Ellipse 850">
                                                    <circle data-name="Ellipse 868" cx="5.978" cy="5.978" r="5.978" transform="translate(-530.019 121.661)" style="fill:#b4c6b6"/>
                                                </g>
                                                <g data-name="Ellipse 851">
                                                    <circle data-name="Ellipse 869" cx="2.715" cy="2.715" r="2.715" transform="translate(-526.755 124.925)" style="fill:#f1eadf"/>
                                                </g>
                                            </g>
                                            <g data-name="Group 23283">
                                                <g data-name="Path 37567">
                                                    <path data-name="Path 37564" d="m-490.156 146.714-22.678-2.61-11.833-16 1.247-.923 11.433 15.462 22.008 2.532z" style="fill:#f1eadf"/>
                                                </g>
                                            </g>
                                            <rect data-name="Rectangle 5458" width="7.564" height="4.182" rx=".644" transform="translate(-496.22 143.315)" style="fill:#b4c6b6"/>
                                        </g>
                                    </g>
                                    <g data-name="Path 37568">
                                        <path data-name="Path 37565" d="m-555 170.146-27.448 68.466h22.673l20.85-31.666z" style="fill:#fff"/>
                                    </g>
                                </g>
                            </g>
                        </g>
                    </g>
                    <g data-name="Ellipse 854">
                        <g data-name="Group 23278" transform="translate(1469.342 207.452)">
                            <circle data-name="Ellipse 870" cx="86" cy="86" r="86" transform="translate(-596.342 63.548)" style="fill:none"/>
                        </g>
                        <g data-name="Group 23279">
                            <path data-name="Path 37566" d="M-510.342 235.548a86.1 86.1 0 0 1-86-86 86.1 86.1 0 0 1 86-86 86.1 86.1 0 0 1 86 86 86.1 86.1 0 0 1-86 86zm0-170a84.1 84.1 0 0 0-84 84 84.1 84.1 0 0 0 84 84 84.1 84.1 0 0 0 84-84 84.1 84.1 0 0 0-84-84z" style="fill:#f6eadc" transform="translate(1469.342 207.452)"/>
                        </g>
                    </g>
                </g>
                <g data-name="Group 23280">
                    <g data-name="Polygon 1">
                        <path data-name="Path 37567" d="m-663.239 139.39 9.5 16h-19z" style="fill:rgba(255,255,255,.7)" transform="translate(1447.739 179.61)"/>
                    </g>
                    <g data-name="Ellipse 855">
                        <g data-name="Group 23280" transform="translate(1447.739 179.61)">
                            <circle data-name="Ellipse 871" cx="6" cy="6" r="6" transform="translate(-271.739 198.39)" style="fill:none"/>
                        </g>
                        <g data-name="Group 23281">
                            <path data-name="Path 37568" d="M-265.739 210.39a6.007 6.007 0 0 1-6-6 6.007 6.007 0 0 1 6-6 6.007 6.007 0 0 1 6 6 6.006 6.006 0 0 1-6 6zm0-11a5.006 5.006 0 0 0-5 5 5.006 5.006 0 0 0 5 5 5.006 5.006 0 0 0 5-5 5.006 5.006 0 0 0-5-5z" style="fill:rgba(255,255,255,.7)" transform="translate(1447.739 179.61)"/>
                        </g>
                    </g>
                    <g data-name="Ellipse 856" transform="translate(1447.739 179.61)">
                        <circle data-name="Ellipse 872" cx="3" cy="3" r="3" transform="translate(-623.739 225.39)" style="fill:rgba(255,255,255,.7)"/>
                    </g>
                    <g data-name="Ellipse 863" transform="translate(1447.739 179.61)">
                        <circle data-name="Ellipse 873" cx="3" cy="3" r="3" transform="translate(-313.739 225.39)" style="fill:rgba(255,255,255,.7)"/>
                    </g>
                    <g data-name="Ellipse 857" transform="translate(1447.739 179.61)">
                        <circle data-name="Ellipse 874" cx="6.5" cy="6.5" r="6.5" transform="translate(-284.739 141.39)" style="fill:rgba(255,255,255,.7)"/>
                    </g>
                    <g data-name="Ellipse 858" transform="translate(1447.739 179.61)">
                        <circle data-name="Ellipse 875" cx="3.5" cy="3.5" r="3.5" transform="translate(-620.739 132.39)" style="fill:rgba(255,255,255,.7)"/>
                    </g>
                    <g data-name="Polygon 2">
                        <path data-name="Path 37569" d="m-335.739 132.39 7 12h-14z" style="fill:rgba(255,255,255,.7)" transform="translate(1447.739 179.61)"/>
                    </g>
                    <g data-name="Polygon 3">
                        <g data-name="Group 23282">
                            <path data-name="Path 37570" d="m-692.55 190.247 25.278 8.5-20.377 17.713z" style="fill:none" transform="translate(1447.739 179.61)"/>
                        </g>
                        <g data-name="Group 23283">
                            <path data-name="Path 37571" d="m-691.254 191.738 4.267 22.824 17.741-15.422-22.008-7.4m-1.3-1.491 25.278 8.5-20.377 17.713z" style="fill:rgba(255,255,255,.7)" transform="translate(1447.739 179.61)"/>
                        </g>
                    </g>
                    <g data-name="Ellipse 860">
                        <g data-name="Group 23284" transform="translate(1447.739 179.61)">
                            <circle data-name="Ellipse 876" cx="7" cy="7" r="7" transform="translate(-716.739 109.39)" style="fill:none"/>
                        </g>
                        <g data-name="Group 23285">
                            <path data-name="Path 37572" d="M-709.739 123.39a7.008 7.008 0 0 1-7-7 7.008 7.008 0 0 1 7-7 7.008 7.008 0 0 1 7 7 7.008 7.008 0 0 1-7 7zm0-13a6.007 6.007 0 0 0-6 6 6.007 6.007 0 0 0 6 6 6.006 6.006 0 0 0 6-6 6.007 6.007 0 0 0-6-6z" style="fill:rgba(255,255,255,.71)" transform="translate(1447.739 179.61)"/>
                        </g>
                    </g>
                    <g data-name="Ellipse 861" transform="translate(1447.739 179.61)">
                        <circle data-name="Ellipse 877" cx="5.5" cy="5.5" r="5.5" transform="translate(-362.739 193.39)" style="fill:rgba(255,255,255,.7)"/>
                    </g>
                    <g data-name="Ellipse 862" transform="translate(1447.739 179.61)">
                        <circle data-name="Ellipse 878" cx="3" cy="3" r="3" transform="translate(-398.739 96.39)" style="fill:rgba(255,255,255,.7)"/>
                    </g>
                </g>
            </g>
        </g>
    </g>
</svg>
