<svg xmlns="http://www.w3.org/2000/svg" width="140" height="93" viewBox="0 0 140 93">
    <defs>
        <clipPath id="hph9yfqvaa">
            <path data-name="Rectangle 8811" transform="translate(148 107)" style="fill:#fff;stroke:#707070" d="M0 0h140v93H0z"/>
        </clipPath>
    </defs>
    <g data-name="Mask Group 4121" transform="translate(-148 -107)" style="clip-path:url(#hph9yfqvaa)">
        <path data-name="Union 5" d="M71.262 138.247a26.913 26.913 0 0 0-1.344-1.83.847.847 0 0 1-.166-.207c-2.774-3.449-6.971-7.568-9.685-10.961-2.423 5.262-10.292 5.617-12.9.1a6.7 6.7 0 0 1-.358-4.919c-7.909 1.674-15.685 1.712-21.426 4.833a17.626 17.626 0 0 0 1.485-6.63c-.037-.024-.013-.123.023-.514.163-4.318-.491-9.148-.318-14.373-5.278 2.49-11.538-2.233-9.944-8.114a6.779 6.779 0 0 1 2.927-4C12.231 87.8 6.5 83 0 81.731A16.7 16.7 0 0 0 5.466 77.6l-.03-.03c.131-.118.268-.249.409-.389 1.32-1.483 2.7-3.287 4.44-5.511 1.772-2.271 3.178-4.2 4.623-5.689a7.114 7.114 0 0 1-5.234-8.014 6.988 6.988 0 0 1 7.74-5.694C14.285 44.664 13 37.282 8.866 32.26a11.556 11.556 0 0 0 4.67.5c.672-.039 1.416-.12 2.208-.231v-.006l.1-.009c4.652-.662 10.955-2.343 14.7-2.844a7.035 7.035 0 0 1 10.831-8.92C43.856 13.167 47.74 6.4 47.848 0a18 18 0 0 0 5.082 4.58l.012-.016c.076.057.162.12.258.187 3.681 2.3 8.249 4.147 12.936 7.035a7.162 7.162 0 0 1 7.079-6.5 6.971 6.971 0 0 1 7.02 6.542c6.805-4.215 14.1-6.89 18.44-11.752a18.208 18.208 0 0 0 .938 6.7h.012l.077.283c1.322 4.122 3.616 8.426 5.332 13.626 6.071-5.94 15.979 1.827 10.8 8.96 5.569.629 14.9 3.738 21.777 2.738a10.481 10.481 0 0 0-2.326 2.9 26.416 26.416 0 0 0-1.35 2.869.837.837 0 0 1-.055.136c-1.714 4.239-3.165 9.785-4.827 13.906a7.185 7.185 0 0 1 7.7 5.78 6.959 6.959 0 0 1-5.263 7.973c2.592 2.426 4.731 5.824 7.4 9.1.588.687 1.456 1.687 2.2 2.395l-.052.05a25.821 25.821 0 0 0 5.351 4.364 11.144 11.144 0 0 0-3.662.752 27.409 27.409 0 0 0-2.9 1.337.883.883 0 0 1-.143.076c-4.089 2.166-8.772 5.479-12.746 7.59 7.144 4.954.831 15.827-7.088 12.052.178 5.076-.368 11.827.023 16.643.692 7.751 3.1 4.694-3.133 3a27.672 27.672 0 0 0-2.152-.532v.007l-.14-.037c-4.416-.911-10.4-1.4-14.754-2.289 2.256 8.345-9.665 12.621-13.27 4.729-3.187 4.034-7.97 8.818-10.81 12.767a16.686 16.686 0 0 0-2.487 4.548 9.17 9.17 0 0 0-1.865-4.252zm2.982.392q.249-.383.524-.775c-.034-.345-.1-.867-.24-1.6-.745-3.715-2.2-3.9-2.893 1.226q.288.412.545.814c.248-1.253.625-1.883 1-1.883.411-.001.82.736 1.064 2.219zm1-1.432q.4-.538.829-1.09c-3.507-2.851-1.392-5.595 2.348-2.832l.014-.017c-3.241-2.986-1.229-5.728 2.5-2.836l.02-.023c-3.194-3.065-1.222-5.633 2.542-2.876l.029-.033c-1.073-1-2.226-2.638-1.474-3.591.785-.979 2.843-.142 4 .551l.013-.017.033-.043c-1.56-1.053-3.432-3.089-1.684-3.787a7.93 7.93 0 0 1 3.352-.309l.008-.074a7.706 7.706 0 0 1-3.159-1.162c-1.508-1.182.719-2.547 2.77-3.106l-.015-.059a5.239 5.239 0 0 1-3.489-.274c.127 2.92-1.925 4.943-4.607 8.018-3.468 3.977-4.746 5.519-5.9 8.348-.919-2.408-1.544-3.319-5.773-7.954-3.156-3.459-5.259-5.636-5.128-8.594q-.041.043-.088.085c-.6.575-2.18.569-3.348.415l-.031.117c1.534.467 3.491 1.46 2.843 2.6-.385.717-2.076 1.352-3.2 1.635 0 .034.01.068.015.1 1.2-.174 3.471-.214 3.881.661.391.976-1.2 2.657-2.15 3.4l.018.023c3.877-2.675 6.021-.13 2.562 3.025l.018.021c3.844-2.972 5.869-.267 2.608 2.854l.011.012c3.67-3 5.919-.241 2.563 2.815l.007.008c2.479-1.879 4.3-1.2 4.173.267a1.117 1.117 0 0 1 .839-.5c.806-.002 1.626 1.385 2.046 4.223zm-4.062-.352a13.106 13.106 0 0 1 .4-1.772 6.468 6.468 0 0 1-1.024.963q.322.409.619.81zm5.1-1 .3-.374c-1.792-1.571-.7-2.958 1.308-1.573l.322-.377a4.533 4.533 0 0 0-2.514-1.071c-1.445.006-1.626 1.64.574 3.401zm-5.923-.077c3.206-2.477 1.4-4.8-1.952-2.309l.328.374c2.028-1.4 3.118.024 1.324 1.564q.141.193.29.377zm8.3-2.77.328-.377c-1.714-1.712-.57-3.027 1.391-1.576l.338-.38a4.533 4.533 0 0 0-2.552-1.153c-1.364.006-1.53 1.602.489 3.492zm-10.713-.053c3.031-2.8 1.212-4.98-2.109-2.314l.346.375c2.008-1.546 3.208-.181 1.427 1.565zm13.236-2.8.341-.383c-1.684-1.726-.563-3.011 1.416-1.6l.343-.392a4.718 4.718 0 0 0-2.567-1.114c-1.366.004-1.508 1.568.461 3.492zm-15.815-.02c2.985-2.9 1.233-5-2.157-2.358l.351.388c2.051-1.574 3.24-.2 1.458 1.592zm2.78-6.583a38.111 38.111 0 0 1 5.239 6.561c1.662-3.185 5.848-7.3 8.526-10.741 1.912-2.456 1.271-5.079.191-7.189a1.019 1.019 0 0 1-.289-.535 24.607 24.607 0 0 0-1.1-1.737 42.471 42.471 0 0 1-4.79.575 4.607 4.607 0 0 0 .152 1.683c.461 1.542-1.644 2.221-1.644 2.221a4.546 4.546 0 0 1-.3-2.859 1.994 1.994 0 0 1 .981-1q-.939.041-1.887.041-.991 0-1.972-.045a3.908 3.908 0 0 0 1.1 1.049c1.357.889.186 2.745.186 2.745a4.634 4.634 0 0 1-2.09-2 2.187 2.187 0 0 1 .332-1.819 42.455 42.455 0 0 1-5.225-.624c-4.327 6.377-2.248 8.381 2.584 13.677zm19.245 1.109a5.976 5.976 0 0 0 11.2-4.139c-5.99-2-7.8-7.266-8.852-13.288l-.03.01a42.023 42.023 0 0 1-4.428 1.586c5.943 8.519 2.903 14.533 2.104 15.834zm-39.5-4.014a5.853 5.853 0 0 0 3.64 7.276 6.145 6.145 0 0 0 7.629-3.335c-3.286-5.338-1.248-10.518 1.861-15.8a42.052 42.052 0 0 1-4.451-1.615c-.985 10.311-7.226 12.989-8.686 13.477zm14.854 6.61c2.085-1.952 2.29-4.161-.246-3.407a7.522 7.522 0 0 0-1.881.9q.169.212.343.425c2.19-1.491 3.318-.074 1.436 1.688zm21-.01.341-.4c-1.786-1.681-.726-3.025 1.4-1.685q.179-.222.352-.441a5.5 5.5 0 0 0-2.627-.952c-1.49.006-1.519 1.596.528 3.481zm-23.507-3.091c1.035-.822 2.926-2.842 1.494-3.321a8.224 8.224 0 0 0-3.015-.106c.044.217.1.422.152.616 1.128-.238 2.59-.091 2.208.916a3.48 3.48 0 0 1-1.135 1.341 4.5 4.5 0 0 1 .29.557zm23.917-2.228a7.746 7.746 0 0 0 2.142 2.2q.186-.26.347-.525c-.666-.406-1.621-1.233-1.384-1.846.2-.633 1.582-.633 2.343-.506q.042-.186.082-.388c.013-.079.026-.157.037-.236a9.523 9.523 0 0 0-1.016-.052c-1.433.004-3.114.303-2.557 1.356zm-55.423 1.077c.293-.09.6-.177.906-.261.2-.286.489-.725.856-1.378 1.844-3.313.859-4.39-3.013-.9q-.047.5-.112.969a3.359 3.359 0 0 1 1.71-.895c.634.006.599.886-.353 2.468zm88.753-.251c-1.3-2.323-.421-2.941 1.8-1.056q-.059-.452-.1-.927c-.251-.242-.637-.6-1.222-1.07-2.986-2.375-4.221-1.59-1.417 2.776q.476.135.934.28zm-87.056-.214q.647-.159 1.331-.305a5.7 5.7 0 0 1-.085-2.081 13.637 13.637 0 0 1-1.251 2.388zm85.343-.258a14.7 14.7 0 0 1-.851-1.582 6.914 6.914 0 0 1-.155 1.355q.51.111 1.002.229zm-83.68-.117.471-.1c-.347-2.342 1.389-2.7 2.025-.375l.493-.084c-.434-1.861-1.273-2.724-1.971-2.724-.816.007-1.44 1.17-1.022 3.285zm82.349-.178c.835-3.912-2.047-4.585-3-.529l.495.078c.642-2.346 2.408-1.975 2.031.357zm-79.026-.433h.022c-.528-4.6 2.874-4.95 3.76-.584h.024c-.439-4.311 2.723-5.157 3.82-.588l.037-.006c-.587-4.392 2.471-5.2 3.919-.727h.018l.055-.012c-.382-1.4-.659-4.049.72-4.049.909 0 2.4 1.155 3.217 1.972l.059-.056c-1.544-1.722-2.668-4.234-.387-4.234a7.713 7.713 0 0 1 2.865.716l.031-.065c-1.522-.863-2.308-1.694-2.516-2.374-1.736 2.172-4.538 2.506-8.725 3.179-5.265.846-7.232 1.215-9.957 2.648.863-2.428.976-3.525.751-9.762-.167-4.654-.369-7.656 1.657-9.838q-.056.006-.116.008c-.824.068-2.039-.95-2.836-1.811l-.1.07c.876 1.337 1.728 3.347.485 3.8-.746.3-2.468-.285-3.512-.78l-.059.094c.969.6 2.3 1.661 2.537 2.516.375 1.306-2.169 1.692-3.848 1.674v.046c4.849.451 4.577 3.72-.006 3.941v.028c4.886.163 4.655 3.521.142 3.841v.02c4.866.085 4.6 3.57.133 3.78v.012c3.068.135 4.056 1.766 3.076 2.813a1.1 1.1 0 0 1 .9.207 1.4 1.4 0 0 1 .3 1.437 1.346 1.346 0 0 1 1.2-.907c.861-.012 1.869.946 2.331 2.993zm.351-.058.5-.08c-.2-2.4 1.534-2.679 2.089-.323l.506-.076c-.4-1.9-1.2-2.789-1.9-2.79-.797.003-1.446 1.148-1.198 3.273zm75.341-.09c.658-2.9 2.47-3.661 3.337-2.519a1.068 1.068 0 0 1 .361-.824 1.5 1.5 0 0 1 1.561-.014c-1.644-.988-.736-2.948 2.624-3.106v-.015c-4.413-.233-4.667-3.609.074-3.76v-.03c-4.4-.32-4.635-3.539.079-3.819v-.045c-4.52-.244-4.683-3.257-.045-3.928v-.077a8.148 8.148 0 0 1-3.224-.35c-1.729-.709.171-2.74 1.837-3.846l-.042-.061a7.72 7.72 0 0 1-3.176 1.117c-1.93.051-1.1-2.418.1-4.139l-.052-.037a5.239 5.239 0 0 1-2.855 2.006 6.079 6.079 0 0 1 1.674 4.088c.253 5.916-.586 10.521.93 15.126-4.166-2.315-9.369-2.066-15.159-3.327a6.43 6.43 0 0 1-3.959-2.474c-.005.8-.884 1.828-2.348 2.666l.036.073a7.867 7.867 0 0 1 2.663-.642c2.117 0 1.175 2.374-.07 4.043l.084.072c.792-.854 2.115-1.98 3-1.98 1.275 0 1.19 2.506.9 4.04l.042.009c1.238-4.551 4.526-3.922 3.929.69h.028c1.011-4.724 4.316-3.911 3.853.529h.024c.924-4.608 4.312-4.012 3.779.527zm-.348-.052c.5-4.063-2.308-4.593-3.12-.433l.51.068c.532-2.453 2.34-2.182 2.11.292zm-71.2-.441.511-.077c-.167-2.389 1.528-2.666 2.125-.326l.516-.082c-.447-1.888-1.248-2.772-1.935-2.772-.787.002-1.421 1.144-1.222 3.259zm67.391-.084c.4-4.125-2.309-4.6-3.186-.436l.521.075c.546-2.5 2.353-2.216 2.153.294zm-63.536-.515.52-.088c-.273-2.418 1.41-2.782 2.171-.4.188-.038.373-.075.557-.114-.634-1.862-1.474-2.717-2.15-2.717-.801.005-1.369 1.192-1.103 3.321zm59.655-.024c.483-4.05-2.054-4.772-3.261-.57q.267.055.54.108c.705-2.533 2.494-2.163 2.2.381zm-44.47-.311c.973-.245 3.017-.985 3.038-1.749 0-.77-1.685-1.516-2.722-1.844-.048.2-.091.392-.128.581.737.215 1.608.647 1.589 1.218-.051.618-1.051 1.007-1.814 1.16.004.221.017.432.037.634zm60.506-.013q-.047-.661-.074-1.354a5.976 5.976 0 0 1-2.2-.334 13.323 13.323 0 0 1 2.274 1.688zm-34.371-2.3c-1.1 1.127 1.548 2.009 3.06 2.231q.021-.31.023-.623c-.782-.08-2.06-.433-2.082-1.094s1.075-1.141 1.845-1.326q-.056-.286-.124-.573a6.713 6.713 0 0 0-2.722 1.388zm-57.2 2.022a15 15 0 0 1 1.4-1.082 6.717 6.717 0 0 1-1.347.074q-.017.52-.049 1.011zm71.581-.142c.3-1.415.374-4.071-1.006-3.532a7.948 7.948 0 0 0-2.325 1.774q.247.194.51.375c.716-.877 1.888-1.632 2.24-.642a3.483 3.483 0 0 1-.011 1.811q.292.115.595.217zM47.184 116.5a7.637 7.637 0 0 0 .21 3.047c.207-.054.41-.115.608-.182-.244-.733-.441-1.974.14-2.293.563-.359 1.621.519 2.122 1.1q.156-.117.322-.249c.059-.05.118-.1.176-.152-.709-.738-2.094-1.836-2.929-1.836a.624.624 0 0 0-.649.565zm-19.577-1.162q0 .248.008.495c2.451.219 2.384 2 0 2.04 0 .159-.007.317-.011.474 4.106.144 4.127-2.791.004-3.009zm91.412 2.947q-.008-.237-.014-.476c-2.388-.068-2.449-1.82-.021-2.035v-.494c-4.176.22-3.995 3.074.036 3.005zm-23.821-1c.594-.834 1.616-2.624 1.148-3.214-.507-.6-2.334-.074-3.333.338q.142.265.295.522c.706-.311 1.68-.548 2.043-.09.355.494-.129 1.4-.6 2q.214.23.449.446zm-45.472-2.751a7.279 7.279 0 0 0 1.571 2.723q.218-.225.423-.463c-.548-.557-1.3-1.639-.882-2.16s1.565-.19 2.275.156q.144-.255.278-.518a7.279 7.279 0 0 0-2.657-.689c-.683.002-1.15.251-1.007.953zM33.8 102.065c-.184 4.259.585 10.449-.187 13.867 3.347-1.386 9.228-1.88 13.519-2.814 3.071-.669 4.284-3.1 4.827-5.406a1.031 1.031 0 0 1 .117-.547c.144-.74.228-1.452.291-2.071a42.254 42.254 0 0 1-4.033-2.6 4.661 4.661 0 0 0-.99 1.4c-.649 1.474-2.7.657-2.7.657a4.566 4.566 0 0 1 1.629-2.382 2.073 2.073 0 0 1 1.445-.133q-1.56-1.18-3-2.5a4.54 4.54 0 0 0 .162 1.533c.463 1.54-1.642 2.22-1.642 2.22a4.536 4.536 0 0 1-.3-2.859 2.258 2.258 0 0 1 1.458-1.191 42.115 42.115 0 0 1-3.595-3.8c-3.427.986-6.83 2.579-7.001 6.626zm53.477 13.517q-.079-.275-.168-.55c-2.493.536-3.037-1.01-.836-2.131q-.115-.25-.236-.5a7.593 7.593 0 0 0-1.574 1.121 2.434 2.434 0 0 0-.729 1.014q.069.323.1.631c.447.572 1.896.703 3.439.415zm17.518-1.557a38.842 38.842 0 0 1 8.283 1.7c-.8-3.505-.27-9.3-.456-13.643-.133-3.095-2.331-4.7-4.53-5.628a1.042 1.042 0 0 1-.571-.227 24.04 24.04 0 0 0-2-.636 42.062 42.062 0 0 1-3.27 3.46 3.782 3.782 0 0 0 1.209 1.224c1.357.887.185 2.744.185 2.744-.073.026-1.791-1-2.09-2a2.037 2.037 0 0 1 .121-1.435q-1.444 1.315-3.008 2.495a4.719 4.719 0 0 0 1.551.108c1.617-.182 1.928 1.984 1.928 1.984a4.7 4.7 0 0 1-2.9-.2 2.1 2.1 0 0 1-.92-1.631 42.26 42.26 0 0 1-4.418 2.854c.837 7.626 3.731 7.841 10.883 8.83zM60.25 115.71c3.265 0 2.365-1.871.071-3.216-.082.178-.16.352-.236.524.634.408 1.278 1.025 1.078 1.565-.217.533-1.12.587-1.869.489q-.094.288-.175.564a8.9 8.9 0 0 0 1.128.073zm-32.655-1.054c4.126-.221 4.186-3.036-.11-3.112l.021.507c2.539.091 2.582 1.9.076 2.1q.004.254.01.504zm91.4-.062q0-.249.007-.5c-2.423-.225-2.4-1.955.043-2.089l.012-.505c-4.143.125-4.19 2.851-.064 3.093zm-56.372-.3a9.669 9.669 0 0 1 .568-1.71 6.014 6.014 0 0 1-2.693-.472l-.039.083a5.567 5.567 0 0 1 2.162 2.105zm20.98-.283a3.845 3.845 0 0 1 .627-.73 7.586 7.586 0 0 1 1.659-1.176l-.022-.044a5.625 5.625 0 0 1-2.779.543 10.632 10.632 0 0 1 .512 1.409zm9.069-.29c.937-.584 2.412-1.759 2.129-2.556-.311-.821-2.127-.795-3.251-.632q.073.274.151.543c.764-.1 1.706-.051 1.909.505.187.565-.52 1.2-1.175 1.6q.112.277.235.542zm-38.963-.1c.079-.173.155-.35.229-.527-2.257-1.172-1.669-2.7.746-2.164q.075-.263.143-.53a5.3 5.3 0 0 0-3.127.157 6.787 6.787 0 0 1-.367.606c.007.857 1.523 1.972 2.375 2.457zm32-1.858q-.128-.242-.261-.482c-2.234.911-3.027-.488-1.149-1.878q-.083-.125-.168-.248c-.191.051-.384.1-.575.149a4.206 4.206 0 0 0-1.335 1.633c.269.46.5.9.7 1.316a4.971 4.971 0 0 0 2.787-.491zm-22.88.521a2.286 2.286 0 0 0 .521-.053q.262-.562.606-1.172a4.561 4.561 0 0 0-1.449-1.85l-.39-.1-.187.318c1.767 1.361 1.026 2.7-1.042 1.9-.084.165-.166.328-.245.489a6.659 6.659 0 0 0 2.185.467zm-35.375-1.429c4.173-.328 4.2-3.045-.118-3.177 0 .172.01.346.016.519 2.6.1 2.612 1.908.081 2.147q.009.256.02.511zm91.619-.052.013-.511c-2.413-.252-2.387-1.949.046-2.124 0-.172.006-.345.008-.516-4.181.227-4.098 2.825-.068 3.148zm-54.9-.124q.272-.459.591-.948-.789-.16-1.566-.348a4.826 4.826 0 0 1 .976 1.296zm17.838-.091a4.367 4.367 0 0 1 .864-1.121c-.46.107-.921.207-1.386.3q.28.421.523.821zm12.582-.122a9.966 9.966 0 0 1-.72-1.725 5.158 5.158 0 0 1-2.429 1.391l.019.077a8.577 8.577 0 0 1 1.285-.1 3.817 3.817 0 0 1 1.846.357zm-42.666-.366a5.652 5.652 0 0 1 2.978-.02l.011-.045a5.568 5.568 0 0 1-2.474-1.338 10.422 10.422 0 0 1-.515 1.403zm39.439-.284a4.323 4.323 0 0 0 2.4-1.424 15.724 15.724 0 0 1-.313-1.309 4.151 4.151 0 0 0-2.311-.475l-.372.172.061.367c2.253-.082 2.559 1.435.411 2.131q.058.267.125.534zm-38.11-.928a7.842 7.842 0 0 0 1.737.815q.06-.267.113-.534c-2.307-.722-2-2.295.341-2.167l.034-.3c-.17-.078-.336-.156-.5-.237a4.681 4.681 0 0 0-2.121.427c-.089.5-.19.972-.3 1.406a3.211 3.211 0 0 0 .696.586zm19.96.8a41.926 41.926 0 0 0 4.264-.217l.446-.066A21.928 21.928 0 0 1 80.7 109q1.456-.266 2.873-.631l-.1-.134 7.136-2.462.012.079a41.28 41.28 0 0 0 16.1-13.271l-.144-.035 3.865-6.419.061.053q.691-1.462 1.267-2.987a9.73 9.73 0 0 1 .228-.621 39.948 39.948 0 0 0 2.29-11.412q.052-1.268.044-2.706h.007q-.019-1.346-.126-2.667l-.147.072-1.215-7.373h.087q-.435-1.6-1-3.14a9.235 9.235 0 0 1-.176-.476 40.636 40.636 0 0 0-8.335-13.379c-.378-.385-.7-.7-.934-.965l-.056.126-5.721-4.872.054-.042a41.186 41.186 0 0 0-14.07-6.252c-.9-.2-1.872-.387-2.918-.562v-.011q-1.328-.211-2.68-.337l.046.157-7.558-.1.017-.082q-1.633.141-3.227.407a9.524 9.524 0 0 1-.748.131 41.141 41.141 0 0 0-11.71 4.065q-.777.416-1.606.893-1.243.728-2.429 1.538l.123.082-5.854 4.726-.03-.055a40.809 40.809 0 0 0-8.508 12.236 28.609 28.609 0 0 1-1.165 2.88q-.493 1.37-.888 2.781l.168-.018-1.411 7.338-.08-.031q-.151 1.737-.152 3.512a40.1 40.1 0 0 0 1.57 11.138 32.188 32.188 0 0 1 1.026 3.079q.519 1.368 1.134 2.691l.112-.115 3.692 6.518-.065.021A41.262 41.262 0 0 0 52.612 104.2l.344.195a1.333 1.333 0 0 1 .194.109q1.184.656 2.416 1.238c0-.053.007-.106.011-.159l7.068 2.647-.046.074a41.521 41.521 0 0 0 10.617 1.376zm-45.9-2.7c2.867-.171 4.462-1.732 2.029-2.766a7.547 7.547 0 0 0-2.027-.5q-.009.269-.014.543c2.648.247 2.59 2.05 0 2.2l.013.519zm91.83-.038v-.521c-2.464-.153-2.521-1.855-.021-2.182 0-.189-.011-.377-.017-.563-4.296.642-3.954 3.06.038 3.263zm-25.772-.3q-.093-.534-.162-1.082-.7.374-1.408.722a4.353 4.353 0 0 1 1.57.359zm-40.445-.2a4.346 4.346 0 0 1 1.386-.315q-.632-.316-1.253-.653-.062.503-.134.967zm-34.636-6.076a6.16 6.16 0 0 0 8.015 2.289c.956-6.189 5.9-8.856 11.706-10.922l-.095-.167a41.4 41.4 0 0 1-2.265-3.9c-7.456 7.278-13.98 5.365-15.416 4.812a5.83 5.83 0 0 0-1.945 7.886zm101.964 2.278a5.927 5.927 0 0 0 5.883-10.282c-5.86 2.258-10.653-.574-15.424-4.557l-.045.075a41.421 41.421 0 0 1-2.347 3.975c10.113 2.737 11.699 9.281 11.932 10.788zm-92.84.372h.116c1.4 0 3.951-.365 3.187-1.6a8.015 8.015 0 0 0-2.239-2 7.7 7.7 0 0 0-.283.569c1.012.531 2.041 1.572 1.093 2.1a3.543 3.543 0 0 1-1.735.306 4.307 4.307 0 0 1-.14.624zm88.583-.412a7.912 7.912 0 0 0 3.072.325q-.027-.317-.075-.622c-.773.111-2.044.084-2.261-.536-.26-.61.8-1.49 1.467-1.875q-.086-.164-.182-.337a12.517 12.517 0 0 0-.132-.216c-1.189.776-3.289 2.689-1.889 3.261zm-2.325-3.636c-.1 1.545 2.45.584 3.8-.234q-.186-.251-.389-.493c-.651.436-1.859.977-2.307.484s.082-1.556.552-2.187q-.229-.184-.468-.36a6.58 6.58 0 0 0-1.188 2.789zm-81.968.606c1.447 0 .595-2.081-.243-3.36q-.251.184-.48.366c.426.632.813 1.517.426 1.945-.442.441-1.461.1-2.146-.264q-.209.259-.383.511a8.164 8.164 0 0 0 2.826.801zm82.556-3.817q-.24-.161-.487-.315c-1.561 1.993-2.982 1.154-2.027-1.1q-.25-.119-.5-.231a7.467 7.467 0 0 0-.476 1.858 2.361 2.361 0 0 0 .111 1.26q.241.188.464.392c.707.171 1.916-.66 2.914-1.865zM34.6 97.44c1.173 0 .89-2 .458-3.3q-.264.124-.515.248c.221.715.314 1.6-.191 1.886-.514.271-1.241-.262-1.752-.814-.173.107-.339.213-.5.32.667.701 1.8 1.66 2.5 1.66zm1.052-.46a9.858 9.858 0 0 1 1.528-.938 5 5 0 0 1-1.744-2.081l-.07.032a5.409 5.409 0 0 1 .288 2.987zm74.776-.072a3.788 3.788 0 0 1 0-.971 7.425 7.425 0 0 1 .507-1.953l-.047-.02a5.51 5.51 0 0 1-1.781 2.184 10.9 10.9 0 0 1 1.323.76zm-1.673-.928a4.874 4.874 0 0 0 1.822-2.147l-.515-.2c-1.118 2.115-2.635 1.549-2.1-.708l-.308-.089q-.158.222-.318.443a4.194 4.194 0 0 0 .031 2.144c.479.167.944.353 1.39.556zm-71.192-.124q.574-.267 1.244-.518a4.932 4.932 0 0 0 .055-2.384l-.2-.279-.362.125c.464 2.165-.974 2.721-2.036.794-.172.073-.339.145-.5.218a5.23 5.23 0 0 0 1.801 2.043zm69.419-.571a4.358 4.358 0 0 1-.064-1.45q-.438.58-.9 1.144.492.145.966.305zm-67.759-.1q.507-.178 1.069-.35a40.076 40.076 0 0 1-.981-1.269 4.264 4.264 0 0 1-.086 1.62zm-15.118-3.071h.209c-.086-1.4-.713-4.159-1.913-3.247a7.721 7.721 0 0 0-1.822 2.468c.194.09.389.172.583.246.29-.716.948-1.792 1.6-1.668.665.082.9 1.429.911 2.192.138.002.282.007.432.009zm.545-.022.07-.005c-.039-1.244.239-3.894 1.539-3.894 1 0 2.093 1.649 2.644 2.775l.059-.027a5.566 5.566 0 0 1-.357-3.435c-2.841.6-5.21-1-8.761-3.094-4.584-2.695-6.333-3.663-9.353-4.3C17.067 76.27 19.208 67.5 25.13 66.671a2.325 2.325 0 0 1-.884-1.507 7.966 7.966 0 0 1-.258-1.848l-.1-.006c-.253 2.427-1.41 4.753-3.269 2.224a9.091 9.091 0 0 1-1.006-1.707l-.107.037c.344 1.075.652 2.677.285 3.465-.561 1.238-2.781-.091-4.039-1.16l-.031.034c3.389 3.435 1.084 5.757-2.567 3.014l-.018.022c3.56 3.173 1.4 5.667-2.385 3.027l-.019.024c3.583 3.1 1.35 5.685-2.349 2.972l-.018.022c2.258 2.1 1.967 3.955.519 4.094a1.089 1.089 0 0 1 .565.735 1.406 1.406 0 0 1-.7 1.291 1.31 1.31 0 0 1 1.962.774 4.753 4.753 0 0 1-.627 3.071l.023.013c1.505-2.259 3.562-2.789 3.97-1.126a4.945 4.945 0 0 1-.718 3.065l.03.018c2.525-3.675 5.454-2.114 3.314 1.981l.032.019c2.477-3.75 5.215-2.411 3.466 1.927l.02.01.059.03c.548-1.116 1.683-2.85 2.6-2.85 1.151.001 1.692 2.525 1.77 3.757zm.975-3.121a7.233 7.233 0 0 0-.568 3.085q.313-.034.626-.086c-.058-.776.073-2.079.729-2.215.656-.153 1.323.848 1.642 1.565q.276-.1.549-.22c-.512-1.082-1.558-2.571-2.355-2.572a.715.715 0 0 0-.623.444zm96.259 3.078c.05-1.271.436-3.6 1.531-3.6.974 0 2.265 1.7 2.814 2.7l.022-.011c-.773-1.572-1.085-4.2.592-4.2 1.042 0 2.2 1.249 2.869 2.231l.023-.014c-2.269-4.091.59-5.883 3.3-2.041l.02-.013c-2.363-4.11.775-5.824 3.249-2.005l.009-.006c-1.441-2.729-.488-4.369.932-4.034a1.077 1.077 0 0 1-.273-.877c.092-.515.589-.832 1.254-1.022-1.933.34-2.592-1.678-.072-4.022l-.014-.017c-3.538 2.632-5.918.207-2.39-2.926l-.019-.024c-3.6 2.56-5.848.212-2.425-2.975l-.028-.034c-3.652 2.712-5.7.471-2.59-2.982l-.015-.017-.038-.041a8.05 8.05 0 0 1-2.7 1.78c-1.759.546-1.658-2.129-1.114-4.043l-.075-.022a7.486 7.486 0 0 1-1.684 2.806c-1.461 1.277-2.468-1.277-2.624-3.273h-.055a8.29 8.29 0 0 1-.252 2.151 2.976 2.976 0 0 1-.616 1.263c5.5.826 7.536 8.756 14.481 13.039-2.559.476-3.577.928-8.932 4.239-3.777 2.334-6.361 4.169-9.457 3.487.541.706.3 2.274-.112 3.5l.094.041c.547-1.067 1.616-2.588 2.541-2.588 1.084 0 1.542 2.147 1.648 3.545zm.965-2.838a7.806 7.806 0 0 0-.627 2.835q.315-.008.635-.037c-.022-1.124.382-2.448 1.3-1.914a3.546 3.546 0 0 1 1.169 1.395c.2-.065.394-.135.594-.212-.5-.907-1.653-2.472-2.48-2.472a.664.664 0 0 0-.592.406zm-1.406 2.824c-.089-1.016-.47-3.04-1.211-3.191-.778-.139-1.838 1.428-2.334 2.377q.281.113.565.212c.339-.687.93-1.486 1.507-1.366.593.153.811 1.151.839 1.915q.314.038.633.055zM19.905 90.991c1.583-3.993-.7-4.924-2.879-1.6l.455.263c1.368-2.033 2.888-1.231 1.923 1.073.168.088.335.173.501.264zm106.65-.013q.24-.127.484-.26c-1.1-2.388.5-3.243 1.932-1.1l.453-.27c-.929-1.4-1.887-2.047-2.565-2.047-.972-.001-1.372 1.322-.304 3.676zm-9.367-.065c.341-1.05.7-2.882-.032-3.31-.772-.43-2.147.74-2.9 1.581q.235.164.469.321c.519-.564 1.273-1.123 1.791-.826.511.314.383 1.25.14 1.972q.264.137.531.262zM29.27 90.8q.26-.124.518-.258c-.965-2.328.478-3.135 1.979-1.184q.229-.155.455-.316a5.159 5.159 0 0 0-2.522-1.868q-.324.128-.638.219c-.572.649-.131 2.489.208 3.407zm-12.857-1.771c1.891-3.689-.427-4.918-2.73-1.633l.442.266c1.421-1.931 2.9-1.076 1.84 1.1zm97.567-.039a5.513 5.513 0 0 1 2.515-1.783 9.825 9.825 0 0 1-1.589-.825 5.257 5.257 0 0 1-.993 2.56zm16.042-.009.448-.274c-1.214-2.27.365-3.19 1.84-1.142l.437-.273c-.944-1.355-1.892-1.959-2.562-1.959-1.015-.001-1.394 1.385-.163 3.648zm-97.528-.136.048-.035a6.7 6.7 0 0 1-1.007-2.618 10.867 10.867 0 0 1-1.344.767 6.439 6.439 0 0 1 2.303 1.886zm81.144-.1a5.184 5.184 0 0 0 .9-2.6q-.524-.356-1.08-.8a4.827 4.827 0 0 0-2.084 1.11l-.166.349.285.242c1.673-1.5 2.894-.526 1.7 1.371q.225.161.445.323zm-81.632-1.86a7.637 7.637 0 0 0 .8 1.728q.219-.166.434-.337c-1.293-2.013-.042-3.034 1.672-1.445l.223-.211-.235-.5A4.648 4.648 0 0 0 33 85.1q-.592.491-1.143.877a3.13 3.13 0 0 0 .149.908zm-18.925.149c1.986-3.637-.439-4.951-2.68-1.6l.433.255c1.409-1.961 2.913-1.074 1.81 1.081zm113.586-3.589a38.707 38.707 0 0 1 7.451-3.961c-2.884-2.168-6.275-6.973-9.225-10.161-2.112-2.284-4.836-2.118-7.125-1.435a1.046 1.046 0 0 1-.548.175c-.724.247-1.392.532-1.968.788v.188A41.307 41.307 0 0 1 115 73.61a4.777 4.777 0 0 0 1.7.144c1.616-.182 1.928 1.985 1.928 1.985a4.7 4.7 0 0 1-2.9-.2 1.945 1.945 0 0 1-.826-1.115q-.25 1.9-.672 3.748a4.642 4.642 0 0 0 1.232-.891c1.12-1.166 2.768.3 2.768.3a4.65 4.65 0 0 1-2.356 1.686 2.114 2.114 0 0 1-1.749-.648 40.81 40.81 0 0 1-1.537 4.984c5.603 5.297 7.963 3.623 14.079-.159zm6.669 3.478.434-.271c-1.189-2.218.373-3.159 1.807-1.117l.431-.262c-.9-1.363-1.835-1.966-2.505-1.966-1.017-.001-1.423 1.385-.167 3.616zM18 73.563a38.156 38.156 0 0 1-5.629 6.237 42.8 42.8 0 0 1 7.853 3.983c4.8 2.824 7.142 4.624 11.456 1.431a.914.914 0 0 1 .564-.437c.485-.391.994-.842 1.535-1.359a40.8 40.8 0 0 1-1.407-4.544 3.955 3.955 0 0 0-1.651.425c-1.455.717-2.5-1.214-2.5-1.214-.022-.066 2.667-1.7 3.937-.114q-.4-1.8-.642-3.657a4.58 4.58 0 0 0-.853 1.256c-.647 1.474-2.7.657-2.7.657a4.569 4.569 0 0 1 1.631-2.381 2.3 2.3 0 0 1 1.868 0 41.283 41.283 0 0 1-.281-4.814v-.372a13.361 13.361 0 0 0-5.161-1.36c-3.184 0-4.92 2.336-8.02 6.263zm93.684 12.216a4.476 4.476 0 0 1 1.44-.718q-.4-.34-.826-.73-.291.73-.612 1.448zM34.622 85.5c-.193-.441-.38-.889-.558-1.337-.255.237-.5.459-.747.668a5.112 5.112 0 0 1 1.305.669zM9.8 85.085c1.893-3.675-.687-4.976-2.65-1.474l.424.226c1.253-2.006 2.821-1.189 1.794 1zm126.8-.168.429-.254c-1.034-2.207.56-3.041 1.788-1.017l.422-.228c-.773-1.43-1.668-2.064-2.331-2.064-.971 0-1.445 1.359-.308 3.563zM6.858 83.457a5.968 5.968 0 0 1 1.284-1.65 13.926 13.926 0 0 1-2.507 1.037q.602.289 1.223.613zm132.681-.2q.461-.241.911-.461a15.059 15.059 0 0 1-1.658-.66 6.508 6.508 0 0 1 .747 1.124zM4.895 82.5c.337-.093.845-.244 1.548-.51 3.565-1.366 3.513-2.816-1.72-2.6q-.361.352-.718.671c2.685.049 2.783 1.112.024 2.066q.428.173.866.373zm135.549-3.062c-3.807.078-4.3 1.455.719 3.028q.461-.209.906-.389c-2.5-.952-2.237-1.987.692-1.95q-.339-.309-.683-.644l-.091-.007a16.98 16.98 0 0 0-1.2-.04zm-1.848-.368a13.234 13.234 0 0 1 2.904-.17q-.467-.477-.938-.992a5.776 5.776 0 0 1-1.962 1.159zM8.162 75.54l-.316.384c1.73 1.723.525 3.041-1.328 1.56q-.159.18-.318.356c2.99 2.648 5.06.56 1.962-2.3zm-1.051 3.355a6.883 6.883 0 0 1-1.131-.811q-.352.385-.7.746h.376a13.883 13.883 0 0 1 1.455.065zm133.23-1.226-.32-.355c-1.872 1.464-3.067.164-1.341-1.546l-.319-.379c-3.045 2.811-1.08 4.911 1.98 2.28zM10.533 72.551l-.314.4c1.883 1.684.739 3.089-1.31 1.66l-.314.392c3.253 2.411 5.22.357 1.938-2.452zm127.386 2.308-.32-.387c-2 1.366-3.112.031-1.327-1.627l-.32-.4c-3.093 2.732-1.352 4.85 1.967 2.414zM12.933 69.5l-.325.408c1.919 1.718.767 3.126-1.333 1.7l-.315.4c3.356 2.356 5.255.38 1.973-2.508zm122.58 2.409-.322-.4c-2.01 1.337-3.1.026-1.347-1.656l-.331-.4c-3.055 2.824-1.301 4.762 2 2.453zM16.084 70.093c1.793 0 .814-2.207-.584-3.644q-.182.2-.364.407c1.874 1.879.642 3.209-1.433 1.69l-.333.408a5.453 5.453 0 0 0 2.714 1.139zM133.06 68.9l-.336-.4c-1.986 1.447-3.14.182-1.434-1.657q-.19-.213-.379-.42c-2.877 3.228-1.041 4.863 2.149 2.477zm-17.819-.847c.3-.13.606-.257.913-.377a4.3 4.3 0 0 1-.97-1.015q.04.698.057 1.397zM31.2 67.876q.022-.781.073-1.554a4.373 4.373 0 0 1-1.081 1.146c.337.132.672.266 1.008.408zm96.634-.294a7.818 7.818 0 0 0 2.564-1.7q-.227-.226-.462-.429c-.519.575-1.51 1.363-2.08 1.026-.58-.292-.369-1.572-.12-2.3-.19-.075-.39-.147-.6-.216-.4 1.377-.721 4.061.695 3.619zm-11.323-.036c.481-.179.969-.34 1.465-.471a4.931 4.931 0 0 0-.021-2.832q-.264.084-.526.174c.56 2.386-1 2.936-2.069.825l-.268.124c.018.2.034.4.049.6a4.286 4.286 0 0 0 1.367 1.579zM18.942 67.5c1.088 0 .627-2.376.26-3.519q-.294.114-.585.249c.407 1.042.493 2.429-.558 2.238a3.589 3.589 0 0 1-1.581-.915q-.243.191-.484.4a6.5 6.5 0 0 0 2.948 1.547zm10.828-.182a4.8 4.8 0 0 0 1.554-1.733l.035-.392-.349-.13c-1.056 1.971-2.536 1.469-2.071-.713q-.265-.084-.527-.162a5.22 5.22 0 0 0 .042 2.732c.446.107.885.243 1.316.395zm88.6-.337a10.259 10.259 0 0 1 1.51-.235 5.838 5.838 0 0 1-1.556-2.614l-.047.014a5.741 5.741 0 0 1 .089 2.831zm-90.309-.152a5.157 5.157 0 0 1 .026-2.737l-.076-.022a5.023 5.023 0 0 1-1.8 2.541 9.752 9.752 0 0 1 1.847.215zm92.966-.094c.8-.37 1.028-2.34 1.021-3.339-.19.015-.383.034-.579.056.131 2.592-1.557 2.866-2.288.436q-.269.071-.536.148c.29.861.991 2.334 1.774 2.684h.142q.234-.004.462.012zm2.66-.458c.914 1.234 2.221-1.05 2.733-2.528q-.3-.077-.612-.141c-.225.75-.79 1.875-1.437 1.783-.673-.079-.952-1.255-1-2.039q-.291 0-.595.005a6.6 6.6 0 0 0 .907 2.917zM26.87 65.5a7.472 7.472 0 0 0 .812-1.526q-.278-.075-.554-.143c-.292.7-.809 1.485-1.4 1.382-.588-.124-.793-1.046-.815-1.807q-.3-.039-.6-.067c.048 2.418 1.034 4.339 2.557 2.161zm-4.69.811c.779-.134 1.232-1.959 1.371-3.021q-.3-.011-.6-.009c-.081.76-.361 1.711-.943 1.794-.61.056-1.161-.807-1.452-1.517-.206.048-.41.1-.614.164.429.926 1.49 2.702 2.238 2.592zm-11.421-8.155A6.05 6.05 0 0 0 15.409 65c4.748-4.123 10.281-3.035 16.07-.931a40.891 40.891 0 0 1 .83-4.613c-10.437.839-14.19-4.77-14.93-6.106a6.009 6.009 0 0 0-.769-.05 5.924 5.924 0 0 0-5.851 4.856zm120.358 6.754a5.875 5.875 0 0 0 4.556-6.754 6.085 6.085 0 0 0-6.738-4.859c-3.06 5.52-8.567 6.294-14.777 6.306a40.82 40.82 0 0 1 .813 4.616 19.9 19.9 0 0 1 8.224-1.962 12.088 12.088 0 0 1 7.922 2.653zm-16.864-6.4c.31-2.21 1.874-2.238 2.194-.031.184-.007.368-.016.551-.027A5.2 5.2 0 0 0 116 55.9q-.638.06-1.361.069a4.817 4.817 0 0 0-.862 2.165q.052.189.1.379zm3.086-.079.08-.006a5.448 5.448 0 0 1 .765-2.952 9.922 9.922 0 0 1-1.766.374 5.174 5.174 0 0 1 .92 2.586zm1.615-3.081c-.871.159-1.163 1.923-1.2 3.05q.286-.023.568-.053c.031-.76.245-1.664.835-1.766.594-.083 1.1.71 1.389 1.417q.293-.064.58-.137c-.4-.974-1.264-2.52-2.074-2.52a.624.624 0 0 0-.099.01zm-88.875 3.034c.32-2.371 1.942-2.342 2.22-.045l.3-.02c.052-.191.1-.379.158-.569A4.172 4.172 0 0 0 32 55.8c-.54 0-1.041-.017-1.509-.055a4.848 4.848 0 0 0-.962 2.626l.55.013zm-.889-.034a5.684 5.684 0 0 1 .9-2.646 10.873 10.873 0 0 1-1.489-.259 6.4 6.4 0 0 1 .523 2.9zm-.391-.025a5.073 5.073 0 0 0-.712-3.029q-.337-.109-.641-.241c-.857.139-1.715 1.828-2.051 2.742.186.047.375.09.565.131.776-2.4 2.4-2.093 2.286.35q.276.022.554.047zm92.658-.55.089-.025c-.364-1.49-.486-3.792.889-3.792.8 0 2.151 1.071 2.963 1.885l.086-.068a8.089 8.089 0 0 1-1.456-2.742c-.379-1.832 2.489-1.417 4.18-.73l.011-.026c-3.094-1.45-3.72-4.015-.676-4.015a8.07 8.07 0 0 1 2.045.311l.007-.022c-4.289-1.657-3.423-4.906 1.2-3.657l.009-.028c-4.49-1.716-3.173-4.857 1.181-3.585l.006-.019c-2.845-1.166-3.2-3.031-1.906-3.681a1.1 1.1 0 0 1-.783-.5 1.456 1.456 0 0 1 .263-1.531c-1.257 1.427-3.037.273-2.639-3.087h-.023c-.995 4.259-4.411 3.923-3.735-.721l-.029-.006c-1.083 4.213-4.331 3.915-3.791-.737l-.04-.007c-.942 4.15-4.095 4.207-3.931-.641h-.02l-.056-.007a7.878 7.878 0 0 1-.909 3.078c-1.02 1.589-2.789-.76-3.518-2.454l-.07.031c.472 1.228 1.031 3.52.11 4.078-.948.586-2.672-.674-3.648-1.614l-.047.046a5.159 5.159 0 0 1 1.5 3.125 6.187 6.187 0 0 1 3.414-.981c3.591 0 10.507 2.576 16.187 1.784-1.939 2.336-2.486 4.047-4.086 8.918-1.381 4.21-2.164 7.249-4.97 8.686.927.199 1.771 1.687 2.193 2.734zm-96.389-.064a5.72 5.72 0 0 1 1.957-2.858c-2.537-1.333-3.322-4.048-4.7-7.937-1.744-4.937-2.442-6.8-4.369-9.231 5.3.863 12.5-2.062 16.39-2.062a6.4 6.4 0 0 1 3.58 1.045c-.317-.877.53-2.314 1.306-3.283l-.073-.069c-.938.872-2.581 2-3.444 1.506-.828-.507-.527-2.546-.166-3.822l-.105-.039a9.517 9.517 0 0 1-.951 1.753c-1.117 1.628-2.046 1.587-2.838-.26a8.372 8.372 0 0 1-.6-2.107h-.037a7.626 7.626 0 0 1-.157 2.181c-.668 2.8-2.994 1.82-3.771-1.5l-.029.006c.663 4.673-2.612 5.241-3.8.8l-.029.006c.731 4.644-2.664 5.218-3.734.783l-.026.005c.361 3.045-1.066 4.28-2.265 3.47a1.074 1.074 0 0 1-.047.919 1.486 1.486 0 0 1-1.459.541c1.875.365 1.751 2.459-1.4 3.8l.01.028c4.47-1.3 5.428 1.937 1.233 3.556l.01.029c4.455-1.2 5.407 1.887 1.248 3.614l.013.037c4.386-1.316 5.494 1.51 1.4 3.678l.008.02.022.052a8.488 8.488 0 0 1 3.027-.764c2.048 0 .914 2.628-.271 4.237l.066.048c.741-.9 2.161-2.235 3.1-2.235 1.41 0 1.225 2.571.832 4.034zm97.049-3.362c-.686.39-.48 2.26-.243 3.3q.289-.091.571-.193c-.188-.742-.255-1.731.266-2.006.558-.262 1.383.378 1.9.948q.267-.17.525-.359c-.637-.636-1.986-1.752-2.753-1.752a.56.56 0 0 0-.266.062zM24.689 57.6c.405-1.5.566-4.087-.9-3.522a7.37 7.37 0 0 0-2.441 2q.262.173.535.331c.46-.631 1.409-1.546 2-1.234s.462 1.489.239 2.242q.278.101.567.183zm88.888-.193a4.291 4.291 0 0 1 .63-1.446q-.526 0-1.1-.035.248.737.469 1.484zm-80.618-.338q.2-.663.427-1.318-.51.028-.983.037a4.246 4.246 0 0 1 .555 1.284zm-12.212-1.418c.843-1.126 2.159-3.638.646-3.7a7.887 7.887 0 0 0-3 .732q.135.289.287.56c.688-.365 1.891-.772 2.309-.262.456.485-.234 1.667-.727 2.257q.14.128.294.261c.062.051.126.101.191.152zm103.613-2.682a7.865 7.865 0 0 0 1.381 2.591q.238-.206.466-.431c-.759-.848-1.328-2.14-.269-2.313a3.618 3.618 0 0 1 1.816.331q.158-.263.307-.544a7.916 7.916 0 0 0-2.567-.556c-.743.001-1.274.236-1.134.922zm-.826-6.847a37.8 37.8 0 0 1 3.13-7.765c-3.585.173-9.375-1.36-13.676-1.925-3.1-.409-5.08 1.445-6.39 3.421a1.02 1.02 0 0 1-.311.491c-.4.655-.725 1.3-1 1.869a41.816 41.816 0 0 1 2.9 3.8 4.72 4.72 0 0 0 1.411-.976c1.12-1.167 2.768.3 2.768.3a4.665 4.665 0 0 1-2.356 1.686 2.041 2.041 0 0 1-1.392-.354q1.051 1.618 1.952 3.334a4.566 4.566 0 0 0 .37-1.477c.1-1.6 2.313-1.532 2.313-1.532a4.561 4.561 0 0 1-.708 2.789 2.138 2.138 0 0 1-1.778.6 41.066 41.066 0 0 1 2.083 4.809c7.741.496 8.459-2.292 10.684-9.07zm-89.886 8.886a41.117 41.117 0 0 1 1.892-4.383 4.734 4.734 0 0 0-1.556-.715c-1.58-.376-1.123-2.517-1.123-2.517a4.671 4.671 0 0 1 2.656 1.173 1.991 1.991 0 0 1 .384 1.356q.9-1.711 1.956-3.327a4.7 4.7 0 0 0-1.489.422c-1.455.718-2.5-1.212-2.5-1.212a4.68 4.68 0 0 1 2.8-.789 2.118 2.118 0 0 1 1.432 1.218 41.8 41.8 0 0 1 3.17-4.161c-3.434-6.9-6.226-6.125-13.292-4.637a38.577 38.577 0 0 1-8.373 1.2 41.77 41.77 0 0 1 3.425 8.036c1.854 5.248 2.482 8.117 7.954 8.38a1.044 1.044 0 0 1 .542.017c.641.015 1.345-.007 2.122-.061zM18.1 51.995c3.82-2.058 2.657-4.212-1.162-3.056l.177.49c2.362-.686 3.017.89.775 2.044q.102.264.21.522zm108.521-1.188a7.493 7.493 0 0 0 1.729 1.16q.1-.25.2-.506c-2.4-1.128-1.724-2.8.761-2.073q.086-.246.171-.5a6.757 6.757 0 0 0-1.871-.3c-1.658.012-2.432.878-.993 2.218zM16.7 48.274c3.849-1.626 2.871-4.038-1.029-2.984l.165.484c2.343-.575 2.927 1.02.693 2.012q.083.245.171.488zm113-.04.164-.493c-2.4-.968-1.793-2.672.666-2.044l.157-.488a6.851 6.851 0 0 0-1.773-.268c-2.444-.001-2.534 1.982.786 3.292zM15.444 44.63c3.893-1.529 2.879-4.073-1.014-2.928l.166.471c2.355-.609 2.933 1.026.684 1.977zm115.456-.078.156-.483c-2.351-.943-1.767-2.656.658-2l.16-.474a6.349 6.349 0 0 0-1.8-.3c-2.358-.002-2.479 2.005.826 3.257zm-26.137-2.934c.154-.3.313-.6.477-.894a4.408 4.408 0 0 1-1.459-.171q.503.524.984 1.065zm-62.977-.136q.54-.6 1.1-1.18a4.469 4.469 0 0 1-1.637.2c.191.319.368.647.54.979zM14.2 41.053c3.844-1.612 2.714-4.251-1.071-2.812l.178.443c2.271-.745 2.935.883.725 1.9q.081.236.168.469zm117.9-.109.164-.469c-2.227-1.033-1.548-2.684.709-1.914q.087-.223.175-.442a5.406 5.406 0 0 0-1.957-.436c-2.061 0-2.18 1.964.909 3.261zm-27-.553a2.739 2.739 0 0 0 .342-.02c.244-.42.5-.827.771-1.216a5.494 5.494 0 0 0-1.8-2.168q-.149.231-.292.464c1.911 1.454 1.086 2.833-1.071 1.922l-.144.29c.119.117.239.237.356.356a5.849 5.849 0 0 0 1.838.373zm-61.679-.627.244-.241-.193-.339c-2.094.84-2.9-.487-1.122-1.864q-.148-.232-.3-.459a5.2 5.2 0 0 0-1.75 2.151c.256.353.5.723.73 1.1a4.883 4.883 0 0 0 2.392-.347zm58.634-.918c4.487-9.372 11.286-9.787 12.828-9.747a5.825 5.825 0 0 0-.9-8.067 6.172 6.172 0 0 0-8.324.556c1.24 6.128-2.469 10.308-7.22 14.22l.2.169a42.265 42.265 0 0 1 3.418 2.869zm4.414-.045a10.55 10.55 0 0 1 .976-1.137 3.947 3.947 0 0 1-.958-.171 7.645 7.645 0 0 1-1.858-.832l-.031.047a5.76 5.76 0 0 1 1.872 2.092zm-61.993-.077.244-.2a42.269 42.269 0 0 1 3.409-2.8c-8.558-5.993-7.785-12.678-7.483-14.172a5.953 5.953 0 0 0-9.086 7.678h.308c6.109-.004 9.566 4.245 12.609 9.494zm-4.428-.044a5.2 5.2 0 0 1 1.815-2.1l-.044-.065a5.411 5.411 0 0 1-3.03.81 9.858 9.858 0 0 1 1.261 1.356zM13 37.939a5.974 5.974 0 0 1 2.192-.429 13.466 13.466 0 0 1-2.731-.821q.276.611.539 1.25zm120.272-.132q.2-.477.4-.931a15.119 15.119 0 0 1-1.7.546 6.65 6.65 0 0 1 1.302.385zm-25.782-.479a1.493 1.493 0 0 0 .352-.038q.244-.215.5-.407c.284-.724-.531-2.175-1.366-3.146q-.2.205-.4.419c1.715 1.863.631 3.1-1.45 1.781q-.161.223-.318.45a6.191 6.191 0 0 0 2.684.941zm23.989-3.028c-2.88 2.49-2.328 3.835 2.52 1.862q.216-.452.439-.873c-2.54.862-3-.1-.736-1.934q-.459-.021-.939-.06c-.286.205-.712.519-1.284 1.005zm-93.265 2.141c.221 1.1 2.214.439 3.415-.2q-.163-.233-.329-.459c-.683.356-1.588.626-1.973.172-.372-.469.075-1.309.555-1.906q-.2-.219-.411-.428c-.515.614-1.435 2.114-1.257 2.821zm-24.573.106c3.621 1.219 4.524.074.372-3.087-.337.027-.666.047-.987.059 2.024 1.741 1.416 2.623-1.324 1.6q.212.405.418.836c.32.145.808.345 1.521.592zm5.51-3.849-.492.094c.205 2.421-1.577 2.665-2.033.351l-.475.071c.567 3.95 3.514 3.624 3.001-.514zm111.1.314-.477-.069c-.482 2.32-2.243 2.073-2.033-.332l-.49-.087c-.512 4.109 2.372 4.431 3.002.488zm-107.339-1.1-.5.108c.348 2.484-1.443 2.838-2.083.439l-.5.1c.937 3.97 3.766 3.566 3.084-.643zM97.5 35.154l.3-.244c-1.2-1.891-.02-2.905 1.662-1.415q.206-.185.407-.37a5.3 5.3 0 0 0-2.435-1.331q-.446.448-.988.91a4.741 4.741 0 0 0 .759 2.246zm32.353 0a13.251 13.251 0 0 1 2.09-1.932q-.667-.07-1.366-.165a5.758 5.758 0 0 1-.72 2.097zm-3.285-2.754-.5-.093c-.643 2.321-2.366 2-2.075-.4l-.5-.1c-.593 4.045 2.117 4.573 3.075.593zm-77.477 2.641q.218-.152.438-.3a4.549 4.549 0 0 0 .7-2.056c-.373-.31-.73-.628-1.065-.956a3.216 3.216 0 0 0-.887.306 7.8 7.8 0 0 0-1.583 1.079q.2.184.412.364c1.78-1.608 3.014-.568 1.728 1.374zm61.243-.143c1.283 0 .588-2.717.169-3.767q-.283.138-.558.293c.323.71.65 1.979.082 2.328-.564.365-1.536-.348-2.084-.915q-.223.191-.44.393a5.86 5.86 0 0 0 2.831 1.67zm-74.442-.363c.687.394 2.228-.725 3.022-1.448q-.225-.2-.457-.391c-.555.533-1.392 1.089-1.894.781-.505-.346-.364-1.362-.124-2.091q-.283-.141-.577-.264c-.271.985-.614 3.017.03 3.413zm-19.73.063a6.75 6.75 0 0 1-.336-1.338q-.521.071-1.024.126a14.744 14.744 0 0 1 1.359 1.214zm80.457-.049a5.02 5.02 0 0 1-.481-1.584q-.422.345-.9.7.697.435 1.38.884zM26.738 31.1l-.515.106c.351 2.533-1.445 2.88-2.124.452l-.505.109c1.05 3.989 3.767 3.572 3.144-.667zm96.065.565-.506-.1c-.67 2.3-2.357 1.989-2.11-.412l-.513-.1c-.499 4.109 2.105 4.479 3.126.613zm-72.639 2.654q.59-.384 1.194-.749-.387-.287-.76-.583a4.353 4.353 0 0 1-.434 1.332zM30.688 30.4l-.545.081c.212 2.624-1.6 2.871-2.2.385l-.524.1c.964 4.066 3.595 3.719 3.269-.566zm88.285.53-.519-.094c-.582 2.371-2.288 2.132-2.178-.36q-.284-.042-.563-.081c-.104 4.275 2.36 4.393 3.26.532zm-6.651 1.761c1.109 1.406 1.654 1.157 2.206-.383a8.935 8.935 0 0 0 .435-2q-.321-.029-.634-.035c-.024.775-.27 2-.925 2.108-.654.147-1.345-1.039-1.614-1.751q-.2.061-.4.13l-.2.078a9.137 9.137 0 0 0 1.132 1.85zm-79.064.809a6.079 6.079 0 0 0 1.874-2.647q-.3-.1-.609-.179c-.368 1.063-1.205 2.174-1.884 1.363a3.5 3.5 0 0 1-.616-1.705q-.31-.008-.63 0c.174 1.107.941 3.609 1.865 3.168zm61.293-.238c6.273-4.537 5.014-7.12 2.3-13.734a37.715 37.715 0 0 1-2.651-7.941 42.593 42.593 0 0 1-7.411 4.727c-4.9 2.713-7.66 3.814-6.975 9.185a.96.96 0 0 1 .08.55c.1.625.245 1.305.432 2.048a42.1 42.1 0 0 1 4.7 1.075 4.606 4.606 0 0 0 .439-1.629c.1-1.6 2.313-1.532 2.313-1.532a4.535 4.535 0 0 1-.707 2.789 2.038 2.038 0 0 1-1.261.608q1.852.576 3.627 1.313a4.576 4.576 0 0 0-.675-1.36c-.969-1.292.775-2.642.775-2.642a4.593 4.593 0 0 1 1.274 2.581 2.122 2.122 0 0 1-.95 1.6 42.127 42.127 0 0 1 4.69 2.359zm-42.51-.093A42.113 42.113 0 0 1 56.332 31a4.647 4.647 0 0 0-.725-1.532c-.968-1.292.775-2.642.775-2.642a4.553 4.553 0 0 1 1.273 2.585 1.957 1.957 0 0 1-.541 1.258q1.762-.725 3.6-1.292a4.671 4.671 0 0 0-1.4-.61c-1.582-.376-1.124-2.516-1.124-2.516a4.65 4.65 0 0 1 2.656 1.172 2.119 2.119 0 0 1 .312 1.82 42.114 42.114 0 0 1 5.131-1.177c1.847-7.447-.8-8.627-7.173-11.971a38.65 38.65 0 0 1-7.2-4.395 41.709 41.709 0 0 1-2.6 8.332c-1.986 5.178-3.377 7.771.6 11.434a1.029 1.029 0 0 1 .54.476c.465.392.992.799 1.585 1.224zm48.077-.271.021-.02a5.187 5.187 0 0 1-1.28-2.832 9.67 9.67 0 0 1-1.138 1.454 6.235 6.235 0 0 1 2.398 1.395zm-53.675-.008a5.853 5.853 0 0 1 2.429-1.449 10.788 10.788 0 0 1-.984-1.169 6.412 6.412 0 0 1-1.488 2.574zm-.283-.268c.616-.7 1.5-1.982 1.422-2.805q-.168-.268-.311-.546c-.735-.463-2.512.292-3.374.785q.169.232.347.459c2.152-1.343 3.206-.079 1.524 1.721q.194.192.393.383zM99.349 29.5c-.563.675.363 2.216 1.072 3.1l.4-.4c-.473-.6-.9-1.435-.513-1.889s1.315-.154 1.994.209q.183-.235.354-.473a6.605 6.605 0 0 0-2.566-.808.948.948 0 0 0-.741.261zm-55.649.283a6.865 6.865 0 0 1 2.963-1 2.3 2.3 0 0 1 .393.031 6.057 6.057 0 0 1-.14-4.366c1.812-5.652 4.192-9.68 4.363-14.528 1.7 1.952 2.6 2.6 8.18 5.524 3.942 2.068 6.846 3.363 7.79 6.366.333-.729 1.562-1.375 3.127-1.679l-.01-.093c-1.277.072-3.28-.1-3.621-1.033-.3-.916 1.251-2.286 2.36-3.035l-.054-.095c-1.781.953-4.87 1.941-3.875-1.264a8.193 8.193 0 0 1 .912-2l-.03-.019c-2.707 3.809-5.621 2.207-3.452-1.976l-.022-.012c-2.424 3.941-5.457 2.438-3.437-1.8l-.022-.004c-2.484 4.037-5.425 2.291-3.37-1.77l-.017-.009c-1.626 2.508-3.588 2.6-4.006 1.232a1.084 1.084 0 0 1-.627.658c-.506.182-1.042-.1-1.55-.589 1.314 1.5-.112 3.1-3.461 2.1l-.01.028c4.183 1.815 3.033 4.916-1.367 3.5l-.014.036c4.095 1.884 3.057 4.86-1.392 3.553l-.016.042c4.244 1.783 3.2 4.668-1.319 3.71l-.006.018-.019.062c1.259.351 3.3 1.2 3.3 2.194.063.992-2.206 1.881-3.451 2.2l.02.079a8.952 8.952 0 0 1 1.826-.176c3.89 0 2.222 2.576.021 4.059zm59.148-.009.049-.073c-1.548-1.112-3.09-3.027-1.418-3.687a7.844 7.844 0 0 1 3.105-.237l.02-.1a9.813 9.813 0 0 1-1.914-.622c-3.046-1.344-.5-3.014 1.765-3.755l-.012-.037c-1.352.334-3.622.478-4.033-.725-.467-1.309 1.729-2.589 2.67-2.987l-.005-.014c-4.43 1.481-5.759-1.6-1.463-3.56l-.012-.028c-4.5 1.515-5.666-1.685-1.429-3.5l-.01-.025c-2.971.88-4.447-.3-3.846-1.6a1.112 1.112 0 0 1-.929.117c-.5-.18-.73-.725-.8-1.413.015 1.954-2.1 2.271-4.019-.612l-.027.015c2.02 4.04-.867 5.7-3.323 1.813l-.035.019c1.913 4.04-.818 5.663-3.378 1.838l-.04.022c2.1 4.084-.6 5.591-3.425 2l-.016.01-.056.035c.736 1.067 1.752 3.017 1.105 3.78-.6.8-2.912.04-4.077-.5l-.037.076c1.161.641 3.08 2.044 2.736 3.054-.342 1.051-2.485 1.182-3.844 1.08l-.006.059a9.316 9.316 0 0 1 2.059.619 3.091 3.091 0 0 1 1.134.8 6.132 6.132 0 0 1 2.737-3.444c5.052-3.173 9.51-4.757 12.792-8.36.033 3.019.729 4.682 2.673 9.427 1.669 4.076 3.047 6.905 1.84 9.793a1.556 1.556 0 0 1 .7-.138 6.924 6.924 0 0 1 2.774.86zm-59.371-.318c1.274-.886 3.093-2.773 1.6-3.267a7.458 7.458 0 0 0-3.172-.017q.088.3.195.594c.763-.19 2.084-.289 2.333.324.265.612-.614 1.435-1.273 1.87q.159.249.322.495zm57.64-2.729c-.274.736 1.109 2.041 1.968 2.688q.162-.254.31-.512c-.628-.449-1.327-1.166-1.107-1.709.258-.552 1.3-.589 2.063-.483.061-.2.115-.4.163-.608a10.789 10.789 0 0 0-.931-.039c-1.027 0-2.251.142-2.461.663zm-21.58 1.244q-.115-.489-.211-.975a4.547 4.547 0 0 1-1.222.785c.484.056.964.119 1.438.19zm-12.464-.028a49.956 49.956 0 0 1 1.566-.2 4.357 4.357 0 0 1-1.339-.874q-.092.518-.222 1.074zm10.336-.236a4.62 4.62 0 0 0 1.841-1.12 17.244 17.244 0 0 1-.194-1.409 3.218 3.218 0 0 0-.88-.328 7.827 7.827 0 0 0-1.914-.18q.036.27.078.54c2.416-.1 2.672 1.483.43 2.153.024.1.048.2.072.292.195.016.383.034.572.052zm-8.053-.032.422-.036.069-.361c-2.151-.687-1.905-2.215.353-2.14.025-.183.049-.366.071-.548a4.431 4.431 0 0 0-2.732.512q-.05.644-.169 1.365a4.139 4.139 0 0 0 1.991 1.208zm6.3-.1c-2.648-10.016 2.288-14.641 3.491-15.593a5.911 5.911 0 0 0-5.939-5.607 6.085 6.085 0 0 0-6.008 5.71c4.936 3.908 4.812 9.463 3.719 15.478h.006q1.137-.061 2.289-.061 1.235-.002 2.45.069zm-33.925-2.118c1.383-.329 4.02-1.418 2.9-2.426a7.86 7.86 0 0 0-2.775-1.343q-.084.307-.145.611c.769.158 1.951.612 1.94 1.266.032.661-1.268 1.129-2.028 1.267.016.121.034.245.054.374.023.083.036.167.054.251zm59.969-1.474a6.2 6.2 0 0 0 2.964 1.364q.046-.308.073-.625c-1.126-.174-2.378-.8-1.687-1.6a3.578 3.578 0 0 1 1.593-.9q-.046-.3-.109-.613c-1.077.369-3.44 1.551-2.834 2.374zm-22.67.8a10.6 10.6 0 0 1 .008-1.559 5.909 5.909 0 0 1-2.819 1.057l.006.052h.255a5.954 5.954 0 0 1 2.549.453zm-11.46-.075a5.314 5.314 0 0 1 2.746-.449l.008-.074a8.546 8.546 0 0 1-1.775-.561 3.361 3.361 0 0 1-1.046-.684 9.625 9.625 0 0 1 .066 1.77zm8.612-.755c.926-.143 2.44-.566 2.914-1.247.031-.207.069-.413.116-.614-.261-.822-2.114-1.372-3.1-1.543-.014.19-.025.381-.033.572 2.53.339 2.5 1.977.048 2.286q.026.275.055.549zm-7.492-.631a7.7 7.7 0 0 0 1.667.527q.027-.283.048-.563c-.755-.161-1.625-.528-1.625-1.122.02-.6.912-.954 1.668-1.107q-.013-.3-.037-.594c-2.404.461-4.153 1.753-1.721 2.862zm33.575-2.171a7.559 7.559 0 0 0 2.079-.21q-.085-.255-.175-.515c-2.573.663-3.143-1.052-.765-2.071q-.094-.243-.191-.488c-2.634 1.133-3.592 3.133-.948 3.286zm-59.087-3.26-.184.49c2.256.976 1.733 2.6-.736 2.057q-.091.269-.178.534c4.314.859 4.72-1.562 1.097-3.079zm36.363.452a7.394 7.394 0 0 0-2.419-2.028c-.085.19-.164.384-.238.579.709.339 1.785 1.1 1.577 1.731s-1.407.708-2.192.623q-.047.288-.082.58c1.583.136 4.165-.168 3.354-1.483zm-12.472.557c.27.738 2.181.859 3.26.809q-.041-.3-.1-.589c-.774.056-1.777-.05-1.962-.605-.163-.587.61-1.276 1.267-1.681q-.126-.287-.271-.569c-.842.582-2.431 1.923-2.194 2.635zm35.886-1.679-.2-.483c-2.47.784-3.114-.908-.82-1.989l-.2-.473c-3.8 1.724-2.878 4.281 1.22 2.946zm-58.374-2.926-.188.475c2.172 1.051 1.575 2.64-.778 1.982l-.186.483c4.062 1.219 4.758-1.297 1.152-2.94zm21.145 2.138a6.233 6.233 0 0 0 3.159-.837q-.165-.265-.351-.525c-.973.581-2.338.9-2.33-.153a3.5 3.5 0 0 1 .637-1.7q-.232-.2-.482-.4c-.59.959-1.631 3.367-.633 3.615zm14.734.024c1.593 0 .28-2.559-.463-3.609q-.264.182-.507.375c.484.606 1.1 1.707.662 2.2-.405.528-1.708.059-2.377-.316-.065.1-.131.206-.2.314-.044.077-.087.153-.129.231a8 8 0 0 0 3.013.805zm-14.685-4.033q-.232-.142-.47-.284c-1.54 2.143-3.092 1.192-1.933-1.1l-.464-.253c-1.853 3.635.273 5.184 2.867 1.637zm17.7-1.645-.459.258c1.1 2.187-.365 3.087-1.9 1.108q-.245.148-.484.3c2.685 3.317 4.702 1.921 2.844-1.666zm-37.509-.02-.179.467c2.2 1.03 1.577 2.648-.762 1.948l-.187.472c4.048 1.329 4.773-1.317 1.129-2.887zm52.511 3.083a4.891 4.891 0 0 0 3-.2l-.195-.469c-2.414.77-3.081-.912-.8-1.952l-.185-.463c-1.863.808-3.331 2.437-1.82 3.084zm-36.186-3.386-.463-.246c-1.383 2.172-2.977 1.281-1.922-1l-.458-.237c-1.799 3.727.573 5.109 2.843 1.483zm24.6-1.541-.454.245c.983 2.185-.511 3.02-1.885 1.023l-.457.252c2.26 3.409 4.569 2.165 2.798-1.52zm-30.231 1.8a4.812 4.812 0 0 0 2.17-2.064l-.455-.236c-1.345 2.12-2.954 1.262-1.882-.986l-.444-.237c-.901 1.808-.965 3.984.612 3.518zm33.593-3.628-.44.243c1.014 2.186-.514 3.03-1.852 1.008l-.45.243c2.173 3.47 4.605 2.178 2.742-1.494zm-43.034.194-.152.452c2.222.872 1.671 2.539-.684 1.919l-.173.463c4.034 1.223 4.808-1.539 1.009-2.834zm52.827 2.837q-.091-.232-.179-.462c-2.387.626-2.918-1.075-.7-1.916l-.154-.451c-3.845 1.237-2.994 4.043 1.033 2.828zM55.439 6.862 55 6.622c-1.42 1.994-2.933 1.031-1.784-1.022l-.41-.247c-2.142 3.394.341 4.989 2.633 1.509zm38.036-1.645-.41.25C94.2 7.542 92.7 8.477 91.292 6.5l-.433.245c2.258 3.435 4.752 1.971 2.616-1.528zm1.778.206c-.586 3.736.713 4.417 3.141-.173q-.128-.484-.23-.949c-1.381 2.266-2.369 1.837-1.823-1.012q-.366.277-.76.552a16.79 16.79 0 0 0-.328 1.582zm-46.539.887c1.972 3.218 3.423 2.949 2.294-2.126q-.413-.29-.794-.581c.417 2.617-.623 2.905-2.055.381q-.1.445-.223.907c.153.309.391.779.778 1.419zm.632 1.8a12.727 12.727 0 0 1-1.626-2.439c-.123.425-.257.86-.4 1.3a5.729 5.729 0 0 1 2.027 1.138zm48.284-.57a6.9 6.9 0 0 1 1.278-.562 27.43 27.43 0 0 1-.3-.975 14.633 14.633 0 0 1-.978 1.537zm-3.065-.364a12.729 12.729 0 0 1 .342-2.876c-.371.248-.756.5-1.152.742a5.62 5.62 0 0 1 .81 2.134zM51.912 6.4a6.893 6.893 0 0 1 .612-1.218q-.444-.275-.864-.552a14.506 14.506 0 0 1 .252 1.77zM72.5 122.316c-.968-1.293.776-2.643.776-2.643a4.583 4.583 0 0 1 1.272 2.585 2.371 2.371 0 0 1-1.271 1.807 4.657 4.657 0 0 0-.777-1.749zm3.706-.7c-1.582-.376-1.123-2.517-1.123-2.517a4.642 4.642 0 0 1 2.656 1.173 2.357 2.357 0 0 1 .2 2.191 4.735 4.735 0 0 0-1.739-.848zm-7.274.735c-.153-.018-.252-.037-.271-.017a4.644 4.644 0 0 0 .539-1.834c.1-1.606 2.313-1.532 2.313-1.532a4.539 4.539 0 0 1-.707 2.788 1.985 1.985 0 0 1-1.488.622 3.184 3.184 0 0 1-.387-.028zm4.446-7.7a2.279 2.279 0 1 1 0 4.558 2.279 2.279 0 1 1-.001-4.554zm0 4.264a1.985 1.985 0 1 0 0-3.97 1.985 1.985 0 1 0-.001 3.974zm-7.126-.846a4.735 4.735 0 0 0 1.609-1.06c1.121-1.166 2.768.3 2.768.3a4.607 4.607 0 0 1-2.356 1.686 2.188 2.188 0 0 1-.247.014 2.45 2.45 0 0 1-1.775-.937zm9.84-.562a4.711 4.711 0 0 1 2.8-.789 2.388 2.388 0 0 1 1.58 1.551 4.785 4.785 0 0 0-1.88.451 1.463 1.463 0 0 1-.652.16c-1.108.003-1.849-1.37-1.849-1.37zm-4.036-.576a1.323 1.323 0 0 1 2.646 0 1.323 1.323 0 0 1-2.646 0zm3.776-1.282a4.566 4.566 0 0 1 1.63-2.381 2.424 2.424 0 0 1 2.22.184 4.676 4.676 0 0 0-1.146 1.539 1.511 1.511 0 0 1-1.5.883 3.663 3.663 0 0 1-1.205-.222zm-7.706-.381a2.368 2.368 0 0 1-.948-1.992 4.779 4.779 0 0 0 1.922.212c1.616-.182 1.929 1.984 1.929 1.984a4.225 4.225 0 0 1-1.263.141 3.2 3.2 0 0 1-1.641-.342zM41.3 111.213c-.967-1.293.776-2.643.776-2.643a4.7 4.7 0 0 1 1.272 2.586 2.406 2.406 0 0 1-1.271 1.805 4.641 4.641 0 0 0-.777-1.748zm62.313-.206c-.968-1.292.776-2.642.776-2.642a4.545 4.545 0 0 1 1.272 2.585 2.4 2.4 0 0 1-1.272 1.807 4.63 4.63 0 0 0-.772-1.749zm-56.874.351zm-1.733-.847c-1.51-.357-1.16-2.328-1.126-2.5.279.052 2.006.29 2.658 1.161a2.345 2.345 0 0 1 .2 2.19 4.763 4.763 0 0 0-1.728-.851zm-7.546.719a4.657 4.657 0 0 0 .543-1.835c.1-1.6 2.313-1.531 2.313-1.531a4.515 4.515 0 0 1-.707 2.788 2.268 2.268 0 0 1-1.649.634 1.685 1.685 0 0 1-.495-.056zm69.859-.923c-1.472-.35-1.2-2.5-1.122-2.518a4.725 4.725 0 0 1 2.654 1.173 2.353 2.353 0 0 1 .2 2.191 4.775 4.775 0 0 0-1.727-.846zm-7.331.739a1.435 1.435 0 0 0-.215-.022 4.633 4.633 0 0 0 .544-1.834c.1-1.6 2.313-1.531 2.313-1.531a4.535 4.535 0 0 1-.707 2.788 2.09 2.09 0 0 1-1.552.623 3.193 3.193 0 0 1-.378-.024zm-59.577-6.68a2.3 2.3 0 0 1 3.534 2.93 2.2 2.2 0 0 1-1.705.841 2.3 2.3 0 0 1-1.825-3.771zm.228.189a1.991 1.991 0 1 0 2.83-.246 2.026 2.026 0 0 0-2.83.246zM43.887 108v.013c-.052-.013-.056-.013 0-.013zm58.843-.905a2.205 2.205 0 0 1-.531-1.663 2.3 2.3 0 1 1 2.238 2.5 2.2 2.2 0 0 1-1.707-.842zm.475-2.984a1.991 1.991 0 1 0 2.83.244 2.024 2.024 0 0 0-2.83-.244zm-67.655 3.331c-.3-.24-.46-.482-.494-.468a4.759 4.759 0 0 0 1.61-1.06c1.12-1.166 2.768.3 2.768.3a4.585 4.585 0 0 1-2.356 1.687 2.156 2.156 0 0 1-.24.014 2.019 2.019 0 0 1-1.287-.478zm9.345-1.03a4.648 4.648 0 0 1 2.8-.789 2.433 2.433 0 0 1 1.582 1.551 4.8 4.8 0 0 0-1.88.451 1.462 1.462 0 0 1-.652.16c-1.108-.004-1.845-1.378-1.845-1.378zm52.474.358a4.757 4.757 0 0 0 1.609-1.059c1.121-1.167 2.769.3 2.769.3a4.634 4.634 0 0 1-2.357 1.686 2.137 2.137 0 0 1-.238.014 2.519 2.519 0 0 1-1.782-.946zm-27.426-1.94-.162-.015a3.369 3.369 0 0 1-5.04 1.56 3.248 3.248 0 0 1-1.392-2.745l-.171-.048a3.119 3.119 0 0 1-1.361 1.288 3.329 3.329 0 0 1-4.733-3.628l-.141-.07c-2.273 2.828-7.17-.119-5.577-3.424l-.114-.085c-2.771 2.389-7.015-1.424-4.852-4.374l-.1-.113a3.239 3.239 0 0 1-4.182-.941 3.127 3.127 0 0 1 .235-4.212l-.093-.147a3.279 3.279 0 0 1-2.928-5.776l-.062-.159a3.242 3.242 0 0 1-3.553-2.373 3.2 3.2 0 0 1 1.762-3.84l-.031-.165a3.278 3.278 0 0 1-2.121-5.567 3.143 3.143 0 0 1 1.521-.873v-.166a3.147 3.147 0 0 1-1.521-.868 3.273 3.273 0 0 1 2.12-5.566l.03-.157c-3.33-1.373-1.87-6.856 1.8-6.241l.054-.138a3.28 3.28 0 0 1 2.924-5.787l.09-.143A3.29 3.29 0 0 1 46.3 44.9l.1-.114c-2.142-2.937 2.087-6.754 4.851-4.374l.114-.085c-1.574-3.286 3.308-6.244 5.577-3.424l.128-.063c-.96-3.554 4.422-5.518 6.121-2.351l.159-.045a3.325 3.325 0 0 1 6.43-1.184l.161-.015a3.323 3.323 0 0 1 6.547 0l.162.015a3.325 3.325 0 0 1 6.43 1.184l.17.048a3.114 3.114 0 0 1 2.781-1.6 3.241 3.241 0 0 1 3.31 3.935l.147.073c2.267-2.81 7.18.109 5.578 3.424l.126.095a3.348 3.348 0 0 1 2.087-.741 3.3 3.3 0 0 1 2.743 5.1l.113.122a3.29 3.29 0 0 1 3.951 5.158l.08.128c3.454-1.239 6.009 3.829 2.936 5.8l.051.129c3.7-.632 5.125 4.865 1.8 6.241l.031.162a3.269 3.269 0 0 1 .6 6.433v.165a3.271 3.271 0 0 1-.6 6.436l-.032.168a3.274 3.274 0 0 1-1.791 6.212l-.062.159a3.279 3.279 0 0 1-2.924 5.781l-.092.146a3.13 3.13 0 0 1 .23 4.218 3.24 3.24 0 0 1-4.179.935l-.1.113c2.162 2.951-2.082 6.762-4.852 4.374l-.115.086c1.579 3.292-3.3 6.272-5.578 3.424l-.14.069a3.329 3.329 0 0 1-4.734 3.628 3.121 3.121 0 0 1-1.36-1.288l-.171.048a3.245 3.245 0 0 1-2.712 3.277 3.3 3.3 0 0 1-3.718-2.093l-.163.015a3.323 3.323 0 0 1-6.547 0zm1.147 1.222a2.8 2.8 0 0 0 4.845-1.177q-1.346.1-2.719.1t-2.718-.1a2.593 2.593 0 0 0 .592 1.177zm-6.807-.935a2.817 2.817 0 0 0 4.946-.358 36.53 36.53 0 0 1-5.343-.984 2.621 2.621 0 0 0 .397 1.342zm16.6 1.114a2.777 2.777 0 0 0 1.662-2.456 36.52 36.52 0 0 1-5.342.984 2.863 2.863 0 0 0 3.68 1.473zm-18.222-2.8a36.4 36.4 0 0 1-5.087-1.953c-.587 2.794 3.626 4.441 5.087 1.953zm26.048-.541a2.657 2.657 0 0 0 .134-1.405 36.4 36.4 0 0 1-5.061 1.943 2.816 2.816 0 0 0 4.928-.538zm-15.493 1.31q1.392 0 2.759-.1v-.011l.537-.053v.019A35.748 35.748 0 0 0 82.447 103l-.006-.022.52-.142v.012l.5-.143v.008a35.615 35.615 0 0 0 5.135-1.972l-.009-.018.483-.235v.006l.463-.232.006.011a35.73 35.73 0 0 0 4.688-2.873l-.01-.013.431-.318.413-.312.007.009a35.729 35.729 0 0 0 4.071-3.67l-.009-.008.352-.378.367-.391.007.006a35.443 35.443 0 0 0 3.327-4.343l-.01-.006.275-.433.281-.455.016.01a34.93 34.93 0 0 0 2.464-4.87h-.01l.19-.477h-.009l.192-.5.021.008a34.534 34.534 0 0 0 1.51-5.236l.1-.5h-.017l.095-.523h.022a34.771 34.771 0 0 0 .507-5.51c-.007-.393-.034-.444 0-.45v-.414a34.825 34.825 0 0 0-.507-5.527h-.021l-.1-.523h.017l-.1-.5a34.533 34.533 0 0 0-1.51-5.236l-.021.008-.192-.5h.009l-.19-.477h.011a34.91 34.91 0 0 0-2.463-4.869l-.015.009-.283-.454-.276-.434.011-.007a35.442 35.442 0 0 0-3.326-4.342l-.007.006-.367-.39-.353-.378.009-.009a35.738 35.738 0 0 0-4.072-3.671l-.008.01-.405-.342-.431-.319.01-.013a35.723 35.723 0 0 0-4.684-2.868l-.006.011-.463-.232v.006l-.484-.234.009-.019a35.617 35.617 0 0 0-5.135-1.972v.009l-.5-.143v.012l-.52-.143.006-.022a35.748 35.748 0 0 0-5.936-1.05v.02l-.536-.053v-.01q-1.366-.1-2.759-.1t-2.759.1v.012l-.537.053v-.02a35.743 35.743 0 0 0-5.935 1.05l.006.023-.519.142v-.013l-.5.143v-.009a35.624 35.624 0 0 0-5.136 1.973l.009.019-.483.234v-.006l-.463.232-.006-.011a35.736 35.736 0 0 0-4.699 2.873l.01.013-.431.319-.413.311-.007-.01a35.732 35.732 0 0 0-4.072 3.671l.01.009-.352.377-.366.391-.008-.007a35.447 35.447 0 0 0-3.327 4.343l.01.007-.276.434-.281.454-.016-.01a34.913 34.913 0 0 0-2.463 4.87h.011l-.19.478h.009l-.191.5-.022-.008a34.574 34.574 0 0 0-1.51 5.237l-.1.5h.018l-.1.524h-.022a34.811 34.811 0 0 0-.507 5.527v.414c.031 0 0 .053 0 .454a34.756 34.756 0 0 0 .507 5.506h.021l.095.524h-.016l.1.5a34.555 34.555 0 0 0 1.51 5.237l.022-.008.191.5h-.009l.19.476h-.011a34.937 34.937 0 0 0 2.463 4.87l.016-.01.282.455.275.434-.01.007a35.425 35.425 0 0 0 3.326 4.342l.008-.007.366.391.352.377-.009.008a35.737 35.737 0 0 0 4.072 3.671l.008-.01.413.311.431.318-.007.035a35.736 35.736 0 0 0 4.682 2.874l.006-.011.462.232v-.006l.484.234-.009.019a35.573 35.573 0 0 0 5.135 1.972v-.009l.5.143v-.012l.519.142-.006.022a35.756 35.756 0 0 0 5.935 1.05v-.019l.536.053v.011q1.379.105 2.772.105zm21.4-6.123a36.535 36.535 0 0 1-4.637 2.847c1.915 2.193 5.743-.204 4.64-2.848zm-38.168 2.847a36.53 36.53 0 0 1-4.637-2.847c-1.104 2.646 2.727 5.034 4.64 2.846zm40.536-3.082a2.774 2.774 0 0 0 2.66-4.142 36.558 36.558 0 0 1-4.012 3.618 2.8 2.8 0 0 0 1.355.523zm-50.6-2.76a2.81 2.81 0 0 0 4.416 2.24 36.483 36.483 0 0 1-4.01-3.622 2.718 2.718 0 0 0-.402 1.381zm-4.4-5.307a2.808 2.808 0 0 0 3.939 3 36.2 36.2 0 0 1-3.283-4.284 2.753 2.753 0 0 0-.649 1.283zM102 93.021a2.767 2.767 0 0 0 1.786-4.54 36.17 36.17 0 0 1-3.282 4.286 2.786 2.786 0 0 0 1.496.254zm-60.029-5.6a35.7 35.7 0 0 1-2.436-4.821c-2.357 1.67-.351 5.691 2.441 4.822zM106.9 82.6a35.67 35.67 0 0 1-2.441 4.825c2.789.862 4.795-3.156 2.441-4.825zm-70.366-5.386a2.767 2.767 0 0 0 2.541 4.211 35.316 35.316 0 0 1-1.487-5.16 2.472 2.472 0 0 0-1.054.949zm72.221 3.945a2.75 2.75 0 0 0 .092-4.9 35.283 35.283 0 0 1-1.487 5.159 2.722 2.722 0 0 0 1.395-.26zm.327-6.144a2.666 2.666 0 0 0 1.309-.515 2.752 2.752 0 0 0-.812-4.835 35.592 35.592 0 0 1-.497 5.349zm-74.156-2.46a2.751 2.751 0 0 0 2.424 2.459 35.574 35.574 0 0 1-.5-5.347 2.8 2.8 0 0 0-1.924 2.888zm74.653-4.146a2.6 2.6 0 0 0 1.137-.692 2.743 2.743 0 0 0-1.634-4.655 35.591 35.591 0 0 1 .497 5.346zm-74.653-2.883a2.777 2.777 0 0 0 1.927 2.88 35.608 35.608 0 0 1 .5-5.341 2.76 2.76 0 0 0-2.427 2.461zm2.658-3.7a35.316 35.316 0 0 1 1.5-5.19 2.807 2.807 0 0 0-.35-.022c-2.689-.003-3.628 4.044-1.149 5.209zm71.261-.012a2.473 2.473 0 0 0 1.053-.948 2.766 2.766 0 0 0-2.541-4.211 35.278 35.278 0 0 1 1.489 5.156zm-1.948-6.33c2.379-1.676.327-5.668-2.44-4.824a35.67 35.67 0 0 1 2.443 4.821zm-67.363 0a35.646 35.646 0 0 1 2.441-4.825 2.606 2.606 0 0 0-.777-.122c-2.358-.004-3.798 3.429-1.663 4.943zm3.1-5.877a36.25 36.25 0 0 1 3.3-4.312 2.467 2.467 0 0 0-1.189-.313c-2.111-.004-3.819 2.854-2.108 4.618zm61.148-.015a2.755 2.755 0 0 0 .656-1.286 2.8 2.8 0 0 0-3.94-3 36.162 36.162 0 0 1 3.287 4.282zm-4.131-5.2c1.606-2.415-1.751-5.435-4.035-3.637a36.5 36.5 0 0 1 4.038 3.63zm-53.266-1.4a2.732 2.732 0 0 0 .4 1.386 36.5 36.5 0 0 1 4.015-3.623 2.558 2.558 0 0 0-1.554-.518 2.816 2.816 0 0 0-2.858 2.75zM51.809 40a36.516 36.516 0 0 1 4.639-2.848 2.468 2.468 0 0 0-1.891-.854c-1.786.002-3.591 1.755-2.748 3.702zm42.81 0c1.105-2.646-2.726-5.037-4.637-2.847A36.528 36.528 0 0 1 94.619 40zm-5.76-3.4c.6-2.8-3.624-4.434-5.088-1.954a36.41 36.41 0 0 1 5.088 1.954zM58.32 34.23a2.755 2.755 0 0 0-.731 2.362 36.413 36.413 0 0 1 5.058-1.942 2.706 2.706 0 0 0-2.317-1.231 2.83 2.83 0 0 0-2.01.811zm7.23-2.385a2.777 2.777 0 0 0-1.663 2.455 36.516 36.516 0 0 1 5.341-.984 2.742 2.742 0 0 0-2.6-1.662 3.2 3.2 0 0 0-1.078.191zM82.544 34.3a2.709 2.709 0 0 0-2.255-2.6 2.778 2.778 0 0 0-3.083 1.622 36.5 36.5 0 0 1 5.338.978zm-6.61-1.1a2.8 2.8 0 0 0-4.846-1.177A2.591 2.591 0 0 0 70.5 33.2q1.346-.1 2.718-.1t2.717.1zm31.274 73a4.722 4.722 0 0 1 2.8-.788 2.373 2.373 0 0 1 1.578 1.55 4.785 4.785 0 0 0-1.879.453 1.462 1.462 0 0 1-.651.159c-1.105.002-1.847-1.374-1.847-1.374zm-66.04-1.211a1.317 1.317 0 0 1 2.027 1.68 1.266 1.266 0 0 1-.979.483 1.321 1.321 0 0 1-1.047-2.161zm62.314 1.475a1.317 1.317 0 1 1 .979.483 1.265 1.265 0 0 1-.978-.481zm3.466-2.123a4.645 4.645 0 0 1 1.63-2.381 2.429 2.429 0 0 1 2.22.184 4.682 4.682 0 0 0-1.146 1.541 1.6 1.6 0 0 1-1.588.87 2.517 2.517 0 0 1-1.115-.212zm-70.966-2.168a4.774 4.774 0 0 0 1.922.213c1.617-.182 1.928 1.984 1.928 1.984a3.566 3.566 0 0 1-1.228.172c-1.126.001-2.621-.394-2.621-2.367zm3.259-.954a2.4 2.4 0 0 1 .568-2.127 4.691 4.691 0 0 0 1.335 1.382c1.357.888.186 2.745.186 2.745-.096.002-1.784-.983-2.088-1.998zm66-1a2.365 2.365 0 0 1 1.821-1.269 4.613 4.613 0 0 0 .124 1.908c.462 1.542-1.644 2.221-1.644 2.221a4.579 4.579 0 0 1-.301-2.853zM38.9 69.038a34.315 34.315 0 1 1 34.313 33.906A34.15 34.15 0 0 1 38.9 69.038zm.74 0a33.576 33.576 0 1 0 33.576-33.175 33.414 33.414 0 0 0-33.573 33.175zM68.66 94.5c-1.323 1.131-3.619 1.984-6.356 4.128-.579-3.379-1.9-5.459-2.177-7.2-1.634.616-4.087.64-7.407 1.732.628-3.382.1-5.778.443-7.506-1.764.034-4.086-.78-7.554-.876 1.741-2.936 2.073-5.383 3.008-6.9-1.652-.569-3.546-2.106-6.789-3.374 2.608-2.136 3.779-4.346 5.224-5.466-1.358-1.09-2.607-3.178-5.219-5.472 3.2-1.129 5.06-2.811 6.8-3.375-.9-1.486-1.348-3.87-3.009-6.9a22.144 22.144 0 0 0 4.278-.439 16.7 16.7 0 0 1 3.259-.437c-.32-1.67.1-4.028-.419-7.5 3.158 1.157 5.681 1.08 7.385 1.73.277-1.679 1.49-3.755 2.2-7.2 2.567 2.156 4.963 2.936 6.34 4.121.841-1.488 2.7-3.027 4.562-6.016 1.665 2.892 3.647 4.435 4.531 6.016 1.305-1.114 3.586-1.934 6.369-4.112.562 3.279 1.892 5.4 2.175 7.185 1.61-.6 4.036-.6 7.409-1.712-.605 3.271-.093 5.713-.444 7.485 1.728-.027 4.01.8 7.555.9-1.7 2.877-2.065 5.35-3.014 6.9 1.65.555 3.522 2.1 6.8 3.383-2.6 2.129-3.794 4.33-5.219 5.462 1.383 1.084 2.607 3.19 5.214 5.477-3.176 1.119-5.061 2.784-6.793 3.367.87 1.455 1.3 3.8 3 6.908a22.791 22.791 0 0 0-4.332.435 17.77 17.77 0 0 1-3.215.435c.335 1.684-.089 4.054.428 7.506-3.162-1.16-5.685-1.049-7.393-1.727-.272 1.692-1.485 3.774-2.2 7.192-2.577-2.166-4.993-2.911-6.36-4.133-.853 1.5-2.706 3.075-4.54 6.028-1.716-3.002-3.676-4.505-4.54-6.045zm4.562 4.623c1.695-2.542 3.391-3.819 4-5.178a3.9 3.9 0 0 1-.534-3.21q-.046-.073-.1-.148h-1.259q-1.043.1-2.113.1t-2.112-.1h-1.267l-.085.132a3.658 3.658 0 0 1-.55 3.231c.617 1.402 2.375 2.669 4.02 5.174zm-10.413-1.812c2.467-1.812 4.5-2.44 5.543-3.5a3.8 3.8 0 0 1 .618-3.21l-.038-.168-1.173-.422a21.92 21.92 0 0 1-3.965-1.426l-1.213-.436-.126.1A3.681 3.681 0 0 1 60.82 91.1c.096 1.52 1.311 3.3 1.989 6.211zm20.827 0c.712-2.961 1.863-4.733 1.969-6.217a3.921 3.921 0 0 1-1.614-2.839l-.139-.1-1.217.438a21.92 21.92 0 0 1-3.961 1.424l-1.174.413-.034.152a3.632 3.632 0 0 1 .6 3.221c1.07 1.118 3.167 1.715 5.57 3.504zm-14.665-4.483a2.9 2.9 0 0 0 .145-.812 2.965 2.965 0 0 0-.145.812zm8.491-.007a2.9 2.9 0 0 0-.144-.8 2.972 2.972 0 0 0 .144.8zm-23.812-.733c2.95-.87 5.076-.766 6.428-1.415a3.819 3.819 0 0 1 1.686-2.811l.022-.17-1.034-.858a22.035 22.035 0 0 1-3.086-2.559L56.61 83.4l-.152.047a3.749 3.749 0 0 1-2.523 2.121c-.44 1.468.085 3.556-.285 6.52zm39.142-.007c-.354-3.016.112-5.07-.3-6.5a3.8 3.8 0 0 1-2.518-2.135l-.151-.047-1.06.879a22.012 22.012 0 0 1-3.08 2.554l-1.036.859q.01.086.022.169a3.782 3.782 0 0 1 1.684 2.81c1.387.68 3.556.539 6.439 1.412zm-31.8-2.114a2.934 2.934 0 0 0 .422-.724 2.99 2.99 0 0 0-.424.724zm24.448-.015a2.924 2.924 0 0 0-.414-.708 2.976 2.976 0 0 0 .413.708zM52.248 69.038A20.97 20.97 0 1 0 73.216 48.32a20.868 20.868 0 0 0-20.968 20.718zm47.34 15.038c-1.378-2.714-1.648-4.8-2.533-6.008a3.852 3.852 0 0 1-3.1-1.154l-.158.007-.639 1.095a21.576 21.576 0 0 1-2.06 3.527l-.684 1.157.08.153a3.833 3.833 0 0 1 2.554 2.072c1.542.175 3.533-.694 6.54-.849zm-52.736.01c3.093.18 5.046.98 6.525.839a3.869 3.869 0 0 1 2.562-2.068l.08-.153-.675-1.157a21.623 21.623 0 0 1-2.067-3.538l-.636-1.089-.157-.007a3.762 3.762 0 0 1-3.1 1.146c-.925 1.233-1.163 3.372-2.533 6.027zm7.625.493a2.938 2.938 0 0 0 .663-.55 3.018 3.018 0 0 0-.664.551zm37.465-.018a2.956 2.956 0 0 0-.634-.526 3.022 3.022 0 0 0 .633.527zm-41.714-7.25a2.969 2.969 0 0 0 .818-.3 3.029 3.029 0 0 0-.818.3zM96.18 77.3a3 3 0 0 0-.772-.278 3.058 3.058 0 0 0 .772.278zm1.177-.03c1.506-.363 3.077-1.851 5.844-3.009-2.236-2.088-3.214-3.956-4.458-4.789a3.863 3.863 0 0 1-3.317-.036l-.146.06-.219 1.229a21.287 21.287 0 0 1-.738 4.135l-.217 1.214.125.114h.041a3.782 3.782 0 0 1 3.086 1.078zm-54.124-3c2.849 1.217 4.405 2.625 5.838 2.994a3.935 3.935 0 0 1 3.129-1.079l.127-.116-.216-1.213a21.293 21.293 0 0 1-.738-4.142l-.218-1.222-.146-.06a3.781 3.781 0 0 1-3.313.028c-1.296.84-2.253 2.773-4.462 4.809zm6.38-5.228a3.05 3.05 0 0 0-.855 0 2.99 2.99 0 0 0 .856-.001zm48.044 0a3 3 0 0 0-.829 0 3.07 3.07 0 0 0 .83-.005zm-46.666-.386.16-.066.218-1.221a21.288 21.288 0 0 1 .739-4.145l.216-1.211-.116-.105a3.757 3.757 0 0 1-3.124-1.1c-1.513.357-3.086 1.852-5.854 3.012 2.26 2.111 3.235 3.97 4.466 4.8a3.144 3.144 0 0 1 1.442-.335 5.559 5.559 0 0 1 1.854.366zm44.289-.066.159.066a3.917 3.917 0 0 1 3.3-.03c1.3-.845 2.259-2.783 4.464-4.813-2.827-1.207-4.393-2.632-5.849-2.994a3.848 3.848 0 0 1-3.13 1.081l-.117.106.217 1.213a21.291 21.291 0 0 1 .737 4.129zm-42.816-7.427.176-.008.635-1.087a21.6 21.6 0 0 1 2.073-3.548l.671-1.148-.08-.152a3.811 3.811 0 0 1-2.569-2.076c-1.54-.166-3.53.7-6.526.856 1.391 2.741 1.666 4.816 2.533 6.011a3.183 3.183 0 0 1 .379-.023 4.243 4.243 0 0 1 2.708 1.175zm41.328-.008.172.008a3.868 3.868 0 0 1 3.091-1.146c.919-1.229 1.153-3.365 2.526-6.027-3.07-.178-5.036-.989-6.533-.836a3.806 3.806 0 0 1-2.562 2.078l-.073.14.673 1.152a21.616 21.616 0 0 1 2.067 3.538zm-42.756-.09a3.057 3.057 0 0 0-.8-.288 2.966 2.966 0 0 0 .8.288zm44.364-.008a3.045 3.045 0 0 0 .782-.281 2.988 2.988 0 0 0-.782.281zm-38.79-6.381 1.057-.877a22.026 22.026 0 0 1 3.085-2.558l1.034-.858q-.01-.085-.022-.168A3.765 3.765 0 0 1 60.07 47.4c-1.391-.677-3.561-.535-6.429-1.4.359 3.051-.1 5.092.3 6.506a3.954 3.954 0 0 1 2.5 2.123zm33.214 0 .166-.051a3.825 3.825 0 0 1 2.51-2.138c.435-1.473-.084-3.562.281-6.5-2.98.879-5.089.787-6.427 1.418a3.767 3.767 0 0 1-1.689 2.822q-.011.077-.02.156l1.038.86a22.011 22.011 0 0 1 3.074 2.549zm-34.689-.626a3.02 3.02 0 0 0-.66-.546 2.931 2.931 0 0 0 .66.546zm36.172-.014a3.022 3.022 0 0 0 .628-.521 2.963 2.963 0 0 0-.628.521zm-7.456-4.106.137-.1a3.77 3.77 0 0 1 1.619-2.857c-.1-1.521-1.306-3.305-1.983-6.2-2.483 1.823-4.508 2.445-5.55 3.5a3.737 3.737 0 0 1-.608 3.226l.035.154 1.181.425a21.92 21.92 0 0 1 3.953 1.422zm-21.269 0 1.218-.438a21.9 21.9 0 0 1 3.954-1.422l1.18-.424q.02-.084.037-.166a3.753 3.753 0 0 1-.618-3.218c-1.07-1.1-3.152-1.7-5.555-3.493-.718 2.987-1.854 4.747-1.97 6.209a3.77 3.77 0 0 1 1.628 2.857zm-1.168-1.086a2.981 2.981 0 0 0-.431-.736 2.9 2.9 0 0 0 .43.736zm23.6 0a2.968 2.968 0 0 0 .429-.737 2.9 2.9 0 0 0-.429.734zm-8.419-1.352.093-.143a3.744 3.744 0 0 1 .533-3.232c-.625-1.4-2.372-2.666-4.01-5.16-1.7 2.553-3.387 3.822-4 5.165a3.738 3.738 0 0 1 .544 3.239l.086.132H71.1q1.043-.1 2.112-.1t2.112.1zm-7.48-1.418a2.948 2.948 0 0 0-.151-.834 2.9 2.9 0 0 0 .151.831zm8.2 0a2.948 2.948 0 0 0 .146-.832 2.894 2.894 0 0 0-.149.826zm-6.3 40.995a4.14 4.14 0 0 1-2.253-4.489 4.166 4.166 0 0 1-2.422 2.157c-4.311 1.4-8.235-4.008-4.8-7.316a4.245 4.245 0 0 1-3.209.331c-4.346-1.268-4.3-8.021.451-8.707-5.289-.749-4.571-8.882.748-8.882a4.354 4.354 0 0 1 2.013.507c-2.957-2.868-.489-7.542 3.344-7.542a4.162 4.162 0 0 1 3.87 2.375c-.426-2.52 1.223-4.829 4.433-5 3.257.166 4.9 2.483 4.475 5a4.172 4.172 0 0 1 3.868-2.377c3.746 0 6.346 4.644 3.346 7.542a4.355 4.355 0 0 1 2.013-.507c5.28 0 6.064 8.134.749 8.882 4.764.687 4.76 7.449.45 8.707a4.241 4.241 0 0 1-3.209-.332c3.435 3.3-.478 8.714-4.8 7.314a4.154 4.154 0 0 1-2.414-2.152 4.325 4.325 0 0 1-4.459 5.011 4.875 4.875 0 0 1-2.193-.528zm-.928-1.778c2.279 3.079 7.953 1.158 6.68-3.087a13.99 13.99 0 0 1-7.1 0 3.52 3.52 0 0 0 .421 3.08zM79 83.125c3.364 3.549 9.13-2.3 4.911-5.509a13.837 13.837 0 0 1-5.736 4.128A3.093 3.093 0 0 0 79 83.125zm-11.571 0a2.887 2.887 0 0 0 .821-1.381 13.842 13.842 0 0 1-5.732-4.126c-4.231 3.211 1.582 9.017 4.912 5.506zM60.14 69.038a13.076 13.076 0 1 0 13.076-12.92 13.014 13.014 0 0 0-13.076 12.92zm-3.52 2.077c-2.264 3.108 1.334 7.841 5.03 5.322a13.424 13.424 0 0 1-2.2-6.67 3.632 3.632 0 0 0-2.83 1.348zM89.8 71.1a3.629 3.629 0 0 0-2.826-1.336 13.424 13.424 0 0 1-2.2 6.67c3.699 2.52 7.308-2.204 5.026-5.334zm-2.826-2.8c4.509-.118 4.534-6.164.894-7.225a3.569 3.569 0 0 0-3.09.556 13.419 13.419 0 0 1 2.2 6.677zm-30.35-1.336A3.626 3.626 0 0 0 59.45 68.3a13.417 13.417 0 0 1 2.2-6.669 3.782 3.782 0 0 0-2.138-.714 3.846 3.846 0 0 0-2.884 6.056zm27.285-6.512a3.415 3.415 0 0 0 1.4-3.568c-.73-3.143-5.7-4.5-7.144-.563a13.839 13.839 0 0 1 5.748 4.14zm-21.393 0a13.841 13.841 0 0 1 5.735-4.128 3.111 3.111 0 0 0-.826-1.381 3.27 3.27 0 0 0-2.418-1.085c-2.984.008-5.852 4.05-2.487 6.602zm7.144-4.581a13.986 13.986 0 0 1 7.1 0 3.38 3.38 0 0 0-1.722-4.172 4.054 4.054 0 0 0-1.822-.431 3.523 3.523 0 0 0-3.552 4.611zM24.63 82.894c-.945-1.262.7-2.58.775-2.64-.007.059 1.347 1.387 1.274 2.584a2.406 2.406 0 0 1-1.271 1.807 4.633 4.633 0 0 0-.778-1.751zm95.47-.313c-.969-1.292.775-2.642.775-2.642a4.56 4.56 0 0 1 1.272 2.585 2.371 2.371 0 0 1-1.271 1.807 4.638 4.638 0 0 0-.776-1.75zm-91.762-.386c-1.584-.377-1.125-2.518-1.125-2.518a4.667 4.667 0 0 1 2.656 1.173 2.367 2.367 0 0 1 .2 2.192 4.75 4.75 0 0 0-1.731-.847zm-7.548.716a4.625 4.625 0 0 0 .544-1.834c.1-1.6 2.314-1.532 2.314-1.532a4.546 4.546 0 0 1-.707 2.789 2.258 2.258 0 0 1-1.643.632 1.8 1.8 0 0 1-.507-.055zm103.016-1.031c-1.582-.376-1.124-2.516-1.124-2.516a4.663 4.663 0 0 1 2.656 1.173 2.361 2.361 0 0 1 .2 2.191 4.735 4.735 0 0 0-1.732-.849zm-7.308.748a1.122 1.122 0 0 0-.238-.03 4.657 4.657 0 0 0 .545-1.834c.1-1.606 2.313-1.532 2.313-1.532a4.526 4.526 0 0 1-.708 2.789 2.01 2.01 0 0 1-1.5.641 2.75 2.75 0 0 1-.41-.034zm-91.091-2.376zm.106-5.02a2.279 2.279 0 0 1 .4 4.524 2.833 2.833 0 0 1-.487.044c-2.792 0-3.109-4.568.087-4.568zm-1.982 2.625a2.006 2.006 0 0 0 1.977 1.64 1.987 1.987 0 1 0-1.977-1.64zm49.6 1.213c-.073 0 .035-.735.7-.736a.706.706 0 0 1 .708.652.666.666 0 0 1-.69.742.694.694 0 0 1-.718-.658zm-2.34-.286c-.073 0 .165-.58.7-.58a.694.694 0 0 1 .691.82.658.658 0 0 1-.675.573.687.687 0 0 1-.716-.813zm-52.408-.132a4.76 4.76 0 0 0 1.609-1.061c1.12-1.166 2.769.3 2.769.3a4.781 4.781 0 0 1-2.361 1.682 1.717 1.717 0 0 1-.195.011 2.48 2.48 0 0 1-1.822-.932zm102.2.791a2.282 2.282 0 0 1-1.871-2.64c.531-2.97 5.072-2.178 4.543.792a2.3 2.3 0 0 1-2.27 1.884 2.339 2.339 0 0 1-.406-.037zm-1.245-1.106a2.006 2.006 0 0 0 1.647.846 1.984 1.984 0 0 0 .348-3.939 2.11 2.11 0 0 0-.365-.032 1.99 1.99 0 0 0-1.635 3.125zm-43.862.486a.692.692 0 0 1 .474-.866.718.718 0 0 1 .884.463.7.7 0 0 1-.7.9.665.665 0 0 1-.662-.497zm48.22-1.048a4.723 4.723 0 0 1 2.8-.789 2.384 2.384 0 0 1 1.579 1.551 4.8 4.8 0 0 0-1.879.451 1.462 1.462 0 0 1-.652.16c-1.111 0-1.853-1.374-1.853-1.374zm-54.74 1.113a.7.7 0 0 1-.369-.918.727.727 0 0 1 .929-.365.7.7 0 0 1-.264 1.345.775.775 0 0 1-.3-.062zM25.28 76.224a1.308 1.308 0 1 1 .459 2.576 1.586 1.586 0 0 1-.272.024 1.31 1.31 0 0 1-.187-2.6zm95.47 2.262a1.308 1.308 0 1 1 .272.024 1.586 1.586 0 0 1-.272-.024zm-43.058-.438a.71.71 0 0 1 .257-.958.734.734 0 0 1 .969.254.693.693 0 0 1-.633 1.054.674.674 0 0 1-.593-.35zm-3.859.286zm0 0zm-7.062-.684a.705.705 0 0 1-.146-.976.724.724 0 0 1 .99-.143.7.7 0 0 1-.421 1.265.716.716 0 0 1-.423-.146zm12.905-.866a.7.7 0 0 1 .026-.989.724.724 0 0 1 1 .025.7.7 0 0 1-.526 1.19.671.671 0 0 1-.5-.226zm-14.469-7.746a8.01 8.01 0 1 1 8.009 7.915 7.972 7.972 0 0 1-8.009-7.915zm.706 0a7.3 7.3 0 1 0 7.3-7.217 7.268 7.268 0 0 0-7.3 7.217zm-.889 5.929a.723.723 0 0 1 1 .085.71.71 0 0 1-.086.983.694.694 0 0 1-.449.172.7.7 0 0 1-.465-1.24zm-44.766.883a2.26 2.26 0 0 1-.945-1.99 4.8 4.8 0 0 0 1.919.209c1.616-.181 1.928 1.985 1.928 1.985a3.945 3.945 0 0 1-1.25.141 3.239 3.239 0 0 1-1.652-.346zm103.174.067a4.6 4.6 0 0 1 1.631-2.382 2.415 2.415 0 0 1 2.219.185 4.686 4.686 0 0 0-1.146 1.54 1.509 1.509 0 0 1-1.5.883 3.664 3.664 0 0 1-1.205-.227zM81.1 74.134a.722.722 0 0 1 .982-.2c.455.3.309.964.2.964a.663.663 0 0 1-.562.317.707.707 0 0 1-.62-1.081zm-54.844-2.02a2.393 2.393 0 0 1 1.819-1.268 4.614 4.614 0 0 0 .123 1.906c.462 1.542-1.642 2.221-1.642 2.221-.001-.073-.774-1.787-.3-2.86zm-3.687.79a2.357 2.357 0 0 1 .569-2.129 4.7 4.7 0 0 0 1.335 1.384c1.356.885.185 2.743.185 2.743a.016.016 0 0 1-.011 0 4.638 4.638 0 0 1-2.079-2.002zm99.156-1.1a2.365 2.365 0 0 1 1.82-1.27 4.618 4.618 0 0 0 .124 1.909c.463 1.541-1.644 2.22-1.644 2.22a4.548 4.548 0 0 1-.301-2.863zm-3.119-1.338a4.907 4.907 0 0 0 1.337 1.383c1.357.887.185 2.745.185 2.745-.128-.004-3.628-1.894-1.523-4.133zm-55.058 3.413a.69.69 0 0 1 .309-.938.714.714 0 0 1 .949.306.7.7 0 0 1-.66 1.012.656.656 0 0 1-.598-.38zm4.6-4.841a5.066 5.066 0 1 1 5.065 5 5.035 5.035 0 0 1-5.062-5zm-48.842 4.82zM82.5 73.1a.7.7 0 1 1 .261.047.782.782 0 0 1-.261-.047zm-19.825-1.55a.708.708 0 0 1 1.377-.325.7.7 0 0 1-.52.839.734.734 0 0 1-.171.02.7.7 0 0 1-.683-.536zm20.683-2.065a.7.7 0 1 1-.158 1.385.7.7 0 1 1 .161-1.387zm-20.98-.4v-.039a.705.705 0 1 1 1.411.019v.02a.661.661 0 0 1-.7.695.679.679 0 0 1-.708-.7zm20.2-1.14a.707.707 0 0 1 1.4-.162.663.663 0 0 1-.7.766.676.676 0 0 1-.702-.61zm-19.385-.527a.706.706 0 0 1-.521-.84c-.073 0 .219-.66.85-.522a.7.7 0 0 1-.148 1.382.838.838 0 0 1-.182-.025zm18.877-1.577a.7.7 0 0 1 .422-.891.711.711 0 0 1 .9.41.681.681 0 0 1-.688.927.651.651 0 0 1-.636-.451zm-18.224-.664a.7.7 0 0 1-.317-.938.714.714 0 0 1 .949-.312.7.7 0 0 1-.3 1.333.73.73 0 0 1-.334-.088zm17.234-1.269a.7.7 0 0 1 .2-.964.717.717 0 0 1 .976.2.694.694 0 0 1-.61 1.087.671.671 0 0 1-.566-.323zM65 63.14a.7.7 0 0 1-.086-.984.726.726 0 0 1 1-.084.7.7 0 0 1-.457 1.24.708.708 0 0 1-.457-.172zm14.672-.886a.688.688 0 0 1-.026-.983.724.724 0 0 1 .994-.033.7.7 0 1 1-.968 1.016zm-13.077-.827a.7.7 0 0 1 .145-.977.728.728 0 0 1 .988.144.694.694 0 0 1-.579 1.122.684.684 0 0 1-.557-.289zm11.067-1.414a.7.7 0 0 1 .962-.26.711.711 0 0 1 .264.957.664.664 0 0 1-.582.348.7.7 0 0 1-.647-1.045zm-9.115.111a.7.7 0 0 1 .368-.918.717.717 0 0 1 .93.365.694.694 0 0 1-.678.969.661.661 0 0 1-.623-.416zm7.362-.013a.706.706 0 0 1-.475-.865.718.718 0 0 1 .884-.47.7.7 0 0 1-.18 1.37.8.8 0 0 1-.232-.035zm-5.158-.811a.706.706 0 0 1 1.391-.241.661.661 0 0 1-.694.8.674.674 0 0 1-.697-.559zm2.334-.3c-.075 0 .105-.659.751-.659a.7.7 0 0 1 .666.737.71.71 0 0 1-1.417-.078zm-42.806-8.389c-.968-1.292.775-2.641.775-2.641a4.515 4.515 0 0 1 1.272 2.585 2.409 2.409 0 0 1-1.271 1.808 4.656 4.656 0 0 0-.776-1.752zm83.954-.275c-.968-1.294.775-2.644.775-2.644a4.592 4.592 0 0 1 1.273 2.585 2.294 2.294 0 0 1-1.272 1.807 4.638 4.638 0 0 0-.775-1.748zm-87.793.292a4.729 4.729 0 0 0 .543-1.835c.1-1.6 2.313-1.531 2.313-1.531-.073 0 .154 1.89-.708 2.788a2.2 2.2 0 0 1-1.614.629 2.6 2.6 0 0 1-.533-.051zm91.5-.995c-1.582-.376-1.124-2.516-1.124-2.516a4.646 4.646 0 0 1 2.656 1.173 2.356 2.356 0 0 1 .2 2.191 4.759 4.759 0 0 0-1.732-.847zm-89.01-3.814a2.32 2.32 0 1 1 2.239 1.681 2.287 2.287 0 0 1-2.239-1.681zm1.224 1.129a1.991 1.991 0 1 0 2.009-3.439 2.091 2.091 0 0 0-1.04-.294 2 2 0 0 0-.969 3.733zm-6.121-.581a4.746 4.746 0 0 0 1.609-1.06c1.12-1.166 2.768.3 2.768.3a4.666 4.666 0 0 1-2.357 1.686 1.73 1.73 0 0 1-.194.011 2.473 2.473 0 0 1-1.826-.937zm89.083-.275a2.286 2.286 0 1 1 3.15.833 2.325 2.325 0 0 1-3.15-.833zm.257-.147c1.317 2.253 4.8.278 3.48-1.986a1.886 1.886 0 0 0-1.663-1.006 2 2 0 0 0-1.817 2.992zm4.452-.417a4.667 4.667 0 0 1 2.8-.789 2.417 2.417 0 0 1 1.58 1.551 4.761 4.761 0 0 0-1.879.451 1.462 1.462 0 0 1-.651.16c-1.108-.001-1.85-1.372-1.85-1.372zm-87.325.833a1.311 1.311 0 1 1 .684.193 1.374 1.374 0 0 1-.684-.193zm83.955-2.54a1.311 1.311 0 0 1 1.323 2.264 1.374 1.374 0 0 1-.683.193 1.319 1.319 0 0 1-.643-2.457zm-80.84.126a4.622 4.622 0 0 1 1.63-2.381 2.41 2.41 0 0 1 2.219.185 4.669 4.669 0 0 0-1.145 1.538 1.6 1.6 0 0 1-1.589.871 2.513 2.513 0 0 1-1.118-.213zm-7.706-.381a2.368 2.368 0 0 1-.948-1.991 4.787 4.787 0 0 0 1.922.211c1.5-.169 2 1.948 1.928 1.986a6.654 6.654 0 0 1-1.349.139 2.947 2.947 0 0 1-1.556-.346zm91.659.1a4.635 4.635 0 0 1 1.63-2.379 2.407 2.407 0 0 1 2.219.185 4.671 4.671 0 0 0-1.145 1.538 1.6 1.6 0 0 1-1.587.87 2.518 2.518 0 0 1-1.12-.211zm-7.7-.38a2.375 2.375 0 0 1-.949-1.991 4.8 4.8 0 0 0 1.922.212c1.618-.182 1.928 1.984 1.928 1.984a3.428 3.428 0 0 1-1.223.141 3.311 3.311 0 0 1-1.686-.343zM31.9 39.83a2.415 2.415 0 0 1 1.819-1.27 4.633 4.633 0 0 0 .124 1.908c.463 1.541-1.643 2.22-1.643 2.22a4.523 4.523 0 0 1-.3-2.858zm-3.687.789a2.242 2.242 0 0 1 .572-2.121 4.716 4.716 0 0 0 1.332 1.376c1.357.888.185 2.746.185 2.746a.016.016 0 0 1-.011 0 4.667 4.667 0 0 1-2.074-2.001zm87.641-1.067a2.4 2.4 0 0 1 1.82-1.268 4.629 4.629 0 0 0 .124 1.907c.462 1.542-1.644 2.221-1.644 2.221a4.544 4.544 0 0 1-.296-2.86zm-3.687.791a2.38 2.38 0 0 1 .569-2.129 4.7 4.7 0 0 0 1.335 1.383c1.357.887.185 2.745.185 2.745h-.006c-.104.004-1.784-1.015-2.08-1.999zm-83.382-1.851a.007.007 0 0 1 0 .006zM52.036 29.5c-.153-.018-.251-.037-.269-.017a4.656 4.656 0 0 0 .544-1.834c.1-1.606 2.313-1.532 2.313-1.532a4.562 4.562 0 0 1-.708 2.789 1.989 1.989 0 0 1-1.489.621 3.127 3.127 0 0 1-.391-.027zm40.434-.844c-1.583-.376-1.125-2.517-1.125-2.517A4.673 4.673 0 0 1 94 27.315a2.338 2.338 0 0 1 .2 2.191 4.742 4.742 0 0 0-1.73-.847zm-38.151-3.791a2.32 2.32 0 1 1 2.166 1.495 2.286 2.286 0 0 1-2.166-1.495zM55.8 22.22a1.983 1.983 0 0 0 .689 3.85 1.986 1.986 0 1 0 0-3.972 2.033 2.033 0 0 0-.689.122zm33.055 3.9a2.284 2.284 0 1 1 2.955-1.363 2.314 2.314 0 0 1-2.955 1.363zm.79-.156a1.984 1.984 0 0 0 .686-3.852 2.345 2.345 0 0 0-.789-.146c-2.283-.002-2.787 3.996.102 3.996zm-40.285-.738a4.728 4.728 0 0 0 1.611-1.06c1.12-1.166 2.768.3 2.768.3-.073 0-1.146 1.549-2.357 1.686a2.154 2.154 0 0 1-.241.014 2.452 2.452 0 0 1-1.782-.942zm33.649.359c-.294-.239-.453-.477-.491-.469a4.752 4.752 0 0 0 1.608-1.059c1.121-1.166 2.769.3 2.769.3a4.642 4.642 0 0 1-2.357 1.686 2.2 2.2 0 0 1-.244.014 2.009 2.009 0 0 1-1.286-.473zM59.2 24.662a4.711 4.711 0 0 1 2.8-.788 2.381 2.381 0 0 1 1.58 1.55 4.773 4.773 0 0 0-1.879.452 1.462 1.462 0 0 1-.651.16c-1.109 0-1.85-1.374-1.85-1.374zm33.156-.108a4.672 4.672 0 0 1 2.8-.789 2.375 2.375 0 0 1 1.581 1.551 4.794 4.794 0 0 0-1.88.45 1.46 1.46 0 0 1-.652.16c-1.105 0-1.849-1.373-1.849-1.373zm-37.113-.021a1.322 1.322 0 0 1 2.487-.895 1.3 1.3 0 0 1-1.293 1.755 1.235 1.235 0 0 1-1.194-.86zm33.157-1a1.322 1.322 0 0 1 2.487.895 1.236 1.236 0 0 1-1.194.86 1.3 1.3 0 0 1-1.293-1.759zm-5.882 1.586zM58.94 22.8a4.559 4.559 0 0 1 1.629-2.38 2.418 2.418 0 0 1 2.221.183 4.7 4.7 0 0 0-1.146 1.54 1.51 1.51 0 0 1-1.5.883 3.663 3.663 0 0 1-1.204-.226zm33.16-.106a4.579 4.579 0 0 1 1.629-2.381 2.077 2.077 0 0 1 1.787-.013 3.832 3.832 0 0 0 .431.2 4.688 4.688 0 0 0-1.145 1.54 1.51 1.51 0 0 1-1.5.883 3.66 3.66 0 0 1-1.202-.229zm-40.862-.272a2.357 2.357 0 0 1-.949-1.989c.012-.035.161.04.444.114a4 4 0 0 0 1.48.095c1.616-.181 1.927 1.986 1.927 1.986a4.133 4.133 0 0 1-1.257.141 3.211 3.211 0 0 1-1.649-.346zm33.156-.109a2.367 2.367 0 0 1-.949-1.993 4.768 4.768 0 0 0 1.923.212c1.617-.181 1.927 1.986 1.927 1.986a8.4 8.4 0 0 1-1.388.14 2.844 2.844 0 0 1-1.517-.344zm-27.163-3.627a2.4 2.4 0 0 1 1.82-1.266 4.628 4.628 0 0 0 .124 1.9c.462 1.541-1.642 2.222-1.642 2.222a4.538 4.538 0 0 1-.302-2.856zm-3.686.791a2.406 2.406 0 0 1 .569-2.127 4.692 4.692 0 0 0 1.335 1.382c1.357.888.186 2.745.186 2.745-.103-.001-1.789-.996-2.09-2.001zm36.842-.9a2.4 2.4 0 0 1 1.821-1.268 4.636 4.636 0 0 0 .123 1.907c.463 1.541-1.642 2.221-1.642 2.221a4.471 4.471 0 0 1-.302-2.86zm-3.687.79a2.407 2.407 0 0 1 .569-2.127 4.725 4.725 0 0 0 1.337 1.382c1.356.888.185 2.745.185 2.745-.116 0-1.791-1.014-2.091-2zm-27.649-1.949z" transform="rotate(103 104.08 194.088)" style="fill:#ffb930;opacity:.24"/>
    </g>
</svg>
