<svg width="10" height="10" viewBox="0 0 10 10" fill="none" xmlns="http://www.w3.org/2000/svg">
    <g clip-path="url(#olubgri9ba)" fill="#fff">
        <path d="M8.125 2.188h-.313v-.313a.939.939 0 0 0-.937-.937h-5a.939.939 0 0 0-.938.937v5c0 .517.421.938.938.938h.313v.312c0 .517.42.938.937.938h5c.517 0 .938-.421.938-.938v-5a.939.939 0 0 0-.938-.937zm-6.25-.625h5c.172 0 .313.14.313.312v1.757L5.28 5.812 3.328 4.137a.312.312 0 0 0-.424.016L1.563 5.496V1.875c0-.172.14-.312.312-.312zm6.563 6.562c0 .172-.14.313-.313.313h-5a.313.313 0 0 1-.313-.313v-.312h4.063c.517 0 .938-.421.938-.938V2.813h.312c.172 0 .313.14.313.312v5z"/>
        <path d="M5 4.063a.939.939 0 0 0 0-1.875.939.939 0 0 0 0 1.875z"/>
    </g>
    <defs>
        <clipPath id="olubgri9ba">
            <path fill="#fff" d="M0 0h10v10H0z"/>
        </clipPath>
    </defs>
</svg>
