<svg id="Group_15096" data-name="Group 15096" xmlns="http://www.w3.org/2000/svg" width="24" height="24" viewBox="0 0 24 24">
  <defs>
    <style>
      .cls-1 {
        fill: none;
      }

      .cls-2 {
        fill: #fff;
      }
    </style>
  </defs>
  <rect id="Rectangle_4544" data-name="Rectangle 4544" class="cls-1" width="24" height="24"/>
  <path id="Union_2" data-name="Union 2" class="cls-2" d="M2,16.04a2,2,0,0,1-2-2v-10H24v10a2,2,0,0,1-2,2Zm4.69-1.808h10.63v-.9H6.691ZM15.2,12.506h1.035V8.986H15.2Zm-1.855,0H14.38V8.986H13.345Zm-1.859,0H12.52V8.986H11.486Zm-1.856,0h1.035V8.986H9.63Zm-1.855,0H8.81V8.986H7.775ZM7.061,8.2H16.95L12.005,5.337Zm4.4-1.22a.551.551,0,0,1,1.09,0,.551.551,0,0,1-1.09,0ZM0,3.005V1.47A1.472,1.472,0,0,1,1.47,0H22.53A1.472,1.472,0,0,1,24,1.47V3.005ZM8.02,1.5a.736.736,0,0,0,.735.735H20.27a.72.72,0,0,0,.515-.216A.734.734,0,0,0,20.265.77H8.755A.735.735,0,0,0,8.02,1.5Zm-3.855,0a.42.42,0,1,0,.419-.419A.42.42,0,0,0,4.165,1.5ZM2.91,1.5a.42.42,0,1,0,.42-.419A.421.421,0,0,0,2.91,1.5Zm-1.255,0a.42.42,0,1,0,.42-.419A.42.42,0,0,0,1.655,1.5Z" transform="translate(0 2.96)"/>
</svg>
