<svg xmlns="http://www.w3.org/2000/svg" width="20.945" height="17.784" viewBox="0 0 20.945 17.784">
  <defs>
    <style>
      .cls-1 {
        fill: #777;
      }
    </style>
  </defs>
  <path id="cvv" class="cls-1" d="M10.913,14.645H1.048A1.046,1.046,0,0,1,0,13.6V1.046A1.046,1.046,0,0,1,1.048,0H19.9a1.046,1.046,0,0,1,1.048,1.046V12.553a5.235,5.235,0,0,1-10.032,2.092Zm.257-2.092c0,.148.009.294.023.441.005.055.015.106.023.159.012.089.023.179.041.266.014.069.034.143.049.209s.031.131.05.2c.025.086.055.171.086.257a4.519,4.519,0,1,0-.271-1.527ZM.7,13.6a.348.348,0,0,0,.349.348h9.615c-.029-.1-.052-.2-.075-.308l-.014-.063c-.028-.142-.05-.285-.066-.43,0-.04-.009-.079-.012-.12-.014-.157-.024-.315-.024-.473a5.239,5.239,0,0,1,5.236-5.231c.16,0,.319.01.475.023l.119.013c.15.018.3.04.446.069l.015,0c.151.031.3.071.445.115.037.011.076.022.11.034.137.043.272.093.4.148a.13.13,0,0,0,.026.01c.139.059.273.126.4.2l.1.055c.12.068.238.139.353.215l.033.021c.122.083.241.173.356.266.029.022.057.046.086.069.1.087.2.177.3.273.012.011.024.021.035.032.1.1.2.214.3.328l.07.086q.126.155.239.319l.032.046c.067.1.13.2.191.3V5.579H.7ZM.7,1.046V2.789H20.246V1.046A.349.349,0,0,0,19.9.7H1.048A.348.348,0,0,0,.7,1.046Zm12.218,13.6a.7.7,0,0,1-.7-.7V11.158a.7.7,0,0,1,.7-.7h.7a.7.7,0,0,1,.7.7v.348a.349.349,0,1,1-.7,0v-.348h-.7v2.789h.7V13.6a.349.349,0,0,1,.7,0v.348a.7.7,0,0,1-.7.7Zm4.894-.282-.7-3.487c0-.008,0-.016,0-.023a.349.349,0,0,1,.688-.113l.356,1.778.356-1.778.005-.023a.349.349,0,0,1,.68.16l-.7,3.487a.349.349,0,0,1-.684,0Zm-2.444,0-.7-3.487c0-.008,0-.016,0-.023a.349.349,0,1,1,.689-.113l.356,1.778.357-1.778a.348.348,0,0,1,.683.136l-.7,3.487a.348.348,0,0,1-.273.273.353.353,0,0,1-.069.007A.349.349,0,0,1,15.367,14.363ZM1.535,13.25v-.7H9.774v.7Zm-.141-1.392v-.7H7.934v.7Z"/>
</svg>
