<svg id="credit-card" xmlns="http://www.w3.org/2000/svg" width="24" height="15.989" viewBox="0 0 24 15.989">
  <defs>
    <style>
      .cls-1 {
        fill: #fff;
      }
    </style>
  </defs>
  <path id="Path_15509" data-name="Path 15509" class="cls-1" d="M0,213.23v6.211a3.239,3.239,0,0,0,3.239,3.239H20.761A3.239,3.239,0,0,0,24,219.441V213.23a.563.563,0,0,0-.563-.563H.563A.563.563,0,0,0,0,213.23Zm5.992,3.943H4.49a.986.986,0,1,1,0-1.971h1.5a.986.986,0,1,1,0,1.971Z" transform="translate(0 -206.691)"/>
  <path id="Path_15510" data-name="Path 15510" class="cls-1" d="M24,88.776v-.2a3.239,3.239,0,0,0-3.239-3.239H3.239A3.239,3.239,0,0,0,0,88.573v.2a.563.563,0,0,0,.563.563H23.437A.563.563,0,0,0,24,88.776Z" transform="translate(0 -85.334)"/>
</svg>
