<svg xmlns="http://www.w3.org/2000/svg" width="224" height="140" viewBox="0 0 224 140">
  <defs>
    <style>
      .cls-1 {
        fill: #ba3e3e;
      }

      .cls-2, .cls-3, .cls-4 {
        fill: #fff;
      }

      .cls-2 {
        fill-rule: evenodd;
      }

      .cls-4 {
        stroke: #fff;
        stroke-miterlimit: 10;
        stroke-width: 0.297px;
      }
    </style>
  </defs>
  <g id="Group_20386" data-name="Group 20386" transform="translate(-900.298 -0.195)">
    <path id="Rectangle_5140" data-name="Rectangle 5140" class="cls-1" d="M0,0H224a0,0,0,0,1,0,0V110a30,30,0,0,1-30,30H30A30,30,0,0,1,0,110V0A0,0,0,0,1,0,0Z" transform="translate(900.298 0.195)"/>
    <g id="Group_20375" data-name="Group 20375" transform="translate(932.298 20.482)">
      <path id="Path_1" data-name="Path 1" class="cls-2" d="M61.572,28.282a6.705,6.705,0,0,1-4.553,4.144,6.587,6.587,0,0,1-2.187,5.719A6.668,6.668,0,0,1,49,36.259a6.672,6.672,0,0,1-6.047.919,6.779,6.779,0,0,1-1.329-6,6.753,6.753,0,0,1-3.8-4.8,6.707,6.707,0,0,1,4.529-4.132,6.752,6.752,0,0,1,2.247-5.72,6.654,6.654,0,0,1,5.8,1.873,6.678,6.678,0,0,1,6.048-.919,6.752,6.752,0,0,1,1.3,6.017A6.765,6.765,0,0,1,61.572,28.282Zm-4.361-7.888c-.852-.152-3.583,1.245-4.531,2.578.9-1.368,1.215-4.433.778-5.161A6.253,6.253,0,0,1,52.1,22.886a4.914,4.914,0,0,0-4.071-.324,6.3,6.3,0,0,1-.548-5.246c-.557.651-.73,3.7-.045,5.2-.757-1.458-3.208-3.256-4.071-3.254A6.345,6.345,0,0,1,47.067,23a5.033,5.033,0,0,0-1.513,1.449,5.1,5.1,0,0,0-.808,1.947,6.275,6.275,0,0,1-4.81-2.15c.3.8,2.843,2.491,4.476,2.654-1.633-.1-4.4,1.164-4.85,1.907a6.382,6.382,0,0,1,5.107-1.354,5.047,5.047,0,0,0,1.751,3.72,6.222,6.222,0,0,1-4.263,3.1c.853.152,3.572-1.21,4.521-2.542-.876,1.356-1.2,4.4-.755,5.149a6.348,6.348,0,0,1,1.37-5.112,5.084,5.084,0,0,0,4.083.347,6.243,6.243,0,0,1,.546,5.246c.558-.649.732-3.7.069-5.209.733,1.471,3.209,3.257,4.058,3.231a6.281,6.281,0,0,1-3.725-3.733,5.239,5.239,0,0,0,1.549-1.439,5.006,5.006,0,0,0,.772-1.958,6.3,6.3,0,0,1,4.786,2.163c-.273-.814-2.829-2.468-4.439-2.643,1.62.08,4.4-1.165,4.814-1.919a6.218,6.218,0,0,1-5.071,1.365,5.11,5.11,0,0,0-1.786-3.731A6.348,6.348,0,0,1,57.211,20.393Zm-2.5,7.348c.059,0,.095.011.153.01A.535.535,0,0,1,54.709,27.742Zm-2.22,1.52a1.879,1.879,0,0,1-1.073,1.666,1.931,1.931,0,0,1-1.988-.216,1.8,1.8,0,0,1-1.964-.11,1.855,1.855,0,0,1-.822-1.813,1.92,1.92,0,0,1-.892-1.776,1.816,1.816,0,0,1,1.169-1.6,1.9,1.9,0,0,1,3.048-1.474,1.89,1.89,0,0,1,2,.122,1.859,1.859,0,0,1,.786,1.8,1.861,1.861,0,0,1,.891,1.777A1.837,1.837,0,0,1,52.489,29.262Zm-2.452-2.427a1.606,1.606,0,0,1-.263-.221,1.685,1.685,0,0,1-.329.172,1.667,1.667,0,0,1-.34.148.892.892,0,0,1,.006.356,1.169,1.169,0,0,1-.053.357,2.805,2.805,0,0,1,.323.161c.095.07.18.175.275.245a1.517,1.517,0,0,1,.292-.183,1.562,1.562,0,0,1,.352-.124c0-.12,0-.238,0-.357a2.737,2.737,0,0,1,.054-.358C50.252,26.961,50.133,26.9,50.037,26.834Zm2.5-3.671c.035-.048.046-.083.093-.108-.047.025-.046.084-.08.132Zm-5.689,8.328a.542.542,0,0,0-.081.132c.011-.036.045-.085.057-.12Zm5.042.415c-.012.035.013.083.037.129-.024-.046-.05-.094-.073-.141A.027.027,0,0,0,51.894,31.906Zm-7.22-4.958a.413.413,0,0,1-.143-.045.6.6,0,0,0,.154.01C44.661,26.924,44.661,26.924,44.673,26.948Z" transform="translate(-7.932 -16.444)"/>
      <path id="Path_2" data-name="Path 2" class="cls-2" d="M68.6,58.841A14.826,14.826,0,0,1,58.535,68,14.566,14.566,0,0,1,53.7,80.651a14.746,14.746,0,0,1-12.9-4.167,14.76,14.76,0,0,1-13.374,2.032,15,15,0,0,1-2.938-13.28A14.935,14.935,0,0,1,16.079,54.62a14.833,14.833,0,0,1,10.015-9.139,14.932,14.932,0,0,1,4.969-12.65,14.715,14.715,0,0,1,12.823,4.142,14.768,14.768,0,0,1,13.376-2.032,14.932,14.932,0,0,1,2.882,13.308A14.96,14.96,0,0,1,68.6,58.841ZM58.961,41.395c-1.884-.337-7.925,2.754-10.021,5.7,1.988-3.025,2.688-9.8,1.721-11.414.5,4.635-.412,8.217-3,11.224a10.868,10.868,0,0,0-9-.716c-2.1-3.4-2.417-7.069-1.211-11.6-1.232,1.439-1.616,8.185-.1,11.492-1.673-3.224-7.1-7.2-9-7.2,4.238,1.951,6.9,4.53,8.185,8.288a11.11,11.11,0,0,0-3.345,3.2,11.252,11.252,0,0,0-1.786,4.3c-3.97.092-7.314-1.4-10.638-4.755.657,1.771,6.287,5.509,9.9,5.87-3.613-.229-9.732,2.574-10.726,4.217,3.848-2.739,7.362-3.716,11.3-2.994A11.161,11.161,0,0,0,35.1,65.245c-1.879,3.493-4.847,5.642-9.428,6.846,1.886.336,7.9-2.676,10-5.622C33.73,69.467,33,76.193,34,77.856c-.471-4.714.44-8.3,3.029-11.305a11.247,11.247,0,0,0,9.03.768c2.068,3.35,2.468,7.044,1.207,11.6,1.233-1.436,1.618-8.185.154-11.519,1.621,3.252,7.1,7.2,8.975,7.145-4.289-1.923-6.945-4.5-8.237-8.257a11.589,11.589,0,0,0,3.425-3.182,11.078,11.078,0,0,0,1.706-4.331c3.97-.092,7.29,1.48,10.585,4.784-.6-1.8-6.257-5.459-9.818-5.845,3.582.177,9.733-2.576,10.646-4.243-3.771,2.764-7.335,3.768-11.216,3.018a11.3,11.3,0,0,0-3.951-8.252C51.463,44.719,54.459,42.624,58.961,41.395ZM53.426,57.646c.132,0,.21.024.338.021A1.2,1.2,0,0,1,53.426,57.646Zm-4.909,3.362a4.157,4.157,0,0,1-2.373,3.685,4.272,4.272,0,0,1-4.4-.478,3.983,3.983,0,0,1-4.344-.243,4.1,4.1,0,0,1-1.818-4.01,4.246,4.246,0,0,1-1.972-3.929A4.016,4.016,0,0,1,36.2,52.5a4.206,4.206,0,0,1,6.74-3.26,4.179,4.179,0,0,1,4.421.27A4.114,4.114,0,0,1,49.1,53.5a4.116,4.116,0,0,1,1.971,3.93A4.064,4.064,0,0,1,48.517,61.008ZM43.094,55.64a3.551,3.551,0,0,1-.582-.489,3.724,3.724,0,0,1-.727.38,3.68,3.68,0,0,1-.753.326,1.971,1.971,0,0,1,.013.788,2.587,2.587,0,0,1-.118.789,6.275,6.275,0,0,1,.714.356c.21.154.4.388.609.542a3.4,3.4,0,0,1,.647-.4,3.51,3.51,0,0,1,.778-.274c0-.264-.008-.526-.011-.788a6.156,6.156,0,0,1,.119-.791C43.57,55.92,43.306,55.8,43.094,55.64Zm5.538-8.12c.078-.106.1-.184.207-.239-.1.055-.1.186-.178.291ZM36.05,65.938a1.2,1.2,0,0,0-.179.293c.025-.08.1-.187.125-.266Zm11.15.918c-.027.079.03.184.083.286-.053-.1-.11-.207-.163-.311A.059.059,0,0,0,47.2,66.855ZM31.232,55.891a.912.912,0,0,1-.316-.1,1.324,1.324,0,0,0,.341.021C31.205,55.837,31.205,55.837,31.232,55.891Z" transform="translate(-16.079 -10.367)"/>
      <path id="Union_1" data-name="Union 1" class="cls-3" d="M79.046,15.774A3.8,3.8,0,0,0,80.5,14.96a5.264,5.264,0,0,0,1.4-1.856,1.075,1.075,0,0,0,.132-.4,1.007,1.007,0,0,0-.132-.417L78.536,3.825h1.811l1.981,5.416c.226.606.453,1.325.6,1.874h.038c.17-.549.359-1.25.585-1.913l1.811-5.378H87.12l-2.49,6.533c-1.189,3.143-2,4.753-3.131,5.757a4.7,4.7,0,0,1-2.038,1.061ZM61.911,13.2a4.36,4.36,0,0,1-4.376-4.715c0-3.068,2.018-4.867,4.527-4.867,2.622,0,4.4,1.913,4.4,4.7,0,3.408-2.358,4.885-4.528,4.885Zm-2.7-4.772c0,2.007,1.132,3.522,2.735,3.522h.019c1.585,0,2.773-1.5,2.773-3.579,0-1.553-.774-3.5-2.735-3.5C60.063,4.867,59.214,6.685,59.214,8.427ZM25.544,12.5a3.589,3.589,0,0,1-.641-2.405v-5H23.488V3.825H24.9V2.14l1.623-.511v2.2H28.9V5.094H26.525v4.942c0,1.136.32,1.78,1.245,1.78a3.093,3.093,0,0,0,.962-.114l.076,1.269a4.514,4.514,0,0,1-1.471.227A2.363,2.363,0,0,1,25.544,12.5ZM14.381,10.566c0-2.216,1.962-3.428,5.49-3.409v-.19A1.88,1.88,0,0,0,17.8,4.848a4.388,4.388,0,0,0-2.4.682l-.377-1.117a5.9,5.9,0,0,1,3.018-.8c2.811,0,3.49,1.913,3.49,3.75v3.428a15.458,15.458,0,0,0,.132,2.2h-1.49l-.151-1.155h-.057A3.37,3.37,0,0,1,17.173,13.2,2.606,2.606,0,0,1,14.381,10.566Zm1.66-.189a1.457,1.457,0,0,0,1.547,1.591,2.305,2.305,0,0,0,2.245-1.534,1.707,1.707,0,0,0,.075-.53V8.313l-.268,0C17.9,8.31,16.041,8.684,16.041,10.377Zm59.04,2.613V7.707c0-1.477-.547-2.727-2.113-2.727a2.4,2.4,0,0,0-2.226,1.7,2.492,2.492,0,0,0-.113.776V12.99h-1.66V6.306c0-.966-.019-1.723-.075-2.48h1.471l.094,1.5H70.5a3.379,3.379,0,0,1,3.018-1.7c1.264,0,3.226.758,3.226,3.9V12.99Zm-21.616,0V7.8c0-1.78-.66-2.821-1.981-2.821a2.182,2.182,0,0,0-1.981,1.5,2.962,2.962,0,0,0-.132.833V12.99H47.75V7.5c0-1.477-.641-2.518-1.905-2.518a2.29,2.29,0,0,0-2.056,1.666,2.3,2.3,0,0,0-.132.814V12.99H42.033V6.306c0-.966-.038-1.723-.076-2.48h1.453L43.486,5.3h.057a3.155,3.155,0,0,1,2.887-1.685,2.694,2.694,0,0,1,2.566,1.837h.038A3.615,3.615,0,0,1,50.07,4.26a3.055,3.055,0,0,1,2-.644c1.226,0,3.018.8,3.018,3.977v5.4Zm-15.473,0V3.825h1.66V12.99Zm-6.734,0,.019-6.306c0-1.08-.019-2.007-.075-2.859h1.452l.075,1.8h.057a2.763,2.763,0,0,1,2.547-2.007,1.743,1.743,0,0,1,.453.057V5.226a5.4,5.4,0,0,0-.585-.038,2.331,2.331,0,0,0-2.226,2.121,5.271,5.271,0,0,0-.057.8V12.99Zm-19.9,0-.3-5.6c-.095-1.78-.207-3.939-.207-5.51H10.81c-.453,1.477-.962,3.086-1.6,4.847L6.961,12.914H5.716L3.641,6.836c-.6-1.818-1.094-3.447-1.453-4.961H2.151c-.038,1.59-.132,3.711-.245,5.643L1.566,12.99H0L.887.227H2.981L5.15,6.4c.529,1.572.943,2.973,1.283,4.3h.038c.34-1.288.793-2.689,1.358-4.3L10.093.227h2.094l.792,12.763ZM38.785,2.14A1.034,1.034,0,0,1,37.748,1.06,1.038,1.038,0,0,1,38.823,0,1.022,1.022,0,0,1,39.88,1.06,1.043,1.043,0,0,1,38.8,2.14Z" transform="translate(68.415 80.186)"/>
      <path id="Union_2" data-name="Union 2" class="cls-4" d="M75.343,58.438a2.975,2.975,0,0,1-.73-2q0-2.97,3.944-7.169l8.045-8.4-.158-.119-12.7,10.337-.276-.277L84.278,41.93l4.6-3.632H85.346l.157-.4H89.47l6.687-7.01,3.375-.079L93.14,37.9H98.8l-.12.4h-6.03L79.065,52.843q-2.441,2.608-2.934,3.281a2.178,2.178,0,0,0-.492,1.265,1.275,1.275,0,0,0,.493,1.01,1.6,1.6,0,0,0,1.046.416q3.235,0,12.389-8l.276.277q-9.51,8.2-12.745,8.2A2.237,2.237,0,0,1,75.343,58.438ZM42.3,58.517a2.588,2.588,0,0,1-.73-1.842q0-2.93,4.538-8.475t5.84-6.416l-.039-.237A19.827,19.827,0,0,0,47.727,44.6l-7.813,6.5-.276-.277q8.68-7.446,10.16-8.515a15.805,15.805,0,0,1,2.328-1.465,4.979,4.979,0,0,0,1.44-.99q6.707-7.208,12.863-12.832a117.406,117.406,0,0,1,10.515-8.733q4.359-3.109,7.28-3.109a2.594,2.594,0,0,1,1.8.654,1.919,1.919,0,0,1,.73,1.446q0,2.3-5.051,6.832a83.351,83.351,0,0,1-12.508,9.05q-7.457,4.515-11.443,5.664-.908,1.069-3.354,3.723l-3.156,3.485-3.985,4.753q-4.143,4.951-4.419,6.3v.356q0,1.307,1.46,1.307,3.393,0,12.271-7.921l.276.277-2.407,2.06q-7.182,6.14-10.416,6.139A2.288,2.288,0,0,1,42.3,58.517Zm36.064-40.6Q74.992,20.2,68.028,27.447T58.3,38.22q3.156-1.03,10.712-5.485a72.348,72.348,0,0,0,12.37-8.911Q86.2,19.367,86.2,17.268a1.451,1.451,0,0,0-.592-1.129,2.259,2.259,0,0,0-1.5-.5Q81.739,15.644,78.366,17.922Zm11.858,37.8q0-4.475,6.1-8.436t9.529-3.961a1.7,1.7,0,0,1,1.085.357,1.074,1.074,0,0,1,.454.871q0,1.941-3.837,4.079a22.284,22.284,0,0,1-8.5,2.654q-4.035,4.04-4.035,5.545a1.756,1.756,0,0,0,.71,1.327,2.458,2.458,0,0,0,1.658.614,14.962,14.962,0,0,0,5.82-1.8,42.14,42.14,0,0,0,8.818-6.159l.276.277a39.066,39.066,0,0,1-8.623,6.08,15.485,15.485,0,0,1-6.22,1.881Q90.223,59.052,90.223,55.725ZM103.69,44.362a27.565,27.565,0,0,0-3.777,2.608,32.313,32.313,0,0,0-4.272,3.923,15.575,15.575,0,0,0,4.193-1.035,16.122,16.122,0,0,0,5-2.669q2-1.633,2-2.708,0-.757-.87-.757A5.068,5.068,0,0,0,103.69,44.362ZM2.861,55.9A10.34,10.34,0,0,1,0,48.754Q0,41.706,6.569,35.7t22-8.733a7.722,7.722,0,0,1-1.776-2.931,53.67,53.67,0,0,1-10.574,1.347q-6.432,0-9.923-2.852T2.8,16.119q0-7.089,8.167-11.6A38.176,38.176,0,0,1,29.751,0V.277q-11.4,0-18.7,5.18t-7.3,11.269q0,3.2,3.314,5.734t9.667,2.53a49.331,49.331,0,0,0,10.062-1.3,8.993,8.993,0,0,1-.434-2.61q0-4.231,3.61-8.4t10.989-7.83q7.378-3.657,12.232-3.658a6.694,6.694,0,0,1,3.867,1.03,3.346,3.346,0,0,1,1.5,2.931q0,4.238-8.3,9.822T27.9,23.8A4.2,4.2,0,0,0,29,26.932l.981-.04a12.146,12.146,0,0,1,4.552.654q1.53.653,1.53,1.485a1.034,1.034,0,0,1-.533.871,2.051,2.051,0,0,1-1.164.357q-2.959,0-5.564-2.931a30.488,30.488,0,0,0-19.314,10.1Q1.972,45.9,1.973,51.923A5.987,5.987,0,0,0,4.5,56.715a10.9,10.9,0,0,0,6.984,2.02q8.4,0,17.025-5.188T37.129,42.22a4.448,4.448,0,0,0-1.42-3.367,5.394,5.394,0,0,0-3.867-1.346q-6.117,0-13.514,4.693A38.322,38.322,0,0,0,6.747,53.151l-.276-.159A39.916,39.916,0,0,1,18.091,42q7.4-4.772,13.593-4.772a6.114,6.114,0,0,1,4.4,1.525,4.758,4.758,0,0,1,1.6,3.544q0,6.3-8.9,11.525t-17.1,5.228Q5.721,59.052,2.861,55.9ZM29.277,27.288a7.111,7.111,0,0,0,5.129,2.654q1.262,0,1.263-.871,0-.911-1.717-1.386a12.206,12.206,0,0,0-3.255-.475Q30.224,27.209,29.277,27.288Zm8.53-18.165q-8.887,7.539-9.871,14.328,14.383-3.473,22.3-8.841t7.92-9.671A2.832,2.832,0,0,0,56.82,2.512a6.12,6.12,0,0,0-3.547-.928Q46.692,1.584,37.807,9.124Zm20.5,49.057a2.345,2.345,0,0,1-.612-1.7,6.247,6.247,0,0,1,1.008-3.188q1.008-1.684,7.569-8.02l-.081-.2-3.636,2.772-3.912,3.248-.277-.277q1.935-1.663,9.758-7.763h3.824L59.436,55.408a3.746,3.746,0,0,0-.947,1.426v.277a1.252,1.252,0,0,0,.395.911,1.334,1.334,0,0,0,.986.4,8.233,8.233,0,0,0,3.571-1.287,60.361,60.361,0,0,0,8.069-6.317l.276.277q-8.8,7.723-11.876,7.723A2.121,2.121,0,0,1,58.311,58.181ZM74.859,36.893a1.421,1.421,0,0,1-.391-1.01,2.306,2.306,0,0,1,2.146-2.1,1.256,1.256,0,0,1,.975.436,1.494,1.494,0,0,1,.39,1.03,1.848,1.848,0,0,1-.7,1.466,2.266,2.266,0,0,1-1.483.594A1.238,1.238,0,0,1,74.859,36.893Z" transform="translate(49.596 11.844)"/>
      <rect id="Rectangle_1" data-name="Rectangle 1" class="cls-3" width="154.854" height="1.228" transform="translate(4.614 75.4)"/>
    </g>
  </g>
</svg>
