<svg xmlns="http://www.w3.org/2000/svg" width="24" height="24" viewBox="0 0 24 24">
  <defs>
    <style>
      .cls-1 {
        fill: none;
      }

      .cls-2 {
        fill: #fff;
      }
    </style>
  </defs>
  <g id="Group_15096" data-name="Group 15096" transform="translate(0 -1)">
    <rect id="Rectangle_4544" data-name="Rectangle 4544" class="cls-1" width="24" height="24" transform="translate(0 1)"/>
    <g id="Group_15359" data-name="Group 15359" transform="translate(-891.594 279.336)">
      <g id="Group_15358" data-name="Group 15358" transform="translate(891.594 -278.336)">
        <path id="Path_18381" data-name="Path 18381" class="cls-2" d="M915.4-266.182c-.793-.229-1.156-.492-1.061-1.432.119-.255.426-.326.651-.421a.814.814,0,0,1,.412-.279,2.291,2.291,0,0,0-.232-1.048c-.024-.122.02-.3-.047-.4-.127-.016-.1-.112-.1-.187.071-.632-.572-.513-1.161-.517-.328-.041-.683-.81-.609-1.1.393-.6.959-.831.273-1.492a4.01,4.01,0,0,0-.605-.846c-.141-.054-.093-.238-.226-.279-.241-.059-.275.117-.442.124-.993.373-.623.313-1.491-.438-.1-.5.282-.859.256-1.3-.477-.385-.763-.553-1.2-.871-.107,0-.182-.029-.188-.132-.112-.06-.276.057-.323-.175-.661.457-.853.965-1.72.547-.015-.214-.3,0-.3-.208a3.583,3.583,0,0,1-.106-1.284,11.761,11.761,0,0,0-2.193-.273c-.409,1.013-.649,1.051-1.7.966-.209-.021-.238-.125-.3-.268-.138-.031-.1-.127-.115-.209-.079-.147-.162-.143-.151-.341-.138,0-.089-.236-.226-.285a3.415,3.415,0,0,0-.7.027c-.03.143-.144.1-.229.1-.144.02-.347-.035-.466.047-.014.109-.1.09-.163.1a.647.647,0,0,0-.541.216,2.757,2.757,0,0,1-.039.737c-.182.036-.064.286-.113.414-.257-.015-.292.2-.544.176.025.192-.331.093-.464.121a3.1,3.1,0,0,1-.939-.85,15.018,15.018,0,0,1-1.9,1.129c.211.322.044.512.234.549.106.553.076,1.106-.519,1.287-.587.438-1.223-.757-1.62-.012-.247.529-1.14,1.112-.955,1.566a6.187,6.187,0,0,1,.534.722c.295.113-.034.286-.024.423a1.264,1.264,0,0,0-.156.395c-.193.772-1.551-.18-1.639.686.008.089.02.228-.028.262-.188.125-.045.331-.145.465-.261.068.024.524-.211.621-.365.789,1.029.543,1.035,1.271-.247-.2.034.72-.229.822.05.254-.247.17-.39.2-.112.194-.29.1-.434.151-.007.181-.191.067-.268.147-.069,3.949.84,1.1,1.625,3.063.223.739-.949.866-.817,1.523.135.1.137.259.143.415.116-.114.1.109.193.315a3.9,3.9,0,0,1,.218.421c.03.159.167.233.172.389.192.36.659-.092,1.02.031.066,0,.151.02.168-.09.2-.064.349.238.459.37.206.187.517.522.258.769-.008.208-.169.265-.175.471a.114.114,0,0,0-.115.143c-.522.452.861,1.156,1.109,1.511.406.517.633-.119,1.076-.154.153-.32.614.007.838.045.022.164.186.087.254.167-.142.141.312.048.184.392-.01.386-.21.637-.136,1.056.112.036.269-.043.284.137.1.053.282-.067.286.145.089.012.22,0,.239.037.079.183.3.067.406.157.116.22.311-.041.5.226.814.039.682-1,1.264-.918.092.142.61.155.88.253.244.19,0,.541.254.707.078.169-.117.57.184.51.595-.119,1.71.275,2.053-.172.325-.225.05-1.2.832-1.07a.7.7,0,0,0,.51-.11c.08,0,.255.127.248.006.167.307.322.767.633.939.311.05.513-.158.8-.168.07-.165.3-.073.4-.145.049-.167.321-.063.4-.147.031-.1.1-.095.167-.085.371-.028.342-.619.159-.834-.16-.514.233-.775.642-.85.392-.523,1.047.393,1.458.305.031,0,.087-.011.089-.024.065-.182.258-.064.309-.254a5.439,5.439,0,0,0,.677-.522c.834-.62.346-.831-.019-1.633.129-.32.665-.989,1.046-.877.154.154.339.119.558.129.194.024.243.2.436.114.062-.549.134-.2.189-.519.148-.042.2-.583.366-.609.274-.846.538-.658-.254-1.375-.128-.21-.428-.315-.174-.55.18-2.023,1.787.323,1.565-2.465C915.542-265.6,915.742-266.147,915.4-266.182Zm-3.113-7.457c.069.025.258-.032.243.062C912.457-273.6,912.261-273.522,912.291-273.64Zm2.568,9.337c-.869.229-.887-.332-1.281.62-.111.117.056.363-.161.441-.1.13.09.432-.148.518-.139.457.863.666.67,1.209.075.226-.126.271-.143.461-.131.107-.074.339-.245.4-.177.454-.8-.005-1.2.124-.476.1-.646.737-1.028,1.063-.335.142.059.332.015.551a.767.767,0,0,1-.233,1.274c-.287.064-.346.4-.619.293-.311-.087-.721-.669-1.088-.467-.185.208-.444.21-.605.444-1.305.251-.073,1.326-.725,1.555-.841.331-1.147.783-1.7-.156-.424-.56-1.452-.151-1.95.058.044.155-.161.223-.141.419-.011.081.032.183-.1.218-.046.037-.008.262-.109.307-.388.247-.885.023-1.325.1-.256-.024-.042-.324-.247-.438-.1-.129.064-.416-.128-.532-.044-.022-.032-.158-.05-.265-.144-.029-.348.082-.431-.094-2.348-.757-.975,1.325-2.966.37-.615-.248-.066-1.221-.465-1.641-.3.043-.343-.292-.644-.3-.024-.005-.036-.069-.053-.105a1.594,1.594,0,0,0-.79-.147c0,.205-.171.11-.249.181-.162.08-.246.266-.434.222-.525-.054-1.222-.783-.934-1.353.257-.664.608-.4.048-1.1-1.147-2.058-1.536.462-2.322-1.567-.555-.81.9-.851.681-1.621-.223-.033-.2-.984-.367-1-.007-.37-.174-.164-.306-.372-.248-.1-.642.1-.845-.108a5.653,5.653,0,0,1-.254-1.363c.173-.319.487-.115.562-.342.1-.057.249.039.309-.129.1-.078.4.043.368-.2-.076-.564.169-1.039.129-1.6-.348-.057-.559-.443-.948-.57-.114-.34.154-.592.13-.921.036-.876,1.093-.153,1.506-.674.278-.686,1.008-1.217.377-1.8-.034-.207-.557-.407-.282-.633,1.2-1.876.533-.616,2.036-.687.484-.468,1.478-.982.925-1.7-.1-.764.213-.646.676-1.027.616-.352.748.129,1.234.48.313.21.688-.107.947-.219,1.475-.074.362-1.48,1.239-1.529.152-.051,1.2-.366,1.16.035,0,.118.186.157.178.344.114.1.046.289.206.325.012,0,.023.075.04.131,1.737-.221,1.8.774,2.4-.725.064-.257.064-.259.339-.246.828.255,1.479-.008,1.253,1.477.1.084.289-.04.281.175a1.553,1.553,0,0,1,.246.021c.112.2.359.082.509.254.16-.01.163.126.328.142.147-.02.115.106.257.132.251-.344.652-.476.923-.823.084.2.346.025.351.272.088.03.305-.01.158.111.312.14.734.287.658.654-.2.149-.074.325-.227.538-.245.594.541.876.822,1.318.145.048.2.285.353.26a1.6,1.6,0,0,1,1.232-.215c1.035.96.474,1.05.038,1.978,0,.265.255.417.286.733.016.061-.021.154.094.164.2,1.071,1.061.2,1.422.676.19.021.253.663.275.806.466.765-.45.7-.833,1.216.088.738-.367,1.847.641,1.856.089.226.353.037.441.23A2.509,2.509,0,0,1,914.86-264.3Z" transform="translate(-891.594 278.336)"/>
        <path id="Path_18382" data-name="Path 18382" class="cls-2" d="M1291.2-242.785Z" transform="translate(-1279.7 243.811)"/>
        <path id="Path_18383" data-name="Path 18383" class="cls-2" d="M1108.755-33.854h0S1108.754-33.854,1108.755-33.854Z" transform="translate(-1102.502 40.892)"/>
        <path id="Path_18384" data-name="Path 18384" class="cls-2" d="M996.966-185.046c-.224-.128-.047-.5-.128-.717-.219-.075-.055-.415-.14-.534-.162-.085-.084-.224-.112-.337a.613.613,0,0,1-.135-.5c-.272-.012-.035-.54-.244-.282a4.98,4.98,0,0,0-1.018-1.937,10.842,10.842,0,0,0-1.965-2.061c-.129-.063-.73-.36-.516-.38-.1-.079-.283.024-.273-.174-.289-.007-.433-.217-.66-.3-.048,0-.134-.021-.138-.042-.026-.156-.333-.058-.323-.211-.1-.038-.256.053-.276-.13-.492-.068-.8-.34-1.32-.329a9.832,9.832,0,0,0-6.365.619,9.5,9.5,0,0,0,.26,17.232A9.547,9.547,0,0,0,996.966-185.046Zm-1.442,5.36a8.2,8.2,0,0,1-2.928,3.421,6.4,6.4,0,0,1-1.774.872c-.03.264-.386-.017-.452.237-.093.063-.33-.039-.388.124-.133.069-.369-.005-.5.062-.184.24-.513.025-.743.135-.024.132-.127.112-.214.112a17.372,17.372,0,0,1-2.964-.157c-.117-.288-.484.044-.6-.229a1.156,1.156,0,0,1-.532-.162c-.1,0-.238.045-.282-.12-.075-.054-.314.041-.283-.145-.106-.043-.249.038-.3-.126-.14-.046-.2-.01-.309-.149-.145.013-.188-.092-.3-.147a8.391,8.391,0,0,1-2.606-2.221c-.406-.415-.5-.888-.87-1.267-.308-.713-.159-.718.605-.678,2.173.153,2.233-.618,1.713,1.232.424.142,2.329.339,1.424-.119-.182-.212-.562-.267-.451-.632-.162-.755.776-.373,1.243-.459-.049.274.122.362.154.584-.02.368.353.383.674.358.034-.236-.2-.422-.274-.686.358-.616,1.193-.246.975.506.349.3-.05.628.8.416a1.23,1.23,0,0,1-.2-1.194c.492.382,1.362,1.42,1.176.131.023-.347.7.025.826.148.061.109-.04.264.142.332.069.051-.055.345.108.355.044.172.2.333.2.543.229-.012.691.089.469-.255-.165-.234-.762-1.39,0-1.23-.124.219.342.04.456.014.122.209.351-.035.487.186a11.015,11.015,0,0,0,.709,1.277c1.244.124-.224-.519.359-1.178.2-.262,1.169-.352,1.229,0a.719.719,0,0,0-.112.616.2.2,0,0,1,.123.239c-.076.4.787.492.67.1-.071.1-.508-1.005-.151-1.146C993.232-179.873,996.12-180.265,995.525-179.685Zm-14.416-5.407c.775-.452.964.11.851.823.022.148-.132.125-.173.278-.07.039-.209-.013-.252.133-.139.089-.465-.078-.547.107-.006.029-.121.042-.187.047C980.588-184.154,980.666-184.9,981.109-185.093Zm-.088-1.729c-.15-.086-.179-.153-.037-.279.3-.368.258-.053.415.184A.2.2,0,0,1,981.02-186.821Zm1.929-2.242c.273.044.551-.371.552.069a4.3,4.3,0,0,0,1.131,1.525c.237,0,.33.317.591.309.07-.014.105.06.126.116.1-.216,1.45-1.186.913-.5-1.176,2.719-2.216-.517-2.9.429-.356.525-.932,1.437-1.684.973a5.2,5.2,0,0,1,.166-2.21,1.173,1.173,0,0,1,.776-.477C982.641-189.078,983.124-188.86,982.95-189.063Zm6.8,3.425c.185.251.579-.028.671.261-.61.3-1.23.144-1.708.544-.484-.037-1.05,1.921-1.1.973-.3-1.145-.084-.467-.691,0-.076.029-.36.054-.378-.062.243-.227.11-.6.373-.792C987.186-185.662,988.806-185.683,989.749-185.638Zm-.947-.853c.248-.348.681-.578,1.028-.23a.585.585,0,0,1-.653.408C988.982-186.349,988.486-186.038,988.8-186.491Zm1.145,5.838c.241.391-1.379.418-1.039-.029.162-.2.573-.933.783-.709-.022.252.166.22.15.487C989.851-180.811,989.812-180.7,989.947-180.653Zm-2.609-.682c1.07-1.52.494-.036.571.815C986.986-180.422,987.144-180.7,987.338-181.335Zm-.082-4.29c-.18.747-1.238.357-1.964.724.142.1-.406.256-.447.48-.336.151-.345-.507-.142-.623.063-.319.56-.33.708-.578.2-.158.564-.069.7-.273C986.392-185.872,987.636-186.134,987.256-185.624Zm-.732,5.1c-.6.087-.348-.184-.134-.547C986.644-181.133,986.48-180.688,986.524-180.529Zm-.95-.538c.233.532-1.118.825-.76.245.089-.091,0-.7.126-.4.006-.381,1.59-1.5,1.029-.581-.035.082-.017.25-.1.08-.08.116.047.319-.159.39C985.672-181.24,985.77-181.076,985.574-181.068Zm-1.4-4.314c-.455.515-.818-.485-1.231-.612.105-.256.6-1.165.909-1a9.841,9.841,0,0,0,1.1.777C985.208-185.97,984.263-185.612,984.174-185.382Zm-.984,1.5c-.1-.17-.8-1.958-.139-1.329C983.688-184.951,983.569-182.767,983.19-183.887Zm.065,3.116c.159-.7,1.139.114.708.25C983.738-180.565,983.04-180.365,983.255-180.771Zm-2.466-.195c.218-.324.682-.491.749-.891-.084-.167.113-.179.125-.332-.053-.362.151-.562.16-.886.317-.122.512.616.793.77.144.309-.095.563-.11.842-.155.166-.055.4-.24.539-.073.089.076.438-.183.4C981.612-180.593,979.823-180.282,980.789-180.966Zm10.288.342c-.406.307-.7.059-.541-.49C990.948-181.471,991.174-181.063,991.077-180.624Zm.653-5.442c.212-.351.3-.185.447-.387.275-.109.422.142.457.386C993.192-185.74,991.093-185.542,991.731-186.066Zm.044,4.712c.8-.18.52.509.355.959-.366.112-.217-.249-.247-.478C991.764-180.821,991.737-180.95,991.775-181.354Zm4.819-1.683c-.307.3.034.7-.225,1.128a5.938,5.938,0,0,1-.477,1.511c-.923-.107-2.069.225-2.847-.144a.139.139,0,0,1,.007-.1c.179-.03-.008-.281.183-.3a1.42,1.42,0,0,1,.276-.578c.029-.293.217-.456.2-.811.2.252.008-.276.228-.308.039-.077-.01-.215.115-.26.066-.075.136-.457.313-.4.036-.143-.059-.344.111-.4a.873.873,0,0,1,.169-.389,1.6,1.6,0,0,1,.99.2c.913-.358.266-1.092-.259-1.617-.023-.434-.173-.746-.159-1.181.131.212.178-.263.021-.35-.024-.253-.3-.381-.327-.614-.328.076.2,1.04-.385.924-.133-.033-.115.1-.219.125-.731.089-.508-.508-.737-.52-.019-.078-.044-.148.068-.18.1-.147.019-.341.042-.548-.611.23-.744.583-.666,1.224.314.106.064.521-.168.211-.118-.125-.143-.362-.312-.432-.276-.4.171-.819-.385-1.356-.386.166.037.742-.661.943-.07.218-.37.081-.541.115-.087,0-.188.008-.158-.147-.2.044-.225-.089-.316-.2-.295-.21.283-1.243-.231-.8-.38.124-.207,1.229-.387.8.036.591-.618.189-1.117.508-.04.038.031.183-.12.151a1.27,1.27,0,0,1-.581.654c-2.132-.1-3.025.562-1.245-1.628.173-.188.476-.33.534-.593,0-.1.017-.162.145-.151.025-.154-.078-.346.107-.423a13.156,13.156,0,0,1,2.545-1.75c.267-.1,1.518-.616.692-.565.005.245-.278.04-.311.225a6.162,6.162,0,0,1-.8.33c.016.211-.258.069-.239.177-.216.155-.539.205-.7.385a6.475,6.475,0,0,1-1.41.819c0,.191-.154.115-.26.145-.27.337-.288-.127-.522.533-.339.737-.613.743-1.206,1.369a2.436,2.436,0,0,1-.945-.772c-1.032-.808.218-.4.315-.986.188-.023.041-.244.236-.583.05-.133-.089-.481.144-.433.037-.2-.1-.437.1-.545.292-.3-1.237-.924-1.545-.8a5.773,5.773,0,0,0-1.058.956c-.205.1.109.167.044.386.047.042.194-.008.147.1.1.194.309.129.367.315-.189.1-.082.379-.315.446-.16-.031-.175.118-.311.145a2.313,2.313,0,0,0-1.1.733c-.057.072.005.217-.161.235a1.7,1.7,0,0,1-.4.576.579.579,0,0,1-.332.446c.028.3.209.453.441.663.084.476-.442.784-.558,1.2-.39.7-.21.582-.112,1.345.291.515.037,1.268.117,1.871.027.176-.074.258-.244.254-.063.065.021.234-.157.225-.831,1.056-.808,1.554-1.372,0a6.28,6.28,0,0,1-.176-1.657.765.765,0,0,1-.123-.6c.011-.355.077-.279.13.043.06-.653-.147-1.349.129-1.883a5.247,5.247,0,0,1,.305-1.255c.249-.058-.032-.388.224-.431.076-.088-.048-.269.135-.3a8.127,8.127,0,0,1,2.479-3.2A9.114,9.114,0,0,1,996.594-183.036Z" transform="translate(-975.495 195.707)"/>
      </g>
    </g>
  </g>
</svg>
