<svg xmlns="http://www.w3.org/2000/svg" width="97.819" height="59.734" viewBox="0 0 97.819 59.734">
  <defs>
    <style>
      .cls-1, .cls-2 {
        fill: #fff;
      }

      .cls-1 {
        fill-rule: evenodd;
      }
    </style>
  </defs>
  <g id="Group_23189" data-name="Group 23189" transform="translate(-375.222 -421.501)">
    <g id="Path_1" data-name="Path 1">
      <path id="Path_33242" data-name="Path 33242" class="cls-1" d="M408.12,428.77a4.113,4.113,0,0,1-2.791,2.542,4.043,4.043,0,0,1-1.342,3.508,4.09,4.09,0,0,1-3.58-1.156,4.092,4.092,0,0,1-3.71.564,4.159,4.159,0,0,1-.815-3.684,15.889,15.889,0,0,1,1.825-8.989,4.085,4.085,0,0,1,3.557,1.149,4.1,4.1,0,0,1,3.71-.564,4.145,4.145,0,0,1,.8,3.691A4.152,4.152,0,0,1,408.12,428.77Zm-2.675-4.839a4.554,4.554,0,0,0-2.78,1.582,4.624,4.624,0,0,0,.477-3.166,3.836,3.836,0,0,1-.833,3.113,3.019,3.019,0,0,0-2.5-.2,3.866,3.866,0,0,1-.336-3.218,4.5,4.5,0,0,0-.027,3.188,4.693,4.693,0,0,0-2.5-2,3.9,3.9,0,0,1,2.27,2.3,3.075,3.075,0,0,0-.928.889,3.125,3.125,0,0,0-.5,1.194,3.845,3.845,0,0,1-2.951-1.319,4.584,4.584,0,0,0,2.746,1.628,4.632,4.632,0,0,0-2.975,1.17,3.919,3.919,0,0,1,3.133-.831,3.1,3.1,0,0,0,1.088,2.286,3.815,3.815,0,0,1-2.615,1.9,4.5,4.5,0,0,0,2.773-1.559,4.608,4.608,0,0,0-.463,3.159,3.894,3.894,0,0,1,.84-3.136,3.119,3.119,0,0,0,2.5.213,3.833,3.833,0,0,1,.335,3.218,4.589,4.589,0,0,0,.043-3.2,4.5,4.5,0,0,0,2.487,1.985,3.852,3.852,0,0,1-2.285-2.29,3.215,3.215,0,0,0,.95-.883,3.069,3.069,0,0,0,.473-1.2,3.868,3.868,0,0,1,2.936,1.327,4.51,4.51,0,0,0-2.723-1.621,4.575,4.575,0,0,0,2.953-1.177,3.815,3.815,0,0,1-3.111.837,3.138,3.138,0,0,0-1.1-2.289A3.9,3.9,0,0,1,405.445,423.931Zm-1.535,4.508c.036,0,.058.007.094.006A.3.3,0,0,1,403.91,428.439Zm-1.362.933a1.155,1.155,0,0,1-.658,1.022,1.183,1.183,0,0,1-1.22-.133,1.1,1.1,0,0,1-1.2-.067,1.137,1.137,0,0,1-.5-1.112,1.176,1.176,0,0,1-.547-1.09,1.113,1.113,0,0,1,.717-.98,3.284,3.284,0,0,1,3.1-.825,22.534,22.534,0,0,0,1.029,2.195,1.127,1.127,0,0,1-.717.989Zm-1.5-1.489a.907.907,0,0,1-.161-.135,1.031,1.031,0,0,1-.2.105,1,1,0,0,1-.209.091.538.538,0,0,1,0,.219.735.735,0,0,1-.033.219,1.872,1.872,0,0,1,.2.1c.058.043.11.108.169.15a.944.944,0,0,1,.179-.112.955.955,0,0,1,.216-.076v-.219a1.629,1.629,0,0,1,.033-.219c-.066-.042-.139-.081-.2-.124Zm1.536-2.252c.022-.03.028-.051.057-.066-.029.015-.029.052-.049.081Zm-3.49,5.109a.311.311,0,0,0-.05.081c.007-.022.028-.052.035-.074Zm3.093.255a.118.118,0,0,0,.023.079l-.045-.086a.014.014,0,0,0,.018.005Zm-4.429-3.042a.245.245,0,0,1-.088-.028.376.376,0,0,0,.1.006c-.019.006-.019.006-.011.021Z"/>
    </g>
    <g id="Path_2" data-name="Path 2">
      <path id="Path_33243" data-name="Path 33243" class="cls-1" d="M407.436,451.244a9.1,9.1,0,0,1-6.177,5.621,8.936,8.936,0,0,1-2.966,7.758,9.046,9.046,0,0,1-7.914-2.556,9.051,9.051,0,0,1-8.2,1.246,9.2,9.2,0,0,1-1.8-8.147,9.16,9.16,0,0,1-5.157-6.512,9.1,9.1,0,0,1,6.144-5.606,9.16,9.16,0,0,1,3.048-7.76,9.029,9.029,0,0,1,7.867,2.541,9.061,9.061,0,0,1,8.206-1.247,9.161,9.161,0,0,1,1.768,8.164A9.178,9.178,0,0,1,407.436,451.244Zm-5.916-10.7c-1.156-.207-4.862,1.69-6.148,3.5,1.22-1.855,1.649-6.014,1.056-7a8.491,8.491,0,0,1-1.841,6.879,6.667,6.667,0,0,0-5.524-.439,8.55,8.55,0,0,1-.743-7.117c-.756.883-.991,5.021-.061,7.05-1.027-1.978-4.353-4.418-5.523-4.415a8.608,8.608,0,0,1,5.021,5.084,6.812,6.812,0,0,0-2.052,1.966,6.9,6.9,0,0,0-1.1,2.641,8.51,8.51,0,0,1-6.526-2.917c.4,1.086,3.857,3.38,6.073,3.6-2.216-.141-5.97,1.579-6.58,2.587a8.661,8.661,0,0,1,6.935-1.84,6.842,6.842,0,0,0,2.376,5.047,8.439,8.439,0,0,1-5.784,4.2c1.157.206,4.846-1.641,6.133-3.449-1.189,1.839-1.635,5.966-1.025,6.985a8.612,8.612,0,0,1,1.858-6.935,6.9,6.9,0,0,0,5.54.471,8.472,8.472,0,0,1,.74,7.117c.757-.881.993-5.021.094-7.066.995,2,4.354,4.418,5.506,4.383a8.518,8.518,0,0,1-5.053-5.065,7.1,7.1,0,0,0,2.1-1.952,6.8,6.8,0,0,0,1.047-2.657,8.555,8.555,0,0,1,6.5,2.938c-.371-1.1-3.838-3.349-6.023-3.586,2.2.108,5.971-1.58,6.531-2.6a8.437,8.437,0,0,1-6.88,1.852,6.933,6.933,0,0,0-2.428-5.065,8.615,8.615,0,0,1,5.785-4.2Zm-3.4,9.97c.081,0,.129.015.208.013a.684.684,0,0,1-.2-.015Zm-3.011,2.062a2.55,2.55,0,0,1-1.456,2.261,2.619,2.619,0,0,1-2.7-.293,2.442,2.442,0,0,1-2.665-.149,2.514,2.514,0,0,1-1.115-2.46,2.6,2.6,0,0,1-1.2-2.412,2.463,2.463,0,0,1,1.585-2.168,7.229,7.229,0,0,1,6.847-1.832,50.453,50.453,0,0,0,2.276,4.855,2.493,2.493,0,0,1-1.566,2.2Zm-3.326-3.293a2.134,2.134,0,0,1-.357-.3,2.281,2.281,0,0,1-.446.233,2.226,2.226,0,0,1-.462.2,1.209,1.209,0,0,1,.008.483,1.586,1.586,0,0,1-.072.484,3.967,3.967,0,0,1,.438.218c.129.1.244.238.374.332a2.105,2.105,0,0,1,.4-.248,2.18,2.18,0,0,1,.477-.168c0-.162,0-.323-.007-.484a3.785,3.785,0,0,1,.073-.485c-.129-.1-.291-.172-.421-.267Zm3.4-4.981c.048-.065.063-.113.127-.146-.064.034-.063.114-.109.179Zm-7.719,11.3a.75.75,0,0,0-.11.179c.015-.049.062-.115.077-.163Zm6.84.563c-.016.048.018.113.051.176l-.1-.191a.036.036,0,0,0,.049.013l0,0Zm-9.8-6.726a.532.532,0,0,1-.194-.062.774.774,0,0,0,.209.013c-.025.012-.025.012-.008.045Z"/>
    </g>
    <g id="Union_1" data-name="Union 1">
      <path id="Path_33244" data-name="Path 33244" class="cls-2" d="M465.675,480.375a2.335,2.335,0,0,0,.891-.5,3.228,3.228,0,0,0,.856-1.138.676.676,0,0,0,.081-.244.63.63,0,0,0-.081-.256l-2.06-5.193h1.112l1.21,3.323c.139.372.278.813.37,1.15h.03c.1-.337.22-.767.359-1.173l1.111-3.3h1.076l-1.53,4.008c-.729,1.929-1.226,2.916-1.916,3.532a2.885,2.885,0,0,1-1.25.651ZM455.164,478.8a2.675,2.675,0,0,1-2.69-2.66c0-.08,0-.16.01-.24a2.748,2.748,0,0,1,2.5-2.976c.093-.008.186-.011.28-.01a2.656,2.656,0,0,1,2.7,2.881,2.75,2.75,0,0,1-2.489,2.989,2.541,2.541,0,0,1-.289.011Zm-1.655-2.931c0,1.231.694,2.161,1.678,2.161h.012c.972,0,1.7-.918,1.7-2.2,0-.953-.475-2.149-1.678-2.149S453.509,474.8,453.509,475.867Zm-20.655,2.5a2.2,2.2,0,0,1-.393-1.475v-3.067h-.868v-.778h.868v-1.034l1-.314v1.348h1.453v.778h-1.458v3.032c0,.7.2,1.092.764,1.092a1.9,1.9,0,0,0,.59-.07l.046.778a2.757,2.757,0,0,1-.9.139A1.449,1.449,0,0,1,432.854,478.365Zm-6.848-1.185c0-1.359,1.2-2.1,3.368-2.091v-.116a1.153,1.153,0,0,0-.988-1.3,1.132,1.132,0,0,0-.285,0,2.7,2.7,0,0,0-1.47.418l-.231-.685a3.624,3.624,0,0,1,1.852-.488c1.724,0,2.141,1.173,2.141,2.3v2.1a9.47,9.47,0,0,0,.081,1.347h-.914l-.093-.709h-.035a2.067,2.067,0,0,1-1.713.836,1.6,1.6,0,0,1-1.709-1.483C426.007,477.266,426.005,477.223,426.006,477.18Zm1.019-.116a.893.893,0,0,0,.806.974.853.853,0,0,0,.143,0,1.414,1.414,0,0,0,1.376-.942,1.051,1.051,0,0,0,.046-.325V475.8h-.164C428.165,475.8,427.025,476.025,427.025,477.064Zm36.219,1.6v-3.238c0-.906-.336-1.673-1.3-1.673a1.47,1.47,0,0,0-1.36,1.045,1.536,1.536,0,0,0-.069.476v3.393h-1.021v-4.1c0-.592-.012-1.057-.046-1.522h.9l.058.918h.023a2.072,2.072,0,0,1,1.855-1.046c.775,0,1.979.465,1.979,2.393v3.357Zm-13.26,0v-3.18c0-1.092-.4-1.731-1.215-1.731a1.338,1.338,0,0,0-1.215.918,1.813,1.813,0,0,0-.081.511v3.485h-1V475.3c0-.906-.393-1.545-1.169-1.545a1.523,1.523,0,0,0-1.342,1.522v3.392h-1v-4.1c0-.592-.023-1.057-.046-1.522h.891l.046.906h.035a1.936,1.936,0,0,1,1.771-1.034,1.654,1.654,0,0,1,1.574,1.127h.023a2.208,2.208,0,0,1,.637-.732,1.879,1.879,0,0,1,1.227-.4c.752,0,1.852.488,1.852,2.439v3.311Zm-9.492,0v-5.619h1.018v5.622Zm-4.131,0,.011-3.866c0-.662-.012-1.231-.046-1.754h.891l.046,1.1h.035a1.7,1.7,0,0,1,1.562-1.231,1.087,1.087,0,0,1,.278.035v.952a3.3,3.3,0,0,0-.359-.023,1.43,1.43,0,0,0-1.366,1.3,3.2,3.2,0,0,0-.035.488v3Zm-12.209,0-.186-3.436c-.058-1.092-.127-2.416-.127-3.38h-.024c-.278.906-.59,1.893-.984,2.974l-1.377,3.8h-.763l-1.273-3.728c-.37-1.115-.671-2.114-.891-3.043H418.5c-.023.976-.081,2.277-.151,3.462l-.207,3.356h-.961l.544-7.83h1.284l1.331,3.787c.324.964.579,1.824.787,2.637h.023c.208-.79.486-1.649.833-2.637l1.39-3.787h1.284l.486,7.83Zm16.825-6.653a.634.634,0,0,1-.638-.63c0-.011,0-.021,0-.032a.637.637,0,0,1,.622-.651H441a.627.627,0,0,1,.648.605v.046a.64.64,0,0,1-.618.662.292.292,0,0,1-.042,0Z"/>
    </g>
    <g id="Union_2" data-name="Union 2">
      <path id="Path_33245" data-name="Path 33245" class="cls-2" d="M451.86,464.623a1.821,1.821,0,0,1-.448-1.227q0-1.821,2.419-4.4l4.935-5.151-.1-.071-7.79,6.341-.169-.17,6.631-5.45,2.821-2.228H458l.1-.243h2.433l4.1-4.3,2.071-.049-3.921,4.349h3.471l-.073.243h-3.7l-8.337,8.924q-1.5,1.6-1.8,2.012a1.337,1.337,0,0,0-.3.776.778.778,0,0,0,.3.62.975.975,0,0,0,.641.255q1.984,0,7.6-4.908l.17.17q-5.835,5.029-7.818,5.029A1.369,1.369,0,0,1,451.86,464.623Zm-20.27.051a1.582,1.582,0,0,1-.448-1.13q0-1.8,2.784-5.2a27.505,27.505,0,0,1,3.582-3.936l-.024-.146a12.16,12.16,0,0,0-2.566,1.871l-4.793,3.985-.169-.17q5.325-4.567,6.233-5.224a9.714,9.714,0,0,1,1.428-.9,3.072,3.072,0,0,0,.884-.608q4.113-4.422,7.891-7.872a71.951,71.951,0,0,1,6.448-5.357,8.349,8.349,0,0,1,4.466-1.907,1.6,1.6,0,0,1,1.1.4,1.177,1.177,0,0,1,.448.887q0,1.41-3.1,4.191a51.143,51.143,0,0,1-7.673,5.552,32.849,32.849,0,0,1-7.02,3.474q-.558.657-2.057,2.284l-1.936,2.138-2.445,2.916q-2.542,3.037-2.711,3.863V464q0,.8.9.8,2.08,0,7.528-4.859l.169.17-1.477,1.263q-4.4,3.768-6.392,3.767A1.4,1.4,0,0,1,431.59,464.674Zm22.123-24.9a47.429,47.429,0,0,0-6.342,5.843q-4.272,4.446-5.967,6.609a40.475,40.475,0,0,0,6.572-3.365,44.356,44.356,0,0,0,7.588-5.467q2.952-2.733,2.953-4.021a.892.892,0,0,0-.363-.692,1.386,1.386,0,0,0-.92-.3,6.7,6.7,0,0,0-3.52,1.387Zm7.274,23.191q0-2.745,3.74-5.175t5.845-2.43a1.048,1.048,0,0,1,.666.219.66.66,0,0,1,.278.534q0,1.191-2.354,2.5a13.659,13.659,0,0,1-5.217,1.628q-2.475,2.478-2.475,3.4a1.075,1.075,0,0,0,.436.814,1.5,1.5,0,0,0,1.017.377,9.158,9.158,0,0,0,3.57-1.105,25.841,25.841,0,0,0,5.41-3.778l.17.17a23.954,23.954,0,0,1-5.29,3.73A9.5,9.5,0,0,1,462.967,465a1.777,1.777,0,0,1-1.987-1.54,1.737,1.737,0,0,1,.008-.5Zm8.261-6.971a16.837,16.837,0,0,0-2.317,1.6A19.793,19.793,0,0,0,464.31,460a9.558,9.558,0,0,0,2.572-.635,9.891,9.891,0,0,0,3.07-1.637q1.224-1,1.225-1.661,0-.463-.534-.464a3.108,3.108,0,0,0-1.394.384Zm-61.853,7.074a6.338,6.338,0,0,1-1.755-4.385q0-4.325,4.03-8.009t13.494-5.357a4.724,4.724,0,0,1-1.089-1.8,32.9,32.9,0,0,1-6.487.826,9.387,9.387,0,0,1-6.087-1.749,5.039,5.039,0,0,1-2.142-3.931q0-4.348,5.01-7.119a23.423,23.423,0,0,1,11.522-2.77v.17q-7,0-11.473,3.178t-4.478,6.913a4.416,4.416,0,0,0,2.033,3.518,9.642,9.642,0,0,0,5.93,1.552,30.289,30.289,0,0,0,6.172-.8,5.5,5.5,0,0,1-.266-1.6,7.9,7.9,0,0,1,2.215-5.155,21.415,21.415,0,0,1,6.741-4.8,17.878,17.878,0,0,1,7.5-2.244,4.113,4.113,0,0,1,2.375.629,2.054,2.054,0,0,1,.92,1.8q0,2.6-5.089,6.026a41.191,41.191,0,0,1-13.718,5.413,2.574,2.574,0,0,0,.678,1.919l.6-.024a7.464,7.464,0,0,1,2.792.4q.938.4.939.911a.636.636,0,0,1-.327.534,1.258,1.258,0,0,1-.714.219,4.578,4.578,0,0,1-3.413-1.8,18.7,18.7,0,0,0-11.848,6.2q-4.611,5.2-4.611,8.892a3.671,3.671,0,0,0,1.549,2.94,6.682,6.682,0,0,0,4.284,1.239,20.155,20.155,0,0,0,10.444-3.183q5.289-3.183,5.289-6.949a2.735,2.735,0,0,0-.871-2.065,3.313,3.313,0,0,0-2.372-.826,15.813,15.813,0,0,0-8.29,2.879,23.512,23.512,0,0,0-7.1,6.718l-.169-.1a24.5,24.5,0,0,1,7.127-6.738,15.7,15.7,0,0,1,8.339-2.928,3.754,3.754,0,0,1,2.7.935,2.923,2.923,0,0,1,.98,2.174q0,3.864-5.458,7.07A20.742,20.742,0,0,1,412.8,465Q409.15,465,407.395,463.068ZM423.6,445.514a4.359,4.359,0,0,0,3.147,1.628q.774,0,.775-.535,0-.558-1.053-.85a7.522,7.522,0,0,0-2-.292Q424.181,445.467,423.6,445.514Zm5.233-11.14q-5.453,4.626-6.055,8.789,8.823-2.13,13.682-5.424t4.858-5.935a1.741,1.741,0,0,0-.822-1.489,3.761,3.761,0,0,0-2.176-.569Q434.283,429.746,428.833,434.374Zm12.578,30.091a1.436,1.436,0,0,1-.375-1.045,3.828,3.828,0,0,1,.618-1.956,39.566,39.566,0,0,1,4.643-4.92l-.05-.122-2.231,1.7-2.4,1.992-.17-.17q1.186-1.02,5.986-4.762h2.346l-7.678,7.58a2.293,2.293,0,0,0-.581.875v.17a.764.764,0,0,0,.242.559.82.82,0,0,0,.605.243,5.044,5.044,0,0,0,2.191-.79,36.977,36.977,0,0,0,4.95-3.875l.169.17q-5.4,4.738-7.286,4.738A1.3,1.3,0,0,1,441.411,464.465Zm10.152-13.059a.868.868,0,0,1-.24-.619,1.415,1.415,0,0,1,1.317-1.288.77.77,0,0,1,.6.267.918.918,0,0,1,.239.632,1.133,1.133,0,0,1-.431.9,1.391,1.391,0,0,1-.91.364A.756.756,0,0,1,451.563,451.406Z"/>
      <path id="Path_33246" data-name="Path 33246" class="cls-2" d="M432.636,465.294a1.547,1.547,0,0,1-1.155-.519,1.717,1.717,0,0,1-.488-1.233c0-1.245.922-2.977,2.818-5.291a27.6,27.6,0,0,1,3.066-3.459,11.99,11.99,0,0,0-1.856,1.448l-4.906,4.079-.377-.38.121-.1c3.6-3.084,5.637-4.8,6.243-5.232a9.84,9.84,0,0,1,1.448-.912,2.881,2.881,0,0,0,.846-.582c2.727-2.93,5.384-5.581,7.895-7.875a72.114,72.114,0,0,1,6.461-5.367,8.447,8.447,0,0,1,4.537-1.935h.052a1.735,1.735,0,0,1,1.163.437,1.315,1.315,0,0,1,.5.993c0,1-1.03,2.4-3.148,4.307a51.5,51.5,0,0,1-7.7,5.569,33,33,0,0,1-7.009,3.473c-.379.445-1.063,1.2-2.034,2.258l-1.935,2.136-2.441,2.913c-1.672,2-2.573,3.273-2.679,3.8l0,.19c0,.451.231.652.751.652,1.342,0,3.841-1.622,7.429-4.821l.105-.094.381.383-1.6,1.367c-2.991,2.559-5.113,3.8-6.489,3.8Zm4.96-11.262.072.432-.061.055a27.365,27.365,0,0,0-3.562,3.915c-1.829,2.233-2.755,3.951-2.755,5.11a1.425,1.425,0,0,0,.406,1.026l0,.005a1.247,1.247,0,0,0,.936.422h0a2.849,2.849,0,0,0,.781-.124,2.575,2.575,0,0,1-.609.08c-.867,0-1.048-.516-1.048-.949v-.219c.121-.61,1.018-1.895,2.745-3.959l2.444-2.916,1.941-2.141c.991-1.077,1.682-1.843,2.053-2.281l.027-.031.037-.013.046-.016.229-.293c1.133-1.446,3.145-3.673,5.978-6.62a47.764,47.764,0,0,1,6.312-5.823v0l.046-.036a6.863,6.863,0,0,1,.983-.639,8.218,8.218,0,0,0-1.67,1.089,72.079,72.079,0,0,0-6.443,5.352c-2.507,2.29-5.158,4.936-7.884,7.864a3.19,3.19,0,0,1-.93.643,9.472,9.472,0,0,0-1.23.756q.468-.314.963-.583Zm-2.712,1.93q-.5.411-1.153.965l1.092-.908C434.843,456,434.863,455.98,434.884,455.962Zm18.967-16.111-.048.042a47.314,47.314,0,0,0-6.322,5.824c-2.551,2.654-4.432,4.721-5.6,6.154a40.4,40.4,0,0,0,6.018-3.135,44.445,44.445,0,0,0,7.569-5.452c1.926-1.783,2.9-3.1,2.9-3.911a.733.733,0,0,0-.3-.571,1.188,1.188,0,0,0-.826-.273A6.536,6.536,0,0,0,453.851,439.851Zm3.435-1.62a1.536,1.536,0,0,1,.96.334,1.028,1.028,0,0,1,.419.8,3.34,3.34,0,0,1-.838,1.837,3.341,3.341,0,0,0,.878-1.839,1.017,1.017,0,0,0-.392-.769,1.465,1.465,0,0,0-1-.369l-.028,0Zm-4.353,27.063a1.516,1.516,0,0,1-1.188-.576,1.965,1.965,0,0,1-.481-1.324c0-1.247.827-2.761,2.459-4.5l3.924-4.1-6.778,5.517-.379-.38,6.757-5.554,2.488-1.965h-1.961l.222-.54h2.469l4.1-4.3,2.478-.059-3.929,4.358h3.338l-.163.54h-3.746l-8.293,8.877c-.988,1.055-1.591,1.727-1.788,2a1.188,1.188,0,0,0-.272.7.622.622,0,0,0,.244.495.838.838,0,0,0,.551.224c1.278,0,3.8-1.639,7.5-4.872l.105-.091.381.381-.121.105C456.894,463.637,454.3,465.294,452.933,465.294Zm5.767-11.683.289.216-5.051,5.272c-1.577,1.68-2.377,3.127-2.377,4.3a1.669,1.669,0,0,0,.411,1.129l0,.006a1.216,1.216,0,0,0,.889.464,1.138,1.138,0,0,1-.625-.285.92.92,0,0,1-.348-.731,1.475,1.475,0,0,1,.333-.87c.2-.274.809-.956,1.806-2.019l8.381-8.971h.081l3.866-4.287-1.665.04-4.1,4.3h-.07Zm4.036,11.555a1.925,1.925,0,0,1-1.9-1.685,1.939,1.939,0,0,1,.006-.527c0-1.87,1.286-3.649,3.808-5.289,2.505-1.628,4.5-2.453,5.925-2.453a1.2,1.2,0,0,1,.757.25.8.8,0,0,1,.336.65c0,.862-.8,1.721-2.43,2.631a13.76,13.76,0,0,1-5.222,1.641c-1.977,1.986-2.394,2.868-2.394,3.258a.927.927,0,0,0,.376.694,1.3,1.3,0,0,0,.927.348,8.99,8.99,0,0,0,3.5-1.086,25.719,25.719,0,0,0,5.382-3.759l.1-.1.379.379-.112.105a24.133,24.133,0,0,1-5.322,3.753,9.585,9.585,0,0,1-3.873,1.17A1.98,1.98,0,0,1,462.736,465.166Zm-1.709-2.2.107.017a1.59,1.59,0,0,0-.007.462,1.614,1.614,0,0,0,.618,1.083c.032.026.067.05.1.073l-.039-.034a1.214,1.214,0,0,1-.486-.918c0-.668.824-1.814,2.518-3.511l.038-.038.053-.005.105-.012.165-.181a19.931,19.931,0,0,1,2.641-2.424,17.03,17.03,0,0,1,2.272-1.577v-.007l.064-.035a3.262,3.262,0,0,1,.728-.293,14.485,14.485,0,0,0-5.1,2.35c-2.438,1.583-3.673,3.282-3.673,5.05Zm8.339-6.871-.044.029a16.744,16.744,0,0,0-2.3,1.586A19.852,19.852,0,0,0,464.7,459.8a9.44,9.44,0,0,0,2.13-.574,9.736,9.736,0,0,0,3.034-1.617c.965-.788,1.168-1.274,1.168-1.544,0-.164-.047-.315-.385-.315A2.973,2.973,0,0,0,469.366,456.094Zm1.932-.235a.821.821,0,0,1,.027.209c0,.493-.418,1.074-1.279,1.777-.179.14-.361.274-.548.4,1.24-.753,1.869-1.47,1.869-2.133A.512.512,0,0,0,471.3,455.859Zm-58.489,9.289c-2.473,0-4.33-.666-5.523-1.978a6.469,6.469,0,0,1-1.8-4.486c0-2.913,1.372-5.646,4.078-8.12,2.658-2.428,7.132-4.227,13.3-5.345a4.9,4.9,0,0,1-.894-1.527,33.127,33.127,0,0,1-6.387.8,9.549,9.549,0,0,1-6.178-1.776,5.221,5.221,0,0,1-2.2-4.046c0-2.95,1.712-5.389,5.087-7.255a23.685,23.685,0,0,1,11.6-2.788l.145,0v.464h-.148c-4.614,0-8.445,1.059-11.387,3.15-2.927,2.079-4.412,4.364-4.416,6.792a4.277,4.277,0,0,0,1.965,3.394,9.531,9.531,0,0,0,5.84,1.528,30.253,30.253,0,0,0,5.994-.76,5.641,5.641,0,0,1-.227-1.489,8.052,8.052,0,0,1,2.257-5.262,21.473,21.473,0,0,1,6.786-4.832,18.146,18.146,0,0,1,7.551-2.257,4.261,4.261,0,0,1,2.465.652,2.218,2.218,0,0,1,.989,1.932c0,1.8-1.686,3.808-5.154,6.143a41.348,41.348,0,0,1-13.658,5.409,2.448,2.448,0,0,0,.6,1.649l.53-.021a7.624,7.624,0,0,1,2.848.407c.7.3,1.037.642,1.038,1.052a.793.793,0,0,1-.4.664,1.411,1.411,0,0,1-.787.237,4.715,4.715,0,0,1-3.478-1.791,18.532,18.532,0,0,0-11.671,6.142c-3.035,3.423-4.574,6.381-4.574,8.793a3.537,3.537,0,0,0,1.486,2.819,6.518,6.518,0,0,0,4.19,1.212,20.01,20.01,0,0,0,10.373-3.16c3.466-2.086,5.221-4.381,5.221-6.824a2.588,2.588,0,0,0-.824-1.956,3.151,3.151,0,0,0-2.263-.786,15.643,15.643,0,0,0-8.212,2.851,23.225,23.225,0,0,0-7.064,6.681l-.078.114-.428-.251.093-.132a24.478,24.478,0,0,1,7.171-6.779,15.8,15.8,0,0,1,8.409-2.95,3.9,3.9,0,0,1,2.806.972,3.073,3.073,0,0,1,1.03,2.286c0,2.619-1.861,5.041-5.531,7.2A20.885,20.885,0,0,1,412.809,465.148Zm6.523-18.86c-4.283,1.1-7.49,2.6-9.561,4.495-2.643,2.416-3.983,5.074-3.983,7.9a6.171,6.171,0,0,0,1.714,4.282l0,0a4.68,4.68,0,0,0,.516.489,3.84,3.84,0,0,1-1.321-2.831c0-2.489,1.565-5.514,4.649-8.992A18.814,18.814,0,0,1,419.332,446.288Zm9.112,7.5a2.9,2.9,0,0,1,.119.892,6.559,6.559,0,0,1-2.114,4.579,6.394,6.394,0,0,0,2.161-4.533A2.772,2.772,0,0,0,428.444,453.784ZM423.9,445.64a4.221,4.221,0,0,0,2.853,1.354c.617,0,.617-.271.617-.387,0-.295-.317-.534-.944-.707a7.424,7.424,0,0,0-1.962-.287C424.333,445.614,424.144,445.623,423.9,445.64Zm-1.7-2.211.014.042a4.606,4.606,0,0,0,.668,1.286,2.74,2.74,0,0,1-.28-1.393v-.007l-.006,0,.032-.217c.4-2.8,2.46-5.788,6.106-8.881a20.972,20.972,0,0,1,7.019-4.245,17.85,17.85,0,0,0-4.919,1.864,21.192,21.192,0,0,0-6.706,4.772,7.751,7.751,0,0,0-2.174,5.06,5.383,5.383,0,0,0,.26,1.548l.049.153Zm-7.4-12.854a23.131,23.131,0,0,0-2.364,1.1c-3.272,1.808-4.932,4.16-4.932,6.988a4.923,4.923,0,0,0,2.079,3.811,9.238,9.238,0,0,0,2.461,1.258,9.676,9.676,0,0,1-2.155-1.054,4.574,4.574,0,0,1-2.1-3.636c0-2.536,1.531-4.9,4.541-7.041A15.357,15.357,0,0,1,414.8,430.575Zm23.7-.685c-.059,0-.118,0-.178,0-2.648,0-5.807,1.544-9.4,4.592h0c-3.493,2.964-5.5,5.816-5.97,8.479,5.735-1.4,10.249-3.2,13.418-5.35s4.793-4.111,4.792-5.811a1.6,1.6,0,0,0-.751-1.364A3.589,3.589,0,0,0,438.5,429.89ZM442.333,465a1.448,1.448,0,0,1-1.028-.433l0,0a1.592,1.592,0,0,1-.414-1.153,3.975,3.975,0,0,1,.641-2.029,39.7,39.7,0,0,1,3.42-3.785l-.844.642-2.5,2.074-.38-.377.122-.105c.8-.688,2.817-2.292,5.992-4.767l.04-.031h2.758l-7.935,7.834a2.153,2.153,0,0,0-.537.8v.143a.618.618,0,0,0,.2.45.715.715,0,0,0,.5.2,4.931,4.931,0,0,0,2.114-.766,36.966,36.966,0,0,0,4.929-3.859l.106-.1.382.385-.12.1C446.111,463.439,443.7,465,442.39,465Zm-.814-.64a1.063,1.063,0,0,0,.176.147l-.04-.038a.916.916,0,0,1-.285-.663l.009-.222a2.479,2.479,0,0,1,.619-.932l7.418-7.323h-1.934l-1.152.9.144.354-.078.069a39.559,39.559,0,0,0-4.626,4.9,3.665,3.665,0,0,0-.585,1.868A1.29,1.29,0,0,0,441.519,464.362Zm10.614-12.551a.912.912,0,0,1-.68-.3,1.023,1.023,0,0,1-.279-.723,1.557,1.557,0,0,1,1.456-1.433.941.941,0,0,1,.723.319,1.054,1.054,0,0,1,.274.731,1.281,1.281,0,0,1-.487,1.013,1.524,1.524,0,0,1-1,.4Zm.523-2.164h-.013a1.26,1.26,0,0,0-1.173,1.153.724.724,0,0,0,.2.5l0,0a.614.614,0,0,0,.457.206h.006a1.232,1.232,0,0,0,.81-.326.994.994,0,0,0,.383-.788.764.764,0,0,0-.2-.533A.625.625,0,0,0,452.656,449.647Z"/>
    </g>
    <g id="Rectangle_1" data-name="Rectangle 1">
      <rect id="Rectangle_5575" data-name="Rectangle 5575" class="cls-2" width="94.996" height="0.753" transform="translate(378.045 467.762)"/>
    </g>
  </g>
</svg>
