<svg xmlns="http://www.w3.org/2000/svg" xmlns:xlink="http://www.w3.org/1999/xlink" width="24.004" height="24" viewBox="0 0 24.004 24">
  <defs>
    <style>
      .cls-1, .cls-5 {
        fill: #fff;
      }

      .cls-1 {
        clip-rule: evenodd;
      }

      .cls-2 {
        fill: none;
      }

      .cls-3 {
        fill: #f1f1f1;
      }

      .cls-4 {
        clip-path: url(#clip-path);
      }
    </style>
    <clipPath id="clip-path">
      <path id="Path_17773" data-name="Path 17773" class="cls-1" d="M42.33,265.074a21.633,21.633,0,0,0-1.976,1.565c-5.225,4.755-7.377,11.3-4.808,14.57,2.656,3.272,9.067,2.073,14.358-2.743a18.52,18.52,0,0,0,5.576-8.352,7.359,7.359,0,0,0-1.076-5.243c-2.283-2.906-7.179-2.682-12.075.2" transform="translate(-34.462 -262.798)"/>
    </clipPath>
  </defs>
  <g id="Group_15096" data-name="Group 15096" transform="translate(0.004)">
    <rect id="Rectangle_4544" data-name="Rectangle 4544" class="cls-2" width="24" height="24"/>
    <g id="Group_15334" data-name="Group 15334" transform="translate(-6080 237)">
      <path id="Exclusion_15" data-name="Exclusion 15" class="cls-3" d="M5.521,24a5.648,5.648,0,0,1-4.337-2.068C-.2,20.13-.376,17.4.681,14.239a22.274,22.274,0,0,1,6.1-9.005C10.346,1.956,14.538,0,18,0a5.8,5.8,0,0,1,4.811,2.081c2.877,3.744.366,11.235-5.6,16.7a23.732,23.732,0,0,1-3.622,2.753,1.482,1.482,0,0,1-.416.067.732.732,0,0,1-.615-.293c-.525-.694-.331-2.607.579-5.685.726-2.457,1.689-4.919,2.1-5.97.072-.183.123-.315.151-.391A1.161,1.161,0,0,0,15.3,8.095a1.92,1.92,0,0,0-1.554-.583,3.725,3.725,0,0,0-.931.122,22.39,22.39,0,0,0-5.972,3.945c-.352.4-.494.718-.4.9a.361.361,0,0,0,.346.16,1.125,1.125,0,0,0,.492-.13,4.3,4.3,0,0,1,1.888-.588,1.1,1.1,0,0,1,.9.365c.275.332.258,1.906-.306,4.27A25.539,25.539,0,0,1,8.12,21.22C7.266,22.978,6.4,23.887,5.481,24h.04ZM16.952,1.849A3.99,3.99,0,0,0,14.444,3a3.514,3.514,0,0,0-1.252,2.361,1.072,1.072,0,0,0,.352.813,1.3,1.3,0,0,0,.9.3,4.021,4.021,0,0,0,2.523-1.157c1.2-1.128,1.591-2.513.9-3.153A1.3,1.3,0,0,0,16.952,1.849Z" transform="translate(6079.996 -237)"/>
      <g id="Mask_Group_4104" data-name="Mask Group 4104" class="cls-4" transform="translate(6082.862 -236.953)">
        <path id="Exclusion_14" data-name="Exclusion 14" class="cls-5" d="M3.611,24.051a8.918,8.918,0,0,1-1.274-.091l.085,0c1,0,1.924-.912,2.836-2.789.141-.3.277-.6.405-.906a11.492,11.492,0,0,0,3.768-.792,2.453,2.453,0,0,0,.335,1.868.739.739,0,0,0,.543.21,1.584,1.584,0,0,0,.5-.095A12.781,12.781,0,0,1,3.611,24.051Zm1.858-3.782a5.4,5.4,0,0,1-4.382-1.842C-1.488,15.146.669,8.6,5.894,3.845A21.583,21.583,0,0,1,7.871,2.278,14.865,14.865,0,0,1,15.12,0a5.86,5.86,0,0,1,4.825,2.075,7.317,7.317,0,0,1,1.075,5.248,18.478,18.478,0,0,1-5.576,8.359,19.167,19.167,0,0,1-6.014,3.793c.164-1.982,1.155-5.3,2.944-9.877.07-.179.121-.31.149-.384a1.162,1.162,0,0,0-.084-1.166,1.921,1.921,0,0,0-1.554-.583,3.717,3.717,0,0,0-.931.122,22.417,22.417,0,0,0-5.972,3.945c-.352.4-.493.718-.4.905a.361.361,0,0,0,.346.161,1.119,1.119,0,0,0,.491-.13,4.308,4.308,0,0,1,1.89-.588,1.1,1.1,0,0,1,.9.364c.275.333.258,1.907-.307,4.271a26.632,26.632,0,0,1-1.241,3.752ZM14.088,1.8a3.991,3.991,0,0,0-2.508,1.146,3.511,3.511,0,0,0-1.252,2.359,1.074,1.074,0,0,0,.352.814,1.3,1.3,0,0,0,.9.3,4.021,4.021,0,0,0,2.523-1.157C15.3,4.14,15.7,2.755,15,2.116A1.3,1.3,0,0,0,14.088,1.8Z" transform="translate(-0.002 0)"/>
      </g>
    </g>
  </g>
</svg>
