<svg xmlns="http://www.w3.org/2000/svg" width="25.001" height="24" viewBox="0 0 25.001 24">
  <defs>
    <style>
      .cls-1 {
        fill: none;
      }

      .cls-2 {
        fill: #fff;
        stroke: rgba(0,0,0,0);
        stroke-miterlimit: 10;
      }
    </style>
  </defs>
  <g id="Group_15096" data-name="Group 15096" transform="translate(-0.499)">
    <rect id="Rectangle_4544" data-name="Rectangle 4544" class="cls-1" width="24" height="24" transform="translate(1)"/>
    <g id="Group_20196" data-name="Group 20196" transform="translate(-265 -411.89)">
      <path id="Subtraction_1" data-name="Subtraction 1" class="cls-2" d="M-13780,1269.538c-6.617,0-12-4.632-12-10.325s5.383-10.322,12-10.322,12,4.63,12,10.322S-13773.384,1269.538-13780,1269.538Zm-1.467-5.929v0l-.031,3.809,2.91-.99-.027-3.821a4.954,4.954,0,0,0,3.751,2.112c2.021,0,3.517-1.687,3.905-4.4l-1.339-.059a2.649,2.649,0,0,1-2.626,1.617,8.035,8.035,0,0,1-3.709-1.136l0-.585c1.722-2.057,3.152-3.056,4.376-3.056a2.579,2.579,0,0,1,2.021,1.121h1.222c-.5-2.73-1.895-4.158-4.25-4.365a5.345,5.345,0,0,0-3.4,1.329l-.03-3.891-2.68.872-.024,3.3c-.086-.072-.169-.145-.251-.217l-.084-.074a5.485,5.485,0,0,0-1.185-.869,3.94,3.94,0,0,0-1.756-.446,3.3,3.3,0,0,0-.6.055,4.1,4.1,0,0,0-3.2,2.5,8.8,8.8,0,0,0-.177,4.717c.7,2.277,2.279,3.637,4.22,3.637a4.613,4.613,0,0,0,2.972-1.161Zm-3.947-2.09a2.418,2.418,0,0,1-2.144-1.14,2.248,2.248,0,0,1,.036-2.26,3.512,3.512,0,0,1,2.963-1.385c.107,0,.22.006.343.017h.018a6.516,6.516,0,0,1,2.776.858l-.011,1.115c-.8,1.082-2.023,2.544-3.5,2.759A3.4,3.4,0,0,1-13785.415,1261.519Z" transform="translate(14058 -835)"/>
    </g>
  </g>
</svg>
