<svg xmlns="http://www.w3.org/2000/svg" width="12.75" height="16" viewBox="0 0 12.75 16">
  <defs>
    <style>
      .cls-1 {
        fill: #fff;
      }
    </style>
  </defs>
  <g id="unlock" transform="translate(-52 0)">
    <g id="Group_15223" data-name="Group 15223" transform="translate(52 0)">
      <g id="Group_15222" data-name="Group 15222" transform="translate(0 0)">
        <path id="Path_16428" data-name="Path 16428" class="cls-1" d="M62.875,5.875H56.249V3.305a2.126,2.126,0,0,1,4.25,0V6.5h1.25V3.305a3.376,3.376,0,0,0-6.75,0v2.57H53.875A1.877,1.877,0,0,0,52,7.75v6.375A1.877,1.877,0,0,0,53.875,16h9a1.877,1.877,0,0,0,1.875-1.875V7.75A1.877,1.877,0,0,0,62.875,5.875Zm.625,8.25a.626.626,0,0,1-.625.625h-9a.626.626,0,0,1-.625-.625V7.75a.626.626,0,0,1,.625-.625h9a.626.626,0,0,1,.625.625Z" transform="translate(-52 0)"/>
      </g>
    </g>
    <g id="Group_15225" data-name="Group 15225" transform="translate(57.219 8.938)">
      <g id="Group_15224" data-name="Group 15224" transform="translate(0)">
        <path id="Path_16429" data-name="Path 16429" class="cls-1" d="M220.156,286a1.156,1.156,0,0,0-.626,2.128V289.5a.625.625,0,0,0,1.25,0v-1.37a1.156,1.156,0,0,0-.624-2.13Z" transform="translate(-219 -286)"/>
      </g>
    </g>
  </g>
</svg>
