<svg xmlns="http://www.w3.org/2000/svg" width="6.339" height="11.153" viewBox="0 0 6.339 11.153">
  <defs>
    <style>
      .cls-1 {
        fill: #fff;
      }
    </style>
  </defs>
  <g id="Path_5725" data-name="Path 5725" transform="translate(306.505 -219.815) rotate(90)">
    <path id="Path_20036" data-name="Path 20036" class="cls-1" d="M225.623,300.921a.219.219,0,0,1,.155.064l4.825,4.825a.219.219,0,0,1-.31.31l-4.672-4.672-4.672,4.672a.22.22,0,0,1-.328-.292l.012-.012.006-.006,4.825-4.825A.217.217,0,0,1,225.623,300.921Z" transform="translate(-0.219 -0.22)"/>
    <path id="Path_20037" data-name="Path 20037" class="cls-1" d="M220.573,306.505a.761.761,0,0,1-.506-.191.752.752,0,0,1-.061-1.06l.05-.051,4.813-4.814a.656.656,0,0,1,.539-.219.748.748,0,0,1,.524.217l4.826,4.827a.755.755,0,0,1-.029,1.075.748.748,0,0,1-1.014,0l-4.314-4.313-4.3,4.3A.711.711,0,0,1,220.573,306.505Zm-.214-.985a.275.275,0,0,0-.025.025Z" transform="translate(0)"/>
  </g>
</svg>
