<svg id="Group_15096" data-name="Group 15096" xmlns="http://www.w3.org/2000/svg" width="24.001" height="24" viewBox="0 0 24.001 24">
  <defs>
    <style>
      .cls-1 {
        fill: none;
      }

      .cls-2 {
        fill: #fff;
      }
    </style>
  </defs>
  <rect id="Rectangle_4544" data-name="Rectangle 4544" class="cls-1" width="24" height="24"/>
  <g id="sbi-state-bank-of-india" transform="translate(0 0.059)">
    <path id="Exclusion_13" data-name="Exclusion 13" class="cls-2" d="M-6032,259.94h0c-.089,0-.179,0-.269,0h.539l-.008,0H-6032Zm-.748-.022h0A12.012,12.012,0,0,1-6044,247.946v-.006a11.918,11.918,0,0,1,3.513-8.484,11.923,11.923,0,0,1,8.484-3.516,11.927,11.927,0,0,1,8.488,3.513,11.913,11.913,0,0,1,3.516,8.481v.006a12.013,12.013,0,0,1-11.255,11.977v-9.949a2.168,2.168,0,0,0,1.415-2.03,2.161,2.161,0,0,0-2.16-2.158,2.162,2.162,0,0,0-2.16,2.158,2.169,2.169,0,0,0,1.416,2.03v9.949Z" transform="translate(6044 -236)"/>
  </g>
</svg>
