<svg id="Group_15096" data-name="Group 15096" xmlns="http://www.w3.org/2000/svg" width="24" height="24" viewBox="0 0 24 24">
  <defs>
    <style>
      .cls-1 {
        fill: #fff;
      }

      .cls-2 {
        fill: none;
      }
    </style>
  </defs>
  <path id="Exclusion_9" data-name="Exclusion 9" class="cls-1" d="M786-80H766a2,2,0,0,1-2-2V-94a2,2,0,0,1,2-2h20a2,2,0,0,1,2,2v12A2,2,0,0,1,786-80Zm-12.16-5.336c.121,0,.22,0,.31.009h.041c.156,0,.229-.064.27-.238.077-.323.161-.649.243-.965l0-.007v-.005c.072-.278.147-.565.215-.848a.289.289,0,0,1,.336-.263h.008c.929.006,1.856.007,2.56.007h2.13a.946.946,0,0,0,1.03-.777c.153-.55.316-1.15.513-1.889a.582.582,0,0,0-.038-.516.59.59,0,0,0-.495-.172h-.419c-.525,0-1.075,0-1.634.008-1.122.01-2.448.024-3.776.046-.081,0-.218.044-.242.1-.082.207-.149.422-.22.65-.027.088-.054.176-.084.267h5.772c-.033.1-.066.2-.1.3l0,.008c-.074.22-.143.427-.192.637-.056.235-.161.314-.415.314-.949,0-1.912.007-2.844.013H776.8c-.735.005-1.5.011-2.244.013a.292.292,0,0,0-.343.264c-.061.254-.137.508-.211.754l0,.009c-.039.129-.079.263-.116.395-.117.419-.233.839-.352,1.27l-.008.031-.162.587h.247Zm7.527-.1c.122,0,.221,0,.312.01l.046,0c.157,0,.236-.069.284-.246.231-.847.471-1.707.7-2.538l.011-.039.252-.9c.135-.486.272-.972.415-1.48l.007-.027.094-.336h-.066l-.179,0-.216,0c-.108,0-.2,0-.277-.01l-.069,0c-.192,0-.286.082-.347.3-.246.893-.507,1.8-.76,2.674l0,.014q-.169.585-.337,1.171c-.1.34-.193.687-.286,1.023l-.106.383h.08l.2,0Zm-13.781-5.522c-.156,0-.212.088-.251.229-.329,1.188-.662,2.379-.985,3.53l-.3,1.086a.594.594,0,0,0,.021.519.6.6,0,0,0,.5.162h5.423c.444,0,.566-.095.69-.535q.351-1.247.705-2.493.27-.951.539-1.9c.036-.127.067-.255.1-.39l0-.007c.015-.063.031-.128.048-.195h-.522c-.13,0-.235,0-.332-.005H773.2c-.136,0-.2.055-.241.2q-.208.773-.42,1.544l-.014.051,0,.014c-.218.8-.443,1.621-.658,2.434-.05.192-.126.253-.31.253h-.012c-.755-.011-1.52-.014-2.26-.017l-.6,0h-1.43l.084-.312c.072-.267.139-.518.208-.762l.122-.434c.25-.893.509-1.816.775-2.728.028-.1.029-.157,0-.193s-.072-.047-.153-.047h-.026l-.055,0c-.1,0-.2.006-.294.006s-.2,0-.284-.011Zm16.874,0h0l-1.539,5.39,1.06-.948.012-.011.18-.161.03.025.025.02c-.089.327-.178.654-.278,1.023l.053-.024a.189.189,0,0,0,.051-.028l.212-.192c.814-.737,1.655-1.5,2.475-2.255a.3.3,0,0,0,.023-.273c-.236-.489-.485-.978-.725-1.451l-.177-.348-.207-.408-.18-.353c-.086.281-.163.536-.243.8l-.135.446-.638-1.252Z" transform="translate(-764 100)"/>
  <rect id="Rectangle_4544" data-name="Rectangle 4544" class="cls-2" width="24" height="24"/>
</svg>
